<svg width="574" height="350" viewBox="0 0 574 350" fill="none" xmlns="http://www.w3.org/2000/svg">
<g clip-path="url(#clip0_8_116)">
<path fill-rule="evenodd" clip-rule="evenodd" d="M329.291 327.825C386.212 327.825 438.595 328.677 480.163 330.104C581.894 271.939 546.667 158.569 510.143 94.4422C459.308 5.18215 339.181 -26.8867 289.495 44.3241C222.058 140.979 156.998 107.249 121.869 180.669C86.7397 254.09 140.09 324.434 178.418 330.104C219.985 328.677 272.368 327.825 329.291 327.825ZM240.155 80.3251C214.114 100.149 171.046 115.511 156.745 94.4343C146.059 78.69 159.221 49.1502 184.999 26.7495C210.776 4.34877 245.288 -9.17764 264.082 7.29194C286.419 26.8603 260.209 65.0607 240.155 80.3251Z" fill="#E9EEF7"/>
<path fill-rule="evenodd" clip-rule="evenodd" d="M329.289 327.825C464.438 327.825 574 332.625 574 338.545C574 344.466 464.438 349.266 329.289 349.266C194.139 349.266 84.583 344.466 84.583 338.545C84.583 332.625 194.139 327.825 329.289 327.825Z" fill="#D1DEED"/>
<path fill-rule="evenodd" clip-rule="evenodd" d="M408.206 31.9053C469.321 45.524 508.213 101.747 512.025 128.89C513.589 140.027 510.691 113.96 479.514 90.2279C451.651 69.0166 429.947 65.0871 396.808 62.5369C373.382 60.7251 348.849 57.8452 350.592 43.8679C351.971 32.831 368.747 23.1233 408.206 31.9159V31.9053ZM248.392 9.16702C258.914 9.79996 265.318 18.4396 265.759 28.4189C265.946 32.6569 262.616 21.5621 250.952 20.0298C243.717 19.0725 242.631 21.206 240.039 18.218C237.447 15.23 239.907 8.6554 248.392 9.16702Z" fill="white"/>
<path fill-rule="evenodd" clip-rule="evenodd" d="M171.658 303.122C168.866 299.63 164.94 296.743 163.788 292.42C162.428 287.32 165.423 281.953 164.679 276.726C163.749 270.149 157.416 265.884 153.975 260.201C150.611 254.631 152.187 252.761 151.879 246.263C151.418 236.471 143.389 224.11 132.69 227.425C121.83 230.796 123.605 240.894 125.516 248.494C126.877 253.903 125.988 254.681 124.662 260.098C123.064 266.646 117.91 272.973 120.066 279.35C121.398 283.306 125.271 285.967 126.658 289.899C128.24 294.348 126.326 299.171 125.585 303.837C124.026 313.66 126.262 321.831 133.397 329.945C134.154 330.668 134.952 331.346 135.785 331.979C145.778 331.417 157.025 330.895 169.351 330.428L169.441 330.33C175.982 323.205 177.928 310.973 171.658 303.122Z" fill="#D1DEED"/>
<path fill-rule="evenodd" clip-rule="evenodd" d="M137.625 236.268C137.585 236.162 137.524 236.066 137.447 235.984C137.369 235.902 137.276 235.836 137.173 235.79C137.07 235.744 136.959 235.719 136.846 235.716C136.733 235.713 136.621 235.732 136.515 235.772C136.41 235.812 136.314 235.873 136.232 235.951C136.15 236.028 136.084 236.121 136.038 236.225C135.992 236.328 135.966 236.439 135.963 236.552C135.96 236.665 135.979 236.777 136.02 236.882C136.881 239.158 137.607 241.482 138.195 243.842C137.947 243.621 137.691 243.402 137.43 243.193C136.209 242.222 134.877 241.397 133.462 240.738C133.36 240.69 133.25 240.663 133.137 240.657C133.025 240.652 132.912 240.669 132.806 240.707C132.7 240.745 132.603 240.804 132.52 240.88C132.436 240.956 132.369 241.047 132.321 241.149C132.273 241.251 132.245 241.362 132.24 241.474C132.235 241.587 132.252 241.7 132.29 241.806C132.328 241.912 132.387 242.009 132.463 242.092C132.539 242.176 132.63 242.243 132.732 242.291C134.026 242.892 135.244 243.645 136.36 244.533C137.343 245.318 138.222 246.226 138.973 247.236C140.072 252.479 140.787 258.112 141.433 264.051C140.492 262.575 139.425 261.183 138.245 259.89C136.402 257.849 134.196 256.167 131.741 254.929C131.64 254.876 131.529 254.843 131.415 254.833C131.301 254.823 131.186 254.836 131.078 254.871C130.969 254.907 130.868 254.963 130.782 255.038C130.695 255.112 130.624 255.203 130.573 255.306C130.523 255.408 130.493 255.52 130.486 255.634C130.479 255.748 130.494 255.862 130.532 255.97C130.57 256.078 130.629 256.177 130.706 256.262C130.782 256.347 130.875 256.416 130.979 256.464C133.248 257.612 135.285 259.171 136.987 261.061C138.939 263.238 140.586 265.67 141.881 268.292L142.047 269.906C142.413 273.445 142.788 277.077 143.228 280.785C143.228 280.819 143.228 280.856 143.241 280.89C143.708 284.767 144.248 288.725 144.929 292.758C143.186 290.036 141.181 287.492 138.941 285.162C135.981 282.055 132.493 279.498 128.64 277.609C128.435 277.51 128.199 277.497 127.985 277.572C127.77 277.647 127.593 277.804 127.495 278.009C127.396 278.214 127.382 278.45 127.457 278.665C127.532 278.879 127.689 279.056 127.894 279.155C131.568 280.952 134.894 283.386 137.718 286.344C140.706 289.414 143.408 293.164 145.825 297.594C146.898 303.091 148.297 308.518 150.015 313.848V313.869C150.893 316.562 151.882 319.269 152.981 321.989C146.854 316.69 139.521 312.977 131.625 311.176C131.515 311.15 131.401 311.147 131.29 311.165C131.178 311.184 131.071 311.224 130.976 311.283C130.88 311.343 130.797 311.421 130.731 311.513C130.665 311.604 130.618 311.708 130.592 311.818C130.567 311.928 130.563 312.042 130.582 312.154C130.6 312.265 130.64 312.372 130.7 312.468C130.759 312.563 130.837 312.647 130.929 312.712C131.021 312.778 131.125 312.825 131.234 312.851C135.659 313.861 139.92 315.49 143.89 317.69C147.833 319.902 151.454 322.643 154.652 325.839C155.413 327.532 156.227 329.225 157.094 330.919L158.982 330.839C156.076 325.238 153.636 319.407 151.689 313.405C151.373 309.163 151.878 304.9 153.176 300.849C154.51 296.603 156.686 292.351 159.704 288.095C159.835 287.91 159.887 287.68 159.849 287.457C159.811 287.233 159.686 287.034 159.501 286.903C159.316 286.772 159.086 286.72 158.863 286.758C158.64 286.796 158.44 286.921 158.309 287.106C155.188 291.501 152.933 295.909 151.546 300.329C150.77 302.775 150.257 305.298 150.017 307.853C147.441 298.557 146.018 289.461 144.974 280.787C145.981 277.109 147.106 273.997 148.348 271.451C149.591 268.906 150.934 266.953 152.377 265.594C152.459 265.517 152.524 265.424 152.57 265.321C152.616 265.218 152.641 265.107 152.644 264.995C152.647 264.882 152.628 264.77 152.588 264.665C152.548 264.56 152.487 264.464 152.41 264.382C152.333 264.3 152.24 264.235 152.137 264.189C152.034 264.143 151.923 264.118 151.811 264.115C151.698 264.112 151.587 264.131 151.481 264.171C151.376 264.211 151.28 264.272 151.198 264.349C149.595 265.867 148.129 267.984 146.801 270.702C145.902 272.584 145.127 274.522 144.481 276.504C144.217 274.213 143.995 271.95 143.766 269.729L143.589 267.997C143.589 267.968 143.589 267.936 143.589 267.904C142.342 256.11 141.111 245.382 137.625 236.268Z" fill="#217DC4"/>
<path fill-rule="evenodd" clip-rule="evenodd" d="M142.925 307.729C139.945 306.126 136.354 305.274 134.274 302.608C131.814 299.443 132.31 294.83 130.246 291.41C127.646 287.106 121.972 286.012 117.893 283.071C113.899 280.189 114.445 278.419 112.307 273.986C109.082 267.3 99.8304 261.063 93.3576 266.549C86.7926 272.116 91.019 278.622 94.6021 283.351C97.1543 286.718 96.7641 287.523 97.4496 291.69C98.2748 296.724 96.5584 302.66 99.949 306.458C102.058 308.813 105.536 309.523 107.674 311.843C110.097 314.481 110.187 318.4 111.054 321.865C112.204 326.47 114.218 330.172 117.382 333.163C125.943 332.514 136.009 331.91 147.362 331.359C148.237 330.112 148.939 328.753 149.45 327.319C151.884 320.438 149.616 311.34 142.925 307.729Z" fill="#D6C5FA"/>
<path fill-rule="evenodd" clip-rule="evenodd" d="M99.4142 271.246C99.2942 271.122 99.1301 271.051 98.9577 271.048C98.7854 271.045 98.6191 271.111 98.4953 271.231C98.3715 271.351 98.3005 271.515 98.2978 271.688C98.295 271.86 98.3609 272.026 98.4808 272.15C99.7553 273.484 100.949 274.893 102.056 276.37C101.819 276.285 101.576 276.209 101.334 276.14C100.194 275.829 99.0212 275.652 97.8401 275.613C97.6681 275.606 97.5005 275.668 97.3742 275.785C97.2478 275.902 97.1731 276.065 97.1665 276.237C97.1599 276.409 97.2218 276.576 97.3388 276.703C97.4557 276.829 97.618 276.904 97.79 276.91C98.8697 276.946 99.9415 277.109 100.983 277.396C101.901 277.65 102.782 278.023 103.604 278.506C105.921 281.829 108.086 285.542 110.298 289.487C109.206 288.738 108.053 288.085 106.849 287.533C104.959 286.657 102.922 286.139 100.843 286.004C100.757 285.996 100.67 286.006 100.587 286.033C100.505 286.06 100.428 286.103 100.363 286.16C100.297 286.217 100.244 286.286 100.206 286.364C100.167 286.442 100.145 286.526 100.14 286.613C100.135 286.7 100.148 286.786 100.177 286.868C100.206 286.95 100.251 287.025 100.31 287.089C100.369 287.153 100.439 287.204 100.518 287.24C100.597 287.276 100.683 287.296 100.769 287.299C102.687 287.426 104.564 287.908 106.306 288.72C108.312 289.657 110.179 290.864 111.856 292.309L112.449 293.38C113.754 295.738 115.086 298.159 116.496 300.609C116.496 300.632 116.523 300.656 116.539 300.68C118.01 303.241 119.557 305.838 121.224 308.439C119.205 307.059 117.056 305.882 114.806 304.923C111.823 303.64 108.636 302.896 105.394 302.724C105.306 302.716 105.218 302.726 105.134 302.753C105.05 302.78 104.973 302.824 104.907 302.882C104.841 302.94 104.787 303.011 104.749 303.09C104.71 303.169 104.689 303.256 104.685 303.343C104.681 303.431 104.695 303.519 104.726 303.602C104.757 303.684 104.804 303.759 104.865 303.823C104.926 303.887 104.999 303.937 105.08 303.972C105.161 304.006 105.248 304.024 105.336 304.024C108.425 304.19 111.461 304.905 114.3 306.134C117.525 307.531 120.546 309.359 123.28 311.566C125.654 315.077 128.236 318.443 131.011 321.646H131.024C132.43 323.26 133.92 324.851 135.493 326.419C129.654 324.551 123.447 324.143 117.414 325.23C117.326 325.241 117.242 325.269 117.166 325.314C117.089 325.358 117.023 325.418 116.97 325.489C116.918 325.56 116.88 325.641 116.86 325.727C116.84 325.813 116.837 325.902 116.852 325.989C116.867 326.076 116.9 326.159 116.948 326.233C116.997 326.307 117.059 326.37 117.133 326.419C117.206 326.468 117.289 326.501 117.376 326.517C117.463 326.533 117.552 326.531 117.638 326.512C121.018 325.905 124.468 325.778 127.884 326.135C131.285 326.505 134.619 327.342 137.792 328.622C138.924 329.664 140.097 330.689 141.312 331.697L143.247 331.599C139.199 328.355 135.451 324.754 132.047 320.839C130.57 317.97 129.661 314.843 129.371 311.63C129.042 308.277 129.299 304.673 130.14 300.817C130.163 300.732 130.168 300.643 130.155 300.556C130.142 300.469 130.112 300.385 130.065 300.31C130.019 300.235 129.958 300.17 129.886 300.12C129.814 300.069 129.732 300.034 129.646 300.016C129.559 299.998 129.47 299.998 129.384 300.015C129.298 300.033 129.216 300.068 129.143 300.118C129.071 300.169 129.01 300.233 128.963 300.308C128.916 300.383 128.886 300.466 128.872 300.553C128.002 304.541 127.739 308.28 128.081 311.77C128.266 313.704 128.657 315.612 129.247 317.463C124.699 311.748 121.01 305.838 117.714 300.105C117.348 297.621 117.21 295.109 117.303 292.599C117.414 290.47 117.77 288.712 118.371 287.325C118.406 287.247 118.424 287.163 118.427 287.077C118.429 286.992 118.414 286.907 118.383 286.827C118.352 286.747 118.306 286.675 118.247 286.613C118.189 286.551 118.118 286.501 118.04 286.466C117.962 286.432 117.878 286.413 117.792 286.411C117.707 286.409 117.622 286.423 117.542 286.454C117.463 286.485 117.39 286.531 117.328 286.59C117.266 286.649 117.216 286.719 117.182 286.797C116.517 288.331 116.124 290.24 116.001 292.526C115.932 294.099 115.965 295.675 116.101 297.244C115.244 295.722 114.413 294.216 113.596 292.739L112.961 291.587L112.924 291.521C108.581 283.675 104.542 276.554 99.4142 271.246Z" fill="#5416CE"/>
<path fill-rule="evenodd" clip-rule="evenodd" d="M476.121 299.81C479.167 295.999 483.451 292.847 484.709 288.129C486.19 282.565 482.924 276.707 483.733 271.003C484.751 263.827 491.664 259.172 495.416 252.97C499.088 246.904 497.367 244.852 497.701 237.758C498.208 227.074 506.969 213.585 518.644 217.203C530.508 220.88 528.56 231.901 526.474 240.192C524.987 246.102 525.947 246.949 527.402 252.864C529.148 260.008 534.785 266.915 532.412 273.883C530.959 278.195 526.735 281.104 525.206 285.389C523.474 290.242 525.57 295.508 526.379 300.598C528.08 311.319 525.636 320.232 517.853 329.08C516.923 329.968 515.937 330.795 514.902 331.557C504.135 331.008 492.117 330.502 479.045 330.064C478.861 329.879 478.687 329.692 478.518 329.502C471.402 321.722 469.277 308.375 476.121 299.81Z" fill="#D1DEED"/>
<path fill-rule="evenodd" clip-rule="evenodd" d="M513.259 226.856C513.347 226.623 513.524 226.436 513.751 226.334C513.978 226.233 514.236 226.225 514.468 226.314C514.7 226.402 514.887 226.579 514.989 226.806C515.091 227.033 515.098 227.291 515.01 227.523C514.07 230.007 513.278 232.544 512.637 235.121C512.9 234.878 513.183 234.641 513.47 234.411C514.803 233.351 516.256 232.452 517.799 231.732C518.022 231.637 518.274 231.633 518.5 231.72C518.726 231.807 518.91 231.978 519.012 232.198C519.115 232.418 519.128 232.669 519.049 232.898C518.971 233.127 518.806 233.317 518.59 233.428C517.18 234.084 515.852 234.904 514.635 235.872C513.56 236.729 512.601 237.721 511.78 238.823C510.586 244.544 509.802 250.691 509.098 257.173C510.122 255.562 511.284 254.042 512.571 252.632C514.583 250.401 516.991 248.563 519.674 247.212C519.896 247.102 520.152 247.085 520.387 247.164C520.622 247.243 520.816 247.412 520.926 247.634C521.036 247.856 521.054 248.113 520.975 248.348C520.895 248.583 520.726 248.777 520.504 248.887C518.028 250.138 515.805 251.837 513.947 253.898C511.817 256.274 510.021 258.93 508.608 261.791L508.426 263.548C508.028 267.411 507.619 271.375 507.134 275.415C507.137 275.455 507.137 275.494 507.134 275.534C506.623 279.753 506.037 284.081 505.289 288.472C507.191 285.502 509.38 282.725 511.825 280.183C515.057 276.799 518.863 274.014 523.067 271.958C523.179 271.897 523.302 271.86 523.428 271.848C523.555 271.837 523.682 271.851 523.803 271.89C523.924 271.929 524.036 271.992 524.132 272.076C524.227 272.16 524.305 272.262 524.36 272.377C524.415 272.491 524.446 272.616 524.452 272.743C524.457 272.87 524.437 272.997 524.392 273.115C524.347 273.234 524.278 273.343 524.19 273.434C524.102 273.526 523.996 273.599 523.879 273.648C519.874 275.608 516.247 278.261 513.167 281.486C509.911 284.839 506.962 288.932 504.318 293.765C503.15 299.763 501.624 305.685 499.747 311.5V311.522C498.792 314.459 497.714 317.412 496.512 320.38C503.203 314.603 511.21 310.556 519.829 308.594C520.071 308.538 520.325 308.581 520.536 308.712C520.747 308.844 520.896 309.054 520.952 309.296C521.008 309.538 520.966 309.792 520.834 310.003C520.703 310.213 520.493 310.363 520.251 310.419C515.425 311.519 510.779 313.295 506.449 315.694C502.145 318.107 498.193 321.099 494.703 324.586C493.824 326.556 492.871 328.529 491.845 330.507L489.778 330.425C493.044 324.197 495.778 317.704 497.951 311.015C498.297 306.382 497.745 301.725 496.324 297.302C494.871 292.674 492.498 288.036 489.206 283.387C489.062 283.185 489.004 282.934 489.045 282.688C489.087 282.443 489.223 282.225 489.426 282.081C489.628 281.937 489.88 281.879 490.125 281.92C490.37 281.961 490.588 282.098 490.732 282.301C494.137 287.106 496.598 291.918 498.115 296.737C498.962 299.406 499.521 302.159 499.781 304.947C502.592 294.799 504.15 284.878 505.289 275.41C504.187 271.396 502.956 268 501.598 265.222C500.239 262.444 498.774 260.313 497.202 258.829C497.022 258.66 496.917 258.425 496.91 258.177C496.903 257.93 496.994 257.69 497.164 257.51C497.334 257.329 497.569 257.224 497.816 257.217C498.064 257.21 498.304 257.301 498.484 257.471C500.241 259.127 501.841 261.438 503.282 264.402C504.266 266.453 505.112 268.568 505.816 270.731C506.08 268.231 506.343 265.765 506.607 263.347L506.802 261.459C506.802 261.425 506.802 261.388 506.802 261.353C508.112 248.507 509.454 236.801 513.259 226.856Z" fill="#217DC4"/>
<path fill-rule="evenodd" clip-rule="evenodd" d="M507.475 304.836C510.724 303.082 514.644 302.159 516.917 299.248C519.601 295.819 519.058 290.761 521.312 287.027C524.146 282.33 530.34 281.138 534.79 277.928C539.148 274.785 538.555 272.852 540.888 268.01C544.405 260.718 554.503 253.916 561.564 259.898C568.73 265.963 564.119 273.084 560.209 278.234C557.422 281.905 557.836 282.784 557.103 287.333C556.201 292.829 558.073 299.303 554.372 303.465C552.083 306.036 548.276 306.809 545.935 309.338C543.298 312.207 543.195 316.498 542.244 320.283C540.97 325.38 538.734 329.46 535.185 332.751C525.836 332.113 514.99 331.522 502.869 330.99C501.801 329.539 500.95 327.939 500.344 326.243C497.696 318.703 500.172 308.774 507.475 304.836Z" fill="#D6C5FA"/>
<path fill-rule="evenodd" clip-rule="evenodd" d="M554.954 265.024C555.017 264.953 555.094 264.894 555.181 264.853C555.267 264.812 555.361 264.789 555.457 264.785C555.552 264.781 555.648 264.797 555.737 264.831C555.827 264.865 555.908 264.917 555.977 264.983C556.046 265.05 556.101 265.129 556.138 265.218C556.176 265.306 556.195 265.401 556.194 265.496C556.194 265.592 556.174 265.687 556.137 265.775C556.099 265.863 556.043 265.942 555.974 266.008C554.585 267.461 553.282 268.994 552.072 270.599C552.336 270.51 552.599 270.428 552.863 270.352C554.106 270.008 555.384 269.812 556.673 269.766C556.855 269.767 557.03 269.839 557.161 269.966C557.292 270.093 557.369 270.265 557.376 270.448C557.383 270.63 557.32 270.808 557.199 270.945C557.078 271.082 556.91 271.167 556.728 271.182C555.551 271.223 554.382 271.4 553.245 271.71C552.243 271.991 551.281 272.398 550.382 272.923C547.853 276.549 545.488 280.603 543.079 284.909C544.27 284.091 545.53 283.377 546.844 282.776C548.907 281.819 551.129 281.252 553.398 281.104C553.584 281.097 553.765 281.163 553.902 281.287C554.039 281.412 554.122 281.586 554.133 281.772C554.144 281.957 554.081 282.139 553.959 282.279C553.837 282.419 553.665 282.505 553.48 282.52C551.38 282.656 549.324 283.181 547.416 284.068C545.226 285.092 543.186 286.409 541.352 287.984L540.7 289.152C539.282 291.729 537.824 294.366 536.287 297.043C536.274 297.069 536.259 297.095 536.242 297.12C534.636 299.915 532.949 302.75 531.13 305.588C533.333 304.082 535.678 302.797 538.133 301.751C541.391 300.349 544.873 299.537 548.415 299.351C548.508 299.346 548.601 299.36 548.689 299.392C548.777 299.424 548.857 299.472 548.926 299.535C548.995 299.598 549.051 299.674 549.091 299.758C549.13 299.843 549.153 299.934 549.157 300.027C549.162 300.12 549.148 300.213 549.116 300.301C549.084 300.389 549.036 300.469 548.973 300.538C548.91 300.607 548.834 300.663 548.75 300.703C548.665 300.743 548.574 300.765 548.481 300.769C545.109 300.948 541.796 301.722 538.694 303.056C535.176 304.582 531.88 306.577 528.897 308.987C526.304 312.817 523.487 316.491 520.46 319.987C518.922 321.745 517.295 323.482 515.58 325.198C521.953 323.158 528.728 322.712 535.314 323.898C535.406 323.914 535.493 323.949 535.572 323.999C535.651 324.049 535.718 324.114 535.772 324.19C535.825 324.267 535.863 324.353 535.883 324.444C535.903 324.535 535.905 324.629 535.889 324.721C535.873 324.813 535.838 324.9 535.788 324.979C535.738 325.057 535.673 325.125 535.597 325.179C535.52 325.232 535.434 325.27 535.343 325.29C535.252 325.31 535.158 325.312 535.066 325.296C531.378 324.634 527.614 324.496 523.887 324.884C520.177 325.29 516.539 326.204 513.077 327.601C511.735 328.832 510.336 330.046 508.883 331.245L506.747 331.145C511.311 327.53 515.53 323.498 519.35 319.104C520.96 315.982 521.954 312.58 522.276 309.082C522.628 305.427 522.348 301.493 521.438 297.28C521.418 297.19 521.416 297.096 521.432 297.004C521.449 296.913 521.483 296.826 521.533 296.747C521.583 296.669 521.648 296.602 521.724 296.548C521.8 296.495 521.886 296.458 521.977 296.438C522.068 296.418 522.162 296.416 522.253 296.432C522.344 296.449 522.432 296.483 522.51 296.533C522.588 296.583 522.656 296.648 522.709 296.724C522.762 296.8 522.8 296.886 522.819 296.977C523.772 301.332 524.061 305.413 523.687 309.219C523.484 311.329 523.057 313.411 522.413 315.43C527.375 309.195 531.401 302.745 534.998 296.487C535.399 293.781 535.55 291.044 535.449 288.311C535.331 285.985 534.941 284.067 534.281 282.557C534.205 282.385 534.202 282.19 534.27 282.015C534.339 281.84 534.474 281.7 534.646 281.624C534.818 281.549 535.013 281.545 535.187 281.614C535.362 281.682 535.503 281.818 535.578 281.99C536.307 283.662 536.737 285.745 536.867 288.24C536.945 289.957 536.909 291.678 536.762 293.39C537.692 291.729 538.607 290.089 539.496 288.475L540.186 287.217C540.186 287.193 540.213 287.169 540.229 287.145C544.953 278.582 549.359 270.826 554.954 265.024Z" fill="#5416CE"/>
<path fill-rule="evenodd" clip-rule="evenodd" d="M311.52 71.0868C310.645 83.1126 308.884 84.7715 297.412 85.6971C308.871 86.6228 310.645 88.2816 311.52 100.305C312.396 88.2816 314.157 86.6228 325.631 85.6971C314.17 84.7715 312.396 83.1126 311.52 71.0868ZM358.108 102.8C357.641 109.219 356.695 110.105 350.575 110.601C356.695 111.094 357.641 111.98 358.108 118.399C358.575 111.98 359.521 111.094 365.641 110.601C359.521 110.105 358.575 109.219 358.108 102.8ZM337.706 53.3936C337.235 59.8944 336.275 60.7937 330.076 61.2921C336.275 61.7932 337.235 62.6898 337.706 69.2038C338.181 62.7004 339.141 61.8037 345.334 61.2921C339.149 60.7937 338.181 59.8944 337.706 53.3936Z" fill="white"/>
<path fill-rule="evenodd" clip-rule="evenodd" d="M294.629 268.221C295.339 277.96 296.775 279.297 306.061 280.057C296.775 280.806 295.339 282.151 294.629 291.89C293.92 282.151 292.483 280.814 283.2 280.057C292.483 279.305 293.92 277.947 294.629 268.221ZM256.89 293.913C257.267 299.111 258.034 299.831 262.991 300.242C258.034 300.643 257.267 301.36 256.89 306.571C256.51 301.371 255.743 300.654 250.786 300.242C255.743 299.844 256.51 299.124 256.89 293.913ZM273.416 253.874C273.801 259.149 274.576 259.869 279.598 260.275C274.576 260.681 273.798 261.406 273.416 266.675C273.033 261.401 272.256 260.681 267.236 260.275C272.256 259.879 273.033 259.149 273.416 253.874Z" fill="white"/>
<path fill-rule="evenodd" clip-rule="evenodd" d="M442.954 244.206C442.411 251.667 441.309 252.695 434.201 253.27C441.32 253.845 442.411 254.874 442.954 262.332C443.482 254.874 444.597 253.845 451.705 253.27C444.587 252.695 443.495 251.667 442.954 244.206ZM471.848 263.88C471.561 267.859 470.973 268.411 467.176 268.717C470.973 269.025 471.561 269.574 471.848 273.553C472.138 269.574 472.726 269.025 476.523 268.717C472.726 268.411 472.138 267.859 471.848 263.88ZM459.193 233.235C458.9 237.265 458.304 237.821 454.447 238.132C458.291 238.441 458.887 239 459.193 243.032C459.486 239 460.082 238.441 463.939 238.132C460.084 237.821 459.488 237.26 459.196 233.235H459.193Z" fill="white"/>
<path d="M364.052 333.071C364.037 333.073 364.022 333.073 364.007 333.071L300.345 321L236.683 333.071C236.655 333.078 236.624 333.078 236.596 333.071L172.889 320.992C172.835 320.98 172.787 320.951 172.753 320.908C172.718 320.865 172.699 320.812 172.699 320.757C172.699 320.702 172.718 320.649 172.753 320.606C172.787 320.564 172.835 320.534 172.889 320.522L173.706 320.367V117.394C173.707 117.359 173.715 117.325 173.73 117.294C173.745 117.262 173.767 117.234 173.793 117.212C173.82 117.188 173.851 117.171 173.886 117.162C173.92 117.152 173.956 117.152 173.991 117.159L236.641 129.027L300.3 116.954C300.33 116.949 300.36 116.949 300.39 116.954L364.052 129.027L427.263 117.054C427.298 117.047 427.334 117.047 427.368 117.056C427.402 117.065 427.434 117.081 427.461 117.104C427.488 117.127 427.51 117.155 427.525 117.187C427.54 117.219 427.548 117.254 427.548 117.289V320.47L427.812 320.517C427.865 320.529 427.914 320.558 427.948 320.601C427.983 320.644 428.002 320.697 428.002 320.752C428.002 320.807 427.983 320.86 427.948 320.903C427.914 320.946 427.865 320.975 427.812 320.987L364.105 333.065C364.088 333.071 364.07 333.072 364.052 333.071ZM300.345 320.512C300.36 320.509 300.375 320.509 300.39 320.512L364.052 332.583L427.065 320.633V117.566L364.092 129.504C364.062 129.512 364.031 129.512 364.002 129.504L300.34 117.434L236.683 129.518C236.655 129.525 236.624 129.525 236.596 129.518L174.184 117.684V320.559C174.185 320.591 174.179 320.623 174.166 320.653C174.154 320.682 174.136 320.709 174.112 320.731L236.641 332.598L300.3 320.528C300.314 320.52 300.329 320.515 300.345 320.512Z" fill="#A3CFFB"/>
<path d="M236.64 333.07C236.609 333.07 236.578 333.064 236.549 333.052C236.519 333.04 236.493 333.022 236.471 333C236.448 332.978 236.431 332.951 236.419 332.922C236.407 332.893 236.4 332.862 236.4 332.83V129.283C236.407 129.224 236.434 129.169 236.478 129.13C236.523 129.09 236.58 129.068 236.639 129.068C236.698 129.068 236.755 129.09 236.8 129.13C236.844 129.169 236.871 129.224 236.878 129.283V332.83C236.878 332.862 236.872 332.893 236.86 332.922C236.849 332.951 236.831 332.978 236.809 333C236.787 333.022 236.761 333.04 236.732 333.052C236.703 333.064 236.672 333.07 236.64 333.07Z" fill="#A3CFFB"/>
<path d="M364.051 333.07C364.02 333.07 363.989 333.064 363.96 333.052C363.931 333.04 363.904 333.022 363.882 333C363.86 332.978 363.842 332.951 363.83 332.922C363.818 332.893 363.812 332.862 363.812 332.83V129.283C363.812 129.22 363.838 129.159 363.883 129.115C363.928 129.07 363.988 129.045 364.051 129.045C364.083 129.045 364.114 129.051 364.143 129.063C364.172 129.075 364.198 129.092 364.22 129.114C364.242 129.136 364.26 129.163 364.271 129.192C364.283 129.22 364.289 129.252 364.289 129.283V332.83C364.289 332.862 364.284 332.893 364.272 332.922C364.261 332.952 364.243 332.978 364.221 333.001C364.199 333.023 364.172 333.041 364.143 333.053C364.114 333.065 364.083 333.071 364.051 333.07Z" fill="#A3CFFB"/>
<path d="M300.343 320.989C300.28 320.989 300.22 320.964 300.175 320.92C300.13 320.876 300.104 320.815 300.104 320.752V117.202C300.104 117.139 300.13 117.078 300.175 117.034C300.22 116.989 300.28 116.964 300.343 116.964C300.375 116.964 300.406 116.97 300.435 116.982C300.464 116.994 300.49 117.011 300.512 117.033C300.534 117.055 300.552 117.082 300.563 117.11C300.575 117.139 300.581 117.17 300.581 117.202V320.752C300.581 320.783 300.575 320.814 300.563 320.843C300.552 320.872 300.534 320.898 300.512 320.921C300.49 320.943 300.464 320.96 300.435 320.972C300.406 320.984 300.375 320.99 300.343 320.989Z" fill="#A3CFFB"/>
<path fill-rule="evenodd" clip-rule="evenodd" d="M236.64 332.83V129.283L204.788 123.244L173.945 117.394V320.559L172.936 320.752L204.788 326.791L236.64 332.83Z" fill="white"/>
<path d="M237.176 333.479L172.845 321.279V320.225L173.417 320.114V116.738L237.184 128.829L237.176 333.479ZM174.482 320.501L236.103 332.2V129.729L174.482 118.056V320.501Z" fill="#5416CE"/>
<path fill-rule="evenodd" clip-rule="evenodd" d="M236.642 129.283V332.83L268.494 326.791L300.346 320.752V117.202L268.494 123.244L236.642 129.283Z" fill="#EEF8FB"/>
<path d="M236.104 333.479V128.829L300.881 116.545V321.195L236.104 333.479ZM237.177 129.728V332.2L299.81 320.333V117.85L237.177 129.728Z" fill="#5416CE"/>
<path fill-rule="evenodd" clip-rule="evenodd" d="M300.345 117.202V320.752L332.197 326.791L364.052 332.83V129.283L332.197 123.244L300.345 117.202Z" fill="#EEF8FB"/>
<path d="M364.588 333.479L299.811 321.195V116.545L364.588 128.829V333.479ZM300.881 320.306L363.515 332.174V129.728L300.881 117.861V320.306Z" fill="#A3CFFB"/>
<path fill-rule="evenodd" clip-rule="evenodd" d="M364.052 129.283V332.831L395.904 326.791L427.759 320.752L427.31 320.668V117.289L395.904 123.244L364.052 129.283Z" fill="#C2DEF9"/>
<path d="M363.514 333.479V128.829L427.845 116.629V321.279L363.514 333.479ZM364.587 129.729V332.2L426.772 320.404V117.935L364.587 129.729Z" fill="#A3CFFB"/>
<path fill-rule="evenodd" clip-rule="evenodd" d="M192.619 120.936L197.349 204.22L237.092 227.913L299.905 216.001L300.788 221.953L237.081 234.034L235.394 233.728L193.534 208.769L192.21 207.981L192.107 206.314L186.694 120.532L192.619 120.936Z" fill="#5416CE"/>
<path fill-rule="evenodd" clip-rule="evenodd" d="M209.544 217.129L174.367 252.708L173.381 244.04L206.003 212.62L209.544 217.129Z" fill="#5416CE"/>
<path fill-rule="evenodd" clip-rule="evenodd" d="M193.297 170.005L236.742 181.492L257.202 177.958L281.202 120.833L287.651 119.609L261.433 181.988L260.824 183.447L259.411 183.689L237.037 187.555L236.033 187.508L192.079 175.886L193.297 170.005Z" fill="#5416CE"/>
<path fill-rule="evenodd" clip-rule="evenodd" d="M259.443 177.726L300.779 185.456L299.919 191.406L258.586 183.679L259.443 177.726Z" fill="#A3CFFB"/>
<path fill-rule="evenodd" clip-rule="evenodd" d="M218.354 219.076L202.316 326.316L197.029 325.325L213.067 218.084L218.354 219.076Z" fill="#5416CE"/>
<path fill-rule="evenodd" clip-rule="evenodd" d="M174.815 268.389L237.51 292.684L236.64 299.678L173.945 277.62L174.815 268.389Z" fill="#5416CE"/>
<path fill-rule="evenodd" clip-rule="evenodd" d="M195.02 209.099L174.188 211.304L173.703 205.307L194.537 203.099L195.02 209.099Z" fill="#5416CE"/>
<path fill-rule="evenodd" clip-rule="evenodd" d="M271.963 49.5854H420.029C424.376 49.5854 421.323 63.1541 421.484 67.4712L430.836 322.682C431.1 330.067 422.644 337.485 414.455 337.485H266.381C264.284 337.478 262.275 336.642 260.79 335.161C259.306 333.679 258.466 331.671 258.453 329.574L257.602 67.4633C257.594 63.1224 267.615 49.5854 271.963 49.5854Z" fill="#5416CE"/>
<path fill-rule="evenodd" clip-rule="evenodd" d="M272.042 49.1687H420.111C423.654 49.1687 422.879 56.553 422.276 62.3048C422.059 64.383 421.862 66.2396 421.906 67.3789L431.256 322.59C431.262 322.831 431.242 323.071 431.198 323.307C430.763 325.594 430.42 329.713 427.148 332.633C423.876 335.552 417.677 337.272 415.283 337.796C414.989 337.862 414.689 337.898 414.387 337.902H266.308C264.121 337.898 262.025 337.029 260.475 335.485C258.926 333.942 258.05 331.848 258.037 329.661L257.186 67.5476C257.188 67.2669 257.217 66.9869 257.273 66.7116C257.742 64.2379 260.173 60.0842 263.01 56.458C265.881 52.8002 269.224 49.646 271.505 49.2188C271.679 49.1862 271.855 49.1695 272.032 49.1687H272.042ZM419.953 49.9994H271.884C271.758 50.0002 271.632 50.0126 271.507 50.0363C269.488 50.4135 266.374 53.4015 263.642 56.88C260.885 60.3928 258.546 64.3803 258.106 66.709C258.061 66.934 258.037 67.1627 258.035 67.392L258.883 329.502C258.905 331.506 259.712 333.421 261.13 334.836C262.549 336.251 264.466 337.053 266.469 337.069H414.54C414.778 337.065 415.015 337.037 415.247 336.984C417.48 336.499 423.515 334.861 426.652 332.063C429.79 329.265 429.977 325.37 430.37 323.305C430.403 323.131 430.418 322.954 430.415 322.777L421.065 67.5661C421.021 66.3556 421.218 64.4779 421.437 62.3786C422.001 56.9644 422.729 49.9994 419.95 49.9994H419.953Z" fill="#1E77D0"/>
<path fill-rule="evenodd" clip-rule="evenodd" d="M274.605 49.5828H422.676C424.773 49.5897 426.782 50.425 428.267 51.9068C429.751 53.3885 430.59 55.3969 430.601 57.4945L431.487 324.942C431.487 327.035 430.658 329.043 429.182 330.526C427.705 332.009 425.701 332.846 423.609 332.854H275.538C273.441 332.846 271.433 332.01 269.949 330.529C268.464 329.047 267.625 327.04 267.612 324.942L266.727 57.4866C266.729 55.3951 267.559 53.3895 269.035 51.9084C270.511 50.4273 272.514 49.5911 274.605 49.5828Z" fill="#D6C5FA"/>
<path fill-rule="evenodd" clip-rule="evenodd" d="M274.683 49.1661H422.751C424.937 49.1695 427.033 50.0367 428.583 51.5788C430.133 53.121 431.01 55.2131 431.025 57.3995L431.905 324.768C431.909 325.299 431.86 325.829 431.76 326.351C431.394 328.268 430.372 329.998 428.869 331.243C427.367 332.489 425.478 333.172 423.526 333.176H275.458C273.271 333.17 271.175 332.301 269.626 330.757C268.077 329.213 267.2 327.119 267.187 324.932L266.304 57.563C266.301 57.0321 266.349 56.5022 266.449 55.9807C266.772 54.3237 267.584 52.8016 268.78 51.6101C269.976 50.4187 271.501 49.6125 273.159 49.2953C273.662 49.2034 274.172 49.1566 274.683 49.1555V49.1661ZM422.593 49.9994H274.525C274.067 49.9988 273.611 50.0403 273.162 50.1234C271.469 50.4468 269.943 51.3504 268.845 52.6786C267.747 54.0067 267.147 55.6763 267.148 57.3995L268.031 324.768C268.052 326.773 268.859 328.688 270.278 330.103C271.697 331.518 273.615 332.32 275.619 332.335H423.685C424.143 332.335 424.6 332.294 425.05 332.211C426.506 331.936 427.846 331.229 428.895 330.183C429.944 329.136 430.654 327.798 430.933 326.343C431.02 325.875 431.063 325.4 431.062 324.924L430.178 57.5525C430.162 55.548 429.357 53.6306 427.938 52.2151C426.519 50.7997 424.6 49.9999 422.596 49.9889L422.593 49.9994Z" fill="#1E77D0"/>
<path fill-rule="evenodd" clip-rule="evenodd" d="M283.782 66.2422H412.077C413.774 66.249 415.4 66.9238 416.604 68.1205C417.808 69.3173 418.493 70.9399 418.51 72.6375L419.978 310.324C419.983 311.162 419.821 311.992 419.504 312.767C419.187 313.543 418.719 314.248 418.129 314.842C417.539 315.436 416.837 315.908 416.064 316.23C415.291 316.552 414.462 316.719 413.624 316.72H285.319C283.622 316.712 281.996 316.037 280.793 314.84C279.589 313.644 278.904 312.022 278.886 310.324L277.415 72.6375C277.412 71.7989 277.574 70.9679 277.892 70.1921C278.211 69.4163 278.679 68.7111 279.271 68.1169C279.862 67.5227 280.565 67.0512 281.34 66.7295C282.114 66.4078 282.944 66.2422 283.782 66.2422Z" fill="#EEF8FB"/>
<path fill-rule="evenodd" clip-rule="evenodd" d="M407.203 68.2966C408.9 68.3041 410.526 68.9791 411.729 70.1757C412.933 71.3723 413.618 72.9945 413.636 74.6919L415.107 312.379C415.118 313.987 414.517 315.539 413.425 316.72H413.617C414.455 316.719 415.284 316.552 416.058 316.23C416.831 315.907 417.533 315.435 418.123 314.841C418.713 314.246 419.181 313.541 419.498 312.766C419.815 311.99 419.976 311.16 419.971 310.322L418.511 72.6401C418.494 70.9418 417.809 69.3185 416.604 68.1213C415.4 66.924 413.773 66.249 412.075 66.2422H283.783C282.905 66.2414 282.035 66.4237 281.231 66.7774C280.427 67.1311 279.705 67.6485 279.111 68.2966H407.203Z" fill="#E0F3F9"/>
<path fill-rule="evenodd" clip-rule="evenodd" d="M348.259 53.9712C349.571 53.9726 350.83 54.4929 351.76 55.4187C352.691 56.3444 353.218 57.6006 353.226 58.9134C353.231 59.561 353.108 60.2032 352.864 60.8029C352.619 61.4026 352.259 61.948 351.803 62.4075C351.346 62.8671 350.804 63.2316 350.206 63.4802C349.608 63.7287 348.967 63.8563 348.319 63.8556C347.007 63.8528 345.748 63.3323 344.817 62.4069C343.886 61.4816 343.358 60.2262 343.347 58.9134C343.342 58.2655 343.466 57.6232 343.711 57.0235C343.956 56.4237 344.317 55.8784 344.774 55.4189C345.23 54.9595 345.773 54.595 346.371 54.3465C346.97 54.098 347.611 53.9705 348.259 53.9712Z" fill="#D1E4F6"/>
<g opacity="0.06">
<path fill-rule="evenodd" clip-rule="evenodd" d="M423.349 118.349L430.836 322.682C431.1 330.067 422.645 337.485 414.456 337.485H297.691C297.664 336.359 297.657 335.22 297.691 334.057C298.548 300.345 361.21 228.166 381.428 197.954C404.01 164.176 417.456 146.633 423.349 118.349Z" fill="#A3CFFB"/>
</g>
<g opacity="0.06">
<path fill-rule="evenodd" clip-rule="evenodd" d="M423.707 116.561L431.255 322.59C431.261 322.831 431.242 323.071 431.197 323.307C430.762 325.594 430.419 329.713 427.147 332.633C423.875 335.552 417.677 337.272 415.283 337.796C414.989 337.864 414.688 337.899 414.386 337.902H297.701L297.68 337.071H414.534C414.773 337.068 415.011 337.04 415.243 336.987C417.476 336.501 423.512 334.864 426.649 332.068C429.787 329.273 429.974 325.372 430.367 323.307C430.399 323.134 430.414 322.957 430.411 322.78L422.992 120.029C423.237 118.892 423.483 117.737 423.707 116.561Z" fill="#A3CFFB"/>
</g>
<g opacity="0.06">
<path fill-rule="evenodd" clip-rule="evenodd" d="M423.826 49.6672C425.702 49.9493 427.415 50.892 428.658 52.3255C429.901 53.759 430.591 55.5893 430.605 57.4867L431.488 324.932C431.488 327.025 430.659 329.032 429.182 330.515C427.706 331.998 425.702 332.835 423.61 332.844H297.757C300.03 298.641 361.445 227.808 381.428 197.954C413.317 150.291 426.948 134.95 426.948 76.1241C426.948 71.857 425.74 61.3318 423.826 49.6672Z" fill="#A3CFFB"/>
</g>
<g opacity="0.06">
<path fill-rule="evenodd" clip-rule="evenodd" d="M423.754 49.2241C425.752 49.4713 427.592 50.4372 428.93 51.9416C430.268 53.446 431.013 55.386 431.026 57.3996L431.906 324.768C431.91 325.299 431.861 325.829 431.761 326.351C431.395 328.268 430.373 329.998 428.87 331.243C427.368 332.489 425.479 333.172 423.527 333.176H297.732C297.732 332.912 297.756 332.625 297.78 332.343H423.686C424.144 332.343 424.601 332.302 425.051 332.219C426.507 331.943 427.846 331.237 428.894 330.19C429.943 329.144 430.652 327.806 430.931 326.351C431.02 325.882 431.064 325.406 431.063 324.929L430.179 57.5604C430.162 55.7819 429.525 54.065 428.379 52.7053C427.233 51.3455 425.649 50.4278 423.899 50.1102L423.754 49.2241Z" fill="#A3CFFB"/>
</g>
<g opacity="0.06">
<path fill-rule="evenodd" clip-rule="evenodd" d="M418.881 134.265L419.97 310.322C419.974 311.16 419.813 311.99 419.496 312.766C419.179 313.541 418.712 314.246 418.121 314.841C417.531 315.435 416.829 315.907 416.056 316.23C415.283 316.552 414.453 316.719 413.616 316.72H301.826C316.24 279.798 364.202 223.667 381.413 197.949C399.494 170.938 411.696 154.31 418.881 134.265Z" fill="#A3CFFB"/>
</g>
<g opacity="0.06">
<path fill-rule="evenodd" clip-rule="evenodd" d="M414.071 145.76L415.105 312.379C415.115 313.987 414.513 315.539 413.42 316.72H413.615C414.453 316.719 415.282 316.552 416.055 316.23C416.828 315.907 417.53 315.435 418.121 314.841C418.711 314.246 419.178 313.541 419.495 312.766C419.813 311.99 419.974 311.16 419.969 310.322L418.88 134.265C417.474 138.176 415.868 142.013 414.071 145.76Z" fill="#A3CFFB"/>
</g>
<path fill-rule="evenodd" clip-rule="evenodd" d="M294.122 90.344V119.852C294.108 124.444 292.278 128.844 289.031 132.091C285.785 135.338 281.385 137.168 276.794 137.181C272.204 137.168 267.805 135.338 264.559 132.091C261.312 128.844 259.483 124.444 259.47 119.852V90.344H294.122Z" fill="#3090D7"/>
<path fill-rule="evenodd" clip-rule="evenodd" d="M328.774 90.344V119.852C328.761 124.444 326.931 128.844 323.685 132.091C320.439 135.338 316.04 137.168 311.449 137.181C306.858 137.169 302.459 135.339 299.212 132.092C295.965 128.845 294.135 124.444 294.122 119.852V90.344H328.774Z" fill="#5416CE"/>
<path fill-rule="evenodd" clip-rule="evenodd" d="M363.421 90.344V119.852C363.409 124.444 361.579 128.845 358.333 132.092C355.087 135.339 350.687 137.169 346.097 137.181C341.506 137.168 337.107 135.338 333.862 132.091C330.616 128.844 328.787 124.444 328.774 119.852V90.344H363.421Z" fill="#3090D7"/>
<path fill-rule="evenodd" clip-rule="evenodd" d="M398.076 90.344V119.852C398.062 124.444 396.233 128.845 392.986 132.092C389.739 135.339 385.339 137.169 380.748 137.181C376.157 137.168 371.758 135.338 368.511 132.091C365.265 128.844 363.435 124.444 363.421 119.852V90.344H398.076Z" fill="#5416CE"/>
<path fill-rule="evenodd" clip-rule="evenodd" d="M432.727 90.344V119.852C432.713 124.444 430.884 128.844 427.638 132.091C424.392 135.338 419.993 137.168 415.402 137.181C410.811 137.168 406.412 135.338 403.166 132.091C399.92 128.844 398.09 124.444 398.077 119.852V90.344H432.727Z" fill="#3090D7"/>
<path fill-rule="evenodd" clip-rule="evenodd" d="M467.378 90.344V119.852C467.364 124.444 465.535 128.844 462.289 132.091C459.043 135.338 454.644 137.168 450.053 137.181C445.462 137.169 441.062 135.339 437.815 132.092C434.569 128.845 432.739 124.444 432.726 119.852V90.344H467.378Z" fill="#5416CE"/>
<path fill-rule="evenodd" clip-rule="evenodd" d="M224.817 90.344V119.852C224.831 124.444 226.661 128.844 229.908 132.091C233.155 135.338 237.554 137.168 242.145 137.181C246.736 137.169 251.135 135.339 254.381 132.092C257.628 128.845 259.457 124.444 259.47 119.852V90.344H224.817Z" fill="#5416CE"/>
<path fill-rule="evenodd" clip-rule="evenodd" d="M224.821 90.3439H259.471L284.223 45.8484H259.471L224.821 90.3439Z" fill="#9464F1"/>
<path fill-rule="evenodd" clip-rule="evenodd" d="M259.47 90.3439H294.122L308.974 45.8484H284.222L259.47 90.3439Z" fill="#3EA4EB"/>
<path fill-rule="evenodd" clip-rule="evenodd" d="M294.122 90.3439H328.774L333.726 45.8484H308.974L294.122 90.3439Z" fill="#9464F1"/>
<path fill-rule="evenodd" clip-rule="evenodd" d="M328.774 90.3441H363.424L358.475 45.8485H333.726L328.774 90.3441Z" fill="#3EA4EB"/>
<path fill-rule="evenodd" clip-rule="evenodd" d="M363.423 90.3439H398.076L383.224 45.8484H358.475L363.423 90.3439Z" fill="#9464F1"/>
<path fill-rule="evenodd" clip-rule="evenodd" d="M398.075 90.3439H432.725L407.973 45.8484H383.224L398.075 90.3439Z" fill="#3EA4EB"/>
<path fill-rule="evenodd" clip-rule="evenodd" d="M432.727 90.3439H467.381L432.727 45.8484H407.975L432.727 90.3439Z" fill="#9464F1"/>
<path d="M381.944 211.744C381.95 204.412 379.961 197.216 376.19 190.927C372.419 184.638 367.008 179.494 360.537 176.045C354.066 172.596 346.779 170.973 339.456 171.349C332.133 171.725 325.05 174.087 318.966 178.18C312.883 182.274 308.027 187.945 304.92 194.587C301.813 201.229 300.572 208.591 301.329 215.885C302.087 223.178 304.814 230.128 309.219 235.99C313.624 241.852 319.541 246.406 326.336 249.162L341.529 275.473L356.722 249.162C364.171 246.142 370.55 240.968 375.043 234.302C379.536 227.637 381.939 219.783 381.944 211.744Z" fill="url(#paint0_linear_8_116)"/>
<path style="mix-blend-mode:multiply" d="M391.276 239.256C394.551 226.578 379.111 216.312 356.794 216.312C334.477 216.312 313.73 226.578 310.456 239.287C307.982 248.916 316.286 257.149 330.186 260.557L341.529 275.514L360.582 260.557C376.247 257.118 388.802 248.885 391.276 239.256Z" fill="url(#paint1_linear_8_116)"/>
<path d="M359.934 211.744C359.934 215.385 358.855 218.943 356.832 221.97C354.81 224.997 351.935 227.356 348.572 228.749C345.209 230.142 341.508 230.507 337.937 229.797C334.367 229.087 331.087 227.334 328.513 224.759C325.939 222.185 324.186 218.906 323.476 215.335C322.766 211.765 323.13 208.064 324.523 204.701C325.916 201.337 328.275 198.463 331.302 196.44C334.329 194.418 337.888 193.338 341.528 193.338C346.41 193.338 351.091 195.277 354.543 198.729C357.995 202.181 359.934 206.863 359.934 211.744Z" fill="white"/>
<path fill-rule="evenodd" clip-rule="evenodd" d="M451.918 143.901C460.766 147.105 466.441 147.414 468.944 144.829C471.49 144.239 473.148 141.981 473.92 138.057C476.556 132.084 474.302 122.539 470.597 127.265C467.534 119.428 455.245 123.974 448.313 119.617C444.095 122.365 445.706 129.164 448.73 131.461C448.609 139.291 449.041 143.469 451.918 143.901Z" fill="#284190"/>
<path fill-rule="evenodd" clip-rule="evenodd" d="M472.599 128.128C471.639 127.389 471.331 126.583 471.673 125.709C473.141 124.885 474.538 124.858 475.863 125.63C475.056 125.68 473.968 126.512 472.599 128.128Z" fill="#284190"/>
<path fill-rule="evenodd" clip-rule="evenodd" d="M470.771 126.068C471.452 126.828 472.076 126.996 472.643 126.574C472.995 125.138 472.788 123.876 472.024 122.787C472.122 123.519 471.705 124.612 470.771 126.068Z" fill="#284190"/>
<path fill-rule="evenodd" clip-rule="evenodd" d="M466.095 129.344C467.761 128.684 469.022 128.905 469.878 130.005C469.812 132.503 468.515 137.53 466.524 138.629C466.176 138.387 466.258 133.088 466.095 129.344Z" fill="#284190"/>
<path fill-rule="evenodd" clip-rule="evenodd" d="M465.47 126.928C468.282 128.297 469.212 129.528 468.259 130.62C464.138 131.262 459.919 130.787 456.044 129.243C458.39 129.47 461.532 128.698 465.47 126.928Z" fill="#284190"/>
<path fill-rule="evenodd" clip-rule="evenodd" d="M448.934 131.145C452.122 127.922 458.141 127.534 466.433 130.567C471.682 129.264 472.861 126.838 470.651 122.89C467.519 117.315 460.74 121.725 452.435 116.476C452.746 120.554 440.394 124.045 448.934 131.145Z" fill="#284190"/>
<path fill-rule="evenodd" clip-rule="evenodd" d="M468.869 133.88C466.667 133.408 466.878 137.928 467.042 140.169C467.377 144.584 472.344 134.621 468.869 133.88Z" fill="#FFB17D"/>
<path fill-rule="evenodd" clip-rule="evenodd" d="M480.582 337.348C484.716 335.892 485.049 333.761 487.279 332.722C489.51 331.683 489.779 329.806 487.585 327.778C485.963 329.072 483.954 330.679 482.889 329.821C482.177 329.26 479.768 329.294 479.288 330.117C477.178 335.001 474.278 333.453 473.69 335.676C473.614 338.635 478.684 338.018 480.582 337.348Z" fill="#284190"/>
<path fill-rule="evenodd" clip-rule="evenodd" d="M445.078 337.498C452.724 337.374 458.414 337.282 461.05 336.443C463.892 335.544 463.304 333.806 461.672 331.037C454.477 334.344 456.399 330.354 453.03 330.863C450.664 332.765 447.162 334.041 442.526 334.69C440.567 336.156 441.363 337.432 445.078 337.498Z" fill="#284190"/>
<path fill-rule="evenodd" clip-rule="evenodd" d="M471.451 152.229C470.231 152.317 468.309 152.082 467.968 151.649C466.674 150.004 465.775 148.287 465.443 147.203C465.696 146.482 465.959 145.572 466.234 144.473C470.928 141.282 471.57 138.921 468.158 137.39C467.473 137.775 466.619 138.963 465.598 140.955C464.784 140.924 464.167 140.504 463.753 139.705C464.721 136.345 465.352 133.62 465.646 131.53C463.331 128.101 457.918 127.598 450.752 128.526C450.423 130.435 450.151 132.457 449.934 134.592C449.043 135.412 446.446 149.162 455.25 149.719C455.305 150.511 455.272 151.307 455.15 152.092C455.049 152.309 454.686 152.52 454.185 152.699C454.044 157.383 459.8 157.226 471.451 152.229Z" fill="#FFB17D"/>
<path fill-rule="evenodd" clip-rule="evenodd" d="M450.75 128.518C457.916 127.59 463.329 128.08 465.644 131.522C465.352 133.619 464.721 136.344 463.751 139.697C464.17 140.488 464.787 140.916 465.597 140.947C466.618 138.955 467.471 137.767 468.157 137.382C471.57 138.911 470.929 141.273 466.232 144.465C465.958 145.566 465.694 146.476 465.441 147.195C469.66 146.248 473.2 142.469 473.699 140.834C478.626 131.116 473.129 127.015 470.187 125.517C468.89 115.894 454.921 124.399 447.924 119.76C445.14 123.613 448.583 128.434 450.75 128.518Z" fill="#284190"/>
<path fill-rule="evenodd" clip-rule="evenodd" d="M407.748 169.274C411.292 184.459 417.521 196.246 426.436 204.634C429.645 203.658 432.495 201.461 434.984 198.041C434.85 209.026 435.124 219.96 435.806 230.843C442.31 233.929 450.945 233.729 461.713 230.244L466.082 224.867C467.2 224.648 469.752 225.885 470.972 227.768C481.2 219.962 488.094 211.573 492.16 203.242C491.063 185.335 488.631 171.205 484.864 160.853C482.961 157.926 478.49 155.048 471.452 152.219C459.801 157.214 454.043 157.37 454.18 152.686C450.755 153.809 446.209 155.8 440.544 158.659C435.823 162.246 431.8 171.973 428.477 187.84C423.072 181.066 417.464 173.882 411.653 166.289C410.358 166.655 409.061 167.647 407.748 169.263V169.274ZM468.433 220.015C465.043 208.868 466.915 195.111 474.049 178.744C475.844 186.82 477.784 194.767 479.868 202.585C477.457 203.735 473.645 209.545 468.433 220.015Z" fill="#7433ED"/>
<path fill-rule="evenodd" clip-rule="evenodd" d="M469.7 234.548C468.048 234.42 465.385 232.987 461.711 230.25C450.944 233.734 442.308 233.934 435.805 230.848C434.644 249.167 439.145 268.371 444.858 289.775C450.451 299.174 450.216 305.78 453.198 327.458C454.85 328.64 457.584 328.469 461.4 326.947C462.613 308.46 461.777 296.22 456.981 289.321C457.733 283.124 455.768 267.886 455.663 258.32C459.154 266.1 461.548 276.612 466.093 287.225C471.63 300.147 475.482 313.977 478.403 326.593C481.34 327.217 484.401 326.846 487.104 325.539C484.001 304.801 480.564 290.529 476.792 282.723C476.936 262.328 474.996 244.016 470.971 227.786C470.22 229.706 469.797 231.96 469.7 234.548Z" fill="url(#paint2_linear_8_116)"/>
<path fill-rule="evenodd" clip-rule="evenodd" d="M461.712 230.25C465.386 232.987 468.048 234.42 469.701 234.548C469.796 231.953 470.219 229.698 470.971 227.781C469.751 225.89 467.199 224.653 466.081 224.88L461.712 230.25Z" fill="#FFB17D"/>
<path fill-rule="evenodd" clip-rule="evenodd" d="M434.983 198.046C435.334 187.376 436.189 178.629 437.548 171.806C434.096 186.295 430.756 195.912 427.529 200.657C425.483 200.592 422.891 199.379 419.754 197.018C421.742 199.76 423.982 202.31 426.445 204.634C429.648 203.658 432.494 201.462 434.983 198.046Z" fill="#5416CE"/>
<path fill-rule="evenodd" clip-rule="evenodd" d="M466.081 224.864C466.761 223.197 467.546 221.574 468.432 220.007C465.042 208.86 466.914 195.103 474.048 178.736C463.678 193.489 460.735 209.217 465.221 225.919L466.081 224.864Z" fill="#5416CE"/>
<path fill-rule="evenodd" clip-rule="evenodd" d="M459.959 148.722C458.811 149.286 457.241 149.615 455.247 149.708C455.282 150.354 455.272 151 455.216 151.644C457.116 151.322 458.816 150.274 459.959 148.722Z" fill="#EF8161"/>
<path fill-rule="evenodd" clip-rule="evenodd" d="M460.958 331.364C460.566 330.042 460.419 328.659 460.525 327.284C457.613 328.339 455.39 328.522 453.857 327.833C453.946 328.846 453.82 329.866 453.488 330.826C456.141 330.734 454.928 333.946 460.958 331.354V331.364ZM480.204 329.574C481.119 329.334 482.416 329.434 482.904 329.821C483.856 330.576 485.565 329.384 487.075 328.197C486.801 327.43 486.585 326.644 486.429 325.844C484.625 326.603 482.674 326.952 480.719 326.865C480.77 327.795 480.588 328.722 480.189 329.563L480.204 329.574Z" fill="#FFB17D"/>
<path fill-rule="evenodd" clip-rule="evenodd" d="M469.811 237.151C469.697 236.289 469.66 235.418 469.7 234.548C468.048 234.42 465.385 232.987 461.712 230.25C460.833 230.533 459.974 230.796 459.136 231.041C461.72 233.726 465.278 235.762 469.811 237.151Z" fill="#5416CE"/>
<path fill-rule="evenodd" clip-rule="evenodd" d="M407.747 169.274C407.531 168.733 406.653 167.048 405.796 164.933C403.666 163.84 401.966 161.449 400.697 157.762C401.457 155.289 403.062 153.743 405.514 153.126C406.344 156.182 407.58 158.428 409.224 159.864C408.814 156.677 409.342 155.677 410.806 156.866C410.603 157.359 410.592 157.91 410.774 158.411C411.764 160.022 411.676 161.858 410.511 163.92C410.953 164.849 411.439 165.79 411.657 166.294C410.337 166.724 409.089 167.65 407.747 169.274Z" fill="#FFB17D"/>
<path fill-rule="evenodd" clip-rule="evenodd" d="M410.424 147.438L402.039 145.534C401.837 145.487 401.627 145.481 401.422 145.516C401.217 145.551 401.02 145.626 400.844 145.736C400.668 145.847 400.516 145.991 400.396 146.161C400.275 146.331 400.19 146.523 400.144 146.726L396.134 164.382C396.087 164.585 396.081 164.795 396.116 165C396.151 165.205 396.226 165.402 396.337 165.578C396.448 165.754 396.593 165.907 396.763 166.027C396.933 166.147 397.125 166.232 397.328 166.278L405.709 168.182C405.912 168.229 406.122 168.235 406.327 168.2C406.532 168.165 406.728 168.09 406.904 167.979C407.08 167.869 407.233 167.724 407.353 167.555C407.473 167.385 407.559 167.193 407.605 166.99L411.615 149.321C411.705 148.913 411.63 148.486 411.407 148.134C411.184 147.781 410.83 147.531 410.424 147.438Z" fill="#1E77D0"/>
<path fill-rule="evenodd" clip-rule="evenodd" d="M409.224 159.864C408.206 157.401 409.345 155.676 410.806 156.866C410.601 157.359 410.591 157.911 410.777 158.411C411.395 159.405 411.603 160.6 411.357 161.745L409.224 159.864Z" fill="#FFB17D"/>
<path fill-rule="evenodd" clip-rule="evenodd" d="M451.774 126.15C450.693 126.98 450.341 127.889 450.719 128.879C452.38 129.813 453.962 129.844 455.465 128.972C454.558 128.919 453.328 127.978 451.774 126.15Z" fill="#284190"/>
<path fill-rule="evenodd" clip-rule="evenodd" d="M453.547 152.91C453.579 153.622 453.766 154.319 454.095 154.951C454.519 155.795 455.235 156.456 456.11 156.81C457.118 157.193 458.201 157.333 459.273 157.219C462.221 157.008 467.083 155.373 472.456 152.63L470.874 152.011C465.659 154.664 461.957 155.724 459.184 155.922C458.318 156.019 457.442 155.916 456.624 155.618C456.034 155.377 455.552 154.93 455.266 154.36C455.009 153.737 454.862 153.074 454.831 152.401L453.547 152.91Z" fill="#5416CE"/>
<path fill-rule="evenodd" clip-rule="evenodd" d="M457.022 161.164C458.359 161.164 459.451 160.268 459.451 159.168C459.451 158.068 458.359 157.174 457.022 157.174C455.686 157.174 454.597 158.071 454.597 159.168C454.597 160.265 455.686 161.164 457.022 161.164Z" fill="#5416CE"/>
<path fill-rule="evenodd" clip-rule="evenodd" d="M456.331 161.439C455.432 161.312 454.617 161.811 454.515 162.552C454.412 163.293 455.06 163.997 455.959 164.121C456.859 164.245 457.673 163.746 457.776 163.005C457.879 162.264 457.233 161.571 456.331 161.439Z" fill="#5416CE"/>
<path d="M511.436 206.72C521.665 206.72 529.958 198.135 529.958 187.545C529.958 176.955 521.665 168.369 511.436 168.369C501.207 168.369 492.914 176.955 492.914 187.545C492.914 198.135 501.207 206.72 511.436 206.72Z" fill="white"/>
<path fill-rule="evenodd" clip-rule="evenodd" d="M154.412 180.891C153.273 196.672 150.937 198.851 135.896 200.074C150.937 201.29 153.265 203.466 154.412 219.25C155.564 203.466 157.892 201.29 172.936 200.074C157.892 198.851 155.564 196.672 154.412 180.891Z" fill="white"/>
<path fill-rule="evenodd" clip-rule="evenodd" d="M211.195 55.6484C210.451 65.8387 208.951 67.2523 199.235 68.0303C208.951 68.8215 210.451 70.2218 211.195 80.4121C211.936 70.2218 213.441 68.8083 223.154 68.0303C213.441 67.2444 211.936 65.8387 211.195 55.6484Z" fill="white"/>
<path fill-rule="evenodd" clip-rule="evenodd" d="M501.659 137.682C500.915 147.873 499.415 149.286 489.702 150.078C499.415 150.869 500.915 152.266 501.659 162.457C502.402 152.266 503.903 150.853 513.618 150.078C503.903 149.278 502.402 147.873 501.659 137.682Z" fill="white"/>
</g>
<path d="M38.922 165.576L32.8088 188.398L10.4651 188.87C3.78758 176.485 0 162.315 0 147.256C0 132.695 3.5413 118.963 9.81849 106.872H9.82329L29.7155 110.519L38.4295 130.292C36.6056 135.609 35.6116 141.317 35.6116 147.256C35.6123 153.702 36.7799 159.878 38.922 165.576Z" fill="white"/>
<path d="M174.09 130.852C175.099 136.164 175.625 141.65 175.625 147.256C175.625 153.543 174.964 159.675 173.705 165.591C169.43 185.72 158.26 203.297 142.787 215.735L142.782 215.73L117.727 214.452L114.181 192.315C124.448 186.294 132.472 176.871 136.699 165.591H89.7432V130.852H137.384H174.09Z" fill="white"/>
<path d="M142.782 215.731L142.787 215.735C127.739 227.831 108.622 235.069 87.8128 235.069C54.3719 235.069 25.2975 216.377 10.4658 188.871L38.9228 165.577C46.3384 185.368 65.4304 199.457 87.8128 199.457C97.4334 199.457 106.446 196.856 114.18 192.316L142.782 215.731Z" fill="white"/>
<path d="M143.861 79.6602L115.414 102.95C107.41 97.9464 97.9478 95.0561 87.811 95.0561C64.9219 95.0561 45.4729 109.791 38.4287 130.292L9.82219 106.872H9.81738C24.4319 78.6953 53.873 59.4442 87.811 59.4442C109.117 59.4442 128.653 67.0338 143.861 79.6602Z" fill="white"/>
<path d="M42.0099 162.489L35.8967 185.311L13.553 185.783C6.87547 173.398 3.08789 159.228 3.08789 144.169C3.08789 129.608 6.62919 115.876 12.9064 103.785H12.9112L32.8034 107.432L41.5173 127.205C39.6935 132.522 38.6995 138.23 38.6995 144.169C38.7002 150.615 39.8678 156.791 42.0099 162.489Z" fill="#FBBB00"/>
<path d="M177.177 127.765C178.186 133.077 178.712 138.562 178.712 144.169C178.712 150.456 178.051 156.588 176.791 162.504C172.517 182.633 161.347 200.21 145.874 212.648L145.869 212.643L120.814 211.365L117.268 189.228C127.535 183.207 135.559 173.784 139.786 162.504H92.8301V127.765H140.471H177.177Z" fill="#518EF8"/>
<path d="M145.869 212.643L145.874 212.648C130.825 224.744 111.709 231.981 90.8998 231.981C57.4588 231.981 28.3844 213.29 13.5527 185.783L42.0097 162.489C49.4253 182.281 68.5173 196.369 90.8998 196.369C100.52 196.369 109.533 193.769 117.267 189.228L145.869 212.643Z" fill="#28B446"/>
<path d="M146.949 76.5732L118.502 99.8626C110.497 94.8594 101.036 91.9691 90.8989 91.9691C68.0098 91.9691 48.5608 106.704 41.5166 127.205L12.9101 103.785H12.9053C27.5198 75.6083 56.9609 56.3572 90.8989 56.3572C112.205 56.3572 131.741 63.9468 146.949 76.5732Z" fill="#F14336"/>
<defs>
<linearGradient id="paint0_linear_8_116" x1="331.715" y1="181.081" x2="360.458" y2="270.894" gradientUnits="userSpaceOnUse">
<stop stop-color="#FF4055"/>
<stop offset="1" stop-color="#B82133"/>
</linearGradient>
<linearGradient id="paint1_linear_8_116" x1="347.603" y1="221.51" x2="354.74" y2="263.182" gradientUnits="userSpaceOnUse">
<stop stop-color="white"/>
<stop offset="0.59" stop-color="#DDE3EF"/>
<stop offset="1" stop-color="#CAD3E6"/>
</linearGradient>
<linearGradient id="paint2_linear_8_116" x1="460.739" y1="275.932" x2="432.883" y2="251.905" gradientUnits="userSpaceOnUse">
<stop stop-color="#201D3E"/>
<stop offset="1" stop-color="#47408F"/>
</linearGradient>
<clipPath id="clip0_8_116">
<rect width="489.417" height="349.266" fill="white" transform="translate(84.583)"/>
</clipPath>
</defs>
</svg>
