<svg width="574" height="394" viewBox="0 0 574 394" fill="none" xmlns="http://www.w3.org/2000/svg">
<path fill-rule="evenodd" clip-rule="evenodd" d="M292.783 317.363C407.372 317.363 500.263 321.901 500.263 327.505C500.263 333.109 407.372 337.643 292.783 337.643C178.195 337.643 85.3057 333.101 85.3057 327.505C85.3057 321.909 178.196 317.363 292.783 317.363Z" fill="#B6D8F8"/>
<path d="M472.497 155.175L469.402 155.172V153.932L472.5 153.935L472.497 155.175Z" fill="#111228"/>
<path d="M494.997 275.799H488.814L488.711 274.558H494.997V275.799ZM501.281 275.799V274.558H507.564V275.799H501.281ZM482.425 275.799H476.134V274.558H482.425V275.799ZM513.85 275.799V274.558C516.194 274.558 518.236 274.551 519.905 274.545H520.113L520.162 275.784H519.908C518.237 275.782 516.194 275.785 513.85 275.79V275.799ZM469.847 275.799H463.559V274.56H469.847V275.799ZM457.273 275.787H450.987V274.546H457.273V275.787ZM444.698 275.776L438.412 275.769V274.529H444.7L444.698 275.776ZM526.12 272.955L525.189 272.135C526.328 270.839 526.955 269.172 526.953 267.447V266.733H528.193V267.447C528.195 269.474 527.458 271.432 526.12 272.955ZM528.187 260.45H526.947V254.169H528.187V260.45ZM528.187 247.886H526.947V241.603H528.187V247.886ZM528.187 235.319H526.947V229.036H528.187V235.319ZM528.187 222.753H526.947V216.472H528.187V222.753ZM528.187 210.189H526.947V203.906H528.187V210.189ZM528.187 197.622H526.947V191.341H528.187V197.622ZM528.187 185.058H526.947V178.775H528.187V185.058ZM528.187 172.492H526.947V166.21H528.187V172.492ZM528.187 159.927H526.947V153.642H528.187V159.927ZM528.187 147.361H526.947V141.078H528.187V147.361Z" fill="#111228"/>
<path d="M528.192 131.703H526.951V134.803H528.192V131.703Z" fill="#111228"/>
<path d="M550.788 173.127C563.608 160.307 563.608 139.522 550.788 126.702C537.968 113.883 517.183 113.883 504.364 126.702C491.544 139.522 491.544 160.307 504.364 173.127C517.183 185.947 537.968 185.947 550.788 173.127Z" fill="url(#paint0_linear_8_117)"/>
<path d="M512.261 148.238C512.167 150.376 512.522 152.51 513.304 154.502C514.086 156.495 515.277 158.301 516.8 159.804C518.838 161.823 520.319 164.129 521.04 166.736H534.096C534.778 164.188 536.153 161.9 538.173 159.967C540.453 157.781 542.002 154.945 542.608 151.846C543.214 148.747 542.848 145.536 541.56 142.653C540.272 139.77 538.125 137.355 535.412 135.739C532.699 134.122 529.553 133.384 526.404 133.624C518.712 134.201 512.589 140.536 512.261 148.238Z" fill="white"/>
<path d="M521.298 153.009C521.298 153.578 521.524 154.123 521.927 154.525C522.329 154.927 522.875 155.153 523.443 155.153H524.772V167.283C524.784 167.373 524.828 167.456 524.895 167.516C524.963 167.576 525.051 167.609 525.142 167.609C525.232 167.609 525.32 167.576 525.388 167.516C525.456 167.456 525.499 167.373 525.511 167.283V155.153H529.626V167.283C529.637 167.373 529.681 167.456 529.749 167.516C529.817 167.576 529.905 167.609 529.995 167.609C530.086 167.609 530.173 167.576 530.241 167.516C530.309 167.456 530.353 167.373 530.364 167.283V155.153H531.693C532.262 155.152 532.807 154.927 533.21 154.525C533.612 154.123 533.838 153.577 533.839 153.009C533.839 151.68 532.591 150.732 531.642 150.866C531.095 150.899 530.582 151.138 530.206 151.537C529.83 151.935 529.621 152.461 529.62 153.009V154.412H525.517V153.009C525.517 151.662 524.257 150.733 523.319 150.866C522.773 150.899 522.259 151.138 521.884 151.537C521.508 151.935 521.298 152.461 521.298 153.009ZM530.375 153.009C530.382 152.738 530.469 152.476 530.625 152.255C530.781 152.034 531 151.865 531.252 151.768C531.505 151.671 531.78 151.651 532.044 151.711C532.308 151.771 532.548 151.908 532.734 152.104C532.92 152.301 533.044 152.548 533.089 152.815C533.135 153.081 533.1 153.355 532.99 153.602C532.88 153.849 532.699 154.058 532.47 154.202C532.241 154.346 531.974 154.419 531.704 154.412H530.375V153.009ZM522.041 153.009C522.035 152.826 522.065 152.643 522.131 152.472C522.197 152.301 522.297 152.145 522.425 152.013C522.552 151.881 522.705 151.776 522.874 151.705C523.042 151.633 523.224 151.597 523.407 151.597C523.591 151.597 523.772 151.633 523.941 151.705C524.11 151.776 524.262 151.881 524.39 152.013C524.517 152.145 524.617 152.301 524.683 152.472C524.749 152.643 524.78 152.826 524.774 153.009V154.412H523.445C523.073 154.411 522.716 154.263 522.453 154C522.19 153.737 522.041 153.381 522.041 153.009Z" fill="url(#paint1_linear_8_117)"/>
<path d="M520.327 167.484V170.742C520.328 170.94 520.407 171.13 520.547 171.27C520.688 171.41 520.877 171.49 521.076 171.49H534.07C534.168 171.49 534.265 171.471 534.355 171.433C534.445 171.395 534.527 171.34 534.596 171.27C534.665 171.201 534.719 171.118 534.755 171.027C534.792 170.937 534.81 170.84 534.809 170.742V167.484C534.809 167.287 534.732 167.098 534.593 166.958C534.455 166.818 534.267 166.738 534.07 166.736H521.076C520.878 166.737 520.688 166.816 520.548 166.956C520.408 167.096 520.328 167.286 520.327 167.484Z" fill="#373A50"/>
<path d="M523.13 171.49V173.282C523.129 173.356 523.144 173.43 523.172 173.499C523.2 173.568 523.242 173.63 523.294 173.683C523.347 173.736 523.409 173.778 523.478 173.806C523.547 173.835 523.621 173.849 523.695 173.849H531.454C531.528 173.849 531.602 173.834 531.67 173.805C531.739 173.777 531.802 173.735 531.854 173.682C531.907 173.63 531.948 173.567 531.977 173.498C532.005 173.43 532.019 173.356 532.019 173.282V171.495L523.13 171.49Z" fill="#373A50"/>
<path d="M527.701 130.393C527.872 130.392 528.037 130.324 528.158 130.202C528.279 130.081 528.348 129.916 528.348 129.744V126.63C528.352 126.543 528.338 126.455 528.307 126.373C528.277 126.291 528.23 126.215 528.169 126.152C528.109 126.088 528.036 126.038 527.955 126.003C527.875 125.969 527.788 125.951 527.7 125.951C527.612 125.951 527.525 125.969 527.445 126.003C527.364 126.038 527.291 126.088 527.231 126.152C527.17 126.215 527.123 126.291 527.093 126.373C527.062 126.455 527.048 126.543 527.052 126.63V129.744C527.053 129.916 527.121 130.081 527.243 130.202C527.364 130.324 527.529 130.392 527.701 130.393Z" fill="white"/>
<path d="M535.902 132.252L537.46 129.554C537.507 129.48 537.539 129.397 537.553 129.311C537.567 129.225 537.564 129.136 537.543 129.052C537.522 128.967 537.484 128.887 537.431 128.817C537.379 128.747 537.313 128.688 537.237 128.645C537.161 128.601 537.077 128.573 536.99 128.563C536.903 128.552 536.815 128.559 536.731 128.584C536.647 128.609 536.569 128.65 536.502 128.705C536.434 128.761 536.378 128.829 536.338 128.907L534.78 131.605C534.703 131.753 534.686 131.925 534.733 132.086C534.78 132.246 534.887 132.382 535.032 132.466C535.176 132.549 535.348 132.573 535.51 132.534C535.672 132.494 535.813 132.393 535.902 132.252Z" fill="white"/>
<path d="M541.189 138.2L543.887 136.643C543.965 136.603 544.033 136.547 544.089 136.48C544.144 136.412 544.186 136.334 544.21 136.25C544.235 136.166 544.242 136.078 544.232 135.991C544.221 135.904 544.193 135.82 544.15 135.744C544.106 135.669 544.047 135.603 543.977 135.55C543.907 135.497 543.827 135.46 543.743 135.439C543.658 135.418 543.569 135.414 543.483 135.428C543.397 135.443 543.314 135.474 543.24 135.521L540.542 137.079C540.469 137.121 540.404 137.178 540.353 137.245C540.301 137.313 540.263 137.39 540.241 137.472C540.219 137.554 540.213 137.639 540.224 137.724C540.235 137.808 540.263 137.889 540.305 137.963C540.348 138.036 540.404 138.101 540.472 138.152C540.539 138.204 540.616 138.242 540.698 138.264C540.78 138.286 540.866 138.292 540.95 138.281C541.034 138.27 541.116 138.242 541.189 138.2Z" fill="white"/>
<path d="M514.841 137.525C514.884 137.451 514.912 137.37 514.923 137.285C514.934 137.201 514.928 137.115 514.907 137.033C514.885 136.951 514.847 136.873 514.795 136.806C514.743 136.738 514.679 136.681 514.605 136.639L511.907 135.081C511.833 135.038 511.752 135.011 511.668 135C511.584 134.988 511.498 134.994 511.416 135.016C511.334 135.038 511.257 135.076 511.189 135.127C511.122 135.179 511.065 135.244 511.023 135.317C510.98 135.391 510.952 135.472 510.941 135.556C510.93 135.641 510.936 135.726 510.957 135.808C510.979 135.891 511.017 135.968 511.069 136.035C511.121 136.103 511.185 136.159 511.259 136.202L513.957 137.76C514.03 137.802 514.111 137.83 514.195 137.841C514.28 137.853 514.365 137.847 514.448 137.826C514.53 137.804 514.607 137.766 514.674 137.714C514.742 137.663 514.798 137.598 514.841 137.525Z" fill="white"/>
<path d="M519.993 132.323C520.106 132.323 520.217 132.293 520.315 132.236C520.389 132.193 520.454 132.137 520.506 132.069C520.558 132.001 520.596 131.924 520.618 131.842C520.64 131.76 520.646 131.674 520.635 131.589C520.623 131.505 520.596 131.423 520.553 131.35L518.995 128.652C518.909 128.503 518.767 128.395 518.602 128.35C518.436 128.306 518.259 128.33 518.11 128.415C517.962 128.501 517.853 128.643 517.809 128.809C517.765 128.975 517.788 129.151 517.874 129.3L519.43 131.998C519.488 132.096 519.57 132.178 519.668 132.235C519.767 132.292 519.879 132.322 519.993 132.323Z" fill="white"/>
<path d="M477.008 16.6579V303.991C477.008 306.833 476.447 309.648 475.358 312.274C474.27 314.9 472.675 317.286 470.664 319.295C468.653 321.305 466.266 322.899 463.64 323.986C461.013 325.073 458.198 325.632 455.355 325.631H447.331V0.00439453H460.355C462.542 0.00439453 464.707 0.435146 466.728 1.27206C468.748 2.10898 470.584 3.33567 472.131 4.88209C473.677 6.42851 474.904 8.26438 475.741 10.2849C476.578 12.3054 477.008 14.4709 477.008 16.6579Z" fill="#9464F1"/>
<path d="M469.405 28.3293V304.017C469.404 306.86 468.844 309.675 467.755 312.301C466.666 314.927 465.071 317.313 463.06 319.322C461.05 321.332 458.663 322.925 456.036 324.012C453.409 325.099 450.594 325.658 447.752 325.657H140.513C137.67 325.658 134.855 325.099 132.228 324.012C129.602 322.925 127.215 321.332 125.204 319.322C123.193 317.313 121.598 314.927 120.509 312.301C119.421 309.675 118.86 306.86 118.859 304.017V28.3293H469.405Z" fill="white"/>
<path d="M469.405 28.2983V16.6535C469.405 12.2367 467.65 8.00085 464.527 4.87771C461.404 1.75458 457.168 2.35944e-06 452.752 2.35944e-06H135.513C133.326 -0.00116223 131.159 0.428805 129.138 1.26531C127.117 2.10181 125.281 3.32845 123.734 4.8751C122.188 6.42175 120.961 8.25809 120.125 10.2791C119.288 12.3001 118.858 14.4662 118.859 16.6535V28.2983H469.405Z" fill="#9464F1"/>
<path d="M159.664 16.1279C159.665 17.2141 159.987 18.2757 160.591 19.1786C161.195 20.0815 162.053 20.785 163.056 21.2004C164.06 21.6158 165.164 21.7244 166.23 21.5123C167.295 21.3003 168.273 20.7772 169.041 20.0091C169.809 19.2411 170.332 18.2626 170.545 17.1973C170.757 16.132 170.648 15.0278 170.233 14.0242C169.817 13.0206 169.114 12.1626 168.211 11.5588C167.308 10.955 166.246 10.6324 165.16 10.6318C164.438 10.6316 163.724 10.7737 163.057 11.0498C162.39 11.3259 161.784 11.7308 161.273 12.2412C160.763 12.7515 160.358 13.3575 160.082 14.0244C159.806 14.6913 159.664 15.4061 159.664 16.1279Z" fill="url(#paint2_linear_8_117)"/>
<path d="M144.807 16.2313C144.807 17.3174 145.13 18.3791 145.734 19.2819C146.337 20.1848 147.195 20.8884 148.199 21.3038C149.203 21.7192 150.307 21.8277 151.372 21.6157C152.437 21.4037 153.416 20.8806 154.184 20.1125C154.952 19.3445 155.475 18.366 155.687 17.3007C155.899 16.2354 155.791 15.1312 155.375 14.1276C154.96 13.124 154.256 12.266 153.353 11.6622C152.45 11.0584 151.389 10.7358 150.303 10.7352C149.581 10.7348 148.866 10.8767 148.199 11.1528C147.532 11.4289 146.926 11.8337 146.416 12.3441C145.905 12.8545 145.5 13.4606 145.224 14.1276C144.948 14.7945 144.806 15.5094 144.807 16.2313Z" fill="url(#paint3_linear_8_117)"/>
<path d="M129.85 16.2313C129.85 17.3174 130.173 18.3791 130.777 19.2819C131.38 20.1848 132.238 20.8884 133.242 21.3038C134.246 21.7192 135.35 21.8277 136.415 21.6157C137.48 21.4037 138.459 20.8806 139.227 20.1125C139.995 19.3445 140.518 18.366 140.73 17.3007C140.942 16.2354 140.834 15.1312 140.418 14.1276C140.003 13.124 139.299 12.266 138.396 11.6622C137.493 11.0584 136.432 10.7358 135.346 10.7352C134.624 10.7348 133.909 10.8767 133.242 11.1528C132.575 11.4289 131.969 11.8337 131.458 12.3441C130.948 12.8545 130.543 13.4606 130.267 14.1276C129.991 14.7945 129.849 15.5094 129.85 16.2313Z" fill="url(#paint4_linear_8_117)"/>
<path d="M490.182 62.6715H312.196C308.315 62.6715 305.169 65.8177 305.169 69.6988V102.457C305.169 106.338 308.315 109.484 312.196 109.484H490.182C494.063 109.484 497.21 106.338 497.21 102.457V69.6988C497.21 65.8177 494.063 62.6715 490.182 62.6715Z" fill="url(#paint5_linear_8_117)"/>
<path d="M494.349 62.6715H462.832V109.481H494.349C496.213 109.481 498 108.74 499.318 107.423C500.636 106.105 501.377 104.317 501.377 102.454V69.6988C501.377 67.8351 500.636 66.0476 499.318 64.7298C498 63.4119 496.213 62.6715 494.349 62.6715Z" fill="url(#paint6_linear_8_117)"/>
<path d="M490.183 62.6715H458.669V109.481H490.183C492.047 109.481 493.834 108.74 495.152 107.423C496.47 106.105 497.211 104.317 497.211 102.454V69.6988C497.211 67.8351 496.47 66.0476 495.152 64.7298C493.834 63.4119 492.047 62.6715 490.183 62.6715Z" fill="url(#paint7_linear_8_117)"/>
<path d="M485.893 78.1273C484.319 76.5501 482.226 75.5978 480.003 75.4474C477.78 75.297 475.578 75.9587 473.806 77.3095C472.034 78.6603 470.813 80.6085 470.369 82.792C469.925 84.9755 470.289 87.2459 471.393 89.1814L468.011 92.5629C467.569 93.0228 467.325 93.6376 467.331 94.2755C467.337 94.9133 467.594 95.5233 468.045 95.9743C468.496 96.4254 469.106 96.6815 469.744 96.6878C470.381 96.6941 470.996 96.45 471.456 96.0079L474.839 92.6264C476.774 93.7261 479.043 94.0867 481.224 93.6416C483.404 93.1965 485.35 91.9757 486.7 90.2055C488.049 88.4354 488.711 86.236 488.563 84.0151C488.415 81.7942 487.466 79.7023 485.893 78.1273ZM482.447 87.69C481.841 88.2967 481.07 88.7102 480.229 88.8782C479.389 89.0461 478.518 88.9609 477.726 88.6334C476.934 88.3059 476.257 87.7508 475.78 87.0384C475.304 86.3259 475.05 85.4882 475.05 84.6312C475.05 83.7741 475.304 82.9364 475.78 82.2239C476.257 81.5115 476.934 80.9564 477.726 80.6289C478.518 80.3014 479.389 80.2162 480.229 80.3841C481.07 80.5521 481.841 80.9656 482.447 81.5723C483.255 82.385 483.709 83.4847 483.709 84.6312C483.709 85.7776 483.255 86.8773 482.447 87.69Z" fill="white"/>
<path d="M139.04 166.32L153.525 180.941C154.257 181.68 155.45 181.686 156.189 180.954L164.947 172.278C165.686 171.546 165.692 170.353 164.959 169.614L150.475 154.992C149.742 154.253 148.549 154.247 147.81 154.98L139.053 163.655C138.313 164.387 138.308 165.58 139.04 166.32Z" fill="#B2C7FF"/>
<path d="M153.84 166.024C181.784 194.228 227.326 194.448 255.533 166.504C283.739 138.56 283.956 93.031 256.012 64.8228C228.069 36.6146 182.551 36.3754 154.331 64.3429C126.108 92.2779 125.891 137.817 153.84 166.024Z" fill="#D1DEFF"/>
<path d="M122.457 179.419L119.818 186.211L122.81 185.34C122.81 185.34 130.074 182.806 130.614 179.234C131.154 175.662 122.457 179.419 122.457 179.419Z" fill="#FFDAD9"/>
<path d="M171.854 167.575V167.589C198.51 184.41 233.589 178.596 253.257 153.857C272.873 129.29 270.611 93.7812 248.788 71.958C223.094 45.9958 178.934 47.375 155.792 78.0226C133.461 107.266 141.968 148.685 171.854 167.575Z" fill="white"/>
<path d="M256.104 110.026V120.901C256.105 121.578 255.895 122.239 255.502 122.79C255.11 123.342 254.555 123.757 253.915 123.978L247.636 126.193C246.59 126.511 245.893 127.336 245.543 128.318C243.712 134.733 241.619 135.292 242.69 138.055L245.67 144.047C245.928 144.659 246.003 145.332 245.885 145.986C245.767 146.639 245.46 147.244 245.004 147.726L237.204 155.496C236.252 156.479 234.762 156.701 233.493 156.131L227.532 153.244C226.58 152.801 225.465 152.801 224.614 153.338C222.439 154.49 220.155 155.425 217.797 156.131C217.303 156.293 216.852 156.566 216.478 156.928C216.105 157.29 215.818 157.733 215.641 158.222L213.483 164.373C213.009 165.769 211.803 166.531 210.382 166.531H199.467C198.039 166.531 196.898 165.769 196.39 164.373L194.265 158.222C194.082 157.735 193.794 157.296 193.422 156.934C193.049 156.573 192.601 156.298 192.109 156.131C189.755 155.414 187.472 154.479 185.291 153.338C184.406 152.799 183.326 152.799 182.338 153.244L176.376 156.131C175.761 156.416 175.074 156.508 174.406 156.395C173.738 156.282 173.12 155.968 172.634 155.496L164.955 147.726C164.453 147.271 164.12 146.66 164.011 145.992C163.901 145.324 164.022 144.638 164.353 144.047L167.217 138.054C168.266 135.348 166.233 134.86 164.365 128.317C164.015 127.335 163.318 126.509 162.271 126.192L155.992 123.977C154.629 123.501 153.74 122.327 153.74 120.9V110.024C153.74 108.596 154.626 107.391 155.992 106.883L162.271 104.696C162.726 104.521 163.138 104.249 163.478 103.898C163.817 103.547 164.077 103.127 164.238 102.666C165.062 100.224 165.886 97.9408 167.09 95.7849C167.329 95.3509 167.464 94.868 167.486 94.3733C167.508 93.8786 167.416 93.3855 167.217 92.9321L164.238 86.9384C163.697 85.6094 163.92 84.1151 164.904 83.1966L172.64 75.3941C173.133 74.9332 173.752 74.6297 174.419 74.5223C175.085 74.415 175.769 74.5088 176.381 74.7916L182.436 77.7094C182.888 77.9032 183.377 77.998 183.87 77.9873C184.362 77.9766 184.846 77.8607 185.29 77.6474C187.476 76.5015 189.757 75.546 192.108 74.7916C193.06 74.4446 193.88 73.7461 194.2 72.7642L196.388 66.484C196.896 65.1551 198.038 64.2957 199.466 64.2957H210.374C211.055 64.2893 211.72 64.4972 212.277 64.8899C212.833 65.2826 213.252 65.8403 213.475 66.484L215.689 72.7642C216.005 73.7461 216.798 74.4446 217.782 74.7916C220.132 75.5458 222.413 76.5013 224.599 77.6474C225.043 77.8605 225.528 77.9763 226.02 77.987C226.512 77.9977 227.001 77.9031 227.454 77.7094L233.478 74.7916C234.747 74.2231 236.237 74.4446 237.189 75.3941L244.989 83.1966C245.909 84.1151 246.194 85.6065 245.655 86.9384L242.675 92.9321C242.479 93.385 242.385 93.8758 242.402 94.3691C242.418 94.8624 242.544 95.346 242.769 95.7849C243.951 97.9423 244.837 100.224 245.655 102.666C245.795 103.138 246.047 103.568 246.39 103.922C246.732 104.275 247.155 104.541 247.622 104.696L253.9 106.883C254.544 107.12 255.1 107.548 255.493 108.11C255.887 108.671 256.1 109.34 256.104 110.026Z" fill="url(#paint8_linear_8_117)"/>
<path d="M241.814 115.297C241.838 135.675 225.375 152.238 204.991 152.309C184.68 152.38 168.05 135.87 168.026 115.463C167.979 95.1515 184.513 78.5925 204.826 78.5216C225.233 78.498 241.767 94.9847 241.814 115.297Z" fill="url(#paint9_linear_8_117)"/>
<path d="M237.727 115.313C237.748 133.436 223.108 148.158 204.987 148.222C186.928 148.285 172.141 133.603 172.12 115.461C172.077 97.4003 186.779 82.6797 204.839 82.6148C222.984 82.5911 237.686 97.2497 237.727 115.313Z" fill="white"/>
<path d="M192.064 94.5565L190.125 91.1986C190.031 91.0364 190.006 90.8437 190.054 90.6627C190.103 90.4818 190.221 90.3274 190.383 90.2336C190.545 90.1398 190.738 90.1143 190.919 90.1626C191.1 90.2109 191.254 90.3291 191.348 90.4913L193.288 93.8506C193.382 94.0129 193.407 94.2058 193.358 94.3868C193.31 94.5678 193.191 94.722 193.029 94.8156C192.867 94.9092 192.674 94.9345 192.493 94.8859C192.312 94.8373 192.158 94.7188 192.064 94.5565Z" fill="#111228"/>
<path d="M218.497 140.339L216.558 136.982C216.502 136.901 216.464 136.81 216.445 136.714C216.426 136.618 216.427 136.519 216.449 136.424C216.47 136.328 216.511 136.238 216.569 136.159C216.627 136.081 216.701 136.015 216.786 135.966C216.871 135.917 216.965 135.887 217.063 135.876C217.16 135.866 217.258 135.876 217.352 135.906C217.445 135.935 217.531 135.984 217.604 136.049C217.678 136.114 217.737 136.193 217.778 136.282L219.717 139.641C219.81 139.803 219.836 139.996 219.787 140.177C219.739 140.358 219.621 140.512 219.458 140.605C219.296 140.699 219.104 140.724 218.923 140.676C218.742 140.627 218.588 140.509 218.494 140.347L218.497 140.339Z" fill="#111228"/>
<path d="M183.357 103.779L179.999 101.841C179.919 101.794 179.849 101.733 179.792 101.659C179.736 101.586 179.695 101.502 179.671 101.412C179.647 101.323 179.64 101.229 179.653 101.137C179.665 101.045 179.695 100.957 179.741 100.876C179.787 100.796 179.849 100.726 179.923 100.669C179.996 100.613 180.08 100.571 180.17 100.547C180.259 100.524 180.353 100.517 180.444 100.529C180.536 100.542 180.625 100.572 180.705 100.618L184.065 102.557C184.227 102.651 184.345 102.805 184.393 102.986C184.442 103.167 184.416 103.36 184.322 103.522C184.229 103.684 184.074 103.802 183.893 103.85C183.712 103.899 183.519 103.873 183.357 103.779Z" fill="#111228"/>
<path d="M229.147 130.213L225.788 128.274C225.708 128.227 225.638 128.166 225.581 128.092C225.525 128.018 225.483 127.934 225.459 127.845C225.436 127.755 225.429 127.662 225.442 127.57C225.454 127.478 225.484 127.389 225.53 127.309C225.577 127.229 225.639 127.158 225.712 127.102C225.786 127.045 225.87 127.004 225.96 126.98C226.049 126.956 226.143 126.95 226.235 126.962C226.327 126.975 226.415 127.005 226.495 127.051L229.853 128.99C230.015 129.084 230.134 129.238 230.182 129.419C230.231 129.599 230.205 129.792 230.112 129.954C230.018 130.116 229.864 130.235 229.683 130.283C229.502 130.332 229.31 130.306 229.147 130.213Z" fill="#111228"/>
<path d="M180.426 116.121H176.549C176.361 116.121 176.182 116.047 176.05 115.914C175.917 115.782 175.843 115.602 175.843 115.415C175.843 115.228 175.917 115.049 176.05 114.916C176.182 114.784 176.361 114.709 176.549 114.709H180.426C180.613 114.709 180.793 114.784 180.925 114.916C181.058 115.049 181.132 115.228 181.132 115.415C181.132 115.602 181.058 115.782 180.925 115.914C180.793 116.047 180.613 116.121 180.426 116.121Z" fill="#111228"/>
<path d="M233.295 116.121H229.418C229.231 116.121 229.051 116.047 228.919 115.914C228.786 115.782 228.712 115.602 228.712 115.415C228.712 115.228 228.786 115.049 228.919 114.916C229.051 114.784 229.231 114.709 229.418 114.709H233.295C233.483 114.709 233.662 114.784 233.794 114.916C233.927 115.049 234.001 115.228 234.001 115.415C234.001 115.602 233.927 115.782 233.794 115.914C233.662 116.047 233.483 116.121 233.295 116.121Z" fill="#111228"/>
<path d="M179.741 129.954C179.647 129.792 179.622 129.6 179.671 129.419C179.719 129.238 179.837 129.084 179.999 128.99L183.357 127.051C183.437 127.005 183.526 126.975 183.618 126.962C183.71 126.95 183.803 126.956 183.893 126.98C183.982 127.004 184.066 127.045 184.14 127.102C184.214 127.158 184.275 127.229 184.322 127.309C184.368 127.389 184.398 127.478 184.411 127.57C184.423 127.662 184.417 127.755 184.393 127.845C184.369 127.934 184.328 128.018 184.271 128.092C184.215 128.166 184.144 128.227 184.064 128.274L180.705 130.213C180.625 130.259 180.536 130.289 180.444 130.302C180.352 130.314 180.259 130.308 180.169 130.284C180.079 130.26 179.995 130.218 179.922 130.162C179.848 130.105 179.787 130.035 179.741 129.954Z" fill="#111228"/>
<path d="M225.523 103.521C225.43 103.359 225.405 103.166 225.454 102.986C225.502 102.805 225.62 102.651 225.782 102.557L229.141 100.618C229.303 100.524 229.496 100.499 229.677 100.547C229.857 100.596 230.012 100.714 230.105 100.876C230.199 101.039 230.224 101.231 230.176 101.412C230.127 101.593 230.009 101.747 229.847 101.841L226.49 103.779C226.41 103.826 226.321 103.857 226.229 103.869C226.137 103.881 226.043 103.875 225.953 103.851C225.863 103.827 225.779 103.786 225.705 103.729C225.631 103.672 225.57 103.602 225.523 103.521Z" fill="#111228"/>
<path d="M190.383 140.598C190.303 140.552 190.233 140.49 190.176 140.416C190.12 140.343 190.078 140.259 190.054 140.169C190.03 140.08 190.024 139.986 190.036 139.895C190.048 139.803 190.078 139.714 190.125 139.634L192.064 136.274C192.161 136.119 192.315 136.007 192.493 135.963C192.67 135.918 192.859 135.945 193.017 136.037C193.176 136.128 193.293 136.278 193.344 136.455C193.394 136.631 193.374 136.82 193.288 136.982L191.346 140.34C191.252 140.501 191.098 140.619 190.918 140.667C190.738 140.716 190.545 140.691 190.383 140.598Z" fill="#111228"/>
<path d="M216.816 94.8149C216.736 94.7685 216.665 94.7068 216.609 94.6333C216.552 94.5597 216.511 94.4758 216.487 94.3863C216.463 94.2967 216.457 94.2033 216.469 94.1114C216.481 94.0195 216.511 93.9309 216.557 93.8506L218.496 90.4913C218.59 90.3291 218.744 90.2109 218.925 90.1626C219.106 90.1143 219.299 90.1398 219.461 90.2336C219.623 90.3274 219.742 90.4818 219.79 90.6627C219.838 90.8437 219.813 91.0364 219.719 91.1986L217.777 94.5565C217.683 94.7175 217.53 94.835 217.35 94.8834C217.17 94.9318 216.978 94.9072 216.816 94.8149Z" fill="#111228"/>
<path d="M204.923 144.493C204.83 144.493 204.738 144.475 204.653 144.44C204.567 144.404 204.489 144.352 204.424 144.287C204.358 144.221 204.306 144.143 204.271 144.058C204.235 143.972 204.217 143.88 204.217 143.787V139.91C204.217 139.723 204.291 139.543 204.424 139.411C204.556 139.278 204.735 139.204 204.923 139.204C205.11 139.204 205.289 139.278 205.422 139.411C205.554 139.543 205.628 139.723 205.628 139.91V143.787C205.628 143.88 205.61 143.972 205.575 144.058C205.539 144.143 205.487 144.221 205.422 144.287C205.356 144.352 205.278 144.404 205.193 144.44C205.107 144.475 205.015 144.493 204.923 144.493Z" fill="#111228"/>
<path d="M204.923 91.6283C204.83 91.6283 204.738 91.61 204.652 91.5744C204.566 91.5389 204.489 91.4867 204.423 91.421C204.357 91.3553 204.305 91.2774 204.27 91.1916C204.235 91.1058 204.217 91.0138 204.217 90.921V87.0434C204.217 86.8562 204.291 86.6766 204.424 86.5443C204.556 86.4119 204.735 86.3375 204.923 86.3375C205.11 86.3375 205.289 86.4119 205.422 86.5443C205.554 86.6766 205.628 86.8562 205.628 87.0434V90.921C205.629 91.0138 205.611 91.1058 205.575 91.1916C205.54 91.2774 205.488 91.3553 205.422 91.421C205.357 91.4867 205.279 91.5389 205.193 91.5744C205.107 91.61 205.015 91.6283 204.923 91.6283Z" fill="#111228"/>
<path d="M201.476 121.334C200.986 120.907 200.634 120.345 200.463 119.719C200.292 119.092 200.311 118.429 200.518 117.813C200.724 117.197 201.108 116.656 201.622 116.258C202.136 115.861 202.756 115.625 203.404 115.58C204.052 115.535 204.699 115.683 205.262 116.005C205.826 116.328 206.282 116.81 206.571 117.392C206.861 117.973 206.971 118.628 206.889 119.272C206.807 119.916 206.535 120.522 206.109 121.012C205.537 121.669 204.728 122.071 203.859 122.132C202.99 122.192 202.133 121.905 201.476 121.334ZM198.161 125.142C199.829 126.592 202.004 127.321 204.209 127.168C206.413 127.016 208.467 125.994 209.918 124.327C212.938 120.857 217.706 102.092 217.706 102.092C217.706 102.092 200.366 109.918 197.346 113.385C195.896 115.052 195.167 117.228 195.32 119.432C195.473 121.637 196.495 123.691 198.161 125.142Z" fill="url(#paint10_linear_8_117)"/>
<path d="M263.86 210.793H157.121C151.178 210.793 146.359 215.611 146.359 221.555V288.947C146.359 294.891 151.178 299.709 157.121 299.709H263.86C269.803 299.709 274.621 294.891 274.621 288.947V221.555C274.621 215.611 269.803 210.793 263.86 210.793Z" fill="url(#paint11_linear_8_117)"/>
<path d="M258.723 210.793H151.984C146.041 210.793 141.223 215.611 141.223 221.555V288.947C141.223 294.891 146.041 299.709 151.984 299.709H258.723C264.666 299.709 269.485 294.891 269.485 288.947V221.555C269.485 215.611 264.666 210.793 258.723 210.793Z" fill="url(#paint12_linear_8_117)"/>
<path d="M177.065 280.126H166.604V290.233H177.065V280.126Z" fill="url(#paint13_linear_8_117)"/>
<path d="M192.292 259.404H181.83V290.233H192.292V259.404Z" fill="url(#paint14_linear_8_117)"/>
<path d="M207.519 250.045H197.057V290.233H207.519V250.045Z" fill="url(#paint15_linear_8_117)"/>
<path d="M222.747 252.932H212.285V290.233H222.747V252.932Z" fill="url(#paint16_linear_8_117)"/>
<path d="M237.974 234.933H227.512V290.233H237.974V234.933Z" fill="url(#paint17_linear_8_117)"/>
<path d="M164.138 272.056C159.265 271.892 154.512 269.088 152.01 264.912C151.878 264.672 151.844 264.39 151.915 264.125C151.987 263.86 152.158 263.634 152.393 263.493C152.628 263.352 152.909 263.307 153.176 263.369C153.443 263.431 153.676 263.594 153.825 263.823C155.968 267.4 160.043 269.801 164.21 269.94C168.377 270.078 172.604 267.959 174.981 264.537C177.358 261.114 177.958 256.657 178.921 252.403C181.629 240.442 187.686 237.118 199.125 239.298L200.702 239.609C204.307 240.329 208.034 241.073 211.471 240.2C220.891 237.809 224.739 224.797 234.395 220.991C234.654 220.896 234.941 220.906 235.193 221.019C235.445 221.132 235.643 221.34 235.744 221.597C235.845 221.854 235.842 222.141 235.735 222.396C235.627 222.65 235.425 222.853 235.17 222.96C225.962 226.59 222.585 239.562 211.987 242.251C208.083 243.242 204.118 242.451 200.282 241.686L198.722 241.379C186.466 239.042 182.922 243.517 180.512 255.031C179.737 258.723 178.935 262.546 176.714 265.744C173.913 269.783 168.952 272.218 164.138 272.056Z" fill="white"/>
<path d="M234.908 227.258L229.09 220.576C228.915 220.375 228.8 220.129 228.759 219.865C228.717 219.602 228.75 219.332 228.855 219.087C228.959 218.842 229.131 218.631 229.349 218.479C229.568 218.326 229.825 218.238 230.091 218.225L237.256 217.859C237.47 217.848 237.684 217.887 237.881 217.971C238.078 218.055 238.254 218.183 238.395 218.344C238.536 218.506 238.638 218.697 238.695 218.904C238.751 219.111 238.76 219.328 238.72 219.539L237.375 226.587C237.325 226.849 237.203 227.092 237.022 227.287C236.841 227.483 236.608 227.624 236.351 227.694C236.094 227.764 235.822 227.76 235.567 227.683C235.312 227.606 235.083 227.458 234.908 227.258Z" fill="white"/>
<path d="M296.99 129.573V179.357C296.99 180.162 297.148 180.96 297.456 181.704C297.764 182.448 298.215 183.124 298.785 183.694C299.354 184.263 300.03 184.715 300.774 185.023C301.518 185.331 302.316 185.489 303.121 185.489H365.441C367.069 185.49 368.63 184.845 369.782 183.695C370.934 182.545 371.582 180.984 371.584 179.357V129.573C371.582 127.945 370.934 126.384 369.782 125.233C368.631 124.083 367.069 123.436 365.441 123.435H303.127C302.321 123.435 301.523 123.594 300.778 123.902C300.034 124.211 299.357 124.663 298.787 125.233C298.217 125.803 297.765 126.48 297.457 127.224C297.149 127.969 296.99 128.767 296.99 129.573Z" fill="#7A8AEE"/>
<path d="M293.875 129.573V179.357C293.874 180.162 294.033 180.96 294.34 181.704C294.648 182.448 295.1 183.124 295.669 183.694C296.239 184.263 296.915 184.715 297.659 185.023C298.403 185.331 299.201 185.489 300.006 185.489H362.339C363.967 185.49 365.528 184.845 366.68 183.695C367.832 182.545 368.48 180.984 368.482 179.357V129.573C368.48 127.945 367.832 126.384 366.68 125.233C365.529 124.083 363.967 123.436 362.339 123.435H300.006C298.379 123.437 296.819 124.084 295.67 125.235C294.52 126.386 293.875 127.946 293.875 129.573Z" fill="#909EFF"/>
<path d="M331.175 166.976C338.892 166.976 345.148 160.72 345.148 153.003C345.148 145.286 338.892 139.03 331.175 139.03C323.457 139.03 317.201 145.286 317.201 153.003C317.201 160.72 323.457 166.976 331.175 166.976Z" fill="white"/>
<path d="M336.923 154.235L328.701 159.214C328.483 159.346 328.234 159.417 327.98 159.421C327.725 159.425 327.474 159.362 327.252 159.237C327.03 159.112 326.845 158.93 326.717 158.71C326.588 158.49 326.52 158.24 326.52 157.985L326.501 148.027C326.502 147.771 326.57 147.52 326.699 147.299C326.828 147.079 327.014 146.896 327.237 146.77C327.459 146.645 327.711 146.58 327.967 146.583C328.223 146.587 328.473 146.658 328.692 146.789L336.923 151.767C337.135 151.896 337.311 152.077 337.432 152.293C337.554 152.509 337.618 152.753 337.618 153.001C337.618 153.249 337.554 153.493 337.432 153.709C337.311 153.925 337.135 154.106 336.923 154.235Z" fill="#111228"/>
<path d="M383.104 129.573V179.357C383.103 180.162 383.261 180.96 383.57 181.704C383.878 182.448 384.329 183.124 384.899 183.694C385.468 184.263 386.145 184.715 386.889 185.023C387.633 185.331 388.431 185.49 389.236 185.489H451.562C452.368 185.49 453.166 185.332 453.911 185.024C454.655 184.716 455.332 184.264 455.902 183.695C456.473 183.125 456.925 182.449 457.234 181.705C457.543 180.961 457.702 180.163 457.703 179.357V129.573C457.702 127.945 457.054 126.384 455.903 125.232C454.752 124.081 453.19 123.433 451.562 123.432H389.236C388.43 123.433 387.632 123.592 386.888 123.901C386.143 124.21 385.467 124.662 384.898 125.233C384.328 125.803 383.877 126.48 383.569 127.225C383.261 127.969 383.103 128.768 383.104 129.573Z" fill="url(#paint18_linear_8_117)"/>
<path d="M379.99 129.573V179.357C379.99 180.162 380.148 180.96 380.456 181.704C380.764 182.448 381.215 183.124 381.785 183.694C382.354 184.263 383.03 184.715 383.774 185.023C384.518 185.331 385.316 185.49 386.121 185.489H448.447C449.253 185.49 450.051 185.332 450.796 185.024C451.541 184.716 452.217 184.264 452.788 183.695C453.358 183.125 453.811 182.449 454.119 181.705C454.428 180.961 454.588 180.163 454.588 179.357V129.573C454.587 127.945 453.94 126.384 452.788 125.232C451.637 124.081 450.075 123.433 448.447 123.432H386.121C384.494 123.434 382.934 124.082 381.784 125.233C380.634 126.385 379.989 127.946 379.99 129.573Z" fill="url(#paint19_linear_8_117)"/>
<path d="M424.254 168.613H395.254L409.749 150.734L415.813 158.21L424.254 168.613Z" fill="white"/>
<path d="M445.555 168.614H409.024L427.287 146.094L445.555 168.614Z" fill="white"/>
<path d="M418.885 144.177C418.887 144.945 418.661 145.696 418.235 146.335C417.81 146.974 417.205 147.473 416.496 147.768C415.787 148.063 415.006 148.14 414.253 147.991C413.5 147.842 412.808 147.473 412.265 146.931C411.721 146.388 411.351 145.696 411.202 144.943C411.052 144.19 411.129 143.41 411.423 142.701C411.717 141.991 412.215 141.385 412.853 140.959C413.492 140.533 414.243 140.306 415.01 140.307C416.037 140.308 417.021 140.717 417.747 141.442C418.473 142.167 418.882 143.151 418.885 144.177Z" fill="white"/>
<path d="M445.472 199.739H440.568V268.064H445.472C447.42 268.062 449.287 267.287 450.664 265.91C452.041 264.533 452.815 262.666 452.817 260.718V207.072C452.815 205.126 452.04 203.26 450.663 201.885C449.285 200.51 447.418 199.738 445.472 199.739Z" fill="url(#paint20_linear_8_117)"/>
<path d="M442.358 199.735H301.215C297.161 199.735 293.875 203.021 293.875 207.075V260.721C293.875 264.775 297.161 268.062 301.215 268.062H442.358C446.412 268.062 449.698 264.775 449.698 260.721V207.075C449.698 203.021 446.412 199.735 442.358 199.735Z" fill="url(#paint21_linear_8_117)"/>
<path d="M338.668 233.888C338.67 237.159 337.702 240.358 335.886 243.079C334.07 245.8 331.488 247.921 328.466 249.174C325.444 250.428 322.119 250.757 318.91 250.12C315.701 249.483 312.753 247.908 310.439 245.596C308.125 243.283 306.549 240.337 305.91 237.128C305.271 233.92 305.598 230.594 306.85 227.571C308.101 224.549 310.221 221.965 312.941 220.148C315.661 218.33 318.859 217.36 322.13 217.36C326.515 217.36 330.72 219.101 333.821 222.2C336.922 225.299 338.666 229.503 338.668 233.888Z" fill="#FF4129"/>
<path d="M322.137 231.873C323.803 231.873 325.154 230.5 325.154 228.806C325.154 227.113 323.803 225.74 322.137 225.74C320.471 225.74 319.12 227.113 319.12 228.806C319.12 230.5 320.471 231.873 322.137 231.873Z" fill="white"/>
<path d="M329.19 240.405C329.043 236.566 325.942 233.505 322.132 233.505C318.322 233.505 315.226 236.571 315.075 240.405H329.19Z" fill="white"/>
<path d="M437.477 214.502H348.702C347.02 214.502 345.657 215.866 345.657 217.547V222.695C345.657 224.376 347.02 225.74 348.702 225.74H437.477C439.159 225.74 440.522 224.376 440.522 222.695V217.547C440.522 215.866 439.159 214.502 437.477 214.502Z" fill="url(#paint22_linear_8_117)"/>
<path d="M440.522 231.874H345.657V234.94H440.522V231.874Z" fill="url(#paint23_linear_8_117)"/>
<path d="M440.522 238.873H345.657V241.94H440.522V238.873Z" fill="url(#paint24_linear_8_117)"/>
<path d="M355.787 245.872H345.657V248.939H355.787V245.872Z" fill="url(#paint25_linear_8_117)"/>
<path d="M430.006 245.872H360.117V248.939H430.006V245.872Z" fill="url(#paint26_linear_8_117)"/>
<path d="M390.218 231.953L435.357 392.213C435.502 392.724 435.809 393.175 436.233 393.496C436.657 393.817 437.174 393.991 437.705 393.992C437.93 393.992 438.153 393.961 438.368 393.899C438.677 393.812 438.965 393.665 439.217 393.467C439.468 393.269 439.679 393.023 439.835 392.744C439.992 392.464 440.092 392.157 440.129 391.838C440.167 391.52 440.142 391.198 440.055 390.889L431.852 361.766H475.216L483.791 392.213C483.936 392.724 484.243 393.175 484.667 393.496C485.09 393.817 485.607 393.991 486.139 393.992C486.363 393.992 486.586 393.961 486.802 393.899C487.11 393.812 487.399 393.665 487.65 393.467C487.902 393.269 488.112 393.023 488.269 392.744C488.425 392.464 488.525 392.157 488.563 391.838C488.601 391.52 488.575 391.198 488.488 390.889L443.347 230.633C443.171 230.01 442.755 229.483 442.19 229.167C441.625 228.851 440.957 228.773 440.334 228.949C439.712 229.125 439.184 229.542 438.868 230.107C438.552 230.672 438.474 231.339 438.65 231.962L444 250.956H400.637L394.915 230.633C394.739 230.01 394.323 229.483 393.758 229.167C393.193 228.851 392.525 228.773 391.902 228.949C391.279 229.125 390.752 229.542 390.436 230.107C390.12 230.672 390.042 231.339 390.218 231.962V231.953ZM445.375 255.829L454.072 286.705H410.709L402.012 255.829H445.375ZM412.084 291.586H455.447L464.012 322.004H420.65L412.084 291.586ZM430.476 356.885L422.025 326.88H464.772C464.973 326.867 465.172 326.828 465.363 326.762L473.847 356.885H430.476Z" fill="#373A50"/>
<path d="M15.2193 241.779C0.726783 233.41 -4.28075 214.711 4.08205 200.218L64.2342 96.0302C72.6027 81.5377 91.302 76.5302 105.794 84.893C120.287 93.2614 125.295 111.961 116.932 126.453L56.7793 230.641C48.4111 245.134 29.7118 250.147 15.2193 241.779Z" fill="white"/>
<path d="M166.274 241.327C151.781 249.696 133.082 244.683 124.714 230.19L64.5611 126.002C56.1927 111.509 61.2059 92.8102 75.6984 84.4417C90.1909 76.0733 108.89 81.0865 117.259 95.579L177.405 199.767C185.774 214.26 180.761 232.959 166.274 241.327Z" fill="white"/>
<path d="M30.8459 245.827C47.8817 245.827 61.6917 232.017 61.6917 214.981C61.6917 197.946 47.8817 184.135 30.8459 184.135C13.8102 184.135 0 197.946 0 214.981C0 232.017 13.8102 245.827 30.8459 245.827Z" fill="white"/>
<path d="M18.191 241.254C3.69846 232.886 -1.30907 214.187 7.05374 199.694L67.2062 95.5056C75.5746 81.013 94.2739 76.0055 108.766 84.3683C123.259 92.7368 128.266 111.436 119.904 125.929L59.7513 230.117C51.3828 244.61 32.6835 249.617 18.191 241.254Z" fill="#FBBD04"/>
<path d="M169.247 240.797C154.755 249.166 136.056 244.153 127.687 229.66L67.5348 125.477C59.1663 110.985 64.1795 92.2856 78.672 83.9172C93.1645 75.5488 111.864 80.5619 120.232 95.0544L180.379 199.243C188.747 213.73 183.734 232.435 169.247 240.797Z" fill="#438EDC"/>
<path d="M33.8176 245.303C50.8533 245.303 64.6636 231.493 64.6636 214.457C64.6636 197.421 50.8533 183.611 33.8176 183.611C16.7818 183.611 2.97168 197.421 2.97168 214.457C2.97168 231.493 16.7819 245.303 33.8176 245.303Z" fill="#34A952"/>
<defs>
<linearGradient id="paint0_linear_8_117" x1="494.749" y1="149.915" x2="560.403" y2="149.915" gradientUnits="userSpaceOnUse">
<stop stop-color="#FADF68"/>
<stop offset="1" stop-color="#EAC250"/>
</linearGradient>
<linearGradient id="paint1_linear_8_117" x1="533.849" y1="159.253" x2="521.298" y2="159.253" gradientUnits="userSpaceOnUse">
<stop stop-color="#FADF68"/>
<stop offset="1" stop-color="#EAC250"/>
</linearGradient>
<linearGradient id="paint2_linear_8_117" x1="165.103" y1="16.4837" x2="164.253" y2="22.0684" gradientUnits="userSpaceOnUse">
<stop stop-color="#F34B6D"/>
<stop offset="1" stop-color="#E24067"/>
</linearGradient>
<linearGradient id="paint3_linear_8_117" x1="150.049" y1="14.7472" x2="150.969" y2="20.1901" gradientUnits="userSpaceOnUse">
<stop stop-color="#FADF68"/>
<stop offset="1" stop-color="#EAC250"/>
</linearGradient>
<linearGradient id="paint4_linear_8_117" x1="135.306" y1="15.7351" x2="135.589" y2="19.6246" gradientUnits="userSpaceOnUse">
<stop stop-color="#3DCFA4"/>
<stop offset="1" stop-color="#30BB93"/>
</linearGradient>
<linearGradient id="paint5_linear_8_117" x1="403.352" y1="56.3382" x2="399.027" y2="115.817" gradientUnits="userSpaceOnUse">
<stop stop-color="#EBF2FF"/>
<stop offset="1" stop-color="#E1E8FF"/>
</linearGradient>
<linearGradient id="paint6_linear_8_117" x1="483.241" y1="86.5827" x2="491.579" y2="87.5307" gradientUnits="userSpaceOnUse">
<stop stop-color="#909EFF"/>
<stop offset="1" stop-color="#6977E3"/>
</linearGradient>
<linearGradient id="paint7_linear_8_117" x1="479.058" y1="81.6802" x2="459.276" y2="114.552" gradientUnits="userSpaceOnUse">
<stop stop-color="#909EFF"/>
<stop offset="1" stop-color="#6977E3"/>
</linearGradient>
<linearGradient id="paint8_linear_8_117" x1="188.041" y1="143.849" x2="208.1" y2="110.154" gradientUnits="userSpaceOnUse">
<stop stop-color="#909EFF"/>
<stop offset="1" stop-color="#6977E3"/>
</linearGradient>
<linearGradient id="paint9_linear_8_117" x1="211.394" y1="98.2657" x2="200.845" y2="126.177" gradientUnits="userSpaceOnUse">
<stop stop-color="#909EFF"/>
<stop offset="1" stop-color="#6977E3"/>
</linearGradient>
<linearGradient id="paint10_linear_8_117" x1="195.3" y1="114.64" x2="217.706" y2="114.64" gradientUnits="userSpaceOnUse">
<stop stop-color="#FADF68"/>
<stop offset="1" stop-color="#EAC250"/>
</linearGradient>
<linearGradient id="paint11_linear_8_117" x1="220.165" y1="256.282" x2="283.973" y2="263.088" gradientUnits="userSpaceOnUse">
<stop stop-color="#D1DEFF"/>
<stop offset="1" stop-color="#B2C7FF"/>
</linearGradient>
<linearGradient id="paint12_linear_8_117" x1="201.655" y1="260.937" x2="170.404" y2="308.997" gradientUnits="userSpaceOnUse">
<stop stop-color="#D1DEFF"/>
<stop offset="1" stop-color="#B2C7FF"/>
</linearGradient>
<linearGradient id="paint13_linear_8_117" x1="166.604" y1="285.179" x2="177.065" y2="285.179" gradientUnits="userSpaceOnUse">
<stop stop-color="#F34B6D"/>
<stop offset="1" stop-color="#E24067"/>
</linearGradient>
<linearGradient id="paint14_linear_8_117" x1="181.83" y1="274.819" x2="192.292" y2="274.819" gradientUnits="userSpaceOnUse">
<stop stop-color="#FADF68"/>
<stop offset="1" stop-color="#EAC250"/>
</linearGradient>
<linearGradient id="paint15_linear_8_117" x1="197.057" y1="270.139" x2="207.519" y2="270.139" gradientUnits="userSpaceOnUse">
<stop stop-color="#F34B6D"/>
<stop offset="1" stop-color="#E24067"/>
</linearGradient>
<linearGradient id="paint16_linear_8_117" x1="212.285" y1="271.582" x2="222.746" y2="271.582" gradientUnits="userSpaceOnUse">
<stop stop-color="#FADF68"/>
<stop offset="1" stop-color="#EAC250"/>
</linearGradient>
<linearGradient id="paint17_linear_8_117" x1="227.512" y1="262.583" x2="237.974" y2="262.583" gradientUnits="userSpaceOnUse">
<stop stop-color="#F34B6D"/>
<stop offset="1" stop-color="#E24067"/>
</linearGradient>
<linearGradient id="paint18_linear_8_117" x1="383.104" y1="154.461" x2="457.703" y2="154.461" gradientUnits="userSpaceOnUse">
<stop stop-color="#3DCFA4"/>
<stop offset="1" stop-color="#30BB93"/>
</linearGradient>
<linearGradient id="paint19_linear_8_117" x1="425.822" y1="139.157" x2="395.817" y2="192.973" gradientUnits="userSpaceOnUse">
<stop stop-color="#3DCFA4"/>
<stop offset="1" stop-color="#30BB93"/>
</linearGradient>
<linearGradient id="paint20_linear_8_117" x1="296.988" y1="233.901" x2="452.814" y2="233.901" gradientUnits="userSpaceOnUse">
<stop stop-color="#D1DEFF"/>
<stop offset="1" stop-color="#B2C7FF"/>
</linearGradient>
<linearGradient id="paint21_linear_8_117" x1="293.875" y1="233.898" x2="449.698" y2="233.898" gradientUnits="userSpaceOnUse">
<stop stop-color="#EBF2FF"/>
<stop offset="1" stop-color="#E1E8FF"/>
</linearGradient>
<linearGradient id="paint22_linear_8_117" x1="393.088" y1="216.995" x2="393.088" y2="220.434" gradientUnits="userSpaceOnUse">
<stop stop-color="#D1DEFF"/>
<stop offset="1" stop-color="#B2C7FF"/>
</linearGradient>
<linearGradient id="paint23_linear_8_117" x1="393.088" y1="232.554" x2="393.088" y2="233.492" gradientUnits="userSpaceOnUse">
<stop stop-color="#D1DEFF"/>
<stop offset="1" stop-color="#B2C7FF"/>
</linearGradient>
<linearGradient id="paint24_linear_8_117" x1="393.088" y1="239.553" x2="393.088" y2="240.491" gradientUnits="userSpaceOnUse">
<stop stop-color="#D1DEFF"/>
<stop offset="1" stop-color="#B2C7FF"/>
</linearGradient>
<linearGradient id="paint25_linear_8_117" x1="350.721" y1="246.553" x2="350.721" y2="247.49" gradientUnits="userSpaceOnUse">
<stop stop-color="#D1DEFF"/>
<stop offset="1" stop-color="#B2C7FF"/>
</linearGradient>
<linearGradient id="paint26_linear_8_117" x1="395.062" y1="246.553" x2="395.062" y2="247.49" gradientUnits="userSpaceOnUse">
<stop stop-color="#D1DEFF"/>
<stop offset="1" stop-color="#B2C7FF"/>
</linearGradient>
</defs>
</svg>
