<svg width="682" height="382" viewBox="0 0 682 382" fill="none" xmlns="http://www.w3.org/2000/svg">
<path fill-rule="evenodd" clip-rule="evenodd" d="M339.499 350C526.726 350 678.5 355.594 678.5 362.502C678.5 369.411 526.726 375 339.499 375C152.272 375 0.5 369.401 0.5 362.502C0.5 355.604 152.274 350 339.499 350Z" fill="#B6D8F8"/>
<path d="M551.663 140.798C538.724 200.487 538.315 337.838 538.315 337.838" stroke="#6A6AE2" stroke-linecap="round" stroke-linejoin="round"/>
<path d="M571.628 201.684C571.628 201.684 548.051 232.956 548.051 330.449" stroke="#6A6AE2" stroke-linecap="round" stroke-linejoin="round"/>
<path d="M570.64 136.21C569.61 136.21 565.462 136.97 560.89 137.857C560.722 137.869 560.554 137.829 560.409 137.742C560.265 137.655 560.151 137.526 560.083 137.372C560.015 137.217 559.996 137.046 560.029 136.881C560.063 136.716 560.147 136.565 560.269 136.45C564.136 133.86 567.606 131.467 568.34 130.735C569.203 129.873 569.687 128.704 569.685 127.486C569.684 126.268 569.197 125.101 568.333 124.24C567.469 123.38 566.297 122.897 565.076 122.899C563.855 122.9 562.684 123.385 561.822 124.247C561.088 124.979 558.703 128.47 556.178 132.284C556.068 132.435 555.91 132.544 555.73 132.595C555.55 132.646 555.358 132.634 555.185 132.563C555.012 132.491 554.868 132.364 554.777 132.201C554.686 132.038 554.652 131.849 554.682 131.664C555.585 127.118 556.347 122.981 556.347 121.953C556.282 120.778 555.768 119.673 554.911 118.865C554.054 118.056 552.92 117.605 551.74 117.605C550.561 117.605 549.426 118.056 548.569 118.865C547.712 119.673 547.199 120.778 547.133 121.953C547.133 122.981 547.895 127.118 548.798 131.664C548.828 131.849 548.794 132.038 548.703 132.201C548.612 132.364 548.468 132.491 548.296 132.563C548.123 132.634 547.931 132.646 547.751 132.595C547.57 132.544 547.413 132.435 547.303 132.284C544.707 128.427 542.308 124.979 541.588 124.247C541.161 123.82 540.654 123.481 540.096 123.25C539.537 123.019 538.939 122.899 538.334 122.899C537.729 122.898 537.131 123.016 536.572 123.246C536.013 123.476 535.505 123.814 535.077 124.24C534.649 124.666 534.309 125.172 534.077 125.729C533.845 126.286 533.725 126.883 533.725 127.486C533.724 128.09 533.842 128.687 534.073 129.244C534.304 129.802 534.643 130.309 535.07 130.735C535.803 131.467 539.303 133.86 543.126 136.45C543.249 136.565 543.333 136.716 543.366 136.881C543.4 137.046 543.381 137.217 543.313 137.372C543.245 137.526 543.131 137.655 542.987 137.742C542.842 137.829 542.674 137.869 542.505 137.857C537.948 136.97 533.8 136.21 532.77 136.21C531.592 136.275 530.484 136.788 529.674 137.642C528.863 138.497 528.411 139.629 528.411 140.806C528.411 141.982 528.863 143.114 529.674 143.969C530.484 144.823 531.592 145.336 532.77 145.401C533.8 145.401 537.948 144.641 542.505 143.74C542.69 143.711 542.88 143.744 543.043 143.835C543.206 143.926 543.334 144.069 543.406 144.242C543.478 144.414 543.489 144.606 543.438 144.785C543.388 144.965 543.278 145.122 543.126 145.232C539.26 147.822 535.803 150.2 535.07 150.932C534.61 151.352 534.241 151.86 533.983 152.426C533.726 152.992 533.587 153.604 533.573 154.225C533.559 154.846 533.672 155.464 533.904 156.041C534.136 156.617 534.483 157.141 534.923 157.581C535.364 158.02 535.889 158.366 536.467 158.597C537.045 158.829 537.664 158.941 538.287 158.927C538.91 158.914 539.524 158.774 540.091 158.518C540.658 158.261 541.168 157.893 541.588 157.434C542.308 156.702 544.707 153.212 547.303 149.384C547.413 149.233 547.57 149.123 547.751 149.072C547.931 149.022 548.123 149.033 548.296 149.105C548.468 149.176 548.612 149.304 548.703 149.467C548.794 149.63 548.828 149.819 548.798 150.003C547.895 154.563 547.133 158.701 547.133 159.728C547.199 160.903 547.712 162.008 548.569 162.817C549.426 163.626 550.561 164.076 551.74 164.076C552.92 164.076 554.054 163.626 554.911 162.817C555.768 162.008 556.282 160.903 556.347 159.728C556.347 158.701 555.585 154.563 554.682 150.003C554.652 149.819 554.686 149.63 554.777 149.467C554.868 149.304 555.012 149.176 555.185 149.105C555.358 149.033 555.55 149.022 555.73 149.072C555.91 149.123 556.068 149.233 556.178 149.384C558.774 153.24 561.158 156.702 561.822 157.434C562.698 158.235 563.851 158.667 565.039 158.641C566.227 158.615 567.359 158.133 568.2 157.294C569.04 156.456 569.524 155.326 569.55 154.141C569.576 152.956 569.143 151.806 568.34 150.932C567.606 150.2 564.107 147.822 560.269 145.232C560.118 145.122 560.008 144.965 559.957 144.785C559.907 144.606 559.918 144.414 559.99 144.242C560.061 144.069 560.189 143.926 560.353 143.835C560.516 143.744 560.706 143.711 560.89 143.74C565.462 144.641 569.61 145.401 570.64 145.401C571.818 145.336 572.926 144.823 573.736 143.969C574.547 143.114 574.999 141.982 574.999 140.806C574.999 139.629 574.547 138.497 573.736 137.642C572.926 136.788 571.818 136.275 570.64 136.21Z" fill="#3090D7"/>
<path d="M551.663 143.895C553.377 143.895 554.767 142.509 554.767 140.798C554.767 139.088 553.377 137.702 551.663 137.702C549.948 137.702 548.559 139.088 548.559 140.798C548.559 142.509 549.948 143.895 551.663 143.895Z" fill="white"/>
<path d="M512.692 363.621H577.596C577.596 363.621 579.247 306.283 603.769 277.572C603.769 277.572 582.76 283.483 567.084 325.565C567.084 325.565 571.656 267.157 567.621 239.825C567.621 239.825 554.146 287.438 549.56 325.565C549.56 325.565 547.938 258.487 528.537 235.631C528.537 235.631 539.049 289.605 533.927 330.505C533.927 330.505 527.211 303.06 502.533 289.239C502.533 289.239 518.618 318.162 521.694 342.088C521.694 342.088 513.228 323.44 493.771 316.093C493.813 316.037 512.692 340.906 512.692 363.621Z" fill="#CACAFF"/>
<path d="M590.59 197.095C589.56 197.095 585.412 197.855 580.855 198.756C580.67 198.786 580.481 198.752 580.317 198.661C580.154 198.57 580.026 198.427 579.954 198.255C579.883 198.082 579.871 197.891 579.922 197.711C579.973 197.531 580.083 197.374 580.234 197.264C584.086 194.675 587.557 192.282 588.291 191.564C589.093 190.69 589.527 189.54 589.5 188.355C589.474 187.17 588.991 186.04 588.15 185.202C587.31 184.364 586.178 183.881 584.989 183.855C583.801 183.829 582.649 184.261 581.772 185.062C581.052 185.794 578.654 189.284 576.058 193.098C575.948 193.249 575.79 193.359 575.61 193.41C575.43 193.46 575.238 193.449 575.065 193.377C574.892 193.306 574.748 193.178 574.657 193.015C574.566 192.852 574.532 192.663 574.562 192.479C575.465 187.933 576.227 183.795 576.227 182.768C576.162 181.593 575.648 180.488 574.791 179.679C573.934 178.871 572.8 178.42 571.62 178.42C570.441 178.42 569.306 178.871 568.449 179.679C567.592 180.488 567.079 181.593 567.013 182.768C567.013 183.795 567.775 187.933 568.678 192.479C568.708 192.663 568.674 192.852 568.583 193.015C568.492 193.178 568.348 193.306 568.176 193.377C568.003 193.449 567.811 193.46 567.631 193.41C567.45 193.359 567.293 193.249 567.183 193.098C564.586 189.256 562.188 185.794 561.468 185.062C560.592 184.261 559.439 183.829 558.251 183.855C557.063 183.881 555.93 184.364 555.09 185.202C554.25 186.04 553.766 187.17 553.74 188.355C553.714 189.54 554.147 190.69 554.95 191.564C555.683 192.282 559.183 194.675 563.006 197.264C563.171 197.365 563.294 197.522 563.355 197.705C563.415 197.888 563.408 198.087 563.335 198.266C563.263 198.445 563.129 198.592 562.957 198.682C562.786 198.772 562.588 198.798 562.4 198.756C557.828 197.855 553.68 197.095 552.65 197.095C551.472 197.16 550.364 197.673 549.553 198.528C548.743 199.382 548.291 200.514 548.291 201.691C548.291 202.867 548.743 203.999 549.553 204.854C550.364 205.708 551.472 206.221 552.65 206.286C553.68 206.286 557.828 205.526 562.4 204.625C562.588 204.583 562.786 204.609 562.957 204.699C563.129 204.789 563.263 204.936 563.335 205.115C563.408 205.294 563.415 205.493 563.355 205.676C563.294 205.859 563.171 206.016 563.006 206.117C559.154 208.707 555.683 211.099 554.95 211.747C554.147 212.621 553.714 213.771 553.74 214.956C553.766 216.141 554.25 217.271 555.09 218.109C555.93 218.947 557.063 219.43 558.251 219.456C559.439 219.482 560.592 219.049 561.468 218.249C562.188 217.517 564.586 214.027 567.183 210.213C567.284 210.048 567.441 209.925 567.625 209.865C567.808 209.805 568.008 209.812 568.187 209.884C568.366 209.957 568.514 210.09 568.604 210.261C568.694 210.432 568.72 210.629 568.678 210.818C567.775 215.378 567.013 219.516 567.013 220.543C567.079 221.718 567.592 222.823 568.449 223.632C569.306 224.44 570.441 224.891 571.62 224.891C572.8 224.891 573.934 224.44 574.791 223.632C575.648 222.823 576.162 221.718 576.227 220.543C576.227 219.516 575.465 215.378 574.562 210.818C574.52 210.629 574.546 210.432 574.636 210.261C574.726 210.09 574.874 209.957 575.053 209.884C575.233 209.812 575.432 209.805 575.616 209.865C575.8 209.925 575.956 210.048 576.058 210.213C578.654 214.055 581.052 217.517 581.772 218.249C582.649 219.049 583.801 219.482 584.989 219.456C586.178 219.43 587.31 218.947 588.15 218.109C588.991 217.271 589.474 216.141 589.5 214.956C589.527 213.771 589.093 212.621 588.291 211.747C587.557 211.029 584.058 208.636 580.234 206.117C580.069 206.016 579.946 205.859 579.886 205.676C579.825 205.493 579.832 205.294 579.905 205.115C579.978 204.936 580.112 204.789 580.283 204.699C580.454 204.609 580.652 204.583 580.841 204.625C585.412 205.526 589.56 206.286 590.59 206.286C591.768 206.221 592.876 205.708 593.687 204.854C594.498 203.999 594.949 202.867 594.949 201.691C594.949 200.514 594.498 199.382 593.687 198.528C592.876 197.673 591.768 197.16 590.59 197.095Z" fill="#6A6AE2"/>
<path d="M574.717 201.684C574.72 202.297 574.54 202.898 574.2 203.409C573.86 203.92 573.376 204.319 572.808 204.556C572.24 204.792 571.615 204.854 571.011 204.735C570.408 204.616 569.853 204.321 569.418 203.887C568.984 203.453 568.688 202.9 568.568 202.298C568.449 201.696 568.512 201.073 568.748 200.506C568.985 199.94 569.385 199.456 569.898 199.117C570.41 198.778 571.012 198.599 571.627 198.601C572.447 198.601 573.233 198.926 573.812 199.504C574.392 200.082 574.717 200.866 574.717 201.684Z" fill="white"/>
<path d="M114.378 363.607C114.378 363.607 103.09 309.971 77.4531 257.854C77.4531 257.854 108.325 271.928 121.927 328.45C121.927 328.45 113.983 259.838 79.2168 165.766C79.2168 165.766 119.232 203.443 130.83 296.333C130.83 296.333 132.241 219.375 113.574 136.365C113.574 136.365 145.518 172.409 145.518 265.693C145.518 265.693 143.966 157.322 167.176 127.878C167.176 127.878 160.474 200.234 162.492 265.693C162.492 265.693 162.28 193.802 180.51 177.096C180.51 177.096 171.437 259.261 173.229 321.821C173.229 321.821 194.591 294.137 219.029 293.039C219.029 293.039 188.933 319.457 188.933 363.607H114.378Z" fill="#CACAFF"/>
<path d="M516.981 47.3879H174.767C164.769 47.3879 156.665 55.4724 156.665 65.4451V259.444C156.665 269.417 164.769 277.501 174.767 277.501H516.981C526.979 277.501 535.084 269.417 535.084 259.444V65.4451C535.084 55.4724 526.979 47.3879 516.981 47.3879Z" fill="#171659"/>
<path d="M522.808 59.731H168.926C165.279 59.731 162.322 62.68 162.322 66.3178V245.103C162.322 248.74 165.279 251.689 168.926 251.689H522.808C526.455 251.689 529.411 248.74 529.411 245.103V66.3178C529.411 62.68 526.455 59.731 522.808 59.731Z" fill="white"/>
<path d="M529.426 182.064V245.117C529.422 246.862 528.725 248.536 527.487 249.77C526.25 251.004 524.572 251.7 522.822 251.703H168.926C167.175 251.7 165.498 251.004 164.26 249.77C163.023 248.536 162.326 246.862 162.322 245.117V182.064H529.426Z" fill="#CACAFF"/>
<path d="M529.426 66.3318V77.0845H162.322V66.3318C162.326 64.586 163.023 62.9128 164.26 61.6784C165.498 60.4439 167.175 59.7488 168.926 59.7451H522.822C524.572 59.7488 526.25 60.4439 527.487 61.6784C528.725 62.9128 529.422 64.586 529.426 66.3318Z" fill="#9464F1"/>
<path d="M178.421 72.3837C180.619 72.3837 182.4 70.6068 182.4 68.4148C182.4 66.2228 180.619 64.4459 178.421 64.4459C176.224 64.4459 174.442 66.2228 174.442 68.4148C174.442 70.6068 176.224 72.3837 178.421 72.3837Z" fill="#FA394B"/>
<path d="M191.896 72.3837C194.094 72.3837 195.875 70.6068 195.875 68.4148C195.875 66.2228 194.094 64.4459 191.896 64.4459C189.699 64.4459 187.917 66.2228 187.917 68.4148C187.917 70.6068 189.699 72.3837 191.896 72.3837Z" fill="white"/>
<path d="M205.371 72.3837C207.568 72.3837 209.35 70.6068 209.35 68.4148C209.35 66.2228 207.568 64.4459 205.371 64.4459C203.174 64.4459 201.392 66.2228 201.392 68.4148C201.392 70.6068 203.174 72.3837 205.371 72.3837Z" fill="#3EA4EB"/>
<path d="M257.534 131.2C257.75 136.083 256.972 140.96 255.247 145.535C253.523 150.11 250.887 154.29 247.499 157.822C244.112 161.353 240.042 164.164 235.535 166.084C231.029 168.004 226.179 168.994 221.279 168.994C216.379 168.994 211.529 168.004 207.023 166.084C202.516 164.164 198.447 161.353 195.059 157.822C191.671 154.29 189.035 150.11 187.311 145.535C185.586 140.96 184.809 136.083 185.025 131.2H221.314V95.0432C230.92 95.0618 240.125 98.8781 246.915 105.656C253.704 112.433 257.523 121.619 257.534 131.2Z" fill="#3090D7"/>
<path d="M221.258 95.0432V131.2H185.025C185.04 121.618 188.862 112.432 195.653 105.655C202.444 98.8776 211.652 95.0618 221.258 95.0432Z" fill="#1C7CC3"/>
<path d="M273.633 100.983H300.582" stroke="#6A6AE2" stroke-width="0.5" stroke-linecap="round" stroke-linejoin="round"/>
<path d="M273.633 107.71H327.546" stroke="#6A6AE2" stroke-width="0.5" stroke-linecap="round" stroke-linejoin="round"/>
<path d="M273.633 114.423H327.546" stroke="#6A6AE2" stroke-width="0.5" stroke-linecap="round" stroke-linejoin="round"/>
<path d="M273.633 121.151H327.546" stroke="#6A6AE2" stroke-width="0.5" stroke-linecap="round" stroke-linejoin="round"/>
<path d="M273.633 127.864H327.546" stroke="#6A6AE2" stroke-width="0.5" stroke-linecap="round" stroke-linejoin="round"/>
<path d="M273.633 141.305H327.546" stroke="#6A6AE2" stroke-width="0.5" stroke-linecap="round" stroke-linejoin="round"/>
<path d="M273.633 148.033H327.546" stroke="#6A6AE2" stroke-width="0.5" stroke-linecap="round" stroke-linejoin="round"/>
<path d="M273.633 154.76H327.546" stroke="#6A6AE2" stroke-width="0.5" stroke-linecap="round" stroke-linejoin="round"/>
<path d="M273.633 161.474H327.546" stroke="#6A6AE2" stroke-width="0.5" stroke-linecap="round" stroke-linejoin="round"/>
<path d="M356.372 89.0195V173.437" stroke="#6A6AE2" stroke-width="0.5" stroke-linecap="round" stroke-linejoin="round"/>
<path d="M393.17 275.686H298.565V354.727H393.17V275.686Z" fill="#130F40"/>
<path d="M196.284 203.429H223.233" stroke="#6A6AE2" stroke-width="0.5" stroke-linecap="round" stroke-linejoin="round"/>
<path d="M196.284 210.156H250.183" stroke="#6A6AE2" stroke-width="0.5" stroke-linecap="round" stroke-linejoin="round"/>
<path d="M196.284 216.884H250.183" stroke="#6A6AE2" stroke-width="0.5" stroke-linecap="round" stroke-linejoin="round"/>
<path d="M196.284 223.597H250.183" stroke="#6A6AE2" stroke-width="0.5" stroke-linecap="round" stroke-linejoin="round"/>
<path d="M196.284 230.325H250.183" stroke="#6A6AE2" stroke-width="0.5" stroke-linecap="round" stroke-linejoin="round"/>
<path d="M279.827 203.429H306.791" stroke="#6A6AE2" stroke-width="0.5" stroke-linecap="round" stroke-linejoin="round"/>
<path d="M279.827 210.156H333.74" stroke="#6A6AE2" stroke-width="0.5" stroke-linecap="round" stroke-linejoin="round"/>
<path d="M279.827 216.884H333.74" stroke="#6A6AE2" stroke-width="0.5" stroke-linecap="round" stroke-linejoin="round"/>
<path d="M279.827 223.597H333.74" stroke="#6A6AE2" stroke-width="0.5" stroke-linecap="round" stroke-linejoin="round"/>
<path d="M279.827 230.325H333.74" stroke="#6A6AE2" stroke-width="0.5" stroke-linecap="round" stroke-linejoin="round"/>
<path d="M363.384 203.429H390.334" stroke="#6A6AE2" stroke-width="0.5" stroke-linecap="round" stroke-linejoin="round"/>
<path d="M363.384 210.156H417.297" stroke="#6A6AE2" stroke-width="0.5" stroke-linecap="round" stroke-linejoin="round"/>
<path d="M363.384 216.884H417.297" stroke="#6A6AE2" stroke-width="0.5" stroke-linecap="round" stroke-linejoin="round"/>
<path d="M363.384 223.597H417.297" stroke="#6A6AE2" stroke-width="0.5" stroke-linecap="round" stroke-linejoin="round"/>
<path d="M363.384 230.325H417.297" stroke="#6A6AE2" stroke-width="0.5" stroke-linecap="round" stroke-linejoin="round"/>
<path d="M431.675 362.397V313.292H456.846L474.935 362.397" stroke="white" stroke-width="0.75" stroke-linecap="round" stroke-linejoin="round"/>
<path d="M473.509 313.292H509.997L528.085 362.397" stroke="white" stroke-width="0.75" stroke-linecap="round" stroke-linejoin="round"/>
<path d="M509.997 313.292H431.675" stroke="white" stroke-width="0.75" stroke-linecap="round" stroke-linejoin="round"/>
<path d="M515.091 327.113H462.039" stroke="white" stroke-width="0.75" stroke-linecap="round" stroke-linejoin="round"/>
<path d="M520.17 340.92H467.428" stroke="white" stroke-width="0.75" stroke-linecap="round" stroke-linejoin="round"/>
<path d="M525.264 354.727H472.621" stroke="white" stroke-width="0.75" stroke-linecap="round" stroke-linejoin="round"/>
<path d="M475.739 95.2262H394.087C391.85 95.2262 390.037 97.0346 390.037 99.2655V160.052C390.037 162.283 391.85 164.091 394.087 164.091H475.739C477.975 164.091 479.788 162.283 479.788 160.052V99.2655C479.788 97.0346 477.975 95.2262 475.739 95.2262Z" fill="#CACAFF"/>
<path d="M397.826 149.299L418.242 120.433L427.131 135.661L450.977 108.934L469.178 149.299H397.826Z" stroke="#6A6AE2" stroke-width="0.5" stroke-linecap="round" stroke-linejoin="round"/>
<path d="M429.304 115.493C431.954 115.493 434.101 113.351 434.101 110.708C434.101 108.065 431.954 105.923 429.304 105.923C426.655 105.923 424.507 108.065 424.507 110.708C424.507 113.351 426.655 115.493 429.304 115.493Z" stroke="#6A6AE2" stroke-width="0.5" stroke-linecap="round" stroke-linejoin="round"/>
<path d="M482.173 142.459C482.173 142.459 477.94 134.761 482.977 128.455C488.014 122.15 503.337 120.095 509.051 130.778C514.766 141.46 504.155 146.259 504.155 146.259L482.173 142.459Z" fill="#171659"/>
<path d="M503.112 154.915C502.363 155.297 501.74 155.887 501.32 156.613C500.899 157.34 500.698 158.172 500.741 159.011L501.122 167.554H488.861V158.884L482.737 156.956C481.84 156.682 481.06 156.119 480.518 155.355C479.977 154.59 479.705 153.668 479.746 152.733C479.841 150.474 480.076 148.222 480.452 145.992L478.208 144.852C478.044 144.771 477.905 144.649 477.804 144.497C477.704 144.345 477.645 144.169 477.635 143.987C477.625 143.805 477.664 143.624 477.747 143.462C477.831 143.3 477.956 143.162 478.109 143.064L481.439 140.883C481.656 139.945 481.881 139.072 482.117 138.265C482.693 135.844 483.874 133.608 485.548 131.763C487.222 129.919 489.337 128.526 491.694 127.714C494.052 126.902 496.578 126.697 499.036 127.117C501.495 127.538 503.807 128.572 505.758 130.122C507.71 131.671 509.237 133.688 510.199 135.984C511.161 138.279 511.526 140.78 511.261 143.255C510.996 145.729 510.108 148.096 508.681 150.137C507.254 152.178 505.334 153.826 503.098 154.929L503.112 154.915Z" fill="url(#paint0_linear_1_348)"/>
<path d="M494.025 139.447C492.76 145.752 492.929 152.259 494.519 158.49L497.2 156.533L498.978 158.49L501.292 156.731L502.703 158.49C503.561 156.931 504.835 155.64 506.385 154.76C509.532 153.128 518.604 142.347 510.618 135.253C510.618 135.253 505.863 122.46 488.635 127.794C488.593 127.794 486.209 138.631 494.025 139.447Z" fill="#171659"/>
<path d="M492.332 144.641C492.332 144.641 498.145 139.095 500.261 143.627C502.378 148.159 498.145 151.622 492.882 149.257L492.332 144.641Z" fill="url(#paint1_linear_1_348)"/>
<path d="M494.716 146.301C494.716 146.301 496.846 142.952 498.822 144.57" stroke="#9464F1" stroke-width="0.5" stroke-linecap="round" stroke-linejoin="round"/>
<path d="M450.172 303.722L434.299 313.292H468.867L466.553 302.807L450.172 303.722Z" fill="#171659"/>
<path d="M498.695 331.349L482.822 340.92H515.866L515.062 330.435L498.695 331.349Z" fill="#171659"/>
<path d="M479.915 225.765L449.467 255.419C446.73 258.078 444.697 261.373 443.552 265.008C442.407 268.644 442.185 272.506 442.906 276.249L448.253 304.13H468.628L463.506 267.973L493.559 244.441L498.145 331.378H515.923C515.923 331.378 512.96 276.164 514.992 254.124C517.023 232.084 515.923 225.765 515.923 225.765H479.915Z" fill="#6A6AE2"/>
<path d="M519.041 227.228H477.616V192.775L466.483 199.952L463.28 194.449L455.929 181.867L470.73 171.551C475.951 167.906 482.164 165.941 488.536 165.921H502.773C505.38 165.911 507.917 166.759 509.992 168.334C512.066 169.909 513.561 172.124 514.244 174.633C520.198 197.095 519.041 227.228 519.041 227.228Z" fill="#171659"/>
<path d="M484.543 234.364L453.897 263.99C453.181 264.68 452.639 265.53 452.315 266.469C451.991 267.409 451.895 268.411 452.035 269.395L455.929 297.276" stroke="#130F40" stroke-width="0.5" stroke-linecap="round" stroke-linejoin="round"/>
<path d="M449.975 297.262H463.266" stroke="#130F40" stroke-width="0.5" stroke-linecap="round" stroke-linejoin="round"/>
<path d="M500.797 325.495H511.422" stroke="#130F40" stroke-width="0.5" stroke-linecap="round" stroke-linejoin="round"/>
<path d="M506.117 325.494L504.748 241.612" stroke="#130F40" stroke-width="0.5" stroke-linecap="round" stroke-linejoin="round"/>
<path d="M455.929 181.867L448.691 186.92L437.248 166.906C437.248 166.906 431.082 157.265 423.9 158.462C421.276 158.926 427.54 164.091 427.54 164.091H414.842C415.684 167.04 417.125 169.785 419.075 172.156C420.164 173.444 421.54 174.46 423.094 175.122C424.647 175.784 426.334 176.075 428.02 175.97L432.126 175.759L439.773 195.702C440.258 196.967 441.014 198.111 441.988 199.055C442.962 199.999 444.13 200.719 445.412 201.165C446.694 201.611 448.058 201.773 449.409 201.639C450.76 201.505 452.065 201.078 453.234 200.389L463.294 194.449L455.929 181.867Z" fill="url(#paint2_linear_1_348)"/>
<path d="M454.123 354.727H237.625V363.593H454.123V354.727Z" fill="#171659"/>
<path d="M146.703 340.624L138.237 351.419L146.322 363.607H165.031C165.031 363.607 164.016 356.964 155.62 356.247L155.324 345.058L146.703 340.624Z" fill="#130F40"/>
<path d="M189.751 348.984L192.559 363.607L224.122 349.491L201.575 347.169L189.751 348.984Z" fill="#130F40"/>
<path d="M178.027 293.039L187.537 352.911L209.364 346.662L198.048 293.039H178.027Z" fill="#171659"/>
<path d="M180.665 294.137C180.665 294.137 179.65 318.063 161.462 349.491L140.439 339.414L162.266 294.137H180.665Z" fill="#171659"/>
<path d="M154.505 227.102L163.282 242.02H123.859V227.102H154.505Z" fill="#3090D7"/>
<path d="M205.794 224.132L208.221 245.511H195.015V225.624L205.794 224.132Z" fill="url(#paint3_linear_1_348)"/>
<path d="M198.387 229.255V247.805H164.425V194.942C165.47 194.189 166.585 193.539 167.755 193L172.115 190.987C177.321 193.675 189.921 199.038 194.549 190.987L197.371 192.085C198.782 197.194 201.604 207.567 203.227 215.814C205.527 227.102 198.387 229.255 198.387 229.255Z" fill="#6A6AE2"/>
<path d="M166.513 171.114C167.459 176.744 168.799 180.192 160.249 181.403C151.698 182.613 147.24 191.142 151.487 197.124C151.487 197.124 145.561 197.123 144.432 202.429C143.303 207.735 148.989 208.664 148.989 208.664C148.989 208.664 146.718 215.279 153.589 215.701C160.46 216.124 164.242 209.987 164.242 209.987C164.242 209.987 184.743 203.668 192.066 199.432C199.389 195.195 202.168 190.987 198.528 186.329C194.888 181.67 202.38 179.489 202.578 172.663C202.775 165.837 198.599 169.665 199.078 162.74C199.558 155.816 195.636 148.23 186.14 148.23C176.644 148.23 166.513 171.114 166.513 171.114Z" fill="url(#paint4_linear_1_348)"/>
<path d="M227.96 250.718V301.273C227.96 303.58 227.041 305.792 225.406 307.423C223.771 309.054 221.553 309.971 219.24 309.971H132.579C130.266 309.971 128.049 309.054 126.413 307.423C124.778 305.792 123.859 303.58 123.859 301.273V242.02H219.24C221.553 242.02 223.771 242.937 225.406 244.568C227.041 246.199 227.96 248.411 227.96 250.718Z" fill="#3EA4EB"/>
<path d="M210.874 230.113L198.387 231.521L196.129 231.76L194.902 215.913H168.093L167.557 227.102H151.656L156.411 206.849C157.546 202.042 160.395 197.81 164.425 194.942C165.469 194.189 166.585 193.539 167.755 193L172.115 190.987C177.321 193.675 189.921 199.038 194.549 190.987L197.371 192.085L198.26 192.437C201.095 193.771 203.536 195.816 205.344 198.371C207.151 200.927 208.264 203.906 208.574 207.018L210.874 230.113Z" fill="#6A6AE2"/>
<path d="M197.089 175.97C196.929 177.468 196.219 178.854 195.097 179.862C193.974 180.87 192.518 181.429 191.008 181.431H187.635V186.202C187.633 186.809 187.815 187.403 188.158 187.906C188.5 188.408 188.987 188.795 189.554 189.017L194.549 190.945C189.921 199.052 177.321 193.689 172.115 190.945L175.459 189.397C175.923 189.184 176.316 188.843 176.591 188.413C176.866 187.984 177.012 187.485 177.011 186.976V177.279C174.495 176.327 172.279 174.724 170.59 172.635C168.901 170.546 167.8 168.046 167.4 165.393C167 162.739 167.316 160.026 168.315 157.534C169.314 155.043 170.959 152.861 173.083 151.213C175.207 149.566 177.732 148.512 180.4 148.161C183.067 147.809 185.78 148.172 188.26 149.212C190.74 150.252 192.898 151.933 194.511 154.08C196.125 156.228 197.136 158.765 197.442 161.431C197.442 161.656 197.442 161.882 197.442 162.121C197.729 166.739 197.611 171.373 197.089 175.97Z" fill="url(#paint5_linear_1_348)"/>
<path d="M170.52 269.943C168.954 271.154 166.809 266.932 166.809 266.932C167.924 274.292 164.891 275.292 160.037 275.292C155.183 275.292 156.298 259.669 156.298 259.669C155.903 254.04 155.762 247.96 155.818 242.02C155.818 240.739 155.818 239.431 155.818 238.15C155.818 235.842 155.931 233.576 156.016 231.352C156.016 229.945 156.129 228.537 156.199 227.13H167.487L167.303 231.352L166.005 258.867C166.005 258.867 172.072 268.733 170.52 269.943Z" fill="url(#paint6_linear_1_348)"/>
<path d="M177.024 178.574V171.86C177.024 171.86 183.896 161.642 185.49 153.367C185.49 153.367 197.61 155.253 197.61 169.637C197.61 169.637 201.843 145.992 179.494 148.061C169.321 149.004 164.396 158.743 166.485 171.114L177.024 178.574Z" fill="url(#paint7_linear_1_348)"/>
<path d="M180.129 168.834C180.129 168.834 178.238 162.107 173.794 164.528C169.349 166.948 172.975 175.013 179.042 176.026" fill="url(#paint8_linear_1_348)"/>
<path d="M177.223 170.608C177.501 169.98 177.526 169.27 177.292 168.625C177.058 167.98 176.583 167.45 175.967 167.145C173.709 165.808 173.413 168.553 173.413 168.553" stroke="#9464F1" stroke-width="0.5" stroke-linecap="round" stroke-linejoin="round"/>
<path d="M176.39 167.441C175.881 168.066 175.604 168.846 175.604 169.651C175.604 170.455 175.881 171.236 176.39 171.86" stroke="#9464F1" stroke-width="0.5" stroke-linecap="round" stroke-linejoin="round"/>
<path d="M187.635 181.431C186.247 181.353 184.905 180.911 183.743 180.15C182.581 179.389 181.641 178.335 181.018 177.096" stroke="#9464F1" stroke-width="0.5" stroke-linecap="round" stroke-linejoin="round"/>
<path d="M199.6 200.318C201.011 205.413 201.575 207.552 203.226 215.8C205.526 227.144 198.387 229.297 198.387 229.297V231.535" stroke="#130F40" stroke-width="0.5" stroke-linecap="round" stroke-linejoin="round"/>
<path d="M167.487 227.102L168.023 215.899" stroke="#130F40" stroke-width="0.5" stroke-linecap="round" stroke-linejoin="round"/>
<path d="M310.671 290.745L307.539 279.486L298.424 282.005C297.135 279.668 295.482 277.549 293.528 275.728L298.184 267.509L287.983 261.738L283.298 269.943C280.733 269.202 278.066 268.874 275.397 268.972L272.871 259.866L261.584 262.991L264.095 272.083C261.759 273.372 259.64 275.021 257.817 276.967L249.577 272.308L243.778 282.498L252.018 287.17C251.276 289.73 250.943 292.389 251.03 295.052L241.915 297.571L245.047 308.831L254.162 306.311C255.447 308.652 257.1 310.771 259.058 312.588L254.388 320.808L264.603 326.578L269.259 318.387C271.825 319.129 274.492 319.456 277.161 319.358L279.672 328.464L290.96 325.34L288.434 316.248C290.773 314.955 292.896 313.307 294.727 311.364L302.967 316.023L308.752 305.833L300.526 301.16C301.27 298.601 301.598 295.941 301.5 293.279L310.671 290.745ZM278.501 302.159C276.912 302.598 275.227 302.557 273.661 302.041C272.095 301.525 270.717 300.557 269.703 299.26C268.688 297.963 268.082 296.395 267.961 294.754C267.839 293.113 268.209 291.473 269.022 290.042C269.835 288.61 271.056 287.452 272.529 286.712C274.003 285.973 275.663 285.686 277.3 285.888C278.937 286.09 280.477 286.771 281.725 287.846C282.974 288.921 283.875 290.342 284.314 291.927C284.903 294.053 284.622 296.325 283.532 298.244C282.441 300.163 280.632 301.571 278.501 302.159Z" fill="#9464F1"/>
<path d="M344.028 254.983L296.593 303.083L325.109 331.064L372.544 282.965L344.028 254.983Z" fill="#3090D7"/>
<path d="M372.513 282.948L338.65 287.79C336.29 288.128 334.107 289.23 332.435 290.926C330.763 292.621 329.695 294.818 329.394 297.177L325.162 331.054" stroke="#130F40" stroke-width="0.75" stroke-linecap="round" stroke-linejoin="round"/>
<path d="M296.589 303.102L334.007 301.695C335.236 301.693 336.451 301.448 337.583 300.974C338.716 300.499 339.742 299.805 340.604 298.932C341.465 298.059 342.143 297.023 342.6 295.886C343.057 294.749 343.282 293.532 343.263 292.307L344.025 254.969" fill="#3090D7"/>
<path d="M296.589 303.102L334.007 301.695C335.236 301.693 336.451 301.448 337.583 300.974C338.716 300.499 339.742 299.805 340.604 298.932C341.465 298.059 342.143 297.023 342.6 295.886C343.057 294.749 343.282 293.532 343.263 292.307L344.025 254.969" stroke="#130F40" stroke-width="0.75" stroke-linecap="round" stroke-linejoin="round"/>
<path d="M289.351 341.913L330.848 242.277C332.248 238.917 330.652 235.062 327.284 233.667L325.499 232.927C322.131 231.531 318.267 233.123 316.867 236.483L275.37 336.12C273.971 339.479 275.567 343.334 278.935 344.729L280.72 345.469C284.088 346.865 287.952 345.273 289.351 341.913Z" fill="#6A6AE2"/>
<path d="M323.68 239.768L282.522 338.598" stroke="#130F40" stroke-width="0.75" stroke-linecap="round" stroke-linejoin="round"/>
<path d="M323.299 240.838C322.976 240.705 322.7 240.479 322.506 240.189C322.312 239.899 322.209 239.559 322.209 239.21C322.21 238.862 322.314 238.521 322.509 238.232C322.703 237.943 322.98 237.718 323.303 237.585C323.626 237.453 323.981 237.419 324.323 237.488C324.666 237.557 324.98 237.726 325.226 237.974C325.472 238.221 325.638 238.536 325.705 238.878C325.771 239.22 325.734 239.574 325.599 239.895C325.511 240.108 325.381 240.302 325.218 240.465C325.054 240.628 324.86 240.757 324.646 240.845C324.432 240.933 324.203 240.977 323.972 240.976C323.74 240.975 323.512 240.928 323.299 240.838Z" fill="#130F40"/>
<path d="M281.859 340.216C281.541 340.082 281.27 339.857 281.08 339.569C280.89 339.281 280.79 338.944 280.792 338.6C280.793 338.255 280.897 337.919 281.09 337.634C281.283 337.348 281.557 337.126 281.876 336.995C282.195 336.864 282.546 336.83 282.885 336.898C283.224 336.965 283.534 337.131 283.779 337.375C284.023 337.619 284.189 337.929 284.257 338.267C284.324 338.604 284.29 338.955 284.159 339.273C283.978 339.701 283.635 340.041 283.204 340.218C282.773 340.394 282.29 340.394 281.859 340.216Z" fill="#130F40"/>
<path d="M313.422 264.328C312.451 263.921 311.623 263.236 311.043 262.359C310.463 261.482 310.157 260.454 310.164 259.403C310.17 258.353 310.489 257.328 311.08 256.459C311.671 255.589 312.507 254.914 313.483 254.52C314.459 254.125 315.53 254.028 316.561 254.241C317.593 254.454 318.537 254.967 319.276 255.716C320.014 256.465 320.513 257.416 320.709 258.448C320.905 259.48 320.79 260.546 320.378 261.513C319.827 262.804 318.786 263.826 317.483 264.353C316.179 264.881 314.719 264.872 313.422 264.328Z" fill="#CACAFF"/>
<path d="M316.192 262.095C317.704 261.867 318.744 260.459 318.515 258.95C318.285 257.442 316.874 256.405 315.362 256.633C313.85 256.862 312.81 258.27 313.039 259.778C313.268 261.286 314.679 262.324 316.192 262.095Z" fill="#130F40"/>
<path d="M355.596 301.174H291.439V363.621H355.596V301.174Z" fill="#6A6AE2"/>
<path d="M291.44 301.174H237.005V363.621H291.44V301.174Z" fill="#CACAFF"/>
<path d="M276.342 320.526H221.907L237.004 301.174H291.439L276.342 320.526Z" fill="#6A6AE2"/>
<path d="M355.582 301.174V326.705H305.055L291.439 301.906V301.174H355.582Z" fill="#171659"/>
<path d="M306.523 320.526H370.679L355.582 301.174H291.439L306.523 320.526Z" fill="#6A6AE2"/>
<path d="M237.005 301.174H355.582" stroke="#130F40" stroke-width="0.75" stroke-linecap="round" stroke-linejoin="round"/>
<path d="M393.17 340.666C403.611 340.666 412.076 332.223 412.076 321.807C412.076 311.391 403.611 302.948 393.17 302.948C382.728 302.948 374.263 311.391 374.263 321.807C374.263 332.223 382.728 340.666 393.17 340.666Z" fill="#3090D7"/>
<path d="M341 39C344.314 39 347 36.3137 347 33C347 29.6863 344.314 27 341 27C337.686 27 335 29.6863 335 33C335 36.3137 337.686 39 341 39Z" fill="#3090D7"/>
<path d="M414.898 305.326C421.093 305.326 426.115 300.317 426.115 294.137C426.115 287.958 421.093 282.948 414.898 282.948C408.703 282.948 403.681 287.958 403.681 294.137C403.681 300.317 408.703 305.326 414.898 305.326Z" fill="#3090D7"/>
<path d="M433.494 47.7961C439.69 47.7961 444.712 42.7866 444.712 36.6071C444.712 30.4276 439.69 25.4181 433.494 25.4181C427.299 25.4181 422.277 30.4276 422.277 36.6071C422.277 42.7866 427.299 47.7961 433.494 47.7961Z" fill="#3090D7"/>
<path d="M106.463 111.355C106.463 112.001 106.271 112.632 105.911 113.169C105.552 113.706 105.04 114.125 104.442 114.372C103.844 114.619 103.186 114.684 102.551 114.558C101.916 114.432 101.333 114.121 100.875 113.664C100.417 113.207 100.105 112.626 99.9789 111.992C99.8526 111.359 99.9174 110.702 100.165 110.106C100.413 109.509 100.833 108.999 101.371 108.64C101.909 108.282 102.542 108.09 103.189 108.09C104.058 108.09 104.89 108.434 105.504 109.046C106.118 109.659 106.463 110.489 106.463 111.355Z" fill="#171659"/>
<path d="M302.135 3.2793C302.132 3.92449 301.938 4.55441 301.576 5.08951C301.215 5.62462 300.703 6.04094 300.104 6.28592C299.506 6.5309 298.848 6.59354 298.214 6.46597C297.58 6.33839 296.998 6.02631 296.542 5.5691C296.085 5.1119 295.775 4.53008 295.65 3.89707C295.525 3.26407 295.59 2.60826 295.838 2.01244C296.087 1.41662 296.506 0.907492 297.044 0.549323C297.582 0.191155 298.214 5.99376e-06 298.861 1.40925e-10C299.292 -3.99421e-06 299.719 0.0849175 300.117 0.24989C300.515 0.414862 300.877 0.656636 301.181 0.961332C301.485 1.26603 301.726 1.62764 301.89 2.02542C302.053 2.4232 302.137 2.84932 302.135 3.2793Z" fill="#171659"/>
<path d="M145.913 102.981L125.073 108.09L140.608 126.316L145.913 102.981Z" fill="#3090D7"/>
<path d="M170.196 95.3247L149.793 101.926L166.598 118.983L170.196 95.3247Z" fill="#9464F1"/>
<path d="M194.662 85.5994L174.88 93.8891L193.095 109.469L194.662 85.5994Z" fill="#3090D7"/>
<path d="M218.408 73.6364L199.346 83.4461L218.719 97.5625L218.408 73.6364Z" fill="#9464F1"/>
<path d="M240.786 59.5762L222.641 71.0044L243.171 83.3897L240.786 59.5762Z" fill="#3090D7"/>
<path d="M262.473 42.5042L245.682 55.8184L267.439 65.9096L262.473 42.5042Z" fill="#9464F1"/>
<path d="M281.929 24.0246L266.55 38.9433L289.196 46.8248L281.929 24.0246Z" fill="#3090D7"/>
<path d="M103.189 111.355C103.189 111.355 226.775 100.87 298.875 3.27936" stroke="#130F40" stroke-width="0.75" stroke-linecap="round" stroke-linejoin="round"/>
<path d="M539.853 11.0765C531.077 11.0777 522.511 13.7533 515.302 18.7451C508.094 23.7368 502.586 30.8064 499.516 39.0071C496.447 47.2079 495.963 56.1483 498.128 64.6312C500.294 73.1141 505.006 80.7346 511.634 86.4721L506.244 105.866L522.484 93.3122C528.35 95.8892 534.718 97.1281 541.125 96.9385C547.532 96.7489 553.815 95.1355 559.517 92.216C565.22 89.2966 570.197 85.1446 574.086 80.0628C577.976 74.981 580.679 69.0975 582 62.8411C583.32 56.5848 583.224 50.1134 581.719 43.8987C580.214 37.6841 577.338 31.8827 573.3 26.9177C569.261 21.9527 564.163 17.9491 558.377 15.1989C552.591 12.4486 546.262 11.021 539.853 11.0202V11.0765Z" fill="#8050DD"/>
<path d="M523.306 45.809H543.519" stroke="white" stroke-width="2" stroke-linecap="round" stroke-linejoin="round"/>
<path d="M523.306 55.126H562.954" stroke="white" stroke-width="2" stroke-linecap="round" stroke-linejoin="round"/>
<path d="M523.306 64.4431H562.954" stroke="white" stroke-width="2" stroke-linecap="round" stroke-linejoin="round"/>
<defs>
<linearGradient id="paint0_linear_1_348" x1="492.062" y1="159.908" x2="496.082" y2="141.357" gradientUnits="userSpaceOnUse">
<stop stop-color="#FCBC80"/>
<stop offset="1" stop-color="#FED7B3"/>
</linearGradient>
<linearGradient id="paint1_linear_1_348" x1="495.964" y1="148.485" x2="496.62" y2="144.692" gradientUnits="userSpaceOnUse">
<stop stop-color="#FCBC80"/>
<stop offset="1" stop-color="#FED7B3"/>
</linearGradient>
<linearGradient id="paint2_linear_1_348" x1="435.579" y1="193.536" x2="438.822" y2="173.356" gradientUnits="userSpaceOnUse">
<stop stop-color="#FCBC80"/>
<stop offset="1" stop-color="#FED7B3"/>
</linearGradient>
<linearGradient id="paint3_linear_1_348" x1="200.667" y1="241.49" x2="203.407" y2="232.072" gradientUnits="userSpaceOnUse">
<stop stop-color="#FCBC80"/>
<stop offset="1" stop-color="#FED7B3"/>
</linearGradient>
<linearGradient id="paint4_linear_1_348" x1="159.552" y1="202.99" x2="181.534" y2="160.021" gradientUnits="userSpaceOnUse">
<stop stop-color="#0D0726"/>
<stop offset="1" stop-color="#33346E"/>
</linearGradient>
<linearGradient id="paint5_linear_1_348" x1="180.227" y1="186.359" x2="186.074" y2="165.437" gradientUnits="userSpaceOnUse">
<stop stop-color="#FCBC80"/>
<stop offset="1" stop-color="#FED7B3"/>
</linearGradient>
<linearGradient id="paint6_linear_1_348" x1="162.212" y1="266.233" x2="172.185" y2="248.989" gradientUnits="userSpaceOnUse">
<stop stop-color="#FCBC80"/>
<stop offset="1" stop-color="#FED7B3"/>
</linearGradient>
<linearGradient id="paint7_linear_1_348" x1="174.371" y1="172.793" x2="183.22" y2="151.935" gradientUnits="userSpaceOnUse">
<stop stop-color="#0D0726"/>
<stop offset="1" stop-color="#33346E"/>
</linearGradient>
<linearGradient id="paint8_linear_1_348" x1="175.376" y1="173.765" x2="176.775" y2="168.384" gradientUnits="userSpaceOnUse">
<stop stop-color="#FCBC80"/>
<stop offset="1" stop-color="#FED7B3"/>
</linearGradient>
</defs>
</svg>
