<svg width="490" height="354" viewBox="0 0 490 354" fill="none" xmlns="http://www.w3.org/2000/svg">
<path fill-rule="evenodd" clip-rule="evenodd" d="M255.997 335C385.233 335 490 339.253 490 344.5C490 349.747 385.233 354 255.997 354C126.762 354 22 349.747 22 344.5C22 339.253 126.762 335 255.997 335Z" fill="#D1DEED"/>
<path d="M105.417 42.4924C151.629 7.49436 227.566 -15.0736 253.464 11.9236C263.083 21.9525 271.554 45.875 291.318 48.0726C293.845 48.3478 296.398 48.2663 298.902 47.8303C328.858 43.0206 419.203 28.5092 447.697 59.7443C471.307 85.627 457.746 148.73 423.138 181.886C402.176 201.968 377.66 207.086 352.112 212.394C303.264 222.571 261.976 215.682 237.721 209.586C228.385 215.995 165.537 257.763 101.817 234.223C90.1862 229.925 58.7427 218.314 45.6148 187.66C34.9923 162.858 42.0796 138.958 46.7149 123.315C60.3346 77.3621 93.9298 51.1911 105.417 42.4924Z" fill="url(#paint0_linear_16_896)"/>
<path d="M120.995 299.943H78.7422V338.677H120.995V299.943Z" fill="#D6C5FA"/>
<path d="M209.733 287.619H167.48V340.877H209.733V287.619Z" fill="#D6C5FA"/>
<path d="M292.651 255.243H250.398V338.677H292.651V255.243Z" fill="#D6C5FA"/>
<path d="M374.518 203.55H332.266V338.677H374.518V203.55Z" fill="#D6C5FA"/>
<path d="M456.917 150.292H414.664V340.877H456.917V150.292Z" fill="#D6C5FA"/>
<path d="M115.608 299.943H78.7422V338.677H115.608V299.943Z" fill="#5416CE"/>
<path d="M205.067 287.619H162.812V340.877H205.067V287.619Z" fill="#5416CE"/>
<path d="M289.136 257.69H246.881V338.677H289.136V257.69Z" fill="#5416CE"/>
<path d="M371.003 203.55H328.748V338.677H371.003V203.55Z" fill="#5416CE"/>
<path d="M453.312 150.292H411.057V340.877H453.312V150.292Z" fill="#5416CE"/>
<path d="M444.242 134.499C417.762 164.15 387.881 190.578 355.216 213.235C253.609 283.619 149.55 299.979 91.3638 304.202C84.4873 303.476 67.5359 301.169 65.973 293.718C64.6622 287.464 74.6619 280.253 78.7447 277.741C104.516 261.897 279.45 267.6 427.131 124.364L416.988 118.028L477.195 78.089L453.307 144.64L444.242 134.499Z" fill="#9464F1"/>
<path d="M15.2986 223.128C15.2986 223.128 14.9206 232.433 15.0684 233.959C15.2356 235.67 12.6745 237.351 10.1667 234.461C7.65885 231.57 8.11438 224.061 8.11438 224.061C8.11438 224.061 9.52942 222.234 10.6489 221.829C11.7683 221.425 15.2986 223.128 15.2986 223.128Z" fill="#414042"/>
<path d="M96.028 174.888C96.028 174.888 66.2685 202.147 56.2348 207.279C46.2011 212.411 15.3004 223.128 15.3004 223.128C15.3004 223.128 11.1304 223.371 10.6506 221.83C10.1708 220.289 89.6409 170.333 89.6409 170.333L96.028 174.888Z" fill="#161415"/>
<path d="M73.2262 160.101C73.2262 160.101 68.3196 168.053 66.9506 171.93C65.5816 175.807 43.9174 193.594 43.9174 193.594C43.9174 193.594 36.0499 192.341 27.613 198.498C19.176 204.655 6.4043 213.664 6.4043 213.664C6.4043 213.664 8.79824 222.215 9.13988 222.329C9.48153 222.443 49.8466 207.163 59.197 202.717C68.5474 198.271 96.0268 173.185 96.0268 173.185L74.8182 158.247L73.2262 160.101Z" fill="#231F20"/>
<path d="M115.651 121.139C115.651 121.139 113.16 114.093 109.739 114.177C106.317 114.262 98.0233 116.823 95.6294 118.323C93.2354 119.823 68.0918 141.8 68.0918 141.8L78.4575 153.842L115.651 121.139Z" fill="#BC1E2D"/>
<path d="M138.962 109.217L181.318 86.8118L186.62 95.5347C186.62 95.5347 135.138 127.519 132.587 132.306C130.035 137.094 102.115 181.92 102.115 181.92L93.1738 171.583L138.962 109.217Z" fill="#7433ED"/>
<path d="M127.783 128.202C129.133 128.03 128.752 135.19 124.362 141.029C120.97 145.534 103.497 168.053 101.101 170.449C98.7047 172.846 95.4917 174.649 95.4917 174.649L89.6426 169.422L125.309 125.883L127.783 128.202Z" fill="#EFF0F0"/>
<path d="M142.558 96.7583C142.748 95.4845 142.663 94.1848 142.309 92.9465C141.955 91.7082 141.34 90.56 140.506 89.5789C140.258 90.5605 139.757 91.4596 139.052 92.1861C138.68 91.0387 138.112 89.9641 137.375 89.0095C137.18 89.8915 136.984 90.7735 136.789 91.6555C136.77 91.8249 136.697 91.9838 136.58 92.1086C136.338 92.3145 135.933 92.1788 135.853 92.1619C134.913 91.9196 119.844 91.8348 115.793 98.91C115.228 99.8404 114.887 100.89 114.797 101.975C114.039 108.43 116.917 114.856 121 119.905C121.126 120.091 121.299 120.24 121.502 120.337C121.733 120.402 121.979 120.392 122.204 120.308C123.142 120.041 123.968 119.484 124.749 118.9C127.473 116.858 129.822 114.358 131.691 111.512C133.387 108.922 134.748 105.922 137.239 103.974C139.73 102.026 142.039 100.095 142.558 96.7583Z" fill="#231F20"/>
<path d="M138.73 102.632C138.73 102.973 139.843 114.005 137.189 117.17C134.536 120.334 130.008 120.077 130.008 120.077L127.783 128.202L118.205 119.222L122.31 113.407C122.31 113.407 120.429 107.764 121.285 106.225C122.14 104.686 125.816 104.001 126.073 105.711C126.329 107.422 126.671 109.133 126.671 109.133C126.671 109.133 127.1 107.08 129.409 105.028C131.718 102.976 134.968 102.462 135.736 102.632C136.504 102.801 138.73 102.632 138.73 102.632Z" fill="#F98E58"/>
<path d="M126.621 132.65C127.756 132.65 128.676 131.859 128.676 130.882C128.676 129.905 127.756 129.113 126.621 129.113C125.486 129.113 124.566 129.905 124.566 130.882C124.566 131.859 125.486 132.65 126.621 132.65Z" fill="#BC1E2D"/>
<path d="M118.834 118.335L127.784 128.202L123.289 133.251C123.289 133.251 123.394 129.859 122.652 128.202C121.911 126.544 117.295 120.051 117.295 120.051C117.295 120.051 118.206 118.158 118.834 118.335Z" fill="#E4E5E6"/>
<path d="M117.678 119.358L72.5371 159.047C72.5371 159.047 88.2722 173.299 88.6138 176.948C88.6138 176.948 114.47 146.503 117.293 143.195C120.115 139.888 124.804 136.341 122.9 128.822C122.954 127.669 122.812 126.514 122.48 125.408C121.402 121.849 118.64 119.954 117.678 119.358Z" fill="#5416CE"/>
<path d="M115.638 123.811C115.638 123.811 85.309 137.039 83.4844 140.118C81.6599 143.198 73.9062 175.807 73.9062 175.807L83.8261 176.948L95.7982 148.783C95.7982 148.783 115.575 143.619 119.483 138.335C123.392 133.05 124.761 122.786 115.638 123.811Z" fill="#7433ED"/>
<path d="M127.784 128.202L127.014 134.366L127.784 134.194C127.784 134.194 130.326 135.517 128.584 125.788L127.784 128.202Z" fill="#E4E5E6"/>
<path d="M125.989 132.05C125.989 132.05 119.66 151.804 107.089 154.029C94.5186 156.253 95.7155 157.193 95.7155 157.193L94.2617 159.587L98.7927 160.101C98.7927 160.101 107.605 159.616 111.535 156.081C115.466 152.546 125.543 140.603 126.621 131.451L125.989 132.05Z" fill="#BC1E2D"/>
<path d="M5.83345 213.892C5.83345 213.892 0.929265 216.514 0.473738 219.024C0.018211 221.534 -0.553621 232.593 2.29827 233.959C5.15016 235.326 5.60569 234.417 6.40286 232.707C7.20003 230.996 9.13844 222.329 9.13844 222.329L6.40286 213.664L5.83345 213.892Z" fill="#6D6E71"/>
<path d="M71.5126 181.92H69.0605V187.212H71.5126V181.92Z" fill="#754C29"/>
<path d="M86.1943 182.148H83.7422V187.44H86.1943V182.148Z" fill="#754C29"/>
<path d="M70.5725 180.655H85.2172C85.4743 180.655 85.7208 180.757 85.9026 180.939C86.0843 181.121 86.1864 181.367 86.1864 181.624V182.872H69.0605V182.16C69.0625 181.76 69.2226 181.378 69.506 181.096C69.7893 180.814 70.1728 180.655 70.5725 180.655Z" fill="#754C29"/>
<path d="M74.6715 175.896C74.6715 175.896 71.8559 181.111 72.2485 182.649C72.641 184.188 71.6645 183.902 73.4382 184.644C75.2118 185.385 78.6016 186.022 79.8883 186.126C81.1749 186.231 81.8848 185.329 82.4542 184.53C83.0236 183.73 83.7651 183.447 83.8232 181.566C83.8814 179.686 83.8232 176.948 83.8232 176.948L74.6715 175.896Z" fill="#F98E58"/>
<path d="M95.7696 187.21H58.5424C56.9366 187.21 55.6348 188.511 55.6348 190.117V215.782C55.6348 217.388 56.9366 218.689 58.5424 218.689H95.7696C97.3754 218.689 98.6772 217.388 98.6772 215.782V190.117C98.6772 188.511 97.3754 187.21 95.7696 187.21Z" fill="#754C29"/>
<path d="M98.6772 190.117V198.84H55.6348V190.117C55.6348 189.346 55.9411 188.606 56.4864 188.061C57.0317 187.516 57.7712 187.209 58.5424 187.209H95.7696C96.5408 187.209 97.2803 187.516 97.8256 188.061C98.3709 188.606 98.6772 189.346 98.6772 190.117Z" fill="#603913"/>
<path d="M42.4383 132.65L36.623 141.715L74.7638 140.86L109.062 119.738L42.4383 132.65Z" fill="#EB1C24"/>
<path d="M107.601 118.323L41.9883 131.817L42.4365 132.65L109.06 119.738L107.601 118.323Z" fill="#DD1725"/>
<path d="M36.2148 141.075L41.9889 131.817L42.4371 132.65L36.6219 141.715L36.2148 141.075Z" fill="#DD1725"/>
<path d="M69.0601 142.926L64.5 146.219L72.5371 156.709L77.8605 153.149L69.0601 142.926Z" fill="#414042"/>
<path d="M52.2988 162.153L72.5383 156.699L66.4807 148.143L64.9058 145.916L52.2988 162.153Z" fill="#F9AE40"/>
<path d="M57.9141 158.25L66.4794 148.153L71.1801 154.937L57.9141 158.25Z" fill="#EF5A29"/>
<path d="M182.343 86.8118C183.312 83.5625 186.08 81.3576 189.014 81.3382C192.58 81.314 195.946 84.522 195.597 86.8966C195.437 87.987 194.403 89.5426 193.005 90.0126C192.205 90.2791 191.408 90.1531 190.758 90.851C190.409 91.2265 190.451 91.4325 190.031 91.9777C189.618 92.4817 189.091 92.8803 188.493 93.1407L185.924 94.4055L181.953 87.8634L182.343 86.8118Z" fill="#F98E58"/>
<g style="mix-blend-mode:multiply">
<path d="M189.39 86.555C189.114 86.8433 188.913 87.1954 188.806 87.5799C188.634 88.0451 188.465 88.5103 188.293 88.978C188.227 89.1549 190.34 88.8641 190.473 88.8132C191.084 88.5879 191.876 88.1735 192.101 87.5048C192.613 85.9952 190.212 85.8281 189.39 86.555Z" fill="#E4E5E6"/>
</g>
<g style="mix-blend-mode:multiply">
<path d="M130.092 119.736L126.159 116.058C126.159 116.058 125.972 124.516 128.674 124.948L130.092 119.736Z" fill="#E4E5E6"/>
</g>
<g style="mix-blend-mode:multiply">
<path d="M123.677 105.813C123.461 105.734 123.224 105.734 123.008 105.813C122.897 105.882 122.802 105.976 122.732 106.087C122.314 106.705 122.124 107.45 122.197 108.193C122.273 108.933 122.539 109.641 122.97 110.247C123.091 110.444 123.257 110.61 123.454 110.732C123.552 110.791 123.664 110.823 123.779 110.823C123.893 110.823 124.006 110.791 124.104 110.732C124.474 110.463 124.31 109.811 124.649 109.501C124.726 109.431 124.835 109.341 124.785 109.259C124.766 109.233 124.741 109.213 124.712 109.2C124.438 109.05 124.048 108.97 123.985 108.665C123.944 108.411 124.198 108.18 124.453 108.146C124.709 108.13 124.967 108.136 125.223 108.163C125.267 108.168 125.311 108.155 125.347 108.13C125.376 108.092 125.39 108.044 125.385 107.996C125.385 107.526 125.354 106.637 124.998 106.273C124.714 105.968 124.067 105.91 123.677 105.813Z" fill="#E4E5E6"/>
</g>
<path d="M197.379 43.6094C196.717 43.6056 196.057 43.6871 195.416 43.8517C194.776 43.6869 194.117 43.6055 193.456 43.6094C193.23 43.6094 193.007 43.6191 192.787 43.6385C192.299 42.5446 191.562 41.5799 190.635 40.8215C189.708 40.0631 188.617 39.532 187.448 39.2707C186.279 39.0094 185.065 39.025 183.903 39.3164C182.741 39.6078 181.664 40.1669 180.757 40.9489C180.1 39.9422 179.217 39.1034 178.178 38.5001C177.138 37.8967 175.972 37.5456 174.772 37.4749C173.573 37.4042 172.373 37.6159 171.27 38.093C170.167 38.5701 169.191 39.2993 168.421 40.222C167.489 39.6497 166.445 39.283 165.36 39.1463C164.275 39.0097 163.173 39.1063 162.128 39.4297C161.083 39.7531 160.119 40.2959 159.3 41.0217C158.482 41.7475 157.828 42.6396 157.382 43.6385C157.162 43.6191 156.939 43.6094 156.713 43.6094C154.675 43.6094 152.72 44.4192 151.278 45.8605C149.837 47.3019 149.027 49.2568 149.027 51.2952C149.027 53.3336 149.837 55.2885 151.278 56.7299C152.72 58.1713 154.675 58.981 156.713 58.981C156.813 58.981 156.912 58.981 157.009 58.981C157.408 60.3797 158.197 61.6361 159.282 62.6044C160.368 63.5728 161.706 64.2131 163.141 64.4512C164.576 64.6892 166.049 64.5151 167.389 63.9491C168.729 63.3831 169.881 62.4485 170.711 61.2538C172.117 62.0013 173.721 62.2934 175.301 62.0899C176.88 61.8863 178.357 61.1971 179.528 60.1174C180.327 60.3888 181.164 60.5271 182.007 60.5269C182.307 60.5263 182.606 60.5085 182.904 60.4736C183.623 61.8265 184.73 62.9336 186.083 63.6529C187.436 64.3722 188.973 64.6707 190.497 64.5103C192.021 64.3499 193.462 63.7379 194.635 62.7527C195.809 61.7675 196.661 60.4541 197.083 58.981C197.18 58.981 197.279 58.981 197.379 58.981C199.417 58.981 201.372 58.1713 202.813 56.7299C204.255 55.2885 205.064 53.3336 205.064 51.2952C205.064 49.2568 204.255 47.3019 202.813 45.8605C201.372 44.4192 199.417 43.6094 197.379 43.6094Z" fill="#3090D7"/>
<path d="M378.113 120.526C377.272 120.745 376.388 120.745 375.547 120.526C375.402 120.526 375.256 120.526 375.111 120.545C374.792 119.83 374.31 119.2 373.703 118.705C373.097 118.209 372.384 117.862 371.62 117.691C370.856 117.521 370.063 117.531 369.303 117.721C368.544 117.911 367.839 118.275 367.246 118.786C366.817 118.127 366.24 117.578 365.561 117.183C364.882 116.788 364.119 116.557 363.335 116.51C362.551 116.463 361.766 116.601 361.044 116.912C360.323 117.223 359.684 117.699 359.18 118.301C358.57 117.927 357.888 117.688 357.178 117.599C356.468 117.51 355.748 117.573 355.065 117.784C354.382 117.996 353.751 118.351 353.216 118.825C352.681 119.299 352.253 119.882 351.961 120.535C351.819 120.535 351.673 120.516 351.525 120.516C350.193 120.516 348.914 121.045 347.972 121.988C347.029 122.93 346.5 124.208 346.5 125.541C346.5 126.874 347.029 128.152 347.972 129.095C348.914 130.037 350.193 130.567 351.525 130.567H351.719C351.979 131.483 352.494 132.307 353.204 132.942C353.915 133.577 354.791 133.997 355.731 134.152C356.671 134.308 357.635 134.193 358.512 133.821C359.39 133.449 360.143 132.836 360.684 132.052C361.604 132.541 362.652 132.732 363.685 132.6C364.717 132.467 365.683 132.016 366.449 131.31C366.971 131.488 367.518 131.579 368.07 131.579C368.266 131.578 368.461 131.566 368.656 131.543C369.125 132.428 369.849 133.153 370.733 133.624C371.617 134.095 372.622 134.291 373.618 134.187C374.615 134.083 375.557 133.683 376.325 133.039C377.093 132.396 377.65 131.537 377.927 130.574H378.12C379.453 130.574 380.731 130.044 381.674 129.102C382.616 128.16 383.146 126.881 383.146 125.549C383.146 124.216 382.616 122.938 381.674 121.995C380.731 121.053 379.453 120.523 378.12 120.523L378.113 120.526Z" fill="#3090D7"/>
<path d="M223.023 169.815C222.183 170.034 221.3 170.034 220.46 169.815C220.312 169.815 220.167 169.815 220.021 169.834C219.702 169.119 219.22 168.489 218.614 167.994C218.007 167.498 217.294 167.151 216.53 166.98C215.766 166.81 214.973 166.82 214.213 167.01C213.454 167.2 212.749 167.564 212.156 168.075C211.727 167.416 211.15 166.867 210.471 166.472C209.792 166.077 209.029 165.846 208.245 165.799C207.461 165.752 206.676 165.89 205.954 166.201C205.233 166.512 204.594 166.988 204.09 167.59C203.48 167.216 202.798 166.977 202.088 166.888C201.379 166.799 200.658 166.862 199.975 167.073C199.292 167.285 198.662 167.64 198.126 168.114C197.591 168.588 197.164 169.171 196.872 169.824C196.729 169.812 196.583 169.805 196.435 169.805C195.103 169.805 193.824 170.334 192.882 171.277C191.94 172.219 191.41 173.497 191.41 174.83C191.41 176.163 191.94 177.441 192.882 178.384C193.824 179.326 195.103 179.856 196.435 179.856H196.629C196.889 180.772 197.404 181.596 198.115 182.231C198.825 182.866 199.701 183.286 200.641 183.441C201.581 183.597 202.546 183.482 203.423 183.11C204.3 182.738 205.053 182.125 205.594 181.341C206.514 181.83 207.562 182.021 208.595 181.889C209.627 181.756 210.593 181.305 211.359 180.599C211.881 180.776 212.429 180.866 212.98 180.866C213.176 180.866 213.372 180.854 213.566 180.832C214.036 181.717 214.759 182.442 215.643 182.913C216.527 183.384 217.532 183.58 218.529 183.476C219.525 183.372 220.468 182.972 221.235 182.328C222.003 181.685 222.561 180.826 222.837 179.863H223.031C224.363 179.863 225.642 179.333 226.584 178.391C227.526 177.449 228.056 176.17 228.056 174.838C228.056 173.505 227.526 172.227 226.584 171.284C225.642 170.342 224.363 169.812 223.031 169.812L223.023 169.815Z" fill="#3090D7"/>
<defs>
<linearGradient id="paint0_linear_16_896" x1="249.797" y1="-0.000976563" x2="249.797" y2="241.351" gradientUnits="userSpaceOnUse">
<stop stop-color="#E9EEF7"/>
<stop offset="1" stop-color="#E9EEF7" stop-opacity="0"/>
</linearGradient>
</defs>
</svg>
