<svg width="574" height="320" viewBox="0 0 574 320" fill="none" xmlns="http://www.w3.org/2000/svg">
<path fill-rule="evenodd" clip-rule="evenodd" d="M286.999 290.909C445.507 290.909 574 297.186 574 304.938C574 312.69 445.507 318.961 286.999 318.961C128.491 318.961 0 312.679 0 304.938C0 297.197 128.493 290.909 286.999 290.909Z" fill="#B6D8F8"/>
<path d="M352.571 127.836C349.786 125.296 347.516 122.366 345.858 119.171C342.128 112.017 341.543 103.593 341.85 95.542C343.029 64.4192 343.432 27.5137 313.082 10.0663C287.075 -4.88862 253.455 -1.41576 227.4 9.01946C172.808 30.8703 170.66 107.971 219.805 140.29C231.37 147.893 243.779 154.315 253.771 164.144C266.237 176.398 273.995 192.973 284.553 207.106C299.283 226.813 320.993 236.692 344.008 231.241C369.074 225.301 395.215 203.051 391.197 172.709C389.759 161.801 384.245 151.407 376.132 144.312C368.806 137.914 359.609 134.284 352.571 127.836Z" fill="url(#paint0_linear_4_115)"/>
<path d="M146.137 203.994C168.673 203.994 186.943 185.725 186.943 163.189C186.943 140.652 168.673 122.383 146.137 122.383C123.601 122.383 105.332 140.652 105.332 163.189C105.332 185.725 123.601 203.994 146.137 203.994Z" fill="url(#paint1_linear_4_115)"/>
<path d="M397.203 86.1538C419.448 86.1538 437.482 68.6209 437.482 46.993C437.482 25.3651 419.448 7.83215 397.203 7.83215C374.957 7.83215 356.923 25.3651 356.923 46.993C356.923 68.6209 374.957 86.1538 397.203 86.1538Z" fill="url(#paint2_linear_4_115)"/>
<path d="M240.291 172.789C235.413 177.779 218.215 168.884 201.869 152.906C185.522 136.929 181.125 114.943 181.125 114.943C181.125 114.943 203.2 118.848 219.547 134.814C235.894 150.78 245.203 167.799 240.291 172.789Z" fill="url(#paint3_linear_4_115)"/>
<path d="M240.291 172.789L181.125 114.943C181.125 114.943 203.2 118.848 219.547 134.814C235.894 150.78 245.203 167.799 240.291 172.789Z" fill="url(#paint4_linear_4_115)"/>
<path d="M232.683 183.105C229.83 189.382 210.853 186.909 190.288 177.511C169.723 168.112 158.221 149.236 158.221 149.236C158.221 149.236 180.051 145.443 200.616 154.831C221.181 164.218 235.525 176.828 232.683 183.105Z" fill="url(#paint5_linear_4_115)"/>
<path d="M232.683 183.105L158.221 149.281C158.221 149.281 180.051 145.488 200.616 154.875C221.181 164.263 235.525 176.828 232.683 183.105Z" fill="url(#paint6_linear_4_115)"/>
<path d="M236.777 161.656C232.917 163.524 226.047 147.446 221.426 125.729C216.805 104.011 220.028 83.0657 220.028 83.0657C227.468 93.9083 232.682 106.12 235.367 118.993C240 140.677 240.626 159.799 236.777 161.656Z" fill="url(#paint7_linear_4_115)"/>
<path d="M236.778 161.656L219.995 83.0657C227.435 93.9083 232.649 106.12 235.334 118.993C240 140.677 240.627 159.799 236.778 161.656Z" fill="url(#paint8_linear_4_115)"/>
<path d="M326.691 184.548C332.968 187.592 346.137 173.359 356.095 152.806C366.053 132.252 362.809 110.064 362.809 110.064C362.809 110.064 343.362 121.253 333.393 141.796C323.424 162.338 320.414 181.505 326.691 184.548Z" fill="url(#paint9_linear_4_115)"/>
<path d="M326.691 184.548L362.775 110.064C362.775 110.064 343.329 121.253 333.36 141.796C323.39 162.338 320.414 181.505 326.691 184.548Z" fill="url(#paint10_linear_4_115)"/>
<path d="M325.057 193.936C328.85 199.709 347.222 194.316 366.087 181.908C384.951 169.499 393.387 149.013 393.387 149.013C393.387 149.013 371.234 148.643 352.369 161.052C333.505 173.46 321.276 188.185 325.057 193.936Z" fill="url(#paint11_linear_4_115)"/>
<path d="M325.057 193.936L393.387 149.013C393.387 149.013 371.234 148.643 352.369 161.052C333.505 173.46 321.276 188.185 325.057 193.936Z" fill="url(#paint12_linear_4_115)"/>
<path d="M319.731 167.15C323.681 168.794 329.611 152.336 332.968 130.394C336.324 108.453 331.849 87.7203 331.849 87.7203C325.053 98.978 320.555 111.47 318.613 124.476C315.256 146.406 315.737 165.516 319.731 167.15Z" fill="url(#paint13_linear_4_115)"/>
<path d="M319.731 167.15L331.894 87.7091C325.081 98.9667 320.567 111.463 318.613 124.476C315.256 146.406 315.737 165.516 319.731 167.15Z" fill="url(#paint14_linear_4_115)"/>
<path style="mix-blend-mode:multiply" opacity="0.4" d="M278.333 319.206C403.009 319.206 504.078 309.387 504.078 297.276C504.078 285.164 403.009 275.345 278.333 275.345C153.657 275.345 52.5874 285.164 52.5874 297.276C52.5874 309.387 153.657 319.206 278.333 319.206Z" fill="url(#paint15_radial_4_115)"/>
<path d="M444.151 215.866H336.179V303.608H444.151V215.866Z" fill="#7433ED"/>
<path d="M336.179 215.866H444.162L417.924 204.42H336.179V215.866Z" fill="url(#paint16_linear_4_115)"/>
<path style="mix-blend-mode:multiply" opacity="0.5" d="M392.627 286.917C407.627 284.417 417.762 270.23 415.262 255.23C412.763 240.229 398.576 230.095 383.575 232.594C368.575 235.094 358.44 249.28 360.94 264.281C363.439 279.282 377.626 289.416 392.627 286.917Z" fill="url(#paint17_linear_4_115)"/>
<path d="M391.441 283.961C406.648 283.961 418.977 271.633 418.977 256.425C418.977 241.218 406.648 228.89 391.441 228.89C376.233 228.89 363.905 241.218 363.905 256.425C363.905 271.633 376.233 283.961 391.441 283.961Z" fill="url(#paint18_linear_4_115)"/>
<path d="M391.44 280.291C404.621 280.291 415.306 269.606 415.306 256.425C415.306 243.244 404.621 232.559 391.44 232.559C378.26 232.559 367.575 243.244 367.575 256.425C367.575 269.606 378.26 280.291 391.44 280.291Z" fill="url(#paint19_linear_4_115)"/>
<path d="M383.183 268.229L384.392 262.836C386.101 263.572 387.936 263.97 389.796 264.011C391.799 264.011 392.795 263.262 392.795 261.773C392.819 261.284 392.683 260.8 392.406 260.396C392.129 259.992 391.727 259.689 391.262 259.536C389.605 259 387.864 258.776 386.126 258.876V254.322C387.782 254.396 389.438 254.173 391.016 253.662C392.134 253.214 392.649 252.599 392.649 251.793C392.649 250.674 391.709 250.137 389.829 250.137C387.917 250.164 386.031 250.587 384.291 251.379L382.859 246.389C385.491 245.083 388.39 244.405 391.329 244.408C393.29 244.317 395.226 244.888 396.823 246.031C397.503 246.539 398.049 247.204 398.416 247.97C398.782 248.736 398.957 249.58 398.926 250.428C398.952 251.574 398.649 252.704 398.053 253.684C397.427 254.668 396.561 255.477 395.536 256.034C396.86 256.6 398.016 257.498 398.892 258.641C399.696 259.695 400.128 260.985 400.123 262.31C400.151 263.703 399.731 265.068 398.926 266.204C398.067 267.351 396.904 268.234 395.569 268.755C393.996 269.377 392.315 269.681 390.624 269.65C388.073 269.688 385.541 269.204 383.183 268.229Z" fill="#5416CE"/>
<path d="M336.19 160.571H220.487V303.608H336.19V160.571Z" fill="#7433ED"/>
<path d="M336.179 160.571H220.487L242.853 149.125H313.813L336.179 160.571Z" fill="url(#paint20_linear_4_115)"/>
<path style="mix-blend-mode:multiply" opacity="0.5" d="M297.374 223.007C308.128 212.253 308.128 194.819 297.374 184.065C286.621 173.312 269.186 173.312 258.433 184.065C247.68 194.819 247.68 212.253 258.433 223.007C269.186 233.76 286.621 233.76 297.374 223.007Z" fill="url(#paint21_linear_4_115)"/>
<path d="M299.493 220.787C310.903 210.732 312 193.332 301.945 181.923C291.89 170.514 274.49 169.416 263.081 179.471C251.672 189.526 250.574 206.926 260.629 218.335C270.684 229.744 288.084 230.842 299.493 220.787Z" fill="url(#paint22_linear_4_115)"/>
<path d="M297.02 218.117C306.923 209.42 307.901 194.34 299.204 184.437C290.506 174.533 275.427 173.555 265.523 182.253C255.619 190.95 254.642 206.03 263.339 215.933C272.037 225.837 287.116 226.815 297.02 218.117Z" fill="url(#paint23_linear_4_115)"/>
<path d="M273.22 208.056H276.755V194.048L273.22 194.305V188.789C274.579 188.765 275.926 188.531 277.214 188.095C278.69 187.609 280.091 186.92 281.376 186.048H285.852V208.011H289.388V214.199H273.276L273.22 208.056Z" fill="#5416CE"/>
<path d="M336.179 215.866L220.487 281.779V303.608H336.179V215.866Z" fill="url(#paint24_linear_4_115)"/>
<path d="M220.475 192.291H112.503V303.608H220.475V192.291Z" fill="#7433ED"/>
<path d="M220.487 192.291H112.503L138.741 180.833H220.487V192.291Z" fill="url(#paint25_linear_4_115)"/>
<path style="mix-blend-mode:multiply" opacity="0.5" d="M171.341 262.966C186.115 259.359 195.167 244.459 191.56 229.685C187.953 214.911 173.053 205.859 158.279 209.466C143.506 213.073 134.453 227.973 138.06 242.747C141.667 257.52 156.567 266.573 171.341 262.966Z" fill="url(#paint26_linear_4_115)"/>
<path d="M168.179 260.386C183.387 260.386 195.715 248.058 195.715 232.85C195.715 217.643 183.387 205.315 168.179 205.315C152.972 205.315 140.644 217.643 140.644 232.85C140.644 248.058 152.972 260.386 168.179 260.386Z" fill="url(#paint27_linear_4_115)"/>
<path d="M190.284 241.828C195.262 229.624 189.404 215.695 177.2 210.716C164.995 205.738 151.066 211.597 146.088 223.801C141.11 236.005 146.968 249.935 159.172 254.913C171.377 259.891 185.306 254.033 190.284 241.828Z" fill="url(#paint28_linear_4_115)"/>
<path d="M160.414 239.53C162.751 237.494 164.935 235.287 166.948 232.929C168.414 231.116 169.186 229.572 169.186 228.453C169.207 228.12 169.154 227.787 169.03 227.477C168.906 227.167 168.715 226.889 168.469 226.663C167.93 226.219 167.243 225.995 166.545 226.036C164.869 226.087 163.235 226.581 161.812 227.469L160.011 221.997C161.281 221.345 162.616 220.828 163.994 220.453C165.343 220.109 166.73 219.936 168.123 219.938C169.675 219.911 171.211 220.26 172.598 220.957C173.826 221.573 174.851 222.528 175.552 223.709C176.25 224.915 176.606 226.288 176.581 227.681C176.567 229.949 175.777 232.144 174.344 233.902C172.472 236.14 170.194 238.003 167.63 239.396H176.481V244.733H160.481L160.414 239.53Z" fill="#5416CE"/>
<path d="M220.487 215.866L112.503 281.779V303.608H220.487V215.866Z" fill="url(#paint29_linear_4_115)"/>
<g style="mix-blend-mode:multiply" opacity="0.6">
<path d="M264.537 155.759C264.537 157.024 257.107 157.997 247.955 157.997C238.802 157.997 231.384 156.979 231.384 155.759C231.384 154.54 238.802 153.522 247.955 153.522C257.107 153.522 264.537 154.495 264.537 155.759Z" fill="#D17E74"/>
</g>
<g style="mix-blend-mode:multiply" opacity="0.6">
<path d="M308.711 157.136C317.862 157.136 325.281 156.114 325.281 154.853C325.281 153.592 317.862 152.571 308.711 152.571C299.559 152.571 292.14 153.592 292.14 154.853C292.14 156.114 299.559 157.136 308.711 157.136Z" fill="#D17E74"/>
</g>
<g clip-path="url(#clip0_4_115)">
<path opacity="0.51" d="M285.029 35.1516L293.972 53.4146C294.374 54.2372 294.968 54.9487 295.704 55.4877C296.44 56.0267 297.295 56.377 298.195 56.5082L318.189 59.4369C322.791 60.1115 324.628 65.8114 321.298 69.0818L306.83 83.3061C306.178 83.9457 305.691 84.7355 305.41 85.6075C305.129 86.4794 305.063 87.4072 305.217 88.3106L308.633 108.385C309.419 113.005 304.609 116.526 300.493 114.345L282.61 104.868C281.805 104.441 280.909 104.218 279.999 104.218C279.09 104.218 278.194 104.441 277.389 104.868L259.505 114.345C255.39 116.526 250.58 113.007 251.365 108.385L254.781 88.3106C254.935 87.4072 254.869 86.4794 254.588 85.6075C254.307 84.7355 253.82 83.9457 253.168 83.3061L238.7 69.0892C235.37 65.8203 237.207 60.1189 241.809 59.4443L261.803 56.5156C262.703 56.3844 263.558 56.0341 264.294 55.4951C265.03 54.9561 265.625 54.2446 266.026 53.422L274.968 35.159C277.026 30.9495 282.972 30.9495 285.029 35.1516Z" fill="white"/>
<path d="M303.106 111.584C302.745 111.58 302.391 111.488 302.074 111.315L284.191 101.837C282.899 101.152 281.462 100.795 280.003 100.795C278.544 100.795 277.106 101.152 275.815 101.837L257.931 111.315C257.614 111.488 257.26 111.58 256.9 111.584C256.571 111.579 256.247 111.502 255.951 111.359C255.654 111.216 255.391 111.011 255.181 110.756C254.974 110.511 254.824 110.221 254.743 109.909C254.662 109.597 254.651 109.271 254.712 108.954L258.128 88.8812C258.374 87.4324 258.267 85.945 257.816 84.5472C257.365 83.1493 256.584 81.883 255.539 80.8574L241.071 66.6404C240.775 66.3488 240.565 65.9793 240.466 65.5738C240.366 65.1683 240.382 64.7429 240.51 64.3456C240.638 63.9484 240.873 63.5952 241.19 63.3259C241.507 63.0566 241.892 62.882 242.302 62.8217L262.298 59.8931C263.743 59.683 265.115 59.1215 266.296 58.2571C267.478 57.3927 268.433 56.2514 269.078 54.9317L278.02 36.6672C278.204 36.2931 278.487 35.9783 278.839 35.7581C279.19 35.5379 279.596 35.4213 280.01 35.4213C280.424 35.4213 280.83 35.5379 281.181 35.7581C281.533 35.9783 281.817 36.2931 282 36.6672L290.933 54.9257C291.579 56.2454 292.534 57.3868 293.715 58.2512C294.896 59.1156 296.269 59.6771 297.714 59.8871L317.708 62.8158C318.118 62.876 318.503 63.0506 318.82 63.3199C319.136 63.5892 319.372 63.9424 319.5 64.3397C319.628 64.7369 319.644 65.1623 319.544 65.5679C319.445 65.9734 319.235 66.3429 318.939 66.6345L304.471 80.8514C303.426 81.8771 302.645 83.1434 302.194 84.5412C301.743 85.939 301.636 87.4265 301.882 88.8752L305.298 108.948C305.359 109.265 305.348 109.591 305.267 109.903C305.186 110.215 305.036 110.505 304.829 110.75C304.618 111.006 304.355 111.213 304.058 111.357C303.76 111.501 303.436 111.579 303.106 111.584Z" fill="url(#paint30_linear_4_115)"/>
<path d="M261.027 84.0015C260.92 84.0014 260.816 83.9671 260.729 83.9036C260.642 83.8401 260.578 83.7505 260.545 83.6478C259.948 81.8024 258.916 80.1303 257.538 78.7741L252.035 73.3655C251.939 73.2705 251.884 73.1408 251.882 73.0048C251.88 72.8688 251.932 72.7377 252.026 72.6404C252.121 72.543 252.249 72.4874 252.384 72.4858C252.519 72.4841 252.649 72.5365 252.746 72.6315L258.25 78.0401C259.745 79.5123 260.865 81.3279 261.512 83.3313C261.533 83.3952 261.541 83.4626 261.535 83.5296C261.53 83.5967 261.512 83.662 261.482 83.7219C261.452 83.7818 261.41 83.8351 261.359 83.8787C261.308 83.9223 261.25 83.9555 261.186 83.9762C261.135 83.9935 261.081 84.0021 261.027 84.0015Z" fill="white"/>
<path d="M271.842 100.594C271.729 100.594 271.618 100.556 271.529 100.485C271.44 100.415 271.376 100.316 271.349 100.205C271.322 100.094 271.332 99.9768 271.378 99.8723C271.425 99.7679 271.504 99.682 271.605 99.6285L273.999 98.3596C275.849 97.3788 277.909 96.8663 280 96.8663C282.09 96.8663 284.15 97.3788 286.001 98.3596C286.12 98.4229 286.21 98.5313 286.25 98.6612C286.29 98.7911 286.277 98.9316 286.214 99.052C286.152 99.1724 286.044 99.2628 285.915 99.3032C285.786 99.3436 285.647 99.3307 285.527 99.2675C283.823 98.3638 281.926 97.8915 280 97.8915C278.074 97.8915 276.177 98.3638 274.472 99.2675L272.082 100.542C272.008 100.579 271.925 100.597 271.842 100.594Z" fill="white"/>
<path d="M296.731 104.667C296.326 104.667 295.924 104.606 295.537 104.487C295.412 104.445 295.308 104.355 295.248 104.236C295.187 104.118 295.175 103.981 295.213 103.853C295.251 103.726 295.337 103.618 295.453 103.554C295.568 103.489 295.704 103.472 295.832 103.507C296.341 103.662 296.881 103.683 297.401 103.566C297.921 103.449 298.401 103.2 298.797 102.841C299.201 102.489 299.506 102.037 299.683 101.529C299.86 101.021 299.902 100.476 299.806 99.9465L298.037 89.5453C297.683 87.4684 297.837 85.3361 298.483 83.3321C299.129 81.328 300.248 79.5124 301.745 78.0416L309.244 70.6761C309.662 70.2655 309.958 69.7451 310.098 69.1738C310.238 68.6025 310.217 68.0031 310.036 67.4434C309.856 66.8837 309.524 66.386 309.077 66.0068C308.631 65.6275 308.088 65.3817 307.511 65.2972L297.149 63.7786C295.08 63.476 293.115 62.6706 291.424 61.432C289.732 60.1933 288.365 58.5586 287.44 56.6687L282.805 47.2036C282.547 46.6759 282.147 46.2316 281.652 45.9209C281.156 45.6102 280.584 45.4456 280 45.4456C279.416 45.4456 278.844 45.6102 278.348 45.9209C277.853 46.2316 277.453 46.6759 277.195 47.2036L272.56 56.6687C271.635 58.5584 270.268 60.193 268.577 61.4316C266.886 62.6703 264.921 63.4757 262.852 63.7786L252.491 65.2972C251.886 65.3811 251.318 65.6437 250.861 66.052C250.76 66.1427 250.628 66.1893 250.493 66.1816C250.358 66.174 250.232 66.1126 250.142 66.0112C250.052 65.9097 250.006 65.7764 250.014 65.6405C250.021 65.5047 250.082 65.3774 250.183 65.2868C250.79 64.7454 251.541 64.396 252.344 64.2823L262.706 62.7652C264.612 62.4862 266.422 61.7442 267.98 60.6031C269.538 59.4621 270.797 57.9563 271.649 56.2155L276.282 46.7504C276.625 46.0514 277.155 45.4629 277.812 45.0515C278.469 44.64 279.227 44.422 280 44.422C280.773 44.422 281.531 44.64 282.188 45.0515C282.845 45.4629 283.375 46.0514 283.718 46.7504L288.351 56.2155C289.203 57.9563 290.463 59.4621 292.021 60.6031C293.579 61.7442 295.389 62.4862 297.295 62.7652L307.656 64.2823C308.423 64.3938 309.143 64.7194 309.735 65.2224C310.328 65.7253 310.768 66.3854 311.007 67.1279C311.246 67.8703 311.274 68.6654 311.088 69.4231C310.902 70.1807 310.509 70.8706 309.953 71.4146L302.456 78.7831C301.077 80.1377 300.045 81.8103 299.449 83.6565C298.854 85.5027 298.713 87.4671 299.039 89.3804L300.808 99.7816C300.909 100.381 300.88 100.996 300.722 101.582C300.564 102.169 300.281 102.714 299.893 103.18C299.504 103.646 299.02 104.02 298.474 104.279C297.928 104.537 297.333 104.672 296.729 104.675L296.731 104.667Z" fill="white"/>
</g>
<defs>
<linearGradient id="paint0_linear_4_115" x1="288.112" y1="0" x2="288.112" y2="232.727" gradientUnits="userSpaceOnUse">
<stop stop-color="#9464F1"/>
<stop offset="1"/>
</linearGradient>
<linearGradient id="paint1_linear_4_115" x1="161.007" y1="211.882" x2="136.962" y2="133.192" gradientUnits="userSpaceOnUse">
<stop stop-color="#8887E5"/>
<stop offset="1" stop-color="#B3D9FE"/>
</linearGradient>
<linearGradient id="paint2_linear_4_115" x1="378.247" y1="88.346" x2="419.187" y2="-0.0212088" gradientUnits="userSpaceOnUse">
<stop stop-color="#8887E5"/>
<stop offset="1" stop-color="#B3D9FE"/>
</linearGradient>
<linearGradient id="paint3_linear_4_115" x1="227.965" y1="176.631" x2="198.499" y2="116.021" gradientUnits="userSpaceOnUse">
<stop stop-color="#00417F"/>
<stop offset="1" stop-color="#3FDCFF"/>
</linearGradient>
<linearGradient id="paint4_linear_4_115" x1="190.762" y1="112.806" x2="238.249" y2="170.054" gradientUnits="userSpaceOnUse">
<stop stop-color="#00417F"/>
<stop offset="1" stop-color="#3FDCFF"/>
</linearGradient>
<linearGradient id="paint5_linear_4_115" x1="222.488" y1="190.794" x2="174.734" y2="144.396" gradientUnits="userSpaceOnUse">
<stop stop-color="#00417F"/>
<stop offset="1" stop-color="#3FDCFF"/>
</linearGradient>
<linearGradient id="paint6_linear_4_115" x1="166.461" y1="144.011" x2="229.831" y2="181.225" gradientUnits="userSpaceOnUse">
<stop stop-color="#00417F"/>
<stop offset="1" stop-color="#3FDCFF"/>
</linearGradient>
<linearGradient id="paint7_linear_4_115" x1="228.734" y1="160.31" x2="236.758" y2="94.8602" gradientUnits="userSpaceOnUse">
<stop stop-color="#00417F"/>
<stop offset="1" stop-color="#3FDCFF"/>
</linearGradient>
<linearGradient id="paint8_linear_4_115" x1="225.239" y1="87.261" x2="245.41" y2="157.018" gradientUnits="userSpaceOnUse">
<stop stop-color="#00417F"/>
<stop offset="1" stop-color="#3FDCFF"/>
</linearGradient>
<linearGradient id="paint9_linear_4_115" x1="337.851" y1="185.013" x2="345.138" y2="117.715" gradientUnits="userSpaceOnUse">
<stop stop-color="#00417F"/>
<stop offset="1" stop-color="#3FDCFF"/>
</linearGradient>
<linearGradient id="paint10_linear_4_115" x1="351.373" y1="112.055" x2="325.887" y2="182.281" gradientUnits="userSpaceOnUse">
<stop stop-color="#00417F"/>
<stop offset="1" stop-color="#3FDCFF"/>
</linearGradient>
<linearGradient id="paint11_linear_4_115" x1="334.495" y1="200.708" x2="374.672" y2="147.239" gradientUnits="userSpaceOnUse">
<stop stop-color="#00417F"/>
<stop offset="1" stop-color="#3FDCFF"/>
</linearGradient>
<linearGradient id="paint12_linear_4_115" x1="382.822" y1="145.57" x2="325.72" y2="192.353" gradientUnits="userSpaceOnUse">
<stop stop-color="#00417F"/>
<stop offset="1" stop-color="#3FDCFF"/>
</linearGradient>
<linearGradient id="paint13_linear_4_115" x1="328.75" y1="163.428" x2="317.406" y2="98.5074" gradientUnits="userSpaceOnUse">
<stop stop-color="#00417F"/>
<stop offset="1" stop-color="#3FDCFF"/>
</linearGradient>
<linearGradient id="paint14_linear_4_115" x1="327.862" y1="90.4608" x2="311.376" y2="160.861" gradientUnits="userSpaceOnUse">
<stop stop-color="#00417F"/>
<stop offset="1" stop-color="#3FDCFF"/>
</linearGradient>
<radialGradient id="paint15_radial_4_115" cx="0" cy="0" r="1" gradientUnits="userSpaceOnUse" gradientTransform="translate(278.748 296.67) scale(222.449 20.2227)">
<stop offset="0.02"/>
<stop offset="0.14" stop-color="#202020"/>
<stop offset="0.41" stop-color="#707070"/>
<stop offset="0.8" stop-color="#F0F0F0"/>
<stop offset="0.85" stop-color="white"/>
</radialGradient>
<linearGradient id="paint16_linear_4_115" x1="388.862" y1="209.906" x2="388.46" y2="203.513" gradientUnits="userSpaceOnUse">
<stop stop-color="#201D3E"/>
<stop offset="1" stop-color="#47408F"/>
</linearGradient>
<linearGradient id="paint17_linear_4_115" x1="371.565" y1="235.108" x2="405.937" y2="286.51" gradientUnits="userSpaceOnUse">
<stop stop-color="#E9C300"/>
<stop offset="1" stop-color="#FFA415"/>
</linearGradient>
<linearGradient id="paint18_linear_4_115" x1="410.809" y1="282.081" x2="371.771" y2="230.366" gradientUnits="userSpaceOnUse">
<stop stop-color="#E9D04F"/>
<stop offset="1" stop-color="white"/>
</linearGradient>
<linearGradient id="paint19_linear_4_115" x1="408.224" y1="278.657" x2="374.389" y2="233.846" gradientUnits="userSpaceOnUse">
<stop stop-color="white"/>
<stop offset="1" stop-color="#E9D04F"/>
</linearGradient>
<linearGradient id="paint20_linear_4_115" x1="233.376" y1="178.148" x2="315.469" y2="144.09" gradientUnits="userSpaceOnUse">
<stop stop-color="#E9D04F"/>
<stop offset="1" stop-color="#FFECA9"/>
</linearGradient>
<linearGradient id="paint21_linear_4_115" x1="261.718" y1="177.125" x2="292.812" y2="227.866" gradientUnits="userSpaceOnUse">
<stop stop-color="#E9C300"/>
<stop offset="1" stop-color="#FFA415"/>
</linearGradient>
<linearGradient id="paint22_linear_4_115" x1="300.624" y1="225.803" x2="261.575" y2="174.089" gradientUnits="userSpaceOnUse">
<stop stop-color="#E9D04F"/>
<stop offset="1" stop-color="white"/>
</linearGradient>
<linearGradient id="paint23_linear_4_115" x1="298.069" y1="222.407" x2="264.234" y2="177.596" gradientUnits="userSpaceOnUse">
<stop stop-color="white"/>
<stop offset="1" stop-color="#E9D04F"/>
</linearGradient>
<linearGradient id="paint24_linear_4_115" x1="299.413" y1="312.089" x2="279.069" y2="224.302" gradientUnits="userSpaceOnUse">
<stop stop-color="#8887E5"/>
<stop offset="1" stop-color="#B3D9FE"/>
</linearGradient>
<linearGradient id="paint25_linear_4_115" x1="165.187" y1="186.325" x2="164.783" y2="179.926" gradientUnits="userSpaceOnUse">
<stop stop-color="#201D3E"/>
<stop offset="1" stop-color="#47408F"/>
</linearGradient>
<linearGradient id="paint26_linear_4_115" x1="147.908" y1="211.933" x2="183.018" y2="262.361" gradientUnits="userSpaceOnUse">
<stop stop-color="#E9C300"/>
<stop offset="1" stop-color="#FFA415"/>
</linearGradient>
<linearGradient id="paint27_linear_4_115" x1="187.547" y1="258.495" x2="148.509" y2="206.792" gradientUnits="userSpaceOnUse">
<stop stop-color="#E9D04F"/>
<stop offset="1" stop-color="white"/>
</linearGradient>
<linearGradient id="paint28_linear_4_115" x1="184.928" y1="255.045" x2="151.093" y2="210.245" gradientUnits="userSpaceOnUse">
<stop stop-color="white"/>
<stop offset="1" stop-color="#E9D04F"/>
</linearGradient>
<linearGradient id="paint29_linear_4_115" x1="186.17" y1="312.089" x2="164.537" y2="224.958" gradientUnits="userSpaceOnUse">
<stop stop-color="#8887E5"/>
<stop offset="1" stop-color="#B3D9FE"/>
</linearGradient>
<linearGradient id="paint30_linear_4_115" x1="291.117" y1="37.6226" x2="254.769" y2="134.765" gradientUnits="userSpaceOnUse">
<stop stop-color="#FDF53F"/>
<stop offset="1" stop-color="#D93C65"/>
</linearGradient>
<clipPath id="clip0_4_115">
<rect width="86" height="83" fill="white" transform="translate(237 32)"/>
</clipPath>
</defs>
</svg>
