<svg width="196" height="45" viewBox="0 0 196 45" fill="none" xmlns="http://www.w3.org/2000/svg">
<path d="M34.3159 0.5C34.347 0.5 34.409 0.531023 34.409 0.593077C34.409 0.593077 34.409 0.624108 34.409 0.655135L25.256 9.80812C24.9768 10.0874 24.5734 10.1804 24.2321 10.0563C20.8502 8.97039 17.6234 9.37374 14.5517 11.2974C10.2079 13.9968 7.22931 19.0232 9.99072 23.7393C10.1459 23.9875 10.4251 24.0496 10.6733 23.9254C10.7043 23.9254 10.7354 23.8634 10.7664 23.8324C16.7856 17.689 20.1676 14.245 20.9433 13.4693C21.781 12.6316 22.5877 11.98 23.4254 11.4836C23.8288 11.2354 24.3563 11.2974 24.6975 11.6077C29.5067 15.9205 33.4472 20.2332 32.8266 27.1833C32.3612 32.4889 29.9411 36.9258 25.5973 40.4939C21.5018 43.8448 17.4062 44.5584 11.7903 44.4964C8.56347 44.4654 4.68509 44.4654 0.155135 44.4964C0.0620541 44.4964 0 44.4343 0 44.3413C0 44.3102 1.41938e-06 44.2482 0.0620556 44.2171L8.53244 36.1501C8.90477 35.8088 9.4012 35.6537 9.86661 35.7468C10.7354 35.8709 12.2557 36.2742 13.5588 36.2122C17.5613 35.964 20.7261 34.2575 23.1152 31.0617C24.9768 28.5485 25.3181 25.3217 23.8288 22.4361C23.6426 22.0948 23.2393 21.9707 22.867 22.1259C22.8049 22.1569 22.7428 22.1879 22.6808 22.25C20.0745 24.8563 17.0649 27.8969 13.6209 31.3719C12.3177 32.6751 11.3869 33.5438 10.7664 33.9472C9.95969 34.4746 9.24607 34.1954 8.50142 33.5749C6.82596 32.2097 5.24358 30.4721 3.75428 28.3313C-0.0930816 22.7774 0.279245 15.7033 3.7853 10.1494C6.42261 5.99179 10.2079 3.1373 15.1102 1.55492C17.2511 0.872323 20.4468 0.531021 24.6975 0.562048C29.9101 0.562048 33.1369 0.562054 34.378 0.5H34.3159Z" fill="#007BF4"/>
<path d="M46.3545 29.9447C46.3545 29.7895 46.4786 29.6965 46.6027 29.6965C46.6338 29.6965 46.6648 29.6965 46.6958 29.6965C50.6052 31.5891 54.3905 32.582 58.7964 31.8684C62.7368 31.2478 62.7678 27.3074 58.9515 26.3455C52.8081 24.7942 44.4619 23.8634 46.4786 14.7724C48.2472 6.76746 60.1926 7.69826 65.8085 9.09448C66.2118 9.18756 66.5221 9.5599 66.5221 9.99427V15.5481C66.5221 15.7653 66.3359 15.9515 66.1188 15.9515C66.0567 15.9515 66.0257 15.9515 65.9636 15.9515C63.2332 14.8655 60.5029 14.276 57.8035 14.245C56.5624 14.245 54.2044 14.245 53.5838 15.5791C52.653 17.5649 54.887 18.6198 56.5624 19.1473C61.868 20.7917 69.0663 21.3812 68.9422 28.8898C68.8802 33.6369 66.2739 36.4914 61.2165 37.4532C56.5934 38.322 51.8773 38.1979 47.0371 37.0809C46.6337 36.9878 46.3545 36.6465 46.3855 36.2432V29.9447H46.3545Z" fill="#007BF4"/>
<path d="M100.869 24.5459C100.931 31.8994 95.0359 37.9186 87.6825 38.0117H84.4867C77.1333 38.1358 71.114 32.2096 71.021 24.8872V21.7535C70.8968 14.4001 76.823 8.38084 84.1764 8.28776H87.3722C94.7256 8.16365 100.745 14.0898 100.838 21.4122L100.869 24.5459ZM93.6397 21.195C93.6397 17.2856 90.4129 14.1209 86.5035 14.1519H85.2314C81.3219 14.1829 78.1572 17.3787 78.1882 21.3191V24.9183C78.1882 28.8277 81.415 31.9924 85.3244 31.9614H86.5966C90.506 31.9304 93.6707 28.7346 93.6397 24.7942V21.195Z" fill="#007BF4"/>
<path d="M115.762 31.6511C115.917 31.6511 116.041 31.5581 116.103 31.3719C119.361 21.164 121.719 13.7175 123.177 9.03241C123.27 8.72214 123.55 8.50494 123.891 8.50494H130.748C130.841 8.50494 130.934 8.59803 130.934 8.69111V8.75317L120.85 36.8947C120.788 37.0809 120.602 37.236 120.385 37.236C119.361 37.3291 117.841 37.3601 115.793 37.3601C113.745 37.3601 112.225 37.3291 111.201 37.236C110.984 37.236 110.798 37.0809 110.736 36.8947L100.621 8.78419C100.59 8.6911 100.621 8.567 100.745 8.53597C100.745 8.53597 100.776 8.53597 100.807 8.53597H107.664C107.974 8.53597 108.284 8.72214 108.377 9.03241C109.836 13.7175 112.225 21.164 115.483 31.3409C115.545 31.527 115.638 31.6201 115.824 31.6201L115.762 31.6511Z" fill="#007BF4"/>
<path d="M133.508 8.99581L133.46 36.9201C133.459 37.1772 133.667 37.3859 133.924 37.3864L139.912 37.3968C140.169 37.3973 140.378 37.1892 140.379 36.9322L140.427 9.00789C140.428 8.75085 140.22 8.54212 139.963 8.54167L133.975 8.53122C133.717 8.53077 133.509 8.73878 133.508 8.99581Z" fill="#007BF4"/>
<path d="M156.407 8.59811C162.83 8.59811 166.988 8.62914 168.911 8.59811C169.035 8.59811 169.129 8.69119 169.129 8.78427V14.3691C169.129 14.5553 168.973 14.7104 168.787 14.7104H160.193C159.976 14.7104 159.789 14.8966 159.789 15.1138V36.8017C159.789 37.081 159.572 37.2981 159.293 37.3292C158.89 37.3602 157.866 37.3912 156.252 37.3912C154.639 37.3912 153.615 37.3602 153.212 37.2982C152.932 37.2671 152.746 37.0189 152.746 36.7707L152.932 15.0828C152.932 14.8656 152.746 14.6794 152.529 14.6794L143.935 14.6174C143.748 14.6174 143.593 14.4622 143.593 14.2761L143.655 8.69119C143.655 8.56708 143.748 8.474 143.872 8.50503C145.796 8.53605 149.954 8.56709 156.376 8.59811H156.407Z" fill="#007BF4"/>
<path d="M181.167 8.56697C182.377 8.56697 183.618 8.56697 184.859 8.56697C185.17 8.56697 185.449 8.75313 185.542 9.0634L195.75 37.0498C195.812 37.1739 195.75 37.3291 195.595 37.3601C195.595 37.3601 195.533 37.3601 195.502 37.3601H188.769C188.489 37.3601 188.272 37.1739 188.179 36.9257L187.031 32.644C186.938 32.3027 186.659 32.0855 186.318 32.0855C185.604 32.0855 183.866 32.0855 181.105 32.0855C178.344 32.0855 176.606 32.0855 175.892 32.0855C175.551 32.0855 175.272 32.3337 175.179 32.644L174.031 36.9257C173.969 37.1739 173.721 37.3601 173.441 37.3601H166.708C166.553 37.3601 166.46 37.236 166.46 37.0808C166.46 37.0808 166.46 37.0188 166.46 36.9878L176.73 9.00134C176.823 8.7221 177.103 8.53594 177.413 8.53594C178.685 8.53594 179.895 8.53594 181.105 8.53594L181.167 8.56697ZM177.351 26.0042C177.32 26.1283 177.351 26.2524 177.475 26.2834H177.537H184.549C184.673 26.2834 184.766 26.1593 184.766 26.0352V25.9732L181.229 15.8583C181.198 15.7342 181.074 15.6722 180.95 15.7342C180.888 15.7342 180.826 15.7963 180.826 15.8583L177.32 25.9732L177.351 26.0042Z" fill="#007BF4"/>
</svg>
