<svg width="508" height="388" viewBox="0 0 508 388" fill="none" xmlns="http://www.w3.org/2000/svg">
<g clip-path="url(#clip0_1_1976)">
<path d="M128.408 367.693C122.864 371.853 116.166 374.853 108.77 374.995C100.287 375.156 91.6436 371.61 83.3304 368.131C81.1829 367.23 78.5092 365.515 78.871 363.399C79.0353 362.437 79.8299 361.804 80.5891 361.259C89.2727 355.056 99.7023 351.141 110.788 349.667C116.474 348.919 122.227 348.8 127.939 349.312C130.863 349.57 142.559 349.825 141.803 354.054C141.373 356.469 137.466 359.307 135.858 360.978C133.542 363.386 131.093 365.677 128.408 367.693Z" fill="url(#paint0_linear_1_1976)"/>
<path d="M161.348 368.093C159.751 369.388 158.082 371.084 158.003 373.329C157.911 375.996 160.065 377.956 161.995 379.438C167.95 384.014 173.989 388.638 180.757 391.328C187.526 394.019 195.221 394.603 201.714 391.125C211.371 385.951 215.885 371.244 207.872 361.737C205.196 358.561 201.212 358.505 197.61 358.012C191.595 357.193 185.562 357.414 179.635 358.91C172.955 360.603 166.717 363.736 161.348 368.093Z" fill="url(#paint1_linear_1_1976)"/>
<path d="M496.26 139.331C486.071 175.751 475.871 212.175 465.662 248.603C460.591 266.709 455.147 285.528 444.007 298.633C429.152 316.096 407.34 319.842 387.009 321.069C357.605 322.907 72.5369 324.607 57.4647 321.069C39.2228 316.75 12.1192 301.01 6.05038 275.664C2.36324 260.344 8.64945 243.286 18.6216 233.352C28.5902 223.439 41.5513 219.494 54.2123 217.825C65.5384 216.333 77.2802 216.363 87.7958 210.848C98.3315 205.372 107.494 192.267 105.892 178.105C104.711 167.657 98.2039 159.557 94.4577 150.124C86.3534 129.705 91.7996 104.788 100.665 84.903C116.959 48.4133 144.686 20.2358 176.501 7.84182C208.316 -4.5522 243.857 -1.04346 273.73 17.4383C288.338 26.4925 301.719 38.9846 317.306 44.9743C338.925 53.3161 362.295 48.216 384.336 41.6427C406.359 35.1108 428.729 27.1446 451.24 29.9977C473.765 32.8933 496.941 49.675 503.01 77.042C507.596 97.5641 501.903 119.249 496.26 139.331Z" fill="url(#paint2_linear_1_1976)"/>
<path d="M480.458 370.571C463.434 402.936 286.071 379.936 265.134 375.126C238.307 368.958 236.897 362.634 229.214 353.106C221.531 343.578 159.428 347.548 151.055 344.768C142.683 341.988 146.863 337.627 142.683 329.289C138.503 320.951 96.6158 327.304 81.9668 330.879C67.3178 334.453 35.5566 332.068 29.2696 319.762C22.9827 307.455 128.72 307.856 128.72 307.856H325.876C325.876 307.856 469.286 304.675 478.368 318.573C487.45 332.47 408.227 338.422 408.227 338.422C408.227 338.422 488.31 355.647 480.458 370.571Z" fill="url(#paint3_linear_1_1976)"/>
<path d="M415.404 45.1338H113.347C107.94 45.1338 103.557 49.517 103.557 54.924V283.636C103.557 289.043 107.94 293.426 113.347 293.426H415.404C420.811 293.426 425.194 289.043 425.194 283.636V54.924C425.194 49.517 420.811 45.1338 415.404 45.1338Z" fill="#373A50"/>
<path d="M107.342 283.819V54.7396C107.342 53.9752 107.492 53.2181 107.785 52.5118C108.077 51.8054 108.506 51.1636 109.046 50.623C109.587 50.0824 110.228 49.6535 110.935 49.3609C111.641 49.0683 112.398 48.9177 113.163 48.9177H415.588C417.132 48.9177 418.613 49.5311 419.705 50.6229C420.796 51.7147 421.41 53.1956 421.41 54.7396V283.819C421.41 284.584 421.259 285.341 420.967 286.047C420.674 286.754 420.245 287.395 419.705 287.936C419.164 288.477 418.522 288.905 417.816 289.198C417.11 289.491 416.352 289.641 415.588 289.641H113.163C112.398 289.641 111.641 289.491 110.935 289.198C110.228 288.905 109.587 288.477 109.046 287.936C108.506 287.395 108.077 286.753 107.785 286.047C107.492 285.341 107.342 284.584 107.342 283.819Z" fill="white"/>
<path d="M405.081 58.7576H123.668C121.36 58.7576 119.488 60.6289 119.488 62.9373V125.324C119.488 127.633 121.36 129.504 123.668 129.504H405.081C407.39 129.504 409.261 127.633 409.261 125.324V62.9373C409.261 60.6289 407.39 58.7576 405.081 58.7576Z" fill="url(#paint4_linear_1_1976)"/>
<path d="M197.804 66.9541H131.792C129.721 66.9541 128.043 68.6324 128.043 70.7027V117.558C128.043 119.628 129.721 121.307 131.792 121.307H197.804C199.875 121.307 201.553 119.628 201.553 117.558V70.7027C201.553 68.6324 199.875 66.9541 197.804 66.9541Z" fill="white"/>
<path d="M154.826 83.0648C154.827 82.2408 155.072 81.4356 155.531 80.7509C155.989 80.0662 156.64 79.5327 157.402 79.2179C158.163 78.903 159.001 78.8209 159.809 78.982C160.617 79.1431 161.359 79.5401 161.942 80.1228C162.524 80.7055 162.921 81.4479 163.082 82.256C163.243 83.0641 163.16 83.9018 162.845 84.6632C162.53 85.4246 161.997 86.0755 161.312 86.5337C160.627 86.9919 159.822 87.2368 158.998 87.2375C158.449 87.2396 157.906 87.133 157.399 86.924C156.892 86.715 156.431 86.4077 156.043 86.0198C155.655 85.632 155.348 85.1711 155.139 84.664C154.93 84.1568 154.824 83.6133 154.826 83.0648Z" fill="url(#paint5_linear_1_1976)"/>
<path d="M191.848 109.348H137.748L153.34 90.1236L159.859 98.1559L160.749 99.2534L172.196 85.1274L191.848 109.348Z" fill="url(#paint6_linear_1_1976)"/>
<path d="M246.221 71.3169H212.242C211.298 71.3169 210.533 72.0817 210.533 73.0252V86.6561C210.533 87.5996 211.298 88.3644 212.242 88.3644H246.221C247.164 88.3644 247.929 87.5996 247.929 86.6561V73.0252C247.929 72.0817 247.164 71.3169 246.221 71.3169Z" fill="url(#paint7_linear_1_1976)"/>
<path d="M400.869 96.4395H210.533V99.5477H400.869V96.4395Z" fill="url(#paint8_linear_1_1976)"/>
<path d="M400.869 105.138H210.533V108.246H400.869V105.138Z" fill="url(#paint9_linear_1_1976)"/>
<path d="M274.733 113.836H258.34V116.945H274.733V113.836Z" fill="url(#paint10_linear_1_1976)"/>
<path d="M232.245 113.837H210.533V116.945H232.245V113.837Z" fill="url(#paint11_linear_1_1976)"/>
<path d="M251.984 113.836H243.119V116.945H251.984V113.836Z" fill="url(#paint12_linear_1_1976)"/>
<path d="M295.811 113.836H278.582V116.945H295.811V113.836Z" fill="url(#paint13_linear_1_1976)"/>
<path d="M325.753 113.836H305.68V116.945H325.753V113.836Z" fill="url(#paint14_linear_1_1976)"/>
<path d="M369.106 144.144H367.617V272.221H369.106V144.144Z" fill="#E4EBFF"/>
<path d="M403.025 174.306H125.727V175.795H403.025V174.306Z" fill="#E4EBFF"/>
<path d="M403.025 207.438H125.727V208.927H403.025V207.438Z" fill="#E4EBFF"/>
<path d="M403.025 240.571H125.727V242.059H403.025V240.571Z" fill="#E4EBFF"/>
<path d="M317.114 144.144H315.625V272.221H317.114V144.144Z" fill="#E4EBFF"/>
<path d="M265.119 144.144H263.631V272.221H265.119V144.144Z" fill="#E4EBFF"/>
<path d="M213.127 144.144H211.639V272.221H213.127V144.144Z" fill="#E4EBFF"/>
<path d="M161.133 144.144H159.645V272.221H161.133V144.144Z" fill="#E4EBFF"/>
<path d="M161.133 144.144H159.645V272.221H161.133V144.144Z" fill="#E4EBFF"/>
<path d="M195.204 217.367C194.707 217.228 194.175 217.291 193.725 217.544C193.275 217.796 192.943 218.217 192.803 218.714L188.236 234.925H153.637L157.906 219.769C157.976 219.523 157.996 219.265 157.966 219.011C157.935 218.757 157.856 218.512 157.73 218.289C157.605 218.066 157.438 217.87 157.237 217.712C157.036 217.553 156.806 217.436 156.56 217.367C156.314 217.298 156.056 217.278 155.802 217.308C155.548 217.338 155.303 217.418 155.08 217.543C154.857 217.668 154.661 217.836 154.502 218.037C154.344 218.238 154.227 218.468 154.158 218.714L118.139 346.589C118.07 346.835 118.05 347.093 118.08 347.346C118.11 347.6 118.19 347.846 118.315 348.069C118.44 348.292 118.608 348.488 118.809 348.646C119.01 348.804 119.24 348.921 119.486 348.99C119.658 349.039 119.836 349.064 120.014 349.064C120.438 349.064 120.851 348.926 121.189 348.67C121.527 348.414 121.773 348.055 121.888 347.647L128.731 323.353H163.33L156.785 346.592C156.716 346.838 156.696 347.095 156.726 347.349C156.756 347.602 156.836 347.848 156.961 348.071C157.086 348.294 157.253 348.49 157.454 348.648C157.655 348.806 157.885 348.923 158.131 348.992C158.303 349.042 158.481 349.067 158.66 349.067C159.084 349.066 159.496 348.928 159.834 348.672C160.172 348.416 160.417 348.057 160.533 347.649L196.549 219.778C196.62 219.532 196.641 219.273 196.612 219.019C196.583 218.764 196.503 218.517 196.378 218.293C196.253 218.069 196.085 217.872 195.884 217.713C195.682 217.554 195.451 217.436 195.204 217.367ZM187.139 238.82L180.201 263.456H145.601L152.541 238.82H187.139ZM172.269 291.618H137.669L144.505 267.349H179.1L172.269 291.618ZM129.828 319.451L136.599 295.417C136.749 295.468 136.906 295.5 137.064 295.512H171.171L164.428 319.451H129.828Z" fill="#373A50"/>
<path d="M150.068 144.144H127.245C125.338 144.144 123.793 145.69 123.793 147.596V166.383C123.793 168.289 125.338 169.835 127.245 169.835H150.068C151.975 169.835 153.52 168.289 153.52 166.383V147.596C153.52 145.69 151.975 144.144 150.068 144.144Z" fill="url(#paint15_linear_1_1976)"/>
<path d="M134.906 152.829C134.907 152.519 134.999 152.216 135.172 151.958C135.344 151.701 135.589 151.5 135.875 151.382C136.162 151.264 136.477 151.233 136.781 151.294C137.085 151.354 137.364 151.504 137.583 151.723C137.802 151.942 137.951 152.221 138.012 152.525C138.072 152.829 138.041 153.144 137.922 153.431C137.804 153.717 137.603 153.962 137.346 154.134C137.088 154.306 136.785 154.398 136.475 154.399C136.269 154.399 136.064 154.359 135.874 154.281C135.683 154.202 135.509 154.086 135.364 153.94C135.218 153.794 135.102 153.621 135.024 153.43C134.945 153.239 134.905 153.035 134.906 152.829Z" fill="white"/>
<path d="M148.829 162.713H128.484L134.348 155.483L136.799 158.504L137.133 158.916L141.438 153.605L148.829 162.713Z" fill="white"/>
<path d="M383.902 221.222C383.903 220.912 383.995 220.609 384.167 220.351C384.339 220.094 384.584 219.893 384.871 219.774C385.157 219.656 385.472 219.625 385.776 219.685C386.08 219.746 386.359 219.895 386.579 220.114C386.798 220.334 386.947 220.613 387.008 220.917C387.068 221.221 387.037 221.536 386.919 221.822C386.8 222.109 386.599 222.354 386.342 222.526C386.084 222.698 385.781 222.79 385.471 222.791C385.265 222.791 385.061 222.751 384.87 222.673C384.679 222.594 384.506 222.479 384.36 222.333C384.214 222.187 384.099 222.014 384.02 221.823C383.942 221.632 383.902 221.428 383.902 221.222Z" fill="white"/>
<path d="M199.346 179.353H173.359C171.827 179.353 170.586 180.595 170.586 182.126V200.954C170.586 202.485 171.827 203.727 173.359 203.727H199.346C200.877 203.727 202.119 202.485 202.119 200.954V182.126C202.119 180.595 200.877 179.353 199.346 179.353Z" fill="url(#paint16_linear_1_1976)"/>
<path d="M191.495 192.321L183.368 196.74C183.232 196.813 183.079 196.85 182.924 196.846C182.769 196.843 182.617 196.8 182.484 196.721C182.351 196.642 182.24 196.53 182.163 196.395C182.086 196.261 182.044 196.109 182.043 195.954V187.123C182.042 186.967 182.083 186.814 182.159 186.679C182.236 186.544 182.347 186.431 182.481 186.352C182.615 186.272 182.768 186.229 182.923 186.227C183.079 186.225 183.232 186.263 183.368 186.339L191.495 190.748C191.638 190.824 191.756 190.938 191.839 191.076C191.922 191.215 191.966 191.373 191.966 191.534C191.966 191.696 191.922 191.854 191.839 191.993C191.756 192.131 191.638 192.245 191.495 192.321Z" fill="white"/>
<path d="M304.199 247.219H278.212C276.681 247.219 275.439 248.46 275.439 249.991V268.819C275.439 270.35 276.681 271.592 278.212 271.592H304.199C305.731 271.592 306.972 270.35 306.972 268.819V249.991C306.972 248.46 305.731 247.219 304.199 247.219Z" fill="url(#paint17_linear_1_1976)"/>
<path d="M356.186 179.354H330.199C328.667 179.354 327.426 180.596 327.426 182.127V200.955C327.426 202.486 328.667 203.728 330.199 203.728H356.186C357.717 203.728 358.958 202.486 358.958 200.955V182.127C358.958 180.596 357.717 179.354 356.186 179.354Z" fill="url(#paint18_linear_1_1976)"/>
<path d="M296.349 260.189L288.221 264.608C288.084 264.681 287.931 264.718 287.776 264.714C287.621 264.711 287.47 264.668 287.337 264.589C287.204 264.51 287.093 264.398 287.016 264.263C286.939 264.129 286.898 263.977 286.896 263.822V254.995C286.896 254.839 286.936 254.686 287.013 254.551C287.089 254.415 287.2 254.302 287.334 254.223C287.468 254.144 287.62 254.1 287.776 254.098C287.931 254.096 288.085 254.134 288.221 254.209L296.349 258.618C296.49 258.694 296.609 258.808 296.691 258.946C296.774 259.084 296.817 259.243 296.817 259.404C296.817 259.565 296.774 259.723 296.691 259.861C296.609 259.999 296.49 260.113 296.349 260.189Z" fill="white"/>
<path d="M348.631 193.459C348.492 193.595 348.389 193.763 348.329 193.948C348.269 194.134 348.256 194.331 348.289 194.522L348.946 198.369C348.983 198.589 348.959 198.815 348.875 199.022C348.791 199.228 348.651 199.407 348.471 199.539C348.29 199.67 348.077 199.748 347.854 199.765C347.632 199.781 347.409 199.735 347.211 199.632L343.758 197.818C343.587 197.727 343.396 197.679 343.202 197.679C343.008 197.679 342.817 197.727 342.645 197.818L339.187 199.632C338.99 199.736 338.767 199.783 338.544 199.768C338.322 199.752 338.107 199.675 337.926 199.544C337.745 199.413 337.604 199.235 337.519 199.028C337.435 198.821 337.409 198.595 337.446 198.375L338.109 194.522C338.14 194.33 338.125 194.132 338.063 193.947C338.001 193.762 337.895 193.594 337.754 193.459L334.964 190.736C334.804 190.58 334.69 190.382 334.637 190.165C334.583 189.948 334.591 189.721 334.66 189.508C334.729 189.295 334.856 189.106 335.027 188.962C335.198 188.818 335.405 188.724 335.627 188.692L339.496 188.13C339.687 188.103 339.869 188.03 340.026 187.916C340.182 187.803 340.309 187.652 340.394 187.479L342.123 183.975C342.222 183.775 342.375 183.607 342.565 183.49C342.754 183.372 342.973 183.31 343.196 183.31C343.419 183.31 343.637 183.372 343.827 183.49C344.016 183.607 344.169 183.775 344.269 183.975L345.998 187.479C346.083 187.652 346.209 187.803 346.366 187.916C346.522 188.03 346.705 188.103 346.896 188.13L350.759 188.692C350.98 188.726 351.186 188.82 351.356 188.964C351.526 189.108 351.653 189.297 351.722 189.509C351.79 189.721 351.799 189.949 351.746 190.165C351.693 190.382 351.581 190.579 351.422 190.736L348.631 193.459Z" fill="white"/>
<path d="M251.861 212.52H225.874C224.343 212.52 223.102 213.761 223.102 215.293V234.12C223.102 235.652 224.343 236.893 225.874 236.893H251.861C253.393 236.893 254.634 235.652 254.634 234.12V215.293C254.634 213.761 253.393 212.52 251.861 212.52Z" fill="url(#paint19_linear_1_1976)"/>
<path d="M244.302 226.626C244.163 226.762 244.059 226.93 243.999 227.115C243.94 227.3 243.926 227.497 243.959 227.689L244.616 231.536C244.654 231.756 244.63 231.982 244.546 232.189C244.462 232.396 244.322 232.575 244.141 232.706C243.961 232.838 243.747 232.916 243.524 232.932C243.301 232.949 243.079 232.902 242.881 232.798L239.428 230.985C239.257 230.894 239.066 230.846 238.872 230.846C238.678 230.846 238.487 230.894 238.316 230.985L234.862 232.796C234.664 232.9 234.441 232.947 234.218 232.931C233.996 232.915 233.782 232.838 233.601 232.707C233.42 232.576 233.279 232.397 233.194 232.191C233.109 231.984 233.083 231.758 233.12 231.538L233.783 227.687C233.815 227.494 233.799 227.296 233.737 227.111C233.675 226.926 233.569 226.758 233.429 226.623L230.638 223.899C230.478 223.743 230.364 223.546 230.311 223.329C230.257 223.112 230.265 222.884 230.334 222.671C230.403 222.459 230.53 222.27 230.701 222.126C230.872 221.982 231.08 221.888 231.301 221.856L235.17 221.294C235.361 221.267 235.543 221.194 235.7 221.08C235.856 220.967 235.983 220.817 236.068 220.643L237.797 217.139C237.897 216.939 238.05 216.771 238.239 216.654C238.429 216.537 238.647 216.474 238.87 216.474C239.093 216.474 239.311 216.537 239.501 216.654C239.691 216.771 239.843 216.939 239.943 217.139L241.672 220.643C241.757 220.817 241.884 220.967 242.04 221.08C242.197 221.194 242.379 221.267 242.57 221.294L246.439 221.856C246.66 221.89 246.867 221.984 247.037 222.128C247.207 222.272 247.333 222.461 247.402 222.673C247.471 222.885 247.479 223.112 247.426 223.329C247.373 223.545 247.261 223.743 247.102 223.899L244.302 226.626Z" fill="white"/>
<path d="M301.465 202.575H278.027C279.942 199.212 280.949 195.409 280.949 191.54C280.949 187.67 279.942 183.868 278.027 180.505H301.465C303.38 183.868 304.386 187.671 304.386 191.54C304.386 195.409 303.38 199.212 301.465 202.575Z" fill="url(#paint20_linear_1_1976)"/>
<path d="M299.557 185.584H284.408V186.53H299.557V185.584Z" fill="white"/>
<path d="M300.241 191.067H285.092V192.013H300.241V191.067Z" fill="white"/>
<path d="M299.557 196.551H284.408V197.497H299.557V196.551Z" fill="white"/>
<path d="M249.125 270.914H225.688C227.602 267.551 228.609 263.748 228.609 259.879C228.609 256.01 227.602 252.207 225.688 248.844H249.125C251.04 252.207 252.046 256.01 252.046 259.879C252.046 263.748 251.04 267.551 249.125 270.914Z" fill="url(#paint21_linear_1_1976)"/>
<path d="M247.219 253.923H232.07V254.869H247.219V253.923Z" fill="white"/>
<path d="M247.903 259.406H232.754V260.352H247.903V259.406Z" fill="white"/>
<path d="M247.219 264.89H232.07V265.836H247.219V264.89Z" fill="white"/>
<path d="M197.138 166.07H177.852C179.427 163.303 180.255 160.173 180.255 156.989C180.255 153.805 179.427 150.676 177.852 147.909H197.138C198.713 150.676 199.542 153.805 199.542 156.989C199.542 160.173 198.713 163.303 197.138 166.07Z" fill="url(#paint22_linear_1_1976)"/>
<path d="M195.568 152.088H183.102V152.866H195.568V152.088Z" fill="white"/>
<path d="M196.13 156.601H183.664V157.379H196.13V156.601Z" fill="white"/>
<path d="M195.568 161.114H183.102V161.892H195.568V161.114Z" fill="white"/>
<path d="M337.267 267.569C337.267 268.272 336.988 268.945 336.491 269.442C335.995 269.939 335.321 270.218 334.618 270.218H325.961C325.268 270.203 324.609 269.918 324.124 269.423C323.639 268.927 323.367 268.262 323.367 267.569C323.367 266.876 323.639 266.21 324.124 265.715C324.609 265.22 325.268 264.934 325.961 264.919H334.618C335.321 264.92 335.994 265.199 336.491 265.696C336.988 266.193 337.267 266.867 337.267 267.569Z" fill="url(#paint23_linear_1_1976)"/>
<path d="M354.09 258.716C354.09 259.064 354.022 259.408 353.889 259.73C353.756 260.052 353.56 260.344 353.314 260.59C353.068 260.836 352.776 261.031 352.454 261.164C352.133 261.297 351.788 261.365 351.44 261.364H325.961C325.609 261.372 325.259 261.309 324.932 261.179C324.604 261.05 324.306 260.856 324.054 260.61C323.803 260.364 323.603 260.07 323.467 259.745C323.33 259.42 323.26 259.072 323.26 258.72C323.26 258.368 323.33 258.019 323.467 257.695C323.603 257.37 323.803 257.076 324.054 256.83C324.306 256.583 324.604 256.39 324.932 256.26C325.259 256.131 325.609 256.068 325.961 256.075H351.44C351.787 256.075 352.132 256.142 352.453 256.275C352.774 256.407 353.066 256.601 353.312 256.846C353.558 257.092 353.754 257.383 353.887 257.704C354.02 258.024 354.089 258.368 354.09 258.716Z" fill="url(#paint24_linear_1_1976)"/>
<path d="M323.313 249.867C323.312 249.519 323.38 249.174 323.513 248.853C323.646 248.531 323.841 248.239 324.087 247.993C324.333 247.746 324.625 247.551 324.947 247.418C325.268 247.285 325.613 247.217 325.961 247.217H351.44C351.793 247.21 352.144 247.273 352.471 247.403C352.799 247.533 353.098 247.727 353.35 247.973C353.602 248.22 353.802 248.515 353.939 248.84C354.076 249.165 354.146 249.514 354.146 249.867C354.146 250.219 354.076 250.569 353.939 250.894C353.802 251.219 353.602 251.513 353.35 251.76C353.098 252.007 352.799 252.201 352.471 252.331C352.144 252.46 351.793 252.523 351.44 252.516H325.961C325.259 252.515 324.586 252.236 324.089 251.739C323.592 251.243 323.313 250.57 323.313 249.867Z" fill="url(#paint25_linear_1_1976)"/>
<path d="M237.789 164.045C237.789 164.307 237.737 164.566 237.637 164.808C237.537 165.05 237.39 165.27 237.205 165.456C237.019 165.641 236.799 165.788 236.557 165.888C236.315 165.988 236.056 166.04 235.794 166.04H229.275C228.745 166.04 228.238 165.83 227.864 165.456C227.49 165.081 227.279 164.574 227.279 164.045C227.279 163.515 227.49 163.008 227.864 162.634C228.238 162.26 228.745 162.049 229.275 162.049H235.794C236.323 162.05 236.83 162.26 237.204 162.634C237.578 163.008 237.789 163.516 237.789 164.045Z" fill="url(#paint26_linear_1_1976)"/>
<path d="M250.457 157.376C250.457 157.638 250.406 157.897 250.306 158.139C250.205 158.381 250.058 158.601 249.873 158.786C249.688 158.972 249.468 159.119 249.225 159.219C248.983 159.319 248.724 159.37 248.462 159.37H229.275C229.009 159.376 228.745 159.33 228.498 159.232C228.25 159.135 228.025 158.99 227.835 158.804C227.645 158.618 227.494 158.397 227.391 158.152C227.288 157.907 227.234 157.644 227.234 157.379C227.234 157.113 227.288 156.85 227.391 156.605C227.494 156.36 227.645 156.139 227.835 155.953C228.025 155.768 228.25 155.622 228.498 155.525C228.745 155.428 229.009 155.381 229.275 155.387H248.463C248.724 155.387 248.983 155.438 249.225 155.538C249.467 155.637 249.687 155.784 249.872 155.968C250.057 156.153 250.204 156.372 250.305 156.614C250.405 156.855 250.457 157.114 250.457 157.376Z" fill="url(#paint27_linear_1_1976)"/>
<path d="M227.279 150.713C227.279 150.45 227.33 150.191 227.43 149.949C227.53 149.706 227.677 149.486 227.863 149.301C228.048 149.115 228.268 148.968 228.511 148.868C228.753 148.768 229.012 148.717 229.275 148.717H248.463C248.992 148.717 249.5 148.928 249.874 149.302C250.248 149.676 250.458 150.183 250.458 150.713C250.458 151.242 250.248 151.749 249.874 152.124C249.5 152.498 248.992 152.708 248.463 152.708H229.275C228.746 152.708 228.238 152.497 227.864 152.123C227.49 151.749 227.28 151.242 227.279 150.713Z" fill="url(#paint28_linear_1_1976)"/>
<path d="M73.7501 150.158C73.7501 150.158 70.7748 155.977 67.0567 156.228C63.3385 156.478 62.7852 150.451 62.7852 150.451L67.8929 144.841L73.7501 150.158Z" fill="#111228"/>
<path d="M15.875 169.302C15.875 169.302 16.4906 186.138 29.6898 185.409C42.889 184.68 44.1985 170.777 42.6175 164.934C40.7254 157.927 29.077 138.013 36.0372 136.8C36.2908 136.756 36.618 136.869 36.98 137.074C37.8049 137.545 38.7928 138.51 39.4471 139.198C40.0853 138.895 40.816 138.311 41.4975 137.636L43.5112 134.081C43.5112 134.081 42.7627 132.683 41.2788 131.03C38.6345 128.084 32.8489 124.892 26.4053 128.694C18.8022 133.18 17.1185 141.352 19.8486 148.45C22.5788 155.548 30.0198 164.033 23.7204 170.625C18.6127 175.972 15.875 169.302 15.875 169.302Z" fill="#111228"/>
<path d="M84.3878 208.649C84.3878 208.649 85.6247 219.121 84.5264 221.615C84.1493 222.463 81.6464 221.284 81.6464 221.284L76.7441 215.017L76.9383 209.602L84.3878 208.649Z" fill="#FECDCB"/>
<path d="M65.8697 368.794L54.5918 368.674L55.2922 357.942L66.1884 358.28L65.9725 368.7C65.9706 368.726 65.9589 368.75 65.9398 368.767C65.9207 368.785 65.8956 368.794 65.8697 368.794Z" fill="#FFDAD9"/>
<path d="M54.3246 368.342L52.3713 376.5C52.2922 376.905 52.3018 377.322 52.3996 377.722C52.4974 378.123 52.6809 378.497 52.9375 378.82C53.1941 379.143 53.5177 379.406 53.886 379.591C54.2542 379.777 54.6583 379.88 55.0703 379.894C62.269 380.134 76.4176 379.894 79.0308 379.873C79.131 379.872 79.2268 379.832 79.2983 379.762C79.3697 379.691 79.4114 379.596 79.4145 379.496C79.5314 377.001 77.8732 375.414 75.4305 374.187L66.0136 367.851C65.9962 367.841 65.9762 367.836 65.9561 367.837L54.3246 368.342Z" fill="#373A50"/>
<path d="M52.7306 363.884L42.5293 280.786L50.4285 252.802H73.7621L68.6355 363.884C68.6355 365.3 52.7306 365.3 52.7306 363.884Z" fill="url(#paint29_linear_1_1976)"/>
<path d="M34.5396 368.794L23.2617 368.674L23.9622 357.942L34.8583 358.28L34.6424 368.7C34.6405 368.726 34.6288 368.75 34.6097 368.767C34.5906 368.785 34.5655 368.794 34.5396 368.794Z" fill="#FFDAD9"/>
<path d="M22.9945 368.342L21.0412 376.5C20.9621 376.905 20.9718 377.322 21.0695 377.722C21.1673 378.123 21.3508 378.497 21.6074 378.82C21.8641 379.143 22.1877 379.406 22.5559 379.591C22.9241 379.777 23.3282 379.88 23.7402 379.894C30.939 380.134 45.0875 379.894 47.7007 379.873C47.801 379.872 47.8969 379.832 47.9685 379.762C48.04 379.692 48.0815 379.596 48.0844 379.496C48.2013 377.001 46.5431 375.414 44.1014 374.187L34.6844 367.851C34.6667 367.841 34.6464 367.836 34.626 367.837L22.9945 368.342Z" fill="#373A50"/>
<path d="M36.9545 363.883C36.9545 365.298 20.9922 365.298 20.9922 363.883L30.5138 251.275L62.8392 252.802C64.4314 262.849 61.2082 270.284 55.203 278.773L36.9545 363.883Z" fill="url(#paint30_linear_1_1976)"/>
<path d="M36.9545 363.883C36.9545 365.298 20.9922 365.298 20.9922 363.883L30.5138 251.275L62.8392 252.802C64.4314 262.849 61.2082 270.284 55.203 278.773L36.9545 363.883Z" fill="white" fill-opacity="0.05"/>
<path d="M76.4864 252.209C75.9547 254.748 59.3353 256.916 45.4761 256.78C35.536 256.678 27.0231 255.393 26.9043 252.209C26.9043 252.209 30.6677 235.464 30.6856 231.752C30.7158 224.681 28.589 213.12 27.7942 203.065C27.239 195.963 27.3521 189.613 29.3771 186.136C31.223 182.969 36.8746 180.496 40.507 180.049C45.0585 179.492 54.3067 179.367 58.8347 180.049C62.5113 180.604 70.2625 183.49 72.1206 186.709C75.1553 191.96 73.8769 215.288 74.1635 232.756C74.3294 243.236 76.4864 252.209 76.4864 252.209Z" fill="#7433ED"/>
<path d="M45.4761 256.78C35.536 256.678 27.0231 255.393 26.9043 252.209C26.9043 252.209 30.6677 235.464 30.6856 231.752C30.7158 224.681 28.589 213.12 27.7942 203.065C30.0408 199.583 33.0217 196.201 36.6899 194.23C42.1078 191.308 40.7436 200.269 40.1186 203.28C39.3361 207.074 37.8721 210.688 36.737 214.392C34.8609 220.511 33.8891 226.87 33.8522 233.27C33.8221 238.036 34.3359 242.886 36.2477 247.254C38.0625 251.409 41.2913 255.083 45.4761 256.78Z" fill="#5416CE"/>
<path d="M30.5438 213.208L26.047 220.13L46.23 242.001L42.854 249.487C42.854 249.487 12.7808 232.11 9.84235 221.462C7.9484 214.602 18.4212 201.937 18.4212 201.937L30.5438 213.208Z" fill="#FFDAD9"/>
<path d="M33.9785 182.227C25.3299 185.006 15.2181 204.356 15.2181 204.356C15.056 206.927 29.7758 217.508 30.3254 215.6C30.3254 215.6 36.6898 205.513 38.5272 200.751C40.4485 195.788 39.2974 180.518 33.9785 182.227Z" fill="#7433ED"/>
<path d="M71.5862 185.973C78.932 190.443 85.5782 208.461 85.5782 208.461L70.7981 210.781C70.7981 210.781 66.4379 182.84 71.5862 185.973Z" fill="#7433ED"/>
<path d="M79.909 227.064C85.719 224.79 85.2467 218.118 83.9241 214.51C80.9799 206.477 71.4291 185.433 71.4291 185.433L65.207 188.569C65.207 188.569 66.8766 210.589 69.7774 218.019C71.0133 221.182 74.607 229.14 79.909 227.064Z" fill="#FFDAD9"/>
<path d="M36.9766 137.07C37.0228 137.165 38.0758 139.395 38.566 139.418C38.8215 139.432 39.1213 139.349 39.4437 139.194C40.0819 138.891 40.8125 138.307 41.4941 137.632C42.8903 136.252 44.0772 134.481 43.817 133.898C43.6162 133.453 42.1097 131.197 41.2717 131.026C41.2754 131.03 39.5474 135.263 36.9766 137.07Z" fill="#E24067"/>
<path d="M58.1658 179.95C58.1658 179.95 57.9452 185.96 53.9546 185.631C49.964 185.302 45.9668 179.574 45.9668 179.574C48.6856 174.106 47.4488 163.187 47.4488 163.187C47.4488 163.187 49.6708 164.179 52.0842 165.499C55.2433 167.238 58.7371 169.537 57.9904 170.915C57.4116 171.984 57.3758 173.871 57.5191 175.64C57.6445 177.088 57.8605 178.528 58.1658 179.95Z" fill="#FFDAD9"/>
<path d="M57.9904 170.915C57.4116 171.984 57.3758 173.871 57.5191 175.64C56.665 175 51.9456 171.374 50.8577 168.489C50.3439 167.132 51.0793 166.165 52.0833 165.501C55.2433 167.238 58.7371 169.537 57.9904 170.915Z" fill="#FECDCB"/>
<path d="M47.4446 163.19C47.4446 163.19 52.2828 174.568 62.0448 172.409C67.3043 171.244 69.1454 159.572 69.1021 151.141C69.0832 147.26 68.6665 144.07 67.9981 142.899C65.8807 139.194 51.2806 140.077 51.2806 140.077L47.7529 154.543C47.7529 154.543 44.5156 153.481 43.5615 157.499C42.9563 160.065 47.3155 163.102 47.4446 163.19Z" fill="#FFDAD9"/>
<path d="M47.4441 163.19C47.3149 163.102 42.9557 160.065 43.5638 157.501C44.5178 153.483 47.7552 154.545 47.7552 154.545C47.7552 154.545 48.5339 156.43 49.1372 156.336C53.1137 154.44 54.1875 147.009 57.2843 145.77C59.6101 144.84 64.2097 147.103 65.8915 148.959C70.822 154.403 72.8677 153.724 76.6255 150.705C76.6255 150.705 73.7765 151.325 73.0619 146.213C72.6575 143.323 70.8719 142.065 69.6134 140.236C67.2104 136.734 63.0501 127.832 45.8311 133.122C31.5807 137.497 37.5115 159.729 47.4441 163.19Z" fill="#111228"/>
<path d="M56.4206 252.544C51.014 257.627 42.8594 249.486 42.8594 249.486L46.2353 242C46.2353 242 50.8292 238.937 51.6956 240.289C53.2502 242.712 49.8017 243.458 49.8017 243.458C49.8017 243.458 61.8272 247.464 56.4206 252.544Z" fill="#FFDAD9"/>
<path d="M61.8831 183.103C61.7106 184.167 65.2091 188.571 65.2091 188.571L71.4311 185.431C71.4311 185.431 73.8587 177.76 71.9072 177.711C69.9558 177.661 69.8455 179.587 69.8455 179.587C69.8455 179.587 68.5115 169.483 67.0371 170.571C65.5626 171.659 67.0371 179.15 67.0371 179.15C67.0371 179.15 62.1424 181.498 61.8831 183.103Z" fill="#FFDAD9"/>
<path d="M484.022 368.317L485.976 376.493C486.055 376.898 486.046 377.316 485.948 377.717C485.85 378.119 485.666 378.494 485.409 378.817C485.152 379.141 484.828 379.404 484.459 379.59C484.09 379.776 483.685 379.88 483.273 379.894C476.058 380.135 461.88 379.893 459.262 379.873C459.163 379.872 459.067 379.833 458.996 379.764C458.924 379.694 458.881 379.6 458.877 379.501C458.76 376.999 460.422 375.406 462.869 374.179L472.305 367.824C472.323 367.814 472.343 367.809 472.364 367.81L484.022 368.317Z" fill="#373A50"/>
<path d="M484.025 368.317C483.918 370.737 472.261 370.23 472.368 367.807L472.137 358.233L483.052 357.894L484.025 368.317Z" fill="#FFDAD9"/>
<path d="M448.645 242.16C449.663 254.159 451.343 265.4 457.579 271.419L469.826 362.77C469.826 363.323 471.459 363.7 473.692 363.906C478.481 364.34 486.03 363.961 486.03 362.77C486.03 362.77 487.75 276.955 488.555 251.798C488.673 247.94 459.42 245.655 459.42 245.655L448.645 242.16Z" fill="#373A50"/>
<path d="M455.622 368.317L457.576 376.493C457.655 376.898 457.646 377.315 457.548 377.716C457.451 378.117 457.267 378.493 457.011 378.816C456.754 379.139 456.431 379.403 456.062 379.589C455.694 379.775 455.289 379.879 454.877 379.894C447.664 380.135 433.486 379.893 430.867 379.873C430.767 379.872 430.672 379.833 430.6 379.764C430.529 379.694 430.487 379.6 430.482 379.501C430.365 376.999 432.026 375.406 434.474 374.179L443.91 367.824C443.928 367.814 443.949 367.809 443.969 367.81L455.622 368.317Z" fill="#373A50"/>
<path d="M455.622 368.317C455.516 370.737 443.859 370.23 443.965 367.807L443.734 358.233L454.65 357.894L455.622 368.317Z" fill="#FFDAD9"/>
<path d="M441.504 243.351C442.522 255.35 441.426 362.772 441.426 362.772C441.426 363.325 443.059 363.703 445.292 363.909C450.08 364.343 457.63 363.964 457.63 362.772C457.63 362.772 472.957 276.958 473.762 251.8C473.881 247.943 441.504 243.351 441.504 243.351Z" fill="#373A50"/>
<path d="M408.053 206.8L403.99 213.428C403.99 213.428 395.114 211.808 393.177 208.985C391.239 206.161 396.766 202.64 396.766 202.64C396.766 202.64 387.485 197.481 389.205 195.228C390.864 193.058 399.019 200.719 399.582 201.243C399.387 200.98 398.209 199.288 399.875 197.789C401.685 196.152 408.053 206.8 408.053 206.8Z" fill="#FFDAD9"/>
<path d="M457.573 209.721C457.573 209.721 456.755 211.057 455.373 213.115C450.711 220.095 439.612 235.402 432.163 235.132C430.116 235.056 427.65 234.201 425.022 232.856C414.186 227.345 400.453 213.738 400.453 213.738L406.768 203.136L427.771 215.496C427.771 215.496 442.339 185.655 446.859 184.368C455.42 181.93 457.573 209.721 457.573 209.721Z" fill="#7433ED"/>
<path d="M455.375 213.115C450.713 220.094 439.614 235.402 432.165 235.132C430.118 235.056 427.652 234.201 425.023 232.856C428.013 232.949 431.241 232.577 433.261 230.416C434.838 228.726 435.319 226.321 435.731 224.048C436.408 220.361 437.081 216.676 437.752 212.995C438.36 209.653 438.97 206.313 439.584 202.977C439.956 200.912 439.824 196.955 442.283 196.152C446.936 194.628 451.505 202.573 452.985 205.831C454.046 208.167 454.79 210.611 455.375 213.115Z" fill="#5416CE"/>
<path d="M490.881 252.364C490.45 253.027 489.485 253.567 488.121 253.997C486.659 254.468 484.745 254.817 482.512 255.069C468.826 256.586 443.288 254.232 439.775 251.374C439.775 251.374 439.263 240.421 439.365 227.399C439.373 225.704 439.4 223.983 439.434 222.241C439.454 221.496 439.467 220.744 439.495 220C439.543 218.155 439.612 216.297 439.694 214.459C440.287 201.327 441.825 188.968 445.343 185.654C456.31 175.364 478.48 178.199 487.937 184.977C489.542 186.132 490.587 189.944 491.243 195.214C491.537 197.557 491.756 200.195 491.906 203.016C492.985 223.082 490.881 252.364 490.881 252.364Z" fill="#7433ED"/>
<path d="M490.879 252.364C490.448 253.027 489.483 253.567 488.119 253.997C487.682 252.952 487.532 251.715 487.573 250.588C487.682 247.602 488.596 244.685 488.673 241.699C488.749 238.714 487.682 235.379 485.017 234.026C481.875 232.427 478.172 234.212 474.735 235.003C468.791 236.37 448.068 230.883 439.363 227.399C439.371 225.704 439.398 223.983 439.432 222.241C439.453 221.496 439.466 220.744 439.494 220C439.541 218.155 439.61 216.297 439.692 214.459C440.809 213.038 441.721 212.06 441.851 211.992C446.476 209.615 458.343 214.397 462.976 212.019C465.074 210.94 471.277 201.293 472.59 199.222C474.966 195.472 476.684 190.921 479.791 187.682C481.417 185.989 483.261 186.2 484.586 188.099C486.083 190.245 487.497 192.137 489.526 193.846C490.085 194.317 490.661 194.777 491.241 195.219C491.535 197.562 491.754 200.199 491.904 203.021C492.983 223.082 490.879 252.364 490.879 252.364Z" fill="#5416CE"/>
<path d="M472.219 163.562L471.64 179.272C471.64 179.272 461.818 186.022 457.944 184.979C456.285 184.528 459.769 178.889 459.769 178.889L460.002 174.924L460.325 169.479L466.095 166.611L472.219 163.562Z" fill="#FFDAD9"/>
<path d="M466.262 168.547C464.783 171.1 460 174.922 460 174.922L460.323 169.478L466.093 166.609C466.533 167.144 466.698 167.802 466.262 168.547Z" fill="#FECDCB"/>
<path d="M455.064 171.17C460.019 173.821 471.11 165.447 472.187 164.632C472.213 164.604 472.241 164.579 472.271 164.556C472.271 164.556 478.622 163.002 478.37 159.376C478.004 154.318 472.414 158.505 472.414 158.505L475.243 149.42L471.505 143.987L454.09 146.026C454.09 146.026 453.331 150.044 452.854 154.887C452.198 161.466 452.066 169.571 455.064 171.17Z" fill="#FFDAD9"/>
<path d="M451.258 153.313C451.923 153.5 467.384 152.134 468.48 152.29C469.754 152.467 470.214 159.072 471.029 159.494C471.843 159.915 472.415 158.51 472.415 158.51C472.415 158.51 478.007 154.322 478.371 159.381C478.623 163.011 472.273 164.561 472.273 164.561C472.243 164.584 472.215 164.609 472.189 164.636L471.973 170.341C481.303 163.641 483.335 152.946 479.092 146.577C474.85 140.207 467.692 140.095 462.269 140.609C456.845 141.124 454.78 137.197 450.658 139.201C446.536 141.206 446.501 151.982 451.258 153.313Z" fill="#111228"/>
<path d="M428.75 223.846L419.103 222.753C418.652 222.702 418.23 222.505 417.901 222.193C417.572 221.88 417.354 221.468 417.281 221.021L414.614 204.779C414.561 204.461 414.583 204.136 414.678 203.828C414.773 203.52 414.938 203.238 415.16 203.005C415.382 202.772 415.655 202.593 415.958 202.483C416.261 202.373 416.585 202.334 416.905 202.371L426.552 203.462C427.003 203.513 427.425 203.71 427.753 204.023C428.082 204.336 428.3 204.747 428.374 205.195L431.041 221.437C431.093 221.754 431.071 222.08 430.976 222.388C430.882 222.696 430.717 222.978 430.495 223.211C430.273 223.445 430 223.623 429.697 223.734C429.394 223.844 429.07 223.882 428.75 223.846Z" fill="#373A50"/>
<path d="M435.938 213.136L428.707 207.215L429.207 210.255C429.207 210.255 415.756 203.801 417.767 213.192C419.779 222.583 435.018 221.268 435.018 221.268L435.938 213.136Z" fill="#FFDAD9"/>
<path d="M486.478 183.989C490.852 186.705 494.317 194.795 493.821 201.173C493.048 211.131 484.732 229.244 475.883 232.747C469.855 235.135 434.346 221.692 434.346 221.692C433.104 221.475 434.918 211.115 436.16 211.333L468.453 215.078C468.453 215.078 478.924 179.296 486.478 183.989Z" fill="#7433ED"/>
<path d="M440.474 91.7336C452.444 79.7635 452.444 60.3561 440.474 48.3861C428.504 36.416 409.097 36.416 397.127 48.3861C385.157 60.3562 385.157 79.7635 397.127 91.7336C409.097 103.704 428.504 103.704 440.474 91.7336Z" fill="#FF4129"/>
<path d="M418.8 94.3248C432.201 94.3248 443.065 83.4611 443.065 70.0601C443.065 56.6591 432.201 45.7954 418.8 45.7954C405.399 45.7954 394.535 56.6591 394.535 70.0601C394.535 83.4611 405.399 94.3248 418.8 94.3248Z" fill="white"/>
<path d="M430.735 81.9948C437.326 75.4033 437.326 64.7163 430.735 58.1248C424.143 51.5333 413.456 51.5334 406.865 58.1249C400.273 64.7164 400.273 75.4033 406.865 81.9948C413.456 88.5863 424.143 88.5863 430.735 81.9948Z" fill="#FF4129"/>
<path d="M425.686 76.9475C429.49 73.1435 429.49 66.9761 425.686 63.1722C421.882 59.3682 415.715 59.3682 411.911 63.1722C408.107 66.9761 408.107 73.1435 411.911 76.9475C415.715 80.7514 421.882 80.7514 425.686 76.9475Z" fill="white"/>
<path d="M443.91 44.6978L418.211 68.8308L420.082 70.8228L445.781 46.6897L443.91 44.6978Z" fill="#373A50"/>
<path d="M424.556 70.9058L418.412 64.3656C418.335 64.2832 418.237 64.2235 418.128 64.1931C418.019 64.1627 417.904 64.1629 417.796 64.1935C417.687 64.2241 417.589 64.284 417.512 64.3667C417.435 64.4493 417.382 64.5516 417.36 64.6622L415.774 72.3034C415.754 72.4004 415.758 72.5006 415.785 72.5958C415.812 72.691 415.861 72.7784 415.929 72.8505C415.997 72.9226 416.081 72.9774 416.174 73.0103C416.268 73.0432 416.367 73.0532 416.465 73.0394L424.192 71.9384C424.304 71.9226 424.409 71.8765 424.496 71.8049C424.584 71.7334 424.65 71.6392 424.687 71.5327C424.725 71.4261 424.733 71.3113 424.709 71.2008C424.686 71.0903 424.633 70.9882 424.556 70.9058Z" fill="#373A50"/>
<path d="M457.441 40.1862L451.282 39.3935L450.878 33.1982L442.969 40.6257L443.373 46.8209L449.531 47.6124L457.441 40.1862Z" fill="#373A50"/>
</g>
<defs>
<linearGradient id="paint0_linear_1_1976" x1="110.338" y1="349" x2="110.338" y2="375" gradientUnits="userSpaceOnUse">
<stop stop-color="#E9EEF7"/>
<stop offset="1" stop-color="#E9EEF7" stop-opacity="0"/>
</linearGradient>
<linearGradient id="paint1_linear_1_1976" x1="185" y1="357.542" x2="185" y2="393.542" gradientUnits="userSpaceOnUse">
<stop stop-color="#E9EEF7"/>
<stop offset="1" stop-color="#E9EEF7" stop-opacity="0"/>
</linearGradient>
<linearGradient id="paint2_linear_1_1976" x1="254.835" y1="0.54126" x2="254.835" y2="323.133" gradientUnits="userSpaceOnUse">
<stop stop-color="#E9EEF7"/>
<stop offset="1" stop-color="#E9EEF7" stop-opacity="0"/>
</linearGradient>
<linearGradient id="paint3_linear_1_1976" x1="255" y1="307.542" x2="255" y2="387.542" gradientUnits="userSpaceOnUse">
<stop stop-color="#E9EEF7"/>
<stop offset="1" stop-color="#E9EEF7" stop-opacity="0"/>
</linearGradient>
<linearGradient id="paint4_linear_1_1976" x1="119.488" y1="94.1309" x2="409.261" y2="94.1309" gradientUnits="userSpaceOnUse">
<stop stop-color="#EBF2FF"/>
<stop offset="1" stop-color="#E1E8FF"/>
</linearGradient>
<linearGradient id="paint5_linear_1_1976" x1="154.826" y1="83.0743" x2="163.161" y2="83.0743" gradientUnits="userSpaceOnUse">
<stop stop-color="#909EFF"/>
<stop offset="1" stop-color="#6977E3"/>
</linearGradient>
<linearGradient id="paint6_linear_1_1976" x1="137.748" y1="97.2379" x2="191.848" y2="97.2379" gradientUnits="userSpaceOnUse">
<stop stop-color="#909EFF"/>
<stop offset="1" stop-color="#6977E3"/>
</linearGradient>
<linearGradient id="paint7_linear_1_1976" x1="210.533" y1="79.8407" x2="247.929" y2="79.8407" gradientUnits="userSpaceOnUse">
<stop stop-color="#D1DEFF"/>
<stop offset="1" stop-color="#B2C7FF"/>
</linearGradient>
<linearGradient id="paint8_linear_1_1976" x1="210.533" y1="97.9942" x2="400.869" y2="97.9942" gradientUnits="userSpaceOnUse">
<stop stop-color="#D1DEFF"/>
<stop offset="1" stop-color="#B2C7FF"/>
</linearGradient>
<linearGradient id="paint9_linear_1_1976" x1="210.533" y1="106.691" x2="400.869" y2="106.691" gradientUnits="userSpaceOnUse">
<stop stop-color="#D1DEFF"/>
<stop offset="1" stop-color="#B2C7FF"/>
</linearGradient>
<linearGradient id="paint10_linear_1_1976" x1="210.532" y1="115.39" x2="394.756" y2="115.39" gradientUnits="userSpaceOnUse">
<stop stop-color="#D1DEFF"/>
<stop offset="1" stop-color="#B2C7FF"/>
</linearGradient>
<linearGradient id="paint11_linear_1_1976" x1="210.533" y1="115.39" x2="394.756" y2="115.39" gradientUnits="userSpaceOnUse">
<stop stop-color="#D1DEFF"/>
<stop offset="1" stop-color="#B2C7FF"/>
</linearGradient>
<linearGradient id="paint12_linear_1_1976" x1="210.534" y1="115.39" x2="394.757" y2="115.39" gradientUnits="userSpaceOnUse">
<stop stop-color="#D1DEFF"/>
<stop offset="1" stop-color="#B2C7FF"/>
</linearGradient>
<linearGradient id="paint13_linear_1_1976" x1="210.534" y1="115.39" x2="394.758" y2="115.39" gradientUnits="userSpaceOnUse">
<stop stop-color="#D1DEFF"/>
<stop offset="1" stop-color="#B2C7FF"/>
</linearGradient>
<linearGradient id="paint14_linear_1_1976" x1="210.532" y1="115.39" x2="394.757" y2="115.39" gradientUnits="userSpaceOnUse">
<stop stop-color="#D1DEFF"/>
<stop offset="1" stop-color="#B2C7FF"/>
</linearGradient>
<linearGradient id="paint15_linear_1_1976" x1="123.793" y1="156.991" x2="153.519" y2="156.991" gradientUnits="userSpaceOnUse">
<stop stop-color="#3DCFA4"/>
<stop offset="1" stop-color="#30BB93"/>
</linearGradient>
<linearGradient id="paint16_linear_1_1976" x1="170.586" y1="191.539" x2="202.119" y2="191.539" gradientUnits="userSpaceOnUse">
<stop stop-color="#F34B6D"/>
<stop offset="1" stop-color="#E24067"/>
</linearGradient>
<linearGradient id="paint17_linear_1_1976" x1="275.439" y1="259.406" x2="306.973" y2="259.406" gradientUnits="userSpaceOnUse">
<stop stop-color="#F34B6D"/>
<stop offset="1" stop-color="#E24067"/>
</linearGradient>
<linearGradient id="paint18_linear_1_1976" x1="327.426" y1="191.541" x2="358.96" y2="191.541" gradientUnits="userSpaceOnUse">
<stop stop-color="#FADF68"/>
<stop offset="1" stop-color="#EAC250"/>
</linearGradient>
<linearGradient id="paint19_linear_1_1976" x1="223.102" y1="224.707" x2="254.635" y2="224.707" gradientUnits="userSpaceOnUse">
<stop stop-color="#FADF68"/>
<stop offset="1" stop-color="#EAC250"/>
</linearGradient>
<linearGradient id="paint20_linear_1_1976" x1="278.027" y1="191.539" x2="304.387" y2="191.539" gradientUnits="userSpaceOnUse">
<stop stop-color="#D1DEFF"/>
<stop offset="1" stop-color="#B2C7FF"/>
</linearGradient>
<linearGradient id="paint21_linear_1_1976" x1="225.688" y1="259.878" x2="252.047" y2="259.878" gradientUnits="userSpaceOnUse">
<stop stop-color="#D1DEFF"/>
<stop offset="1" stop-color="#B2C7FF"/>
</linearGradient>
<linearGradient id="paint22_linear_1_1976" x1="177.852" y1="156.989" x2="199.542" y2="156.989" gradientUnits="userSpaceOnUse">
<stop stop-color="#D1DEFF"/>
<stop offset="1" stop-color="#B2C7FF"/>
</linearGradient>
<linearGradient id="paint23_linear_1_1976" x1="323.312" y1="267.569" x2="337.267" y2="267.569" gradientUnits="userSpaceOnUse">
<stop stop-color="#D1DEFF"/>
<stop offset="1" stop-color="#B2C7FF"/>
</linearGradient>
<linearGradient id="paint24_linear_1_1976" x1="323.312" y1="258.718" x2="354.09" y2="258.718" gradientUnits="userSpaceOnUse">
<stop stop-color="#D1DEFF"/>
<stop offset="1" stop-color="#B2C7FF"/>
</linearGradient>
<linearGradient id="paint25_linear_1_1976" x1="323.313" y1="249.867" x2="354.09" y2="249.867" gradientUnits="userSpaceOnUse">
<stop stop-color="#D1DEFF"/>
<stop offset="1" stop-color="#B2C7FF"/>
</linearGradient>
<linearGradient id="paint26_linear_1_1976" x1="227.279" y1="164.045" x2="237.789" y2="164.045" gradientUnits="userSpaceOnUse">
<stop stop-color="#D1DEFF"/>
<stop offset="1" stop-color="#B2C7FF"/>
</linearGradient>
<linearGradient id="paint27_linear_1_1976" x1="227.279" y1="157.379" x2="250.458" y2="157.379" gradientUnits="userSpaceOnUse">
<stop stop-color="#D1DEFF"/>
<stop offset="1" stop-color="#B2C7FF"/>
</linearGradient>
<linearGradient id="paint28_linear_1_1976" x1="227.279" y1="150.713" x2="250.458" y2="150.713" gradientUnits="userSpaceOnUse">
<stop stop-color="#D1DEFF"/>
<stop offset="1" stop-color="#B2C7FF"/>
</linearGradient>
<linearGradient id="paint29_linear_1_1976" x1="57.7673" y1="306.555" x2="33.6034" y2="295.229" gradientUnits="userSpaceOnUse">
<stop stop-color="#201D3E"/>
<stop offset="1" stop-color="#47408F"/>
</linearGradient>
<linearGradient id="paint30_linear_1_1976" x1="41.6061" y1="305.759" x2="12.9498" y2="287.833" gradientUnits="userSpaceOnUse">
<stop stop-color="#201D3E"/>
<stop offset="1" stop-color="#47408F"/>
</linearGradient>
<clipPath id="clip0_1_1976">
<rect width="508" height="387" fill="white" transform="translate(0 0.541992)"/>
</clipPath>
</defs>
</svg>
