<svg width="508" height="333" viewBox="0 0 508 333" fill="none" xmlns="http://www.w3.org/2000/svg">
<g clip-path="url(#clip0_1_1587)">
<path d="M254.002 332.645C394.283 332.645 508.003 324.89 508.003 315.323C508.003 305.756 394.283 298 254.002 298C113.72 298 0 305.756 0 315.323C0 324.89 113.72 332.645 254.002 332.645Z" fill="#D1DEED"/>
<path d="M88.5374 274.924C88.5374 274.924 55.9736 261.082 42.5553 225.922C29.137 190.763 40.6434 167.093 65.5507 164.584C90.458 162.075 92.4305 141.615 92.0844 109.042C91.7384 76.4699 135.16 43.2919 193.305 32.4085C251.451 21.5251 264.169 56.6756 296.741 62.3855C329.314 68.0954 391.266 61.1137 409.149 77.0928C427.031 93.0719 434.696 121.267 419.366 160.812C404.036 200.358 414.391 211.855 428.692 235.482C442.993 259.109 442.361 289.77 422.558 310.844H121.75C121.75 310.844 116.732 295.713 88.5374 274.924Z" fill="url(#paint0_linear_1_1587)"/>
<path d="M392.357 310.862C392.357 310.862 389.415 306.942 394.312 302.037C394.312 302.037 391.474 285.444 408.405 283.212C408.405 283.212 411.597 272.034 421.174 270.754C430.751 269.473 438.416 275.547 440.657 283.843C440.657 283.843 448.002 281.248 454.707 285.764C461.412 290.28 460.763 299.494 460.763 299.494C460.763 299.494 468.108 302.089 465.236 310.862H392.357Z" fill="#98A3F4"/>
<path d="M416.763 303.802C411.684 303.24 410.56 297.218 413.562 292.711C416.564 288.204 424.116 290.721 424.116 290.721C424.116 290.721 417.706 286.326 420.889 279.535C422.581 276.026 425.357 273.154 428.805 271.342C426.334 270.597 423.732 270.393 421.175 270.745C411.598 272.026 408.405 283.203 408.405 283.203C391.475 285.444 394.347 302.029 394.347 302.029C389.45 306.934 392.392 310.853 392.392 310.853H415.75C414.634 307.531 416.763 303.802 416.763 303.802Z" fill="#7284DD"/>
<path d="M424.645 310.861V285.279" stroke="#2B284F" stroke-miterlimit="10"/>
<path d="M412.092 290.721L424.645 300.982" stroke="#2B284F" stroke-miterlimit="10"/>
<path d="M424.645 306.518L442.103 295.851" stroke="#2B284F" stroke-miterlimit="10"/>
<path d="M361.679 309.382C361.679 309.382 356.566 300.653 355.286 291.5C354.005 282.347 355.718 273.401 358.487 273.617C361.255 273.834 363.037 281.49 367.467 278.722C371.896 275.953 368.782 259.567 372.536 246.365C376.291 233.163 384.025 230.092 388.109 232.16C392.192 234.228 388.325 254.454 393.646 252.543C398.966 250.631 395.134 231.892 409.608 218.906C424.081 205.92 428.13 213.153 426.426 218.906C424.721 224.659 407.237 247.646 410.213 254.446C413.189 261.246 421.166 254.238 426.755 257.431C432.343 260.623 425.119 270.018 414.046 274.257C402.972 278.497 405.957 281.282 410.853 285.323C415.75 289.363 421.927 300.653 406.381 305.766C390.834 310.879 366.783 313.855 361.679 309.382Z" fill="#4958ED"/>
<path d="M362.674 310.04C365.789 305.826 371.706 297.59 378.896 286.421C389.606 269.785 400.602 251.15 406.796 237.783C410.862 229.028 418.986 218.283 424.099 211.907C421.504 210.955 416.858 212.357 409.556 218.906C395.082 231.883 398.915 250.622 393.594 252.543C388.274 254.463 392.098 234.236 388.057 232.16C384.017 230.084 376.266 233.172 372.485 246.366C368.704 259.559 371.845 275.962 367.415 278.722C362.986 281.481 361.195 273.834 358.435 273.617C355.675 273.401 353.962 282.347 355.234 291.5C356.506 300.653 361.627 309.382 361.627 309.382C361.947 309.645 362.299 309.866 362.674 310.04Z" fill="#3248B2"/>
<path d="M362.674 310.031L396.12 259.351" stroke="#2B284F" stroke-miterlimit="10"/>
<path d="M378.896 254.455L382.928 279.544" stroke="#2B284F" stroke-miterlimit="10"/>
<path d="M373.35 293.853L404.209 293.602" stroke="#2B284F" stroke-miterlimit="10"/>
<path d="M38.0929 74.8952H133.466C133.466 74.8952 133.89 71.0626 127.072 65.742C120.255 60.4214 122.392 54.2443 113.23 52.7649C104.068 51.2856 102.156 57.6616 95.3477 54.0454C88.5391 50.4291 88.0892 44.2174 78.5727 43.1792C69.0562 42.1411 65.3707 57.653 60.9066 59.0372C56.4425 60.4214 43.2318 60.4214 40.0395 66.3822C36.8471 72.343 38.0929 74.8952 38.0929 74.8952Z" fill="#7DA2FF"/>
<path d="M329.799 51.8566H430.068C430.068 51.8566 429.264 46.2678 418.415 44.1915C407.566 42.1152 409.314 37.0022 403.085 33.334C396.856 29.6658 398.612 21.9921 388.23 21.5163C377.849 21.0404 374.181 36.6821 369.396 36.6821C364.612 36.6821 361.887 28.8526 353.59 36.6821C345.294 44.5116 338.736 43.707 333.952 44.8317C329.167 45.9564 329.799 51.8566 329.799 51.8566Z" fill="#7DA2FF"/>
<path d="M71.9882 61.2175C72.7582 53.3102 77.179 47.2629 80.8213 43.5687C80.0804 43.3919 79.3291 43.2619 78.5719 43.1794C68.9948 42.1153 65.3699 57.6532 60.9058 59.0374C56.4417 60.4216 43.231 60.4216 40.0387 66.3824C36.8463 72.3432 38.1267 74.8953 38.1267 74.8953H81.1673C75.7775 71.2618 71.4518 66.6246 71.9882 61.2175Z" fill="#6A92E2"/>
<path d="M374.665 43.1795C373.575 36.838 377.191 29.6055 380.401 24.6655C375.522 29.1123 372.727 36.6823 369.396 36.6823C364.603 36.6823 361.887 28.8528 353.59 36.6823C345.294 44.5118 338.736 43.7072 333.952 44.8319C329.167 45.9566 329.799 51.8568 329.799 51.8568H382.944C378.515 49.27 375.21 46.3372 374.665 43.1795Z" fill="#6A92E2"/>
<path d="M83.7621 193.16C83.7621 193.16 89.1605 205.929 77.7061 211.328C66.2517 216.726 67.1688 228.051 70.041 234.375C72.9133 240.699 75.7855 250.285 65.2482 260.182C54.7108 270.079 49.6065 280.296 52.4787 294.666C55.351 309.036 64.928 310.827 64.928 310.827H122.693C122.693 310.827 140.576 294.649 128.126 270.546C115.677 246.443 116.014 244.973 118.861 234.375C121.707 223.777 122.053 220.584 112.156 207.815C102.259 195.046 110.356 175.563 108.22 168.538C106.083 161.513 96.1941 156.72 88.8491 163.425C81.5041 170.13 78.9952 179.11 83.7621 193.16Z" fill="#98A3F4"/>
<path d="M96.5151 160.25C93.648 160.333 90.9136 161.476 88.8413 163.459C81.4963 170.164 78.996 179.11 83.7543 193.16C83.7543 193.16 89.1527 205.929 77.6983 211.327C66.2439 216.726 67.1609 228.051 70.0332 234.375C72.9055 240.699 75.7777 250.285 65.2403 260.182C54.703 270.079 49.5987 280.296 52.4709 294.666C55.3432 309.036 64.9202 310.827 64.9202 310.827H96.5497L96.5151 160.25Z" fill="#8090E0"/>
<path d="M96.7578 310.861V234.409" stroke="#2B284F" stroke-miterlimit="10"/>
<path d="M87.4043 257.344L96.7564 270.581" stroke="#2B284F" stroke-miterlimit="10"/>
<path d="M96.7578 292.469L116.569 272.631" stroke="#2B284F" stroke-miterlimit="10"/>
<path d="M18.5231 310.862C18.5231 310.862 15.5817 306.942 20.487 302.037C20.487 302.037 17.6493 285.444 34.5801 283.212C34.5801 283.212 37.7724 272.034 47.3495 270.754C56.9266 269.473 64.5917 275.547 66.8324 283.843C66.8324 283.843 74.1688 281.248 80.8822 285.764C87.5957 290.28 86.9382 299.494 86.9382 299.494C86.9382 299.494 94.2832 302.089 91.4109 310.862H18.5231Z" fill="#7CBFF2"/>
<path d="M37.8503 302.029C39.5806 290.877 52.0472 292.46 52.0472 292.46C52.0472 292.46 42.9286 290.635 43.7765 282.078C44.3388 276.351 48.4309 272.562 51.0869 270.641C49.8402 270.557 48.5882 270.598 47.3495 270.762C37.7724 272.043 34.5801 283.22 34.5801 283.22C17.6493 285.444 20.487 302.029 20.487 302.029C15.5817 306.934 18.5231 310.853 18.5231 310.853H40.264C38.3261 308.811 37.262 305.956 37.8503 302.029Z" fill="#6DABD1"/>
<path d="M51.8828 310.861V285.279" stroke="#2B284F" stroke-miterlimit="10"/>
<path d="M39.3203 290.721L51.8821 300.982" stroke="#2B284F" stroke-miterlimit="10"/>
<path d="M51.8828 306.518L69.3413 295.851" stroke="#2B284F" stroke-miterlimit="10"/>
<path d="M11.0039 310.862H472.122" stroke="#2B284F" stroke-width="3" stroke-miterlimit="10" stroke-linecap="round"/>
<path d="M363.877 69.739H120.125C113.273 69.739 107.719 75.2934 107.719 82.1451V266.108C107.719 272.96 113.273 278.514 120.125 278.514H363.877C370.729 278.514 376.283 272.96 376.283 266.108V82.1451C376.283 75.2934 370.729 69.739 363.877 69.739Z" fill="#E9EFFF"/>
<path d="M376.283 243.199V83.7975C376.284 81.9517 375.922 80.1238 375.216 78.4182C374.511 76.7126 373.476 75.1627 372.171 73.8572C370.867 72.5516 369.317 71.5159 367.612 70.8093C365.907 70.1027 364.079 69.739 362.234 69.739H121.777C119.931 69.7379 118.102 70.1007 116.396 70.8068C114.69 71.5129 113.14 72.5484 111.834 73.8541C110.528 75.1598 109.493 76.71 108.787 78.4162C108.08 80.1224 107.718 81.951 107.719 83.7975V243.199H376.283Z" fill="#5416CE"/>
<path d="M362.588 78.5635H121.422C118.728 78.5635 116.543 80.748 116.543 83.4429V229.53C116.543 232.225 118.728 234.409 121.422 234.409H362.588C365.283 234.409 367.467 232.225 367.467 229.53V83.4429C367.467 80.748 365.283 78.5635 362.588 78.5635Z" fill="#D2D9FF"/>
<mask id="mask0_1_1587" style="mask-type:luminance" maskUnits="userSpaceOnUse" x="116" y="78" width="252" height="157">
<path d="M362.588 78.5635H121.422C118.728 78.5635 116.543 80.748 116.543 83.4429V229.53C116.543 232.225 118.728 234.409 121.422 234.409H362.588C365.283 234.409 367.467 232.225 367.467 229.53V83.4429C367.467 80.748 365.283 78.5635 362.588 78.5635Z" fill="white"/>
</mask>
<g mask="url(#mask0_1_1587)">
<path d="M116.543 105.66L162.906 167.526" stroke="white" stroke-width="5" stroke-linecap="round" stroke-linejoin="round"/>
<path d="M116.543 200.877L290.574 78.5635" stroke="white" stroke-width="5" stroke-linecap="round" stroke-linejoin="round"/>
<path d="M183.383 78.5635L218.611 129.139" stroke="white" stroke-width="5" stroke-linecap="round" stroke-linejoin="round"/>
<path d="M133.465 128.249L190.728 89.1011" stroke="white" stroke-width="5" stroke-linecap="round" stroke-linejoin="round"/>
<path d="M149.842 150.102L206.456 111.698" stroke="white" stroke-width="5" stroke-linecap="round" stroke-linejoin="round"/>
<path d="M169.334 234.409L298.343 136.216" stroke="white" stroke-width="5" stroke-linecap="round" stroke-linejoin="round"/>
<path d="M172.094 161.833L225.533 234.409" stroke="white" stroke-width="5" stroke-linecap="round" stroke-linejoin="round"/>
<path d="M252.49 171.505L299.934 234.41" stroke="white" stroke-width="5" stroke-linecap="round" stroke-linejoin="round"/>
<path d="M332.826 78.5549L282.225 114.865L367.467 228.881" stroke="white" stroke-width="5" stroke-linecap="round" stroke-linejoin="round"/>
<path d="M317.342 161.833L367.468 124.07" stroke="white" stroke-width="5" stroke-linecap="round" stroke-linejoin="round"/>
<path d="M324.834 84.2993L360.737 129.139" stroke="white" stroke-width="5" stroke-linecap="round" stroke-linejoin="round"/>
</g>
<path d="M221.173 278.514L209.658 325.56H271.412L262.899 278.514H221.173Z" fill="#E9EFFF"/>
<path d="M221.173 278.514L219.512 285.28H264.118L262.898 278.514H221.173Z" fill="#7DA2FF"/>
<path d="M223.301 112.563C223.375 107.734 221.69 103.042 218.56 99.363C215.43 95.6841 211.068 93.2695 206.289 92.5695C201.509 91.8695 196.638 92.9319 192.585 95.5585C188.531 98.1852 185.571 102.197 184.257 106.845C183.13 110.446 183.082 114.299 184.119 117.927C186.29 126.882 196.516 136.45 201.101 140.421C201.726 140.948 202.516 141.237 203.333 141.237C204.15 141.237 204.941 140.948 205.566 140.421C210.151 136.493 220.377 126.925 222.548 117.927C223.042 116.182 223.296 114.377 223.301 112.563Z" fill="#BC4D88"/>
<path d="M206.128 189.811C206.152 187.947 205.499 186.137 204.289 184.719C203.079 183.3 201.395 182.369 199.55 182.099C197.705 181.83 195.825 182.239 194.26 183.252C192.694 184.265 191.55 185.812 191.04 187.605C190.609 189.015 190.609 190.521 191.04 191.931C191.905 195.392 195.824 199.077 197.589 200.582C197.83 200.788 198.137 200.902 198.454 200.902C198.771 200.902 199.078 200.788 199.319 200.582C201.049 199.068 205.029 195.392 205.868 191.931C206.055 191.24 206.142 190.527 206.128 189.811Z" fill="#E1625D"/>
<path d="M321.883 117.183C321.882 116.136 321.668 115.101 321.254 114.14C320.84 113.178 320.234 112.311 319.474 111.592C318.714 110.872 317.815 110.315 316.833 109.954C315.85 109.593 314.805 109.436 313.759 109.492C312.186 109.598 310.682 110.179 309.446 111.159C308.21 112.138 307.301 113.47 306.838 114.977C306.402 116.384 306.387 117.888 306.795 119.303C307.66 122.763 311.571 126.449 313.344 127.954C313.585 128.162 313.892 128.276 314.209 128.276C314.527 128.276 314.834 128.162 315.074 127.954C316.848 126.44 320.784 122.763 321.624 119.303C321.805 118.611 321.892 117.898 321.883 117.183Z" fill="#E1625D"/>
<path d="M267.89 196.482C267.89 195.435 267.677 194.399 267.264 193.437C266.85 192.475 266.244 191.607 265.484 190.887C264.724 190.168 263.824 189.61 262.841 189.25C261.858 188.889 260.812 188.733 259.766 188.791C258.193 188.897 256.689 189.478 255.453 190.457C254.217 191.437 253.308 192.768 252.845 194.276C252.405 195.682 252.39 197.187 252.802 198.601C253.667 202.062 257.578 205.747 259.351 207.253C259.59 207.464 259.898 207.58 260.216 207.58C260.535 207.58 260.843 207.464 261.081 207.253C262.855 205.739 266.791 202.062 267.63 198.601C267.813 197.91 267.9 197.197 267.89 196.482Z" fill="#E1625D"/>
<path d="M159.825 154.799C159.826 152.952 159.161 151.166 157.953 149.768C156.744 148.37 155.073 147.454 153.245 147.187C151.416 146.921 149.553 147.321 147.996 148.315C146.438 149.309 145.291 150.831 144.763 152.602C144.326 153.994 144.311 155.484 144.72 156.884C145.585 160.345 149.504 164.03 151.269 165.536C151.51 165.743 151.817 165.858 152.134 165.858C152.452 165.858 152.759 165.743 152.999 165.536C154.773 164.013 158.718 160.345 159.557 156.884C159.743 156.205 159.834 155.504 159.825 154.799Z" fill="#E1625D"/>
<path d="M206.058 105.66V110.444L201.266 105.66L196.049 110.444V124.07H210.635V112.788V110.444V105.66H206.058Z" fill="white"/>
<path d="M107.719 243.225L338.157 69.739H366.326L134.711 243.225H107.719Z" fill="url(#paint1_linear_1_1587)"/>
<path d="M282.805 21.5076V25.7294" stroke="#98A3F4" stroke-linecap="round" stroke-linejoin="round"/>
<path d="M282.805 27.8491V32.0796" stroke="#98A3F4" stroke-linecap="round" stroke-linejoin="round"/>
<path d="M288.09 26.7937H283.859" stroke="#98A3F4" stroke-linecap="round" stroke-linejoin="round"/>
<path d="M281.75 26.7937H277.52" stroke="#98A3F4" stroke-linecap="round" stroke-linejoin="round"/>
<path d="M208.775 3.74644C208.775 4.27003 208.62 4.78186 208.329 5.21721C208.038 5.65256 207.625 5.99188 207.141 6.19225C206.657 6.39261 206.125 6.44504 205.611 6.34289C205.098 6.24075 204.626 5.98861 204.256 5.61838C203.886 5.24815 203.633 4.77644 203.531 4.26291C203.429 3.74938 203.482 3.21709 203.682 2.73336C203.882 2.24962 204.222 1.83616 204.657 1.54527C205.092 1.25438 205.604 1.09912 206.128 1.09912C206.83 1.09912 207.503 1.37803 208 1.8745C208.496 2.37097 208.775 3.04433 208.775 3.74644Z" stroke="#98A3F4" stroke-linecap="round" stroke-linejoin="round"/>
<path d="M442.102 151.192V155.422" stroke="#98A3F4" stroke-linecap="round" stroke-linejoin="round"/>
<path d="M442.102 157.542V161.773" stroke="#98A3F4" stroke-linecap="round" stroke-linejoin="round"/>
<path d="M447.388 156.486H443.166" stroke="#98A3F4" stroke-linecap="round" stroke-linejoin="round"/>
<path d="M441.047 156.486H436.816" stroke="#98A3F4" stroke-linecap="round" stroke-linejoin="round"/>
<path d="M465.91 237.939V242.169" stroke="#98A3F4" stroke-linecap="round" stroke-linejoin="round"/>
<path d="M465.91 244.289V248.52" stroke="#98A3F4" stroke-linecap="round" stroke-linejoin="round"/>
<path d="M471.197 243.225H466.967" stroke="#98A3F4" stroke-linecap="round" stroke-linejoin="round"/>
<path d="M464.847 243.225H460.625" stroke="#98A3F4" stroke-linecap="round" stroke-linejoin="round"/>
<path d="M502.281 202.218V206.439" stroke="#98A3F4" stroke-linecap="round" stroke-linejoin="round"/>
<path d="M502.281 208.559V212.79" stroke="#98A3F4" stroke-linecap="round" stroke-linejoin="round"/>
<path d="M507.566 207.503H503.336" stroke="#98A3F4" stroke-linecap="round" stroke-linejoin="round"/>
<path d="M501.218 207.503H496.996" stroke="#98A3F4" stroke-linecap="round" stroke-linejoin="round"/>
<path d="M486.916 179.741C486.917 180.267 486.762 180.782 486.47 181.22C486.178 181.657 485.762 181.998 485.275 182.198C484.789 182.398 484.253 182.448 483.738 182.343C483.222 182.238 482.75 181.981 482.381 181.606C482.012 181.231 481.763 180.754 481.666 180.237C481.569 179.72 481.629 179.186 481.837 178.702C482.045 178.219 482.392 177.809 482.835 177.524C483.277 177.239 483.794 177.092 484.32 177.103C485.013 177.114 485.673 177.397 486.158 177.891C486.644 178.384 486.916 179.049 486.916 179.741Z" stroke="#98A3F4" stroke-linecap="round" stroke-linejoin="round"/>
<path d="M471.724 111.508C471.724 112.032 471.569 112.544 471.278 112.98C470.986 113.415 470.572 113.754 470.088 113.955C469.604 114.155 469.071 114.207 468.557 114.104C468.044 114.001 467.572 113.748 467.202 113.377C466.832 113.006 466.581 112.533 466.48 112.019C466.378 111.505 466.432 110.972 466.634 110.489C466.835 110.005 467.176 109.592 467.613 109.303C468.049 109.013 468.562 108.859 469.086 108.861C469.433 108.861 469.777 108.929 470.097 109.062C470.418 109.195 470.709 109.391 470.955 109.637C471.2 109.882 471.394 110.174 471.526 110.495C471.658 110.817 471.725 111.161 471.724 111.508Z" stroke="#98A3F4" stroke-linecap="round" stroke-linejoin="round"/>
<path d="M39.3203 124.122V128.352" stroke="#98A3F4" stroke-linecap="round" stroke-linejoin="round"/>
<path d="M39.3203 130.472V134.694" stroke="#98A3F4" stroke-linecap="round" stroke-linejoin="round"/>
<path d="M44.6066 129.408H40.3848" stroke="#98A3F4" stroke-linecap="round" stroke-linejoin="round"/>
<path d="M38.2657 129.408H34.0352" stroke="#98A3F4" stroke-linecap="round" stroke-linejoin="round"/>
<path d="M5.71875 176.817V181.048" stroke="#98A3F4" stroke-linecap="round" stroke-linejoin="round"/>
<path d="M5.71875 183.167V187.398" stroke="#98A3F4" stroke-linecap="round" stroke-linejoin="round"/>
<path d="M11.0051 182.112H6.7832" stroke="#98A3F4" stroke-linecap="round" stroke-linejoin="round"/>
<path d="M4.66216 182.112H0.431641" stroke="#98A3F4" stroke-linecap="round" stroke-linejoin="round"/>
<path d="M5.71847 219.373C5.71847 219.897 5.56299 220.409 5.27171 220.845C4.98043 221.28 4.56646 221.62 4.08223 221.82C3.59799 222.02 3.06525 222.072 2.55149 221.969C2.03772 221.866 1.56604 221.613 1.19615 221.242C0.826261 220.871 0.574815 220.399 0.473647 219.884C0.372479 219.37 0.426138 218.838 0.627834 218.354C0.829531 217.871 1.17019 217.458 1.60668 217.168C2.04316 216.878 2.55584 216.724 3.0798 216.726C3.42867 216.72 3.77514 216.785 4.09851 216.916C4.42188 217.047 4.7155 217.242 4.96182 217.489C5.20814 217.736 5.4021 218.03 5.53211 218.354C5.66211 218.678 5.7255 219.024 5.71847 219.373Z" stroke="#98A3F4" stroke-linecap="round" stroke-linejoin="round"/>
<path d="M7.31027 103.047C7.31027 103.57 7.15501 104.082 6.86411 104.518C6.57322 104.953 6.15977 105.292 5.67604 105.493C5.1923 105.693 4.66001 105.745 4.14648 105.643C3.63295 105.541 3.16124 105.289 2.79101 104.919C2.42077 104.548 2.16864 104.077 2.06649 103.563C1.96435 103.05 2.01677 102.517 2.21714 102.034C2.41751 101.55 2.75683 101.136 3.19218 100.846C3.62753 100.555 4.13936 100.399 4.66295 100.399C5.36506 100.399 6.03842 100.678 6.53489 101.175C7.03136 101.671 7.31027 102.345 7.31027 103.047Z" stroke="#98A3F4" stroke-linecap="round" stroke-linejoin="round"/>
<path d="M74.6267 105.642C74.6284 106.167 74.4743 106.68 74.1841 107.116C73.8939 107.553 73.4805 107.894 72.9964 108.095C72.5123 108.297 71.9793 108.35 71.465 108.248C70.9507 108.146 70.4782 107.894 70.1074 107.523C69.7367 107.152 69.4844 106.68 69.3825 106.165C69.2806 105.651 69.3338 105.118 69.5352 104.634C69.7366 104.15 70.0773 103.736 70.514 103.446C70.9506 103.156 71.4637 103.002 71.988 103.004C72.6871 103.006 73.3569 103.285 73.8513 103.779C74.3456 104.273 74.6244 104.943 74.6267 105.642Z" stroke="#98A3F4" stroke-linecap="round" stroke-linejoin="round"/>
<path d="M347.629 158.346C345.641 161.533 343.999 164.924 342.733 168.46C342.262 168.348 341.77 168.37 341.312 168.523C340.853 168.676 340.446 168.953 340.137 169.325C339.272 170.605 340.777 172.119 340.777 172.119C339.636 174.011 339.184 176.239 339.497 178.426C340.137 181.774 346.686 184.015 346.686 184.015L344.956 187.925C344.956 187.925 348.148 188.721 349.429 190.244L352.941 182.458C352.941 182.458 357.414 182.302 358.366 179.352C359.317 176.402 357.725 172.483 353.979 175.277C353.988 175.355 344.939 167.768 347.629 158.346Z" fill="#E5827C"/>
<path d="M369.309 164.74C370.455 161.154 370.17 157.263 368.513 153.882C365.719 148.294 358.616 147.091 351.591 150.283C351.591 150.283 349.515 145.733 343.45 147.896C337.386 150.058 336.685 159.8 343.303 166.929C344.491 163.958 345.939 161.098 347.629 158.381C344.938 167.802 353.988 175.39 353.988 175.39C357.734 172.595 359.334 176.506 358.374 179.464C357.413 182.423 352.949 182.57 352.949 182.57L351.219 186.351C351.219 186.351 353.572 191.542 360.113 188.946C366.653 186.351 370.494 176.411 370.814 172.016C371.051 169.494 370.526 166.96 369.309 164.74Z" fill="#252E64"/>
<path d="M344.964 187.969C344.964 187.969 341.348 187.891 339.401 190.685C337.455 193.48 327.557 223.889 326 230.36C324.443 236.832 324.962 237.282 324.962 237.282C324.962 237.282 342.265 241.746 349.065 238.398C349.065 238.398 350.423 218.439 350.743 212.054C351.063 205.669 352.906 194.881 349.471 190.261C348.229 189.067 346.66 188.269 344.964 187.969Z" fill="#ECB32B"/>
<path d="M324.928 237.307C324.928 237.307 324.72 237.117 324.928 235.482H324.832C324.832 235.482 317.046 278.834 315.973 281.836C314.901 284.838 307.054 313.846 303.498 323.077C303.498 323.077 308.083 326.979 311.336 326.399C311.336 326.399 322.003 303.992 324.599 295.15C327.194 286.309 326 284.769 326.069 283.523C326.139 282.277 349.03 238.441 349.03 238.441C342.23 241.771 324.928 237.307 324.928 237.307Z" fill="#211D35"/>
<path d="M303.507 323.06C303.507 323.06 294.518 330.734 293.125 332.577H311.596C311.784 330.519 311.635 328.444 311.154 326.434C307.91 326.815 303.507 323.06 303.507 323.06Z" fill="#4358BC"/>
<path d="M349.36 325.569C346.6 327.368 340.847 325.569 340.847 325.569C340.847 325.569 332.974 330.76 331.59 332.542H350.052C350.279 330.195 350.043 327.826 349.36 325.569Z" fill="#4358BC"/>
<path d="M344.965 187.969C344.965 187.969 339.22 186.662 328.467 190.287L317.713 193.886C317.713 193.886 318.457 200.167 323.354 203.403C328.25 206.638 338.165 207.339 339.791 205.211C341.418 203.083 344.965 187.969 344.965 187.969Z" fill="#CC9527"/>
<path d="M356.938 177.673C356.765 177.163 356.454 176.808 356.116 176.808C355.957 176.781 355.793 176.806 355.649 176.878C355.498 176.981 355.367 177.11 355.26 177.258C354.988 177.642 354.742 178.044 354.524 178.461C354.289 178.913 354.029 179.352 353.746 179.776C353.701 179.249 353.754 178.718 353.901 178.21C354.03 177.681 354.259 177.182 354.576 176.739C354.764 176.477 355.018 176.268 355.312 176.134C355.472 176.067 355.644 176.032 355.818 176.032C355.991 176.032 356.163 176.067 356.324 176.134C356.477 176.196 356.614 176.293 356.724 176.416C356.835 176.538 356.917 176.684 356.964 176.843C357.042 177.116 357.033 177.406 356.938 177.673Z" fill="#873548"/>
<path d="M331.123 193.584L283.809 153.398L277.52 160.691L324.834 200.877L331.123 193.584Z" fill="#5416CE"/>
<path d="M344.965 187.969C344.965 187.969 340.216 186.723 335.916 199.345C335.916 199.345 334.584 203.455 333.71 203.853C332.836 204.251 328.917 200.902 322.852 198.186C318.934 196.383 315.192 194.22 311.675 191.723C311.675 191.723 308.88 195.184 308.725 198.108C308.725 198.108 326.763 212.634 333.71 215.913C340.657 219.191 345.528 211.916 347.284 206.327C349.04 200.738 351.532 194.924 350.744 192.952C349.957 190.979 348.954 188.765 344.965 187.969Z" fill="#FFDF9F"/>
<path d="M292.936 173.789C292.616 175.222 292.749 176.718 293.316 178.072L294.268 179.802C294.268 179.802 294.753 183.634 296.864 184.906C298.974 186.178 301.639 186.308 303.958 183.098L301.501 181.004C301.501 181.004 303.404 174.948 302.53 173.01C301.656 171.073 296.941 172.232 295.609 176.012L292.936 173.789Z" fill="#E5827C"/>
<path d="M308.698 198.108C308.698 198.108 302.642 193.782 301.777 192.121C300.912 190.46 301.466 181.03 301.466 181.03L305.791 184.724C305.791 184.724 304.874 182.856 306.232 182.224C307.591 181.593 309.745 183.574 310.463 185.096C310.861 186.26 310.861 187.523 310.463 188.687L311.657 191.723C311.657 191.723 309.918 192.917 308.698 198.108Z" fill="#E5827C"/>
<path d="M346.132 280.331C345.708 279.163 349.031 238.423 349.031 238.423C343.658 241.071 331.728 238.839 326.961 237.783C326.961 237.783 336.019 279.535 336.183 282.727C336.348 285.919 340.509 315.715 340.812 325.569C340.812 325.569 346.565 327.368 349.325 325.569C349.325 325.569 350.389 300.774 349.325 291.621C348.261 282.468 346.565 281.507 346.132 280.331Z" fill="#2B284F"/>
<path d="M257.69 169.091C275.846 169.091 290.565 154.373 290.565 136.216C290.565 118.06 275.846 103.341 257.69 103.341C239.533 103.341 224.814 118.06 224.814 136.216C224.814 154.373 239.533 169.091 257.69 169.091Z" fill="#5416CE"/>
<path d="M257.689 163.546C272.783 163.546 285.019 151.31 285.019 136.216C285.019 121.122 272.783 108.886 257.689 108.886C242.595 108.886 230.359 121.122 230.359 136.216C230.359 151.31 242.595 163.546 257.689 163.546Z" fill="#D2D9FF"/>
<mask id="mask1_1_1587" style="mask-type:luminance" maskUnits="userSpaceOnUse" x="230" y="108" width="56" height="56">
<path d="M257.699 163.546C272.793 163.546 285.029 151.31 285.029 136.216C285.029 121.122 272.793 108.886 257.699 108.886C242.605 108.886 230.369 121.122 230.369 136.216C230.369 151.31 242.605 163.546 257.699 163.546Z" fill="white"/>
</mask>
<g mask="url(#mask1_1_1587)">
<path d="M175.268 112.511L229.641 185.079" stroke="white" stroke-width="5" stroke-linecap="round" stroke-linejoin="round"/>
<path d="M175.268 224.183L379.379 80.7263" stroke="white" stroke-width="5" stroke-linecap="round" stroke-linejoin="round"/>
<path d="M253.666 80.7263L294.976 140.049" stroke="white" stroke-width="5" stroke-linecap="round" stroke-linejoin="round"/>
<path d="M195.113 139.002L262.274 93.0977" stroke="white" stroke-width="5" stroke-linecap="round" stroke-linejoin="round"/>
<path d="M214.328 164.636L280.727 119.597" stroke="white" stroke-width="5" stroke-linecap="round" stroke-linejoin="round"/>
<path d="M237.186 263.512L388.498 148.354" stroke="white" stroke-width="5" stroke-linecap="round" stroke-linejoin="round"/>
</g>
<path d="M244.332 114.96C240.221 117.201 236.948 120.717 235.006 124.978C234.627 125.67 234.519 126.478 234.703 127.245C234.92 127.97 235.402 128.588 236.053 128.975C236.391 129.173 236.767 129.301 237.156 129.352C237.545 129.402 237.941 129.374 238.319 129.269C238.682 129.169 239.022 128.998 239.319 128.767C239.616 128.535 239.864 128.247 240.049 127.919C240.671 126.517 241.461 125.195 242.403 123.983C242.247 124.173 242.1 124.372 241.944 124.571C242.922 123.328 244.046 122.207 245.292 121.232L244.695 121.69C245.514 121.062 246.382 120.501 247.291 120.012C247.959 119.614 248.444 118.969 248.641 118.217C248.839 117.464 248.733 116.664 248.346 115.989C247.94 115.33 247.295 114.852 246.546 114.655C245.797 114.459 245.001 114.558 244.323 114.934L244.332 114.96Z" fill="white"/>
<path d="M256.955 114.752C256.955 115.394 256.765 116.021 256.409 116.554C256.052 117.088 255.545 117.504 254.953 117.749C254.36 117.995 253.707 118.059 253.078 117.934C252.449 117.809 251.871 117.5 251.417 117.046C250.963 116.592 250.654 116.014 250.529 115.385C250.404 114.756 250.468 114.103 250.714 113.511C250.959 112.918 251.375 112.411 251.909 112.055C252.442 111.698 253.069 111.508 253.711 111.508C254.571 111.508 255.397 111.85 256.005 112.458C256.614 113.066 256.955 113.892 256.955 114.752Z" fill="white"/>
</g>
<defs>
<linearGradient id="paint0_linear_1_1587" x1="237.715" y1="30.3313" x2="237.715" y2="310.844" gradientUnits="userSpaceOnUse">
<stop stop-color="#E9EEF7"/>
<stop offset="1" stop-color="#E9EEF7" stop-opacity="0"/>
</linearGradient>
<linearGradient id="paint1_linear_1_1587" x1="305.031" y1="103.246" x2="138.924" y2="233.276" gradientUnits="userSpaceOnUse">
<stop stop-color="white" stop-opacity="0.7"/>
<stop offset="1" stop-color="white" stop-opacity="0"/>
</linearGradient>
<clipPath id="clip0_1_1587">
<rect width="508" height="331.875" fill="white" transform="translate(0 0.666504)"/>
</clipPath>
</defs>
</svg>
