<svg width="508" height="301" viewBox="0 0 508 301" fill="none" xmlns="http://www.w3.org/2000/svg">
<g clip-path="url(#clip0_13_50238)">
<path d="M235.98 42.1391C252.642 50.956 273.096 48.5016 291.116 42.9572C309.137 37.4129 326.448 29.0196 345.112 26.3972C363.775 23.7748 385.15 28.406 395.892 43.9288C412.641 68.0347 396.389 105.596 414.965 128.358C427.483 143.698 450.355 145.225 466.768 156.321C485.833 169.199 493.974 194.218 491.57 217.089C489.166 239.961 477.81 260.714 464.598 279.706H286.505L235.98 42.1391Z" fill="url(#paint0_linear_13_50238)"/>
<path d="M65.0315 280.706C49.3384 263.644 37.7973 243.194 31.3064 220.947C28.0078 209.524 26.011 197.473 27.4592 185.671C28.9074 173.868 33.9614 162.211 42.9284 154.391C51.6394 146.798 63.2907 143.247 71.9871 135.639C92.0422 118.099 89.731 86.4764 101.368 62.5202C109.413 45.9964 124.29 33.3386 141.185 26.1181C158.081 18.8976 176.87 16.8221 195.214 18.0279C221.991 19.7819 248.892 28.8148 268.749 46.8514C289.441 65.6481 301.078 92.323 311.325 118.326C329.332 164.024 345.518 211.41 346.98 260.514V279.771L65.0315 280.706Z" fill="url(#paint1_linear_13_50238)"/>
<path fill-rule="evenodd" clip-rule="evenodd" d="M253.998 273C380.471 273 483 277.477 483 283C483 288.523 380.471 293 253.998 293C127.524 293 25 288.523 25 283C25 277.477 127.524 273 253.998 273Z" fill="#D1DEED"/>
<path d="M420.701 128.987C409.07 134.652 398.582 142.372 389.751 151.769C389.343 152.18 389.081 152.711 389.004 153.283C388.927 153.854 389.04 154.435 389.325 154.937C389.271 155.251 389.28 155.573 389.352 155.884C389.423 156.194 389.557 156.488 389.743 156.747C396.116 166.47 405.328 174.039 416.152 178.446C417.884 179.173 420.554 178.381 420.334 176.055C420.169 173.884 419.659 171.753 418.823 169.74C425.03 171.603 431.427 172.778 437.896 173.243C440.097 173.41 441.219 170.852 440.339 169.122C439.95 168.359 437.735 164.384 437.287 163.738C441.931 163.738 465.163 168.766 467.181 166.906C469.198 165.046 460.417 156.638 460.417 156.638C460.417 156.638 481.405 155.984 487.956 153.731C488.54 153.561 489.053 153.209 489.418 152.726C489.783 152.243 489.98 151.656 489.98 151.053C489.98 150.45 489.783 149.863 489.418 149.38C489.053 148.898 488.54 148.545 487.956 148.375C479.461 145.638 470.701 143.787 461.818 142.853C463.039 141.302 464.011 139.574 464.701 137.729C465.537 135.549 463.124 134.096 461.297 134.343C455.827 135.02 450.427 136.167 445.158 137.773L447.051 134.496C448.32 132.315 446.215 130.07 443.926 130.441C436.927 131.555 430.206 133.977 424.119 137.577L424.853 131.414C425.146 129.198 422.381 128.166 420.701 128.987Z" fill="#5416CE"/>
<path d="M464.98 150.958C441.949 150.211 418.897 151.129 395.98 153.707" stroke="#FFC0AD" stroke-width="1.65" stroke-miterlimit="10" stroke-linecap="round"/>
<path d="M400.98 152.707C404.582 148.049 408.976 143.993 413.98 140.707" stroke="#FFC0AD" stroke-width="1.65" stroke-miterlimit="10" stroke-linecap="round"/>
<path d="M400.98 152.707C403.225 156.732 405.913 160.428 408.98 163.707" stroke="#FFC0AD" stroke-width="1.65" stroke-miterlimit="10" stroke-linecap="round"/>
<path d="M416.98 152.707C419.917 156.372 423.27 159.725 426.98 162.707" stroke="#FFC0AD" stroke-width="1.65" stroke-miterlimit="10" stroke-linecap="round"/>
<path d="M424.98 150.707C427.318 146.818 430.374 143.422 433.98 140.707" stroke="#FFC0AD" stroke-width="1.65" stroke-miterlimit="10" stroke-linecap="round"/>
<path d="M439.98 150.707C443.914 154.767 448.704 157.846 453.98 159.707" stroke="#FFC0AD" stroke-width="1.65" stroke-miterlimit="10" stroke-linecap="round"/>
<path d="M444.98 150.707C447.501 147.834 451.358 144.186 454.98 142.707" stroke="#FFC0AD" stroke-width="1.65" stroke-miterlimit="10" stroke-linecap="round"/>
<path d="M425.739 115.05C428.669 113.611 431.423 111.839 433.948 109.77C435.616 108.399 437.328 106.451 436.826 104.351C436.593 103.628 436.171 102.982 435.604 102.479C435.036 101.976 434.343 101.635 433.599 101.492C432.142 101.135 429.709 102.557 428.5 99.4206C427.291 96.2846 434.109 93.2214 436.607 89.0789C437.333 88.0637 437.803 86.8876 437.976 85.6511C438.042 84.4113 437.299 83.0329 436.068 82.8359C434.837 82.639 433.883 83.4923 432.739 83.5653C430.773 83.6674 429.432 81.3773 429.52 79.4373C429.607 77.4973 430.612 75.6813 431.159 73.7924C432.47 69.3144 431.596 62.5755 427.517 61.022C423.438 59.4686 418.324 63.9393 416.328 68.1548C415.491 69.9343 415.054 71.9399 413.815 73.4715C412.577 75.003 410.071 75.7907 408.673 74.4123C407.85 73.6101 407.617 72.2827 406.655 71.6628C405.694 71.0429 404.135 71.5315 403.363 72.5088C402.669 73.5465 402.239 74.7382 402.11 75.9803C401.228 80.7355 405.934 92.3754 403.21 93.484C400.485 94.5926 397.441 87.963 396.108 87.2556C395.457 86.8707 394.715 86.6676 393.959 86.6676C393.203 86.6676 392.461 86.8707 391.81 87.2556C390.033 88.4882 390.026 91.0845 390.353 93.2214C390.866 96.4458 391.748 99.6003 392.983 102.622C393.588 103.8 393.938 105.092 394.01 106.415C393.966 107.728 393.078 109.135 391.766 109.245C389.72 109.42 388.642 106.685 386.668 106.028C384.963 105.459 383.077 106.758 382.399 108.435C381.722 110.112 381.984 111.994 382.363 113.759C384.592 124.093 390.798 133.05 396.865 141.707C407.143 139.271 417.734 136.689 426.256 130.439C427.713 129.374 429.17 128.127 429.76 126.427C430.35 124.728 429.818 122.496 428.165 121.796C426.271 120.987 423.656 122.321 422.243 120.826C421.332 119.871 421.602 118.23 422.44 117.216C423.375 116.269 424.499 115.531 425.739 115.05Z" fill="#5DB18C"/>
<path d="M419.98 84.7065C411.632 109.167 401.264 132.913 388.98 155.707" stroke="#FFC366" stroke-width="1.08" stroke-miterlimit="10" stroke-linecap="round"/>
<path d="M399.98 133.707C396.459 128.833 393.757 123.43 391.98 117.707" stroke="#FFC366" stroke-width="1.08" stroke-miterlimit="10" stroke-linecap="round"/>
<path d="M407.98 115.707C404.609 110.749 402.534 104.87 401.98 98.7065" stroke="#FFC366" stroke-width="1.08" stroke-miterlimit="10" stroke-linecap="round"/>
<path d="M413.98 99.7065C411.936 96.0322 410.577 91.9544 409.98 87.7065" stroke="#FFC366" stroke-width="1.08" stroke-miterlimit="10" stroke-linecap="round"/>
<path d="M399.98 133.707C405.867 133.151 411.608 131.8 416.98 129.707" stroke="#FFC366" stroke-width="1.08" stroke-miterlimit="10" stroke-linecap="round"/>
<path d="M407.98 115.707C413.273 114.796 418.363 112.76 422.98 109.707" stroke="#FFC366" stroke-width="1.08" stroke-miterlimit="10" stroke-linecap="round"/>
<path d="M413.98 99.7065C418.524 98.772 422.684 96.692 425.98 93.7065" stroke="#FFC366" stroke-width="1.08" stroke-miterlimit="10" stroke-linecap="round"/>
<path d="M79.0274 152.839C77.9135 154.604 76.807 156.376 75.7004 158.14C73.316 151.448 69.6971 145.273 65.0353 139.943C63.5211 138.193 60.4926 138.597 60.0631 141.119L59.4225 144.884C56.4045 140.274 52.9943 135.939 49.2306 131.929C47.9784 130.59 45.212 130.186 44.4695 132.414C43.8243 134.294 43.4707 136.263 43.4212 138.252C36.0139 133.328 28.1186 129.198 19.8633 125.929C19.3066 125.691 18.6887 125.643 18.1022 125.79C17.5157 125.937 16.9923 126.272 16.6102 126.745C16.2281 127.218 16.008 127.803 15.9829 128.413C15.9578 129.022 16.129 129.624 16.4708 130.127C20.0598 136.031 35.7335 149.898 35.7335 149.898C35.7335 149.898 23.6197 150.861 24.0128 153.618C24.4059 156.376 45.4013 167.199 48.9466 170.176C48.2186 170.397 43.9599 172.095 43.1809 172.441C41.4046 173.235 40.6329 175.941 42.4529 177.22C47.7003 180.986 53.3453 184.152 59.2842 186.661C57.3643 187.706 55.6179 189.048 54.1081 190.638C52.4847 192.329 54.0135 194.616 55.7898 195.168C66.8871 198.607 78.7587 198.551 89.8235 195.006C90.1309 194.923 90.4184 194.778 90.6687 194.579C90.919 194.381 91.1268 194.133 91.2795 193.851C91.8198 193.644 92.2777 193.264 92.5829 192.768C92.8881 192.273 93.0235 191.69 92.9685 191.109C92.1823 178.146 89.0564 165.438 83.7448 153.611C82.9731 151.854 80.2213 150.898 79.0274 152.839Z" fill="#5416CE"/>
<path d="M34.9805 142.707C53.3294 156.857 70.702 172.225 86.9805 188.707" stroke="#FFC0AD" stroke-width="1.65" stroke-miterlimit="10" stroke-linecap="round"/>
<path d="M83.902 184.707C84.2199 178.636 83.5705 172.553 81.9805 166.707" stroke="#FFC0AD" stroke-width="1.65" stroke-miterlimit="10" stroke-linecap="round"/>
<path d="M83.9805 184.707C79.4516 186.321 74.748 187.329 69.9805 187.707" stroke="#FFC0AD" stroke-width="1.65" stroke-miterlimit="10" stroke-linecap="round"/>
<path d="M71.9805 174.707C67.0657 175.934 62.036 176.605 56.9805 176.707" stroke="#FFC0AD" stroke-width="1.65" stroke-miterlimit="10" stroke-linecap="round"/>
<path d="M65.6655 167.707C66.2512 163.368 66.0186 158.954 64.9805 154.707" stroke="#FFC0AD" stroke-width="1.65" stroke-miterlimit="10" stroke-linecap="round"/>
<path d="M53.9805 158.547C48.8983 159.034 43.7663 158.404 38.9805 156.707" stroke="#FFC0AD" stroke-width="1.65" stroke-miterlimit="10" stroke-linecap="round"/>
<path d="M50.9805 154.707C50.9805 151.022 50.4979 145.975 48.9805 142.707" stroke="#FFC0AD" stroke-width="1.65" stroke-miterlimit="10" stroke-linecap="round"/>
<path d="M61.2508 116.721C58.3247 115.262 55.5729 113.468 53.049 111.375C51.3809 109.987 49.6619 108.016 50.1354 105.89C50.3676 105.16 50.7889 104.506 51.3551 103.997C51.9214 103.488 52.612 103.142 53.3549 102.995C54.8117 102.634 57.2519 104.073 58.4537 100.899C59.6556 97.7238 52.845 94.6229 50.3539 90.4292C49.6248 89.4031 49.1546 88.2117 48.9845 86.9591C48.9189 85.7039 49.6619 84.3085 50.8856 84.1091C52.1093 83.9098 53.0708 84.7736 54.2217 84.8475C56.1811 84.9508 57.5286 82.6325 57.4412 80.6686C57.3538 78.7046 56.3486 76.8662 55.7951 74.9539C54.4912 70.4206 55.3653 63.5985 59.4371 62.0259C63.5088 60.4533 68.6368 64.9792 70.6326 69.2467C71.4703 71.0482 71.9073 73.0786 73.1456 74.6291C74.3839 76.1795 76.8896 76.9769 78.2881 75.5815C79.1112 74.7694 79.337 73.4256 80.3058 72.798C81.2746 72.1705 82.8261 72.6651 83.5982 73.6545C84.292 74.705 84.7221 75.9115 84.8511 77.1689C85.7324 81.9828 81.0269 93.7664 83.7512 94.8886C86.4754 96.0109 89.5128 89.2996 90.8458 88.5834C91.498 88.1938 92.2412 87.9883 92.9982 87.9883C93.7553 87.9883 94.4985 88.1938 95.1507 88.5834C96.928 89.8311 96.9353 92.4596 96.6075 94.6229C96.0947 97.8871 95.2123 101.08 93.9779 104.14C93.373 105.332 93.023 106.64 92.9509 107.979C92.9946 109.308 93.8833 110.733 95.1944 110.844C97.2412 111.021 98.3192 108.252 100.293 107.588C102.005 107.012 103.892 108.326 104.562 110.024C105.232 111.722 104.984 113.627 104.605 115.414C102.376 125.876 96.1704 134.943 90.1028 143.707C79.8251 141.241 69.2341 138.627 60.7118 132.299C59.255 131.221 57.7982 129.959 57.2082 128.239C56.6181 126.518 57.1499 124.259 58.8034 123.55C60.6972 122.731 63.3122 124.082 64.7253 122.568C65.6358 121.601 65.3663 119.94 64.5213 118.914C63.5974 117.955 62.4824 117.208 61.2508 116.721Z" fill="#5DB18C"/>
<path d="M66.9805 86.7065C75.3254 111.169 85.6936 134.915 97.9805 157.707" stroke="#FFC366" stroke-width="1.08" stroke-miterlimit="10" stroke-linecap="round"/>
<path d="M86.9805 135.707C90.5058 130.526 93.2072 124.786 94.9805 118.707" stroke="#FFC366" stroke-width="1.08" stroke-miterlimit="10" stroke-linecap="round"/>
<path d="M78.9805 116.707C82.346 112.038 84.4203 106.506 84.9805 100.707" stroke="#FFC366" stroke-width="1.08" stroke-miterlimit="10" stroke-linecap="round"/>
<path d="M72.9805 101.707C75.026 97.728 76.3854 93.3097 76.9805 88.7065" stroke="#FFC366" stroke-width="1.08" stroke-miterlimit="10" stroke-linecap="round"/>
<path d="M86.9805 135.707C81.0938 135.013 75.353 133.324 69.9805 130.707" stroke="#FFC366" stroke-width="1.08" stroke-miterlimit="10" stroke-linecap="round"/>
<path d="M78.9805 116.707C73.3352 115.95 67.9052 114.253 62.9805 111.707" stroke="#FFC366" stroke-width="1.08" stroke-miterlimit="10" stroke-linecap="round"/>
<path d="M71.9805 101.707C67.8148 100.618 64.0012 98.1911 60.9805 94.7065" stroke="#FFC366" stroke-width="1.08" stroke-miterlimit="10" stroke-linecap="round"/>
<path d="M356.966 55.317C356.908 50.9771 356.871 47.8449 353.885 45.2395C353.065 44.5226 352.113 43.9746 351.082 43.627C350.051 43.2794 348.962 43.139 347.877 43.2138C346.791 43.2885 345.732 43.577 344.758 44.0628C343.784 44.5485 342.915 45.222 342.202 46.0445C340.427 48.0864 340.347 50.216 340.347 53.2166C340.391 54.0728 340.464 56.4879 340.391 63.821C340.345 66.5256 339.233 69.1022 337.299 70.9887C335.365 72.8752 332.765 73.9185 330.066 73.8911H323.531V20.9277C323.531 16.0171 319.537 11.7139 314.63 11.7066C309.723 11.6992 306.006 16.0171 306.006 20.9277V56.3269H301.903C299.164 56.2682 296.555 55.1441 294.628 53.1924C292.701 51.2407 291.607 48.6144 291.578 45.8689C291.497 38.5505 291.578 35.8427 291.621 34.9937C291.621 31.9859 291.534 29.805 289.752 27.7558C289.039 26.9327 288.171 26.2587 287.197 25.7723C286.224 25.2859 285.164 24.9967 284.079 24.9212C282.994 24.8458 281.904 24.9856 280.873 25.3326C279.842 25.6796 278.889 26.227 278.069 26.9435C275.097 29.5415 275.061 32.6665 275.002 36.999C274.973 39.1408 274.973 42.0682 275.002 45.7811C275.093 52.8745 277.966 59.6472 283 64.6339C288.034 69.6205 294.825 72.4203 301.903 72.4274H306.006V131.707H323.531V90.7234H330.066C337.134 90.7069 343.912 87.9074 348.94 82.9284C353.968 77.9494 356.843 71.1897 356.944 64.1064C356.988 60.3959 356.988 57.4613 356.966 55.317Z" fill="#5DB18C"/>
<path d="M280.98 42.7065L282.98 41.7065" stroke="#FFC366" stroke-width="1.08" stroke-miterlimit="10" stroke-linecap="round"/>
<path d="M281.98 30.7065L282.98 32.7065" stroke="#FFC366" stroke-width="1.08" stroke-miterlimit="10" stroke-linecap="round"/>
<path d="M286.98 50.7065L284.98 53.7065" stroke="#FFC366" stroke-width="1.08" stroke-miterlimit="10" stroke-linecap="round"/>
<path d="M298.98 64.7065L300.98 65.7065" stroke="#FFC366" stroke-width="1.08" stroke-miterlimit="10" stroke-linecap="round"/>
<path d="M290.98 60.7065L288.98 62.7065" stroke="#FFC366" stroke-width="1.08" stroke-miterlimit="10" stroke-linecap="round"/>
<path d="M310.98 23.7065L312.98 25.7065" stroke="#FFC366" stroke-width="1.08" stroke-miterlimit="10" stroke-linecap="round"/>
<path d="M319.98 19.7065L318.98 20.7065" stroke="#FFC366" stroke-width="1.08" stroke-miterlimit="10" stroke-linecap="round"/>
<path d="M318.98 36.7065L316.98 39.7065" stroke="#FFC366" stroke-width="1.08" stroke-miterlimit="10" stroke-linecap="round"/>
<path d="M310.98 36.7065L312.98 37.7065" stroke="#FFC366" stroke-width="1.08" stroke-miterlimit="10" stroke-linecap="round"/>
<path d="M309.98 60.7065L312.98 62.7065" stroke="#FFC366" stroke-width="1.08" stroke-miterlimit="10" stroke-linecap="round"/>
<path d="M318.98 55.7065L316.98 57.7065" stroke="#FFC366" stroke-width="1.08" stroke-miterlimit="10" stroke-linecap="round"/>
<path d="M313.98 46.7065V49.7065" stroke="#FFC366" stroke-width="1.08" stroke-miterlimit="10" stroke-linecap="round"/>
<path d="M310.98 75.7065L312.98 78.7065" stroke="#FFC366" stroke-width="1.08" stroke-miterlimit="10" stroke-linecap="round"/>
<path d="M318.98 82.7065L317.98 85.7065" stroke="#FFC366" stroke-width="1.08" stroke-miterlimit="10" stroke-linecap="round"/>
<path d="M310.98 94.7065L311.98 96.7065" stroke="#FFC366" stroke-width="1.08" stroke-miterlimit="10" stroke-linecap="round"/>
<path d="M318.98 101.707L316.98 104.707" stroke="#FFC366" stroke-width="1.08" stroke-miterlimit="10" stroke-linecap="round"/>
<path d="M310.98 112.707L311.98 114.707" stroke="#FFC366" stroke-width="1.08" stroke-miterlimit="10" stroke-linecap="round"/>
<path d="M317.98 122.707L316.98 125.707" stroke="#FFC366" stroke-width="1.08" stroke-miterlimit="10" stroke-linecap="round"/>
<path d="M330.98 80.7065L331.98 83.7065" stroke="#FFC366" stroke-width="1.08" stroke-miterlimit="10" stroke-linecap="round"/>
<path d="M341.98 82.7065L339.98 84.7065" stroke="#FFC366" stroke-width="1.08" stroke-miterlimit="10" stroke-linecap="round"/>
<path d="M345.98 68.7065L343.98 70.7065" stroke="#FFC366" stroke-width="1.08" stroke-miterlimit="10" stroke-linecap="round"/>
<path d="M346.98 48.7065L349.98 50.7065" stroke="#FFC366" stroke-width="1.08" stroke-miterlimit="10" stroke-linecap="round"/>
<path d="M353.98 61.7065L351.98 65.7065" stroke="#FFC366" stroke-width="1.08" stroke-miterlimit="10" stroke-linecap="round"/>
<path d="M381.98 280.707H124.98V90.4601L253.48 84.7065L381.98 90.4601V280.707Z" fill="white"/>
<path d="M381.98 69.7065H124.98V89.7065H381.98V69.7065Z" fill="#91BAEE"/>
<path d="M238.465 81.7065L215.329 81.6258L208.98 57.4007C208.98 55.837 211.791 54.7065 211.791 54.7065L242.185 54.8167L244.98 57.5255L238.465 81.7065Z" fill="white"/>
<path d="M214.98 54.7085H211.632C211.3 54.6947 210.969 54.7542 210.658 54.8834C210.347 55.0126 210.063 55.209 209.822 55.4609C209.581 55.7128 209.388 56.0153 209.255 56.3503C209.122 56.6854 209.052 57.0464 209.047 57.412L208.981 78.8557C208.979 79.2288 209.044 79.5986 209.172 79.9439C209.301 80.2892 209.49 80.6032 209.728 80.8681C209.967 81.1329 210.251 81.3433 210.564 81.4871C210.877 81.631 211.213 81.7056 211.552 81.7065H214.9L214.98 54.7085Z" fill="#CE4A16"/>
<path d="M239.067 54.7065H242.412L244.98 57.4257L244.914 78.8768C244.913 79.25 244.845 79.6193 244.714 79.9637C244.584 80.308 244.393 80.6205 244.152 80.8834C243.912 81.1462 243.627 81.3542 243.313 81.4955C242.999 81.6367 242.664 81.7084 242.325 81.7065H238.98L239.067 54.7065Z" fill="#CE4A16"/>
<path opacity="0.2" d="M208.98 57.7065L244.98 57.8309L244.973 58.6649L226.926 73.7065L208.98 58.4089V57.7065Z" fill="#454C53"/>
<path d="M208.98 57.3651C208.98 55.8137 214.673 54.7065 214.673 54.7065L239.302 54.7867C239.302 54.7867 244.98 55.9375 244.98 57.4889L226.933 71.7065L208.98 57.3651Z" fill="white"/>
<path d="M242.278 54.7449H239.365L226.987 65.3607L214.609 54.7065H211.696C210.24 55.0059 208.988 56.0805 208.98 57.7155L226.936 72.7065L244.979 57.9074C245.003 57.1145 244.736 56.3423 244.232 55.7527C243.729 55.1632 243.028 54.802 242.278 54.7449Z" fill="#CE4A16"/>
<mask id="mask0_13_50238" style="mask-type:luminance" maskUnits="userSpaceOnUse" x="282" y="215" width="75" height="33">
<path d="M356.985 215.724H282.402V247.976H356.985V215.724Z" fill="white"/>
</mask>
<g mask="url(#mask0_13_50238)">
<path d="M269.516 220.675L396.689 194.405" stroke="#FFC0AD" stroke-width="0.75" stroke-miterlimit="10"/>
<path d="M269.516 224.01L396.689 197.74" stroke="#FFC0AD" stroke-width="0.75" stroke-miterlimit="10"/>
<path d="M269.516 227.352L396.689 201.082" stroke="#FFC0AD" stroke-width="0.75" stroke-miterlimit="10"/>
<path d="M269.516 230.687L396.689 204.417" stroke="#FFC0AD" stroke-width="0.75" stroke-miterlimit="10"/>
<path d="M269.516 234.029L396.689 207.759" stroke="#FFC0AD" stroke-width="0.75" stroke-miterlimit="10"/>
<path d="M269.516 237.364L396.689 211.094" stroke="#FFC0AD" stroke-width="0.75" stroke-miterlimit="10"/>
<path d="M269.516 240.706L396.689 214.429" stroke="#FFC0AD" stroke-width="0.75" stroke-miterlimit="10"/>
<path d="M269.516 244.041L396.689 217.771" stroke="#FFC0AD" stroke-width="0.75" stroke-miterlimit="10"/>
<path d="M269.516 247.376L396.689 221.106" stroke="#FFC0AD" stroke-width="0.75" stroke-miterlimit="10"/>
<path d="M269.516 250.718L396.689 224.448" stroke="#FFC0AD" stroke-width="0.75" stroke-miterlimit="10"/>
<path d="M269.516 254.053L396.689 227.783" stroke="#FFC0AD" stroke-width="0.75" stroke-miterlimit="10"/>
<path d="M269.516 257.396L396.689 231.126" stroke="#FFC0AD" stroke-width="0.75" stroke-miterlimit="10"/>
<path d="M269.516 260.73L396.689 234.46" stroke="#FFC0AD" stroke-width="0.75" stroke-miterlimit="10"/>
<path d="M269.516 264.073L396.689 237.795" stroke="#FFC0AD" stroke-width="0.75" stroke-miterlimit="10"/>
<path d="M269.516 267.408L396.689 241.138" stroke="#FFC0AD" stroke-width="0.75" stroke-miterlimit="10"/>
<path d="M269.516 270.743L396.689 244.473" stroke="#FFC0AD" stroke-width="0.75" stroke-miterlimit="10"/>
<path d="M269.516 274.085L396.689 247.815" stroke="#FFC0AD" stroke-width="0.75" stroke-miterlimit="10"/>
</g>
<path d="M281.98 208.707H356.98V202.707H281.98V208.707Z" fill="#FFE79F"/>
<path d="M142.98 80.2065C142.98 80.8988 142.775 81.5755 142.391 82.151C142.006 82.7266 141.459 83.1752 140.82 83.4401C140.18 83.705 139.477 83.7743 138.798 83.6393C138.119 83.5042 137.495 83.1709 137.006 82.6814C136.516 82.1919 136.183 81.5683 136.048 80.8894C135.913 80.2104 135.982 79.5067 136.247 78.8671C136.512 78.2276 136.96 77.681 137.536 77.2964C138.112 76.9118 138.788 76.7065 139.48 76.7065C140.409 76.7065 141.299 77.0753 141.955 77.7317C142.612 78.388 142.98 79.2783 142.98 80.2065Z" fill="white"/>
<path d="M154.98 80.2065C154.98 80.8988 154.775 81.5755 154.391 82.151C154.006 82.7266 153.459 83.1752 152.82 83.4401C152.18 83.705 151.477 83.7743 150.798 83.6393C150.119 83.5042 149.495 83.1709 149.006 82.6814C148.516 82.1919 148.183 81.5683 148.048 80.8894C147.913 80.2104 147.982 79.5067 148.247 78.8671C148.512 78.2276 148.96 77.681 149.536 77.2964C150.112 76.9118 150.788 76.7065 151.48 76.7065C152.409 76.7065 153.299 77.0753 153.955 77.7317C154.612 78.388 154.98 79.2783 154.98 80.2065Z" fill="white"/>
<path d="M166.98 80.2067C166.98 80.9004 166.774 81.5785 166.388 82.1548C166.002 82.7311 165.453 83.1797 164.812 83.4435C164.17 83.7074 163.465 83.7746 162.785 83.6367C162.105 83.4988 161.481 83.1619 160.993 82.669C160.505 82.176 160.175 81.549 160.044 80.8678C159.912 80.1866 159.987 79.4818 160.257 78.8429C160.527 78.204 160.981 77.6598 161.562 77.2795C162.142 76.8991 162.822 76.6998 163.515 76.7067C164.438 76.7159 165.319 77.0888 165.968 77.7441C166.617 78.3995 166.981 79.2845 166.98 80.2067Z" fill="white"/>
<mask id="mask1_13_50238" style="mask-type:luminance" maskUnits="userSpaceOnUse" x="151" y="179" width="76" height="15">
<path d="M226.03 179.822H151.447V193.154H226.03V179.822Z" fill="white"/>
</mask>
<g mask="url(#mask1_13_50238)">
<path d="M138.555 184.773L265.729 158.503" stroke="#91BAEE" stroke-width="0.75" stroke-miterlimit="10"/>
<path d="M138.555 188.108L265.729 161.838" stroke="#91BAEE" stroke-width="0.75" stroke-miterlimit="10"/>
<path d="M138.555 191.45L265.729 165.18" stroke="#91BAEE" stroke-width="0.75" stroke-miterlimit="10"/>
<path d="M138.555 194.785L265.729 168.515" stroke="#91BAEE" stroke-width="0.75" stroke-miterlimit="10"/>
<path d="M138.555 198.12L265.729 171.85" stroke="#91BAEE" stroke-width="0.75" stroke-miterlimit="10"/>
<path d="M138.555 201.462L265.729 175.192" stroke="#91BAEE" stroke-width="0.75" stroke-miterlimit="10"/>
<path d="M138.555 204.797L265.729 178.527" stroke="#91BAEE" stroke-width="0.75" stroke-miterlimit="10"/>
<path d="M138.555 208.14L265.729 181.87" stroke="#91BAEE" stroke-width="0.75" stroke-miterlimit="10"/>
<path d="M138.555 211.474L265.729 185.204" stroke="#91BAEE" stroke-width="0.75" stroke-miterlimit="10"/>
<path d="M138.555 214.817L265.729 188.54" stroke="#91BAEE" stroke-width="0.75" stroke-miterlimit="10"/>
<path d="M138.555 218.152L265.729 191.882" stroke="#91BAEE" stroke-width="0.75" stroke-miterlimit="10"/>
</g>
<path d="M150.98 172.707H225.98V166.707H150.98V172.707Z" fill="#91BAEE"/>
<mask id="mask2_13_50238" style="mask-type:luminance" maskUnits="userSpaceOnUse" x="151" y="122" width="76" height="14">
<path d="M226.03 122.016H151.447V135.349H226.03V122.016Z" fill="white"/>
</mask>
<g mask="url(#mask2_13_50238)">
<path d="M138.555 126.967L265.729 100.697" stroke="#FF9F89" stroke-width="0.75" stroke-miterlimit="10"/>
<path d="M138.555 130.31L265.729 104.04" stroke="#FF9F89" stroke-width="0.75" stroke-miterlimit="10"/>
<path d="M138.555 133.644L265.729 107.375" stroke="#FF9F89" stroke-width="0.75" stroke-miterlimit="10"/>
<path d="M138.555 136.987L265.729 110.709" stroke="#FF9F89" stroke-width="0.75" stroke-miterlimit="10"/>
<path d="M138.555 140.322L265.729 114.052" stroke="#FF9F89" stroke-width="0.75" stroke-miterlimit="10"/>
<path d="M138.555 143.657L265.729 117.387" stroke="#FF9F89" stroke-width="0.75" stroke-miterlimit="10"/>
<path d="M138.555 146.999L265.729 120.729" stroke="#FF9F89" stroke-width="0.75" stroke-miterlimit="10"/>
<path d="M138.555 150.334L265.729 124.064" stroke="#FF9F89" stroke-width="0.75" stroke-miterlimit="10"/>
<path d="M138.555 153.676L265.729 127.406" stroke="#FF9F89" stroke-width="0.75" stroke-miterlimit="10"/>
<path d="M138.555 157.011L265.729 130.741" stroke="#FF9F89" stroke-width="0.75" stroke-miterlimit="10"/>
<path d="M138.555 160.353L265.729 134.076" stroke="#FF9F89" stroke-width="0.75" stroke-miterlimit="10"/>
</g>
<path d="M150.98 114.707L225.98 114.707V108.707L150.98 108.707V114.707Z" fill="#FFE79F"/>
<path d="M252.98 108.707L356.98 108.707V103.707L252.98 103.707V108.707Z" fill="#FFC0AD"/>
<mask id="mask3_13_50238" style="mask-type:luminance" maskUnits="userSpaceOnUse" x="253" y="127" width="61" height="54">
<path d="M313.845 127.318H253.15V180.495H313.845V127.318Z" fill="white"/>
</mask>
<g mask="url(#mask3_13_50238)">
<path d="M240.264 130.807L367.438 104.537" stroke="#FFC366" stroke-width="0.75" stroke-miterlimit="10"/>
<path d="M240.264 134.149L367.438 107.879" stroke="#FFC366" stroke-width="0.75" stroke-miterlimit="10"/>
<path d="M240.264 137.484L367.438 111.214" stroke="#FFC366" stroke-width="0.75" stroke-miterlimit="10"/>
<path d="M240.264 140.827L367.438 114.549" stroke="#FFC366" stroke-width="0.75" stroke-miterlimit="10"/>
<path d="M240.264 144.162L367.438 117.892" stroke="#FFC366" stroke-width="0.75" stroke-miterlimit="10"/>
<path d="M240.264 147.497L367.438 121.227" stroke="#FFC366" stroke-width="0.75" stroke-miterlimit="10"/>
<path d="M240.264 150.839L367.438 124.569" stroke="#FFC366" stroke-width="0.75" stroke-miterlimit="10"/>
<path d="M240.264 154.174L367.438 127.904" stroke="#FFC366" stroke-width="0.75" stroke-miterlimit="10"/>
<path d="M240.264 157.516L367.438 131.246" stroke="#FFC366" stroke-width="0.75" stroke-miterlimit="10"/>
<path d="M240.264 160.851L367.438 134.581" stroke="#FFC366" stroke-width="0.75" stroke-miterlimit="10"/>
<path d="M240.264 164.193L367.438 137.916" stroke="#FFC366" stroke-width="0.75" stroke-miterlimit="10"/>
<path d="M240.264 167.528L367.438 141.258" stroke="#FFC366" stroke-width="0.75" stroke-miterlimit="10"/>
<path d="M240.264 170.863L367.438 144.593" stroke="#FFC366" stroke-width="0.75" stroke-miterlimit="10"/>
<path d="M240.264 174.205L367.438 147.935" stroke="#FFC366" stroke-width="0.75" stroke-miterlimit="10"/>
<path d="M240.264 177.54L367.438 151.27" stroke="#FFC366" stroke-width="0.75" stroke-miterlimit="10"/>
<path d="M240.264 180.883L367.438 154.613" stroke="#FFC366" stroke-width="0.75" stroke-miterlimit="10"/>
<path d="M240.264 184.247L367.438 157.977" stroke="#FFC366" stroke-width="0.75" stroke-miterlimit="10"/>
<path d="M240.264 187.611L367.438 161.341" stroke="#FFC366" stroke-width="0.75" stroke-miterlimit="10"/>
<path d="M240.264 190.975L367.438 164.705" stroke="#FFC366" stroke-width="0.75" stroke-miterlimit="10"/>
<path d="M240.264 194.339L367.438 168.069" stroke="#FFC366" stroke-width="0.75" stroke-miterlimit="10"/>
</g>
<mask id="mask4_13_50238" style="mask-type:luminance" maskUnits="userSpaceOnUse" x="322" y="127" width="35" height="54">
<path d="M356.986 127.318H322.123V180.495H356.986V127.318Z" fill="white"/>
</mask>
<g mask="url(#mask4_13_50238)">
<path d="M283.406 130.807L410.58 104.537" stroke="#91BAEE" stroke-width="0.75" stroke-miterlimit="10"/>
<path d="M283.406 134.149L410.58 107.879" stroke="#91BAEE" stroke-width="0.75" stroke-miterlimit="10"/>
<path d="M283.406 137.484L410.58 111.214" stroke="#91BAEE" stroke-width="0.75" stroke-miterlimit="10"/>
<path d="M283.406 140.827L410.58 114.549" stroke="#91BAEE" stroke-width="0.75" stroke-miterlimit="10"/>
<path d="M283.406 144.162L410.58 117.892" stroke="#91BAEE" stroke-width="0.75" stroke-miterlimit="10"/>
<path d="M283.406 147.497L410.58 121.227" stroke="#91BAEE" stroke-width="0.75" stroke-miterlimit="10"/>
<path d="M283.406 150.839L410.58 124.569" stroke="#91BAEE" stroke-width="0.75" stroke-miterlimit="10"/>
<path d="M283.406 154.174L410.58 127.904" stroke="#91BAEE" stroke-width="0.75" stroke-miterlimit="10"/>
<path d="M283.406 157.516L410.58 131.246" stroke="#91BAEE" stroke-width="0.75" stroke-miterlimit="10"/>
<path d="M283.406 160.851L410.58 134.581" stroke="#91BAEE" stroke-width="0.75" stroke-miterlimit="10"/>
<path d="M283.406 164.193L410.58 137.916" stroke="#91BAEE" stroke-width="0.75" stroke-miterlimit="10"/>
<path d="M283.406 167.528L410.58 141.258" stroke="#91BAEE" stroke-width="0.75" stroke-miterlimit="10"/>
<path d="M283.406 170.863L410.58 144.593" stroke="#91BAEE" stroke-width="0.75" stroke-miterlimit="10"/>
<path d="M283.406 174.205L410.58 147.935" stroke="#91BAEE" stroke-width="0.75" stroke-miterlimit="10"/>
<path d="M283.406 177.54L410.58 151.27" stroke="#91BAEE" stroke-width="0.75" stroke-miterlimit="10"/>
<path d="M283.406 180.882L410.58 154.612" stroke="#91BAEE" stroke-width="0.75" stroke-miterlimit="10"/>
<path d="M283.406 184.247L410.58 157.977" stroke="#91BAEE" stroke-width="0.75" stroke-miterlimit="10"/>
<path d="M283.406 187.611L410.58 161.341" stroke="#91BAEE" stroke-width="0.75" stroke-miterlimit="10"/>
<path d="M283.406 190.975L410.58 164.705" stroke="#91BAEE" stroke-width="0.75" stroke-miterlimit="10"/>
<path d="M283.406 194.339L410.58 168.069" stroke="#91BAEE" stroke-width="0.75" stroke-miterlimit="10"/>
</g>
<mask id="mask5_13_50238" style="mask-type:luminance" maskUnits="userSpaceOnUse" x="215" y="224" width="47" height="49">
<path d="M261.149 224.031H215.82V272.293H261.149V224.031Z" fill="white"/>
</mask>
<g mask="url(#mask5_13_50238)">
<path d="M202.936 227.52L330.109 201.25" stroke="#FFC0A9" stroke-width="0.75" stroke-miterlimit="10"/>
<path d="M202.936 230.855L330.109 204.585" stroke="#FFC0A9" stroke-width="0.75" stroke-miterlimit="10"/>
<path d="M202.936 234.197L330.109 207.927" stroke="#FFC0A9" stroke-width="0.75" stroke-miterlimit="10"/>
<path d="M202.936 237.532L330.109 211.262" stroke="#FFC0A9" stroke-width="0.75" stroke-miterlimit="10"/>
<path d="M202.936 240.874L330.109 214.604" stroke="#FFC0A9" stroke-width="0.75" stroke-miterlimit="10"/>
<path d="M202.936 244.209L330.109 217.939" stroke="#FFC0A9" stroke-width="0.75" stroke-miterlimit="10"/>
<path d="M202.936 247.544L330.109 221.274" stroke="#FFC0A9" stroke-width="0.75" stroke-miterlimit="10"/>
<path d="M202.936 250.887L330.109 224.617" stroke="#FFC0A9" stroke-width="0.75" stroke-miterlimit="10"/>
<path d="M202.936 254.221L330.109 227.951" stroke="#FFC0A9" stroke-width="0.75" stroke-miterlimit="10"/>
<path d="M202.936 257.564L330.109 231.294" stroke="#FFC0A9" stroke-width="0.75" stroke-miterlimit="10"/>
<path d="M202.936 260.899L330.109 234.629" stroke="#FFC0A9" stroke-width="0.75" stroke-miterlimit="10"/>
<path d="M202.936 264.241L330.109 237.971" stroke="#FFC0A9" stroke-width="0.75" stroke-miterlimit="10"/>
<path d="M202.936 267.576L330.109 241.306" stroke="#FFC0A9" stroke-width="0.75" stroke-miterlimit="10"/>
<path d="M202.936 270.911L330.109 244.641" stroke="#FFC0A9" stroke-width="0.75" stroke-miterlimit="10"/>
<path d="M202.936 274.253L330.109 247.983" stroke="#FFC0A9" stroke-width="0.75" stroke-miterlimit="10"/>
<path d="M202.936 277.588L330.109 251.318" stroke="#FFC0A9" stroke-width="0.75" stroke-miterlimit="10"/>
<path d="M202.936 280.93L330.109 254.66" stroke="#FFC0A9" stroke-width="0.75" stroke-miterlimit="10"/>
</g>
<path d="M215.98 216.707H260.98V210.707H215.98V216.707Z" fill="#D3E3F8"/>
<path d="M238.462 228.707C234.887 228.707 231.457 230.125 228.929 232.65C226.401 235.174 224.98 238.599 224.98 242.169C224.98 251.9 238.462 265.707 238.462 265.707C238.462 265.707 251.98 252.164 251.98 242.147C251.979 240.378 251.627 238.626 250.946 236.992C250.266 235.359 249.269 233.875 248.013 232.627C246.758 231.378 245.268 230.389 243.629 229.717C241.99 229.044 240.234 228.701 238.462 228.707ZM238.462 249.822C236.921 249.821 235.414 249.363 234.133 248.507C232.852 247.65 231.854 246.434 231.265 245.011C230.676 243.589 230.523 242.024 230.824 240.514C231.126 239.005 231.869 237.618 232.96 236.53C234.05 235.442 235.439 234.701 236.951 234.402C238.463 234.102 240.03 234.256 241.455 234.846C242.879 235.435 244.096 236.433 244.952 237.713C245.808 238.993 246.265 240.498 246.265 242.037C246.265 243.06 246.064 244.073 245.671 245.018C245.279 245.963 244.704 246.822 243.979 247.545C243.255 248.268 242.394 248.841 241.448 249.232C240.501 249.623 239.487 249.823 238.462 249.822Z" fill="#CE4A16"/>
<path d="M231.873 242.185C231.877 240.267 232.616 238.423 233.938 237.032C235.26 235.641 237.064 234.809 238.98 234.707H238.466C237.48 234.709 236.505 234.905 235.596 235.284C234.686 235.663 233.861 236.218 233.166 236.916C232.471 237.614 231.92 238.442 231.545 239.353C231.17 240.264 230.978 241.239 230.98 242.224C230.983 243.209 231.179 244.184 231.558 245.093C231.938 246.002 232.492 246.827 233.19 247.522C233.889 248.217 234.717 248.768 235.628 249.142C236.54 249.517 237.516 249.709 238.501 249.707C238.67 249.707 238.811 249.707 238.98 249.707C237.057 249.602 235.248 248.763 233.925 247.364C232.603 245.964 231.868 244.111 231.873 242.185Z" fill="#FFC4B4"/>
<path d="M164.333 144.942L165.66 147.766L168.63 148.222C168.706 148.23 168.778 148.262 168.837 148.313C168.897 148.364 168.94 148.432 168.963 148.509C168.986 148.586 168.986 148.668 168.965 148.745C168.944 148.823 168.901 148.892 168.843 148.944L166.698 151.111L167.207 154.225C167.218 154.301 167.208 154.379 167.179 154.45C167.151 154.521 167.104 154.582 167.044 154.627C166.985 154.672 166.914 154.698 166.841 154.704C166.768 154.709 166.695 154.693 166.629 154.658L163.976 153.213L161.322 154.658C161.257 154.694 161.184 154.711 161.111 154.706C161.037 154.7 160.967 154.674 160.908 154.628C160.848 154.583 160.802 154.522 160.774 154.45C160.747 154.379 160.738 154.301 160.751 154.225L161.253 151.111L159.108 148.944C159.052 148.89 159.013 148.82 158.993 148.743C158.974 148.666 158.976 148.585 158.999 148.509C159.023 148.434 159.066 148.366 159.124 148.315C159.182 148.264 159.253 148.232 159.328 148.222L162.298 147.766L163.625 144.942C163.657 144.871 163.707 144.812 163.769 144.77C163.832 144.729 163.905 144.707 163.979 144.707C164.053 144.707 164.126 144.729 164.188 144.77C164.251 144.812 164.301 144.871 164.333 144.942Z" fill="#FFC366"/>
<path d="M180.872 144.942L182.331 147.766L185.598 148.222C185.681 148.232 185.759 148.264 185.823 148.315C185.887 148.366 185.934 148.434 185.96 148.509C185.985 148.585 185.987 148.666 185.966 148.743C185.945 148.82 185.901 148.89 185.84 148.944L183.481 151.111L184.033 154.225C184.047 154.301 184.038 154.379 184.007 154.45C183.977 154.522 183.926 154.583 183.861 154.628C183.795 154.674 183.718 154.7 183.637 154.706C183.557 154.711 183.476 154.694 183.405 154.658L180.486 153.213L177.567 154.658C177.495 154.693 177.414 154.709 177.334 154.704C177.253 154.698 177.176 154.672 177.11 154.627C177.045 154.582 176.993 154.521 176.962 154.45C176.93 154.379 176.92 154.301 176.931 154.225L177.491 151.111L175.131 148.944C175.067 148.892 175.021 148.823 174.997 148.745C174.974 148.668 174.975 148.586 175 148.509C175.025 148.432 175.073 148.364 175.138 148.313C175.203 148.262 175.282 148.23 175.366 148.222L178.633 147.766L180.093 144.942C180.128 144.871 180.183 144.812 180.252 144.77C180.321 144.729 180.401 144.707 180.482 144.707C180.564 144.707 180.644 144.729 180.713 144.77C180.782 144.812 180.837 144.871 180.872 144.942Z" fill="#FFC366"/>
<path d="M197.335 144.942L198.662 147.766L201.633 148.222C201.708 148.232 201.779 148.264 201.837 148.315C201.895 148.366 201.938 148.434 201.961 148.509C201.985 148.585 201.987 148.666 201.967 148.743C201.948 148.82 201.909 148.89 201.853 148.944L199.7 151.111L200.209 154.225C200.222 154.301 200.214 154.379 200.186 154.45C200.158 154.522 200.112 154.583 200.053 154.628C199.993 154.674 199.923 154.7 199.85 154.706C199.776 154.711 199.703 154.694 199.639 154.658L196.984 153.213L194.322 154.658C194.258 154.694 194.184 154.711 194.111 154.706C194.038 154.7 193.968 154.674 193.908 154.628C193.849 154.583 193.802 154.522 193.775 154.45C193.747 154.379 193.739 154.301 193.752 154.225L194.26 151.111L192.108 148.944C192.052 148.89 192.013 148.82 191.993 148.743C191.974 148.666 191.976 148.585 191.999 148.509C192.023 148.434 192.066 148.366 192.124 148.315C192.182 148.264 192.253 148.232 192.328 148.222L195.299 147.766L196.626 144.942C196.658 144.871 196.708 144.812 196.771 144.77C196.834 144.729 196.906 144.707 196.98 144.707C197.055 144.707 197.127 144.729 197.19 144.77C197.253 144.812 197.303 144.871 197.335 144.942Z" fill="#FFC366"/>
<path d="M213.87 144.942L215.33 147.766L218.598 148.222C218.681 148.232 218.759 148.264 218.823 148.315C218.887 148.366 218.934 148.434 218.96 148.509C218.985 148.585 218.987 148.666 218.966 148.743C218.945 148.82 218.901 148.89 218.84 148.944L216.472 151.111L217.032 154.225C217.046 154.301 217.037 154.379 217.007 154.45C216.976 154.522 216.925 154.583 216.86 154.628C216.795 154.674 216.717 154.7 216.637 154.706C216.556 154.711 216.476 154.694 216.404 154.658L213.477 153.213L210.557 154.658C210.485 154.694 210.405 154.711 210.324 154.706C210.244 154.7 210.166 154.674 210.101 154.628C210.035 154.583 209.985 154.522 209.954 154.45C209.924 154.379 209.915 154.301 209.929 154.225L210.488 151.111L208.121 148.944C208.06 148.89 208.016 148.82 207.995 148.743C207.974 148.666 207.976 148.585 208.001 148.509C208.027 148.434 208.074 148.366 208.138 148.315C208.202 148.264 208.28 148.232 208.363 148.222L211.631 147.766L213.091 144.942C213.126 144.871 213.181 144.812 213.25 144.77C213.319 144.729 213.399 144.707 213.48 144.707C213.562 144.707 213.642 144.729 213.711 144.77C213.78 144.812 213.835 144.871 213.87 144.942Z" fill="#FFC366"/>
<path d="M191.98 210.707H150.98V257.707H191.98V210.707Z" fill="#D3E3F8"/>
<path d="M167.009 244.707H179.297C179.65 244.707 179.999 244.633 180.325 244.491C180.651 244.348 180.948 244.14 181.197 243.876C181.446 243.613 181.644 243.301 181.778 242.957C181.913 242.614 181.981 242.246 181.98 241.874V233.519C181.98 232.769 181.698 232.05 181.195 231.519C180.692 230.988 180.009 230.689 179.297 230.687H176.99L177.417 229.937C178.195 228.534 178.605 226.939 178.606 225.314V224.865C178.606 224.292 178.39 223.743 178.005 223.339C177.621 222.934 177.099 222.707 176.556 222.707C176.019 222.705 175.502 222.925 175.119 223.321C174.735 223.716 174.515 224.254 174.505 224.82C174.5 225.894 174.134 226.931 173.473 227.749C172.95 228.404 172.295 228.93 171.557 229.288C170.819 229.647 170.015 229.83 169.202 229.825H166.98L167.009 244.707Z" fill="white"/>
<path d="M165.967 228.707H161.994C160.882 228.707 159.98 229.59 159.98 230.681V243.733C159.98 244.823 160.882 245.707 161.994 245.707H165.967C167.079 245.707 167.98 244.823 167.98 243.733V230.681C167.98 229.59 167.079 228.707 165.967 228.707Z" fill="#193441"/>
<path d="M356.98 263.707H296.98V279.707H356.98V263.707Z" fill="#D3E3F8"/>
<path d="M104.412 110.253C101.914 111.386 99.0132 110.181 96.5372 108.997C95.0282 108.28 93.4239 107.455 92.5962 106.02C91.7684 104.586 91.9003 102.821 92.2665 101.214C92.7241 98.868 93.8548 96.6982 95.5263 94.9588C98.8886 91.6733 105.723 91.7235 107.166 96.8382C108.258 100.726 108.968 108.194 104.412 110.253Z" fill="#284190"/>
<path d="M103.446 119.275V119.312V119.436C103.446 119.67 103.526 119.941 103.562 120.248L103.787 122.237C103.918 123.619 104.035 125.067 104.129 126.515L104.754 135.291C104.943 138.216 105.133 141.193 105.372 144.154C105.612 147.116 105.838 150.085 106.1 153.076L106.143 153.544C106.181 153.944 106.292 154.333 106.47 154.693C107.634 157.018 108.797 159.344 110.063 161.633C110.673 162.781 111.342 163.907 111.982 165.041L113.931 168.441C115.24 170.708 116.542 172.975 117.734 175.286C118.025 175.871 118.359 176.434 118.621 177.027C118.856 177.64 119.031 178.274 119.145 178.921C119.276 179.562 119.489 180.184 119.777 180.771C120.088 181.39 120.551 181.919 121.123 182.307C121.393 182.487 121.698 182.609 122.017 182.665C122.667 182.785 123.337 182.642 123.882 182.266C124.427 181.891 124.802 181.314 124.926 180.661C125.039 179.977 124.976 179.275 124.744 178.621C124.522 178.005 124.219 177.422 123.842 176.888C123.461 176.356 123.127 175.79 122.846 175.199C122.599 174.599 122.424 173.963 122.206 173.348C121.363 170.891 120.621 168.375 119.894 165.867L118.788 162.101C118.41 160.85 118.061 159.585 117.654 158.342C116.992 156.206 116.251 154.1 115.473 152.001C115.422 146.312 115.414 140.578 115.291 134.823C115.218 131.847 115.182 128.87 115.036 125.85C114.964 124.336 114.884 122.822 114.76 121.257C114.702 120.475 114.629 119.67 114.527 118.822C114.469 118.398 114.404 117.937 114.316 117.44L114.229 117.016C114.229 116.877 114.186 116.774 114.098 116.43C114.011 116.087 113.931 115.853 113.844 115.604L113.749 115.348C113.495 114.66 113.108 114.029 112.611 113.491C112.114 112.954 111.517 112.519 110.853 112.214C110.189 111.908 109.472 111.737 108.743 111.71C108.013 111.683 107.286 111.801 106.601 112.057C105.917 112.313 105.29 112.702 104.755 113.202C104.22 113.702 103.789 114.303 103.485 114.97C103.181 115.638 103.011 116.359 102.984 117.092C102.957 117.826 103.075 118.558 103.329 119.246L103.446 119.275ZM103.446 119.334V119.407L103.54 119.663C103.493 119.572 103.456 119.477 103.431 119.378L103.446 119.334Z" fill="#FFC0A9"/>
<path d="M112.372 157.707H101.589C99.0438 157.707 96.9805 159.733 96.9805 162.233V180.18C96.9805 182.68 99.0438 184.707 101.589 184.707H112.372C114.917 184.707 116.98 182.68 116.98 180.18V162.233C116.98 159.733 114.917 157.707 112.372 157.707Z" fill="#193441"/>
<path d="M105.079 107.12C96.3558 106.849 97.1449 99.1988 97.1449 99.1988L91.3001 99.0104L86.9165 97.7065C86.9165 97.7065 88.9768 107.715 77.5065 107.12C74.6718 106.969 68.9805 116.707 68.9805 116.707H108.98C108.98 116.707 106.387 107.158 105.079 107.12Z" fill="#FFC0A9"/>
<path d="M97.5736 270.707L96.9823 276.453C96.9522 277.439 97.3011 278.397 97.9527 279.119C98.6044 279.84 99.506 280.266 100.461 280.303L112.433 280.706C112.675 280.714 112.915 280.662 113.134 280.554C113.352 280.445 113.541 280.284 113.685 280.083C113.83 279.883 113.925 279.649 113.962 279.402C114 279.155 113.979 278.902 113.901 278.666C113.806 278.377 113.631 278.123 113.397 277.936C113.163 277.75 112.881 277.639 112.586 277.617L111.501 277.559C107.758 277.358 104.029 274.528 103.417 270.714L97.5736 270.707Z" fill="#193441"/>
<path d="M97.3378 271.39C97.3378 271.39 96.9491 269.884 96.4184 267.252C96.1568 265.928 95.8428 264.327 95.5438 262.484C95.2448 260.641 94.9234 258.557 94.587 256.275C94.2506 253.994 93.974 251.522 93.7498 248.868C93.6377 247.544 93.5181 246.184 93.4284 244.743L93.391 244.202V243.573L93.3536 242.535C93.3536 241.804 93.3536 240.839 93.4284 240.107C93.6875 237.056 94.1369 234.023 94.7739 231.025C95.0654 229.563 95.2971 228.1 95.5214 226.638C95.7079 225.305 95.7704 223.959 95.7083 222.616L95.6634 222.228V222.082C95.6634 221.914 95.6634 222.287 95.6634 222.235L95.626 221.95C95.5662 221.592 95.5214 221.16 95.4466 220.853L95.043 218.908C94.744 217.446 94.445 215.983 94.146 214.521C93.5554 211.596 92.8453 208.751 92.195 205.972C91.5446 203.193 90.8569 200.517 90.1916 197.98C89.5264 195.442 88.8835 193.036 88.2556 190.828C87.0297 186.404 85.8935 182.726 85.0712 180.173C84.675 178.901 84.3237 177.899 84.0845 177.248C83.8453 176.598 83.7332 176.261 83.7332 176.261C83.0737 174.411 82.8434 172.441 83.0588 170.493C83.2742 168.545 83.93 166.668 84.9787 164.999C86.0274 163.329 87.4426 161.909 89.1218 160.841C90.801 159.773 92.7021 159.084 94.6873 158.824C96.6724 158.563 98.6919 158.738 100.599 159.336C102.507 159.934 104.254 160.94 105.715 162.28C107.176 163.62 108.314 165.262 109.046 167.086C109.778 168.909 110.086 170.87 109.948 172.824V173.044C109.948 173.044 109.829 174.631 109.612 177.431C109.395 180.232 109.156 184.013 108.954 188.619C108.842 190.923 108.73 193.424 108.663 196.064C108.595 198.704 108.468 201.49 108.431 204.363C108.393 207.237 108.266 210.213 108.251 213.256C108.251 214.791 108.224 216.332 108.169 217.877L108.109 220.458C108.109 220.904 108.057 221.234 108.035 221.628V221.914V221.95C108.035 221.95 108.035 222.316 108.035 222.17V222.265V222.455L107.96 223.186C107.721 225.08 107.422 226.63 107.212 228.195C107.003 229.76 106.771 231.252 106.622 232.729C106.293 235.654 106.084 238.477 105.822 241.043C105.762 241.65 105.702 242.243 105.643 242.835C105.583 243.427 105.538 244.136 105.493 244.773C105.396 246.074 105.329 247.383 105.269 248.663C105.164 251.222 104.992 253.672 104.888 255.939C104.783 258.206 104.619 260.283 104.454 262.133C104.29 263.983 104.155 265.592 104.036 266.922C103.766 269.584 103.55 271.105 103.55 271.105C103.452 271.799 103.11 272.438 102.583 272.912C102.056 273.385 101.377 273.665 100.662 273.702C99.9476 273.739 99.242 273.532 98.6666 273.115C98.0913 272.699 97.6822 272.099 97.5098 271.42L97.3378 271.39Z" fill="#FFC0A9"/>
<path d="M72.0085 269.707L71.0064 275.766C70.9492 276.282 70.9868 276.806 71.1169 277.307C71.247 277.808 71.4671 278.276 71.7647 278.685C72.0622 279.094 72.4313 279.436 72.851 279.69C73.2706 279.945 73.7325 280.108 74.2103 280.169L86.2781 281.695C86.5226 281.726 86.7704 281.693 87.0003 281.598C87.2303 281.503 87.4355 281.349 87.5985 281.15C87.7615 280.95 87.8774 280.711 87.9362 280.452C87.9951 280.194 87.9952 279.924 87.9365 279.665C87.8653 279.352 87.7101 279.068 87.4904 278.85C87.2707 278.631 86.9963 278.487 86.7015 278.437L85.6006 278.269C81.8391 277.704 78.487 274.339 78.1906 270.241L72.0085 269.707Z" fill="#193441"/>
<path d="M71.1549 244.199V243.649L71.1984 243.027L71.2852 241.986C71.3721 241.254 71.4735 240.36 71.6038 239.649C72.0743 236.646 72.9068 233.789 73.6524 230.859C74.0433 229.393 74.3763 227.98 74.6731 226.558C74.9505 225.219 75.1199 223.86 75.1798 222.493C75.1219 219.562 75.0712 216.574 75.0133 213.665C74.9554 210.757 74.8323 207.717 74.7238 204.875C74.6152 202.032 74.4776 199.263 74.3111 196.655C74.3111 195.996 74.2388 195.344 74.2026 194.707H92.9805C92.7199 195.82 92.4593 196.97 92.2059 198.142C91.6195 200.721 91.0115 203.431 90.4324 206.244C89.8532 209.057 89.2017 211.944 88.6371 214.896C88.0724 217.848 87.4427 220.998 86.8346 224.075C86.4582 225.863 86.0672 227.394 85.727 228.932C85.3868 230.47 85.0827 231.95 84.8221 233.423C84.2792 236.353 83.8159 239.188 83.2947 241.781C83.1644 242.397 83.0414 243.005 82.9183 243.605C82.7952 244.206 82.6794 244.88 82.5563 245.503C82.3247 246.748 82.1292 248.023 81.9483 249.268C81.5863 251.803 81.2244 254.191 80.9276 256.396C80.2688 260.857 79.6535 264.593 79.2047 267.208C78.7559 269.824 78.3939 271.304 78.3939 271.304C77.67 272.952 76.5118 273.985 74.9047 273.64C74.3296 273.516 73.8047 273.22 73.3981 272.79C72.9914 272.361 72.7219 271.817 72.6245 271.23C72.6245 271.23 72.3566 269.692 72.0309 267.018C71.8861 265.685 71.6979 264.088 71.5459 262.19C71.3938 260.293 71.2635 258.213 71.1332 255.898C71.0029 253.583 70.9523 251.07 70.9957 248.382C71.0174 247.063 71.0464 245.664 71.1549 244.199Z" fill="#FFC0A9"/>
<path d="M104.316 210.126C107.939 209.233 111.502 208.107 114.98 206.754C114.191 174.29 107.364 150.707 107.364 150.707L75.4057 151.979C75.4057 151.979 68.9805 167.582 68.9805 208.386C81.0122 211.48 91.8526 213.118 104.316 210.126Z" fill="#5416CE"/>
<path d="M70.4067 109.836C74.1132 106.199 80.109 106.742 80.109 106.742C80.109 106.742 82.5509 113.778 91.461 113.897C100.371 113.778 102.813 106.742 102.813 106.742C102.813 106.742 108.852 106.147 112.515 109.836C116.178 113.525 115.742 119.044 117.98 127.338L108.736 131.563C108.736 131.563 106.476 145.055 107.283 150.969C107.283 150.969 101.149 155.707 91.4537 155.707C81.7587 155.707 75.5086 152.263 75.5086 152.263C76.3298 146.312 73.4228 132.686 73.4228 132.686C73.4228 132.686 65.9298 114.217 70.4067 109.836Z" fill="#D3E3F8"/>
<path d="M110.98 83.0047C110.98 75.8525 106.94 71.687 98.988 70.7757C96.6464 70.5412 94.284 70.9051 92.1182 71.834C89.9525 72.7628 88.053 74.2268 86.5947 76.0911L86.1649 76.6335C83.6863 79.736 82.4971 85.0152 83.1633 88.9276L87.5189 98.0469C87.5189 98.0469 86.3942 105.546 83.808 106.255C81.2219 106.964 93.7227 112.72 96.7028 107.615L97.1255 101.287C97.1255 101.287 101.424 103.652 104.912 102.263C106.775 101.554 111.023 97.5985 110.98 83.0047Z" fill="#FFC0A9"/>
<path d="M97.6558 83.6665C95.5345 84.4441 93.1132 84.9455 91.7088 86.7186C90.575 88.172 90.3921 90.0904 90.3336 91.9144C90.1658 97.3349 90.6993 102.754 91.9209 108.04C92.55 110.779 93.2742 113.991 91.4455 116.15C89.6168 118.308 85.9959 118.075 83.7503 116.353C81.5046 114.631 80.3562 111.869 79.5077 109.181C76.8337 100.614 76.2718 91.5346 77.8691 82.7073C78.5128 79.2046 79.5442 75.6584 81.7606 72.8533C84.7963 69.0164 89.7704 67.0398 94.6713 66.7564C98.2117 66.5457 110.259 66.7564 108.869 72.4537C107.648 77.5042 102.345 81.9442 97.6558 83.6665Z" fill="#284190"/>
<path d="M128.811 133.624L134.086 131.631C134.304 131.547 134.499 131.406 134.653 131.224C134.807 131.041 134.917 130.821 134.971 130.583L137.958 116.456C138.001 116.204 137.982 115.945 137.901 115.703C137.821 115.462 137.683 115.246 137.5 115.077C137.317 114.908 137.095 114.791 136.857 114.739C136.619 114.686 136.371 114.698 136.139 114.775L130.879 116.775C130.662 116.861 130.468 117.002 130.315 117.185C130.162 117.368 130.054 117.587 130.001 117.824L127.013 131.951C126.96 132.203 126.972 132.464 127.047 132.709C127.123 132.954 127.26 133.173 127.443 133.344C127.627 133.515 127.85 133.631 128.091 133.68C128.332 133.729 128.58 133.71 128.811 133.624Z" fill="#426DC0"/>
<path d="M133.018 120.067C132.919 120.89 133.018 121.568 133.303 121.693C133.589 121.819 133.845 121.026 133.943 120.203C134.042 119.38 133.943 118.848 133.658 118.722C133.372 118.596 133.111 119.254 133.018 120.067Z" fill="white"/>
<path d="M107.744 152.452C107.256 113.186 103.022 106.542 102.98 106.505C103.042 106.608 102.932 106.305 103.063 106.113C103.15 105.999 103.257 105.905 103.378 105.837C103.498 105.768 103.63 105.725 103.766 105.711C103.903 105.698 104.04 105.713 104.17 105.756C104.301 105.8 104.422 105.871 104.527 105.965C105.07 106.46 109.875 112.172 109.875 160.539C109.875 160.635 109.999 162.618 109.978 162.707C109.648 160.509 108.157 152.962 107.744 152.452Z" fill="#193441"/>
<path d="M89.5211 124.707C90.1871 125.868 90.9409 127.154 91.7679 128.55C93.5024 131.473 95.5735 134.797 97.952 138.049C99.1017 139.654 100.358 141.18 101.714 142.616C102.274 143.212 102.883 143.76 103.536 144.253C103.727 144.397 103.928 144.529 104.136 144.647C104.253 144.72 104.239 144.72 104.026 144.75C104.646 144.784 105.266 144.692 105.849 144.479C106.793 144.201 107.721 143.871 108.63 143.493C110.554 142.711 112.523 141.783 114.404 140.797C116.285 139.81 118.107 138.802 119.82 137.801C121.532 136.8 123.12 135.784 124.569 134.827C125.301 134.337 125.982 133.87 126.633 133.416C127.268 133.015 127.863 132.555 128.411 132.043C129.219 131.117 130.074 130.234 130.973 129.398C131.573 128.875 132.255 128.455 132.993 128.155C133.266 128.034 133.554 127.948 133.849 127.9H133.995C134.439 127.853 134.887 127.916 135.299 128.084C135.712 128.252 136.077 128.52 136.361 128.863C136.645 129.206 136.84 129.613 136.928 130.05C137.015 130.486 136.994 130.937 136.864 131.363C136.758 131.661 136.618 131.945 136.447 132.211C136.011 132.904 135.462 133.519 134.822 134.03C133.814 134.78 132.758 135.464 131.661 136.076C131.032 136.515 130.44 137.004 129.89 137.538L127.98 139.247L123.654 143.084C122.11 144.45 120.449 145.875 118.663 147.3C116.793 148.819 114.839 150.232 112.809 151.531C111.666 152.242 110.477 152.88 109.252 153.438C108.55 153.746 107.832 154.015 107.1 154.241C106.675 154.374 106.242 154.484 105.805 154.57L105.366 154.651L104.985 154.702H104.766H104.656H104.458H104.268C103.063 154.739 101.862 154.563 100.718 154.183C99.8347 153.886 98.9819 153.504 98.1716 153.043C96.8717 152.291 95.6465 151.418 94.5123 150.434C92.5884 148.766 90.7995 146.948 89.1625 144.998C87.611 143.201 86.2351 141.41 84.9983 139.708C83.7615 138.005 82.6271 136.369 81.6245 134.841C81.4049 134.505 81.1854 134.176 80.9805 133.855C83.8786 130.925 86.6011 127.732 89.5211 124.707Z" fill="#FFC0A9"/>
<path d="M32.9805 43.7065H54.9805C54.7404 43.0863 54.3819 42.5115 53.9224 42.0099L52.6879 40.97C51.7993 40.4063 50.7689 40.0669 49.6972 39.9848C48.8999 39.8866 48.0889 39.9857 47.3459 40.2722C47.221 40.2722 47.096 40.3406 46.9785 40.3748C46.8829 38.0556 44.8622 35.7911 42.261 35.7158C40.9067 35.6383 39.5724 36.0502 38.5362 36.8659C37.5 37.6815 36.8417 38.838 36.6986 40.0943C36.6495 40.7171 36.7345 41.3428 36.9484 41.9346C36.1792 41.8874 35.4099 42.0256 34.7148 42.336C34.0197 42.6464 33.4224 43.1184 32.9805 43.7065Z" fill="#D3E3F8"/>
<path d="M455.98 9.70654H431.98C432.712 7.27959 434.905 5.22212 437.544 5.22212C438.639 5.22091 439.718 5.48451 440.687 5.99005C440.687 5.69302 440.738 5.38875 440.76 5.09172L441.228 3.74422C441.513 3.33852 441.791 2.92558 442.069 2.51988L443.209 1.56359L444.51 0.955042C445.187 0.714373 445.914 0.647086 446.623 0.759436C447.104 0.734869 447.582 0.834742 448.012 1.04922C448.735 1.22842 449.396 1.59613 449.927 2.11418L450.008 2.20112C450.572 2.65939 451.002 3.26005 451.251 3.93983C451.607 4.54183 451.796 5.22678 451.799 5.92485L451.733 6.85216C452.624 6.94417 453.477 7.25291 454.218 7.75091C454.959 8.2489 455.565 8.92071 455.98 9.70654Z" fill="#D3E3F8"/>
<path d="M439.98 43.7065H477.98C477.881 43.4117 477.759 43.1256 477.614 42.851C477.21 41.9265 476.573 41.1296 475.768 40.5425C475.09 39.8336 474.24 39.3243 473.305 39.0674C472.111 38.6777 470.84 38.6092 469.613 38.8683L469.025 38.9789C468.012 39.1935 467.059 39.6342 466.231 40.2696C466.231 40.0188 466.231 39.7607 466.173 39.5321C465.959 38.4349 465.463 37.4164 464.737 36.5819L463.48 35.483C462.571 34.8862 461.527 34.543 460.449 34.4873C459.654 34.411 458.853 34.5456 458.122 34.8782H458.036C458.036 34.5463 457.986 34.2144 457.957 33.8825C457.736 32.7554 457.222 31.7106 456.47 30.8586L455.178 29.7302C454.255 29.1258 453.196 28.7777 452.104 28.7197C450.851 28.6363 449.604 28.9503 448.532 29.6191C447.459 30.288 446.612 31.2795 446.107 32.4591C445.698 33.189 445.478 34.0141 445.468 34.8561C445.511 35.4092 445.554 35.955 445.59 36.5082C445.706 37.0801 445.897 37.6333 446.157 38.1529H445.841C442.3 38.175 440.296 40.8744 439.98 43.7065Z" fill="#D3E3F8"/>
<path d="M100.937 21.7065C100.966 21.5024 100.981 21.2967 100.98 21.0906C100.98 20.5447 100.9 19.9918 100.856 19.4459C100.616 18.3242 100.065 17.2848 99.2621 16.4363L97.8874 15.3164C96.903 14.7132 95.7715 14.3658 94.6042 14.3086C93.7845 14.2365 92.9588 14.3566 92.1985 14.6585C92.1546 11.6629 89.5295 8.70933 86.2609 8.70933C84.6112 8.66175 83.006 9.22547 81.78 10.283C80.5539 11.3405 79.8016 12.8101 79.6799 14.3855C79.6726 14.4998 79.6726 14.6143 79.6799 14.7285C78.7444 13.9078 77.5266 13.4445 76.2577 13.4267H76.053C72.938 13.4267 70.152 15.5264 69.9838 18.606C69.9628 19.0572 70.0046 19.5091 70.1081 19.9498L69.9619 20.0408C69.3616 19.5698 68.617 19.2994 67.8413 19.2709C66.8119 19.2337 65.8059 19.5713 65.0261 20.2157C64.6227 20.5315 64.3147 20.9447 64.134 21.4126C64.077 21.5077 64.0258 21.6058 63.9805 21.7065H100.937Z" fill="#D3E3F8"/>
<path d="M400.98 12.7065H380.98C380.98 12.3535 381.041 11.986 381.063 11.6546C381.26 10.7524 381.704 9.91672 382.35 9.23371L383.487 8.33308C384.277 7.84959 385.185 7.57146 386.122 7.52611C387.03 7.54821 387.927 7.72384 388.771 8.04488C388.771 7.77109 388.771 7.49729 388.831 7.2235C388.997 6.4595 389.371 5.75106 389.915 5.17006L390.856 4.40633C391.534 3.99488 392.313 3.75902 393.114 3.72185C393.709 3.66672 394.308 3.76109 394.853 3.99564C395.451 4.13627 395.998 4.4302 396.434 4.84583C396.914 5.2268 397.278 5.72459 397.488 6.28684C397.783 6.78339 397.941 7.34385 397.947 7.91519L397.789 9.01035C397.69 9.47893 397.506 9.92748 397.247 10.3361C398.029 10.3924 398.783 10.64 399.437 11.055C400.091 11.47 400.622 12.0387 400.98 12.7065Z" fill="#D3E3F8"/>
<path d="M416.438 269.474L413.552 264.707L407.291 268.128C408.091 270.312 408.808 275.633 405.608 277.416C405.274 277.464 404.937 277.493 404.6 277.503H403.487C403.081 277.51 402.694 277.685 402.412 277.991C402.129 278.296 401.974 278.706 401.981 279.13C401.987 279.555 402.155 279.96 402.446 280.255C402.738 280.551 403.129 280.713 403.535 280.706H408.133L415.249 274.759C416.073 274.22 416.66 273.362 416.882 272.373C417.105 271.383 416.945 270.342 416.438 269.474Z" fill="#FFC0A9"/>
<path d="M467.393 269.512L460.87 261.707L457.653 268.17C458.507 270.347 459.273 275.65 455.855 277.427C455.498 277.475 455.138 277.504 454.778 277.514H453.589C453.156 277.521 452.743 277.696 452.441 278C452.139 278.304 451.974 278.712 451.981 279.136C451.988 279.559 452.166 279.962 452.478 280.257C452.789 280.551 453.208 280.713 453.641 280.706H458.545L466.152 274.779C467.027 274.237 467.648 273.381 467.88 272.395C468.112 271.409 467.937 270.373 467.393 269.512Z" fill="#FFC0A9"/>
<path d="M414.844 266.707C414.404 266.917 413.979 267.163 413.575 267.444C413.012 267.876 412.585 268.477 412.348 269.169C412.096 269.876 411.653 270.49 411.074 270.933C410.495 271.376 409.805 271.629 409.091 271.661C408.718 271.777 408.328 271.82 407.94 271.786C408.003 273.997 407.494 276.305 405.583 277.381C405.248 277.429 404.91 277.459 404.572 277.47H403.456C403.083 277.484 402.728 277.642 402.457 277.913C402.186 278.185 402.018 278.551 401.985 278.944C401.969 279.173 401.999 279.403 402.072 279.618C402.145 279.834 402.261 280.031 402.41 280.197C402.56 280.363 402.741 280.494 402.942 280.582C403.142 280.669 403.358 280.712 403.575 280.706H408.115L415.249 274.683C415.66 274.41 416.017 274.054 416.298 273.636C416.579 273.217 416.779 272.744 416.888 272.244C416.996 271.743 417.01 271.225 416.928 270.719C416.847 270.213 416.672 269.729 416.414 269.294L414.844 266.707Z" fill="#193441"/>
<path d="M463.169 263.707C462.941 264.026 462.735 264.361 462.553 264.71C462.172 265.521 461.998 266.418 462.048 267.316C462.135 267.718 462.178 268.128 462.174 268.54V268.661C462.141 269.188 462.005 269.702 461.776 270.174C461.547 270.646 461.228 271.067 460.839 271.412C460.152 272.028 459.272 272.371 458.36 272.377C458.263 274.353 457.618 276.306 455.851 277.271C455.494 277.321 455.135 277.351 454.775 277.363H453.588C453.154 277.37 452.742 277.553 452.441 277.871C452.139 278.19 451.974 278.618 451.981 279.061C451.988 279.504 452.166 279.927 452.477 280.235C452.788 280.544 453.206 280.713 453.639 280.706H458.538L466.138 274.498C466.575 274.216 466.955 273.85 467.254 273.418C467.553 272.987 467.767 272.499 467.882 271.983C467.997 271.467 468.011 270.933 467.925 270.411C467.838 269.89 467.652 269.391 467.377 268.943L463.169 263.707Z" fill="#193441"/>
<path d="M379.835 220.133L380.079 219.952L425.164 206.707C427.063 215.575 428.338 224.568 428.98 233.617C428.98 233.617 394.949 230.631 395.597 231.617C397.777 234.922 399.865 238.289 401.862 241.715C403.864 245.145 414.449 264.313 414.449 264.32C414.449 264.327 409.754 269.047 406.255 269.707C402.416 266.082 386.582 242.658 384.306 239.425C383.161 237.808 382.067 236.155 380.979 234.502C379.892 232.849 378.819 231.167 377.883 229.427C377.043 227.901 376.778 226.121 377.136 224.413C377.495 222.706 378.453 221.186 379.835 220.133Z" fill="url(#paint2_linear_13_50238)"/>
<path d="M424.979 248.09C428.834 249.226 432.658 250.47 436.449 251.822C440.243 253.167 460.98 261.103 460.98 261.103C460.98 261.103 460.393 267.856 458.045 270.707C452.659 270.383 425.082 262.624 421.2 261.603C419.256 261.096 417.326 260.53 415.403 259.964C413.48 259.398 411.565 258.774 409.679 258.053C408.026 257.416 406.66 256.2 405.832 254.632C405.004 253.065 404.77 251.25 405.174 249.523L405.247 249.221L424.495 212.945C424.796 211.681 418.089 206.111 418.089 206.111L441.175 195.707C441.175 195.707 448.858 205.509 450.802 208.646C451.801 210.258 452.472 212.052 452.778 213.924C453.084 215.797 453.019 217.711 452.586 219.558C452.064 221.617 450.88 223.448 449.217 224.767L421.53 247.09C422.675 247.436 423.835 247.752 424.979 248.09Z" fill="url(#paint3_linear_13_50238)"/>
<path d="M400.694 185.502C400.694 185.502 400.351 186.283 399.722 187.634C399.093 188.985 398.201 190.912 397.075 193.198C395.948 195.483 394.639 198.163 393.184 201.003C392.818 201.733 392.453 202.463 392.08 203.193L391.436 204.434L391.283 204.705L391.071 205.062C390.888 205.354 390.69 205.676 390.508 205.939C389.086 207.95 387.149 209.544 384.899 210.553C383.794 211.044 382.628 211.385 381.432 211.568C380.846 211.654 380.255 211.7 379.663 211.707H378.778H378.573H378.412H378.098L377.469 211.641L376.796 211.561L375.465 211.378C374.602 211.247 373.747 211.093 372.913 210.94C371.297 210.623 369.698 210.223 368.123 209.742C366.617 209.304 365.198 208.764 363.918 208.282C363.282 207.983 362.668 207.749 362.105 207.435C361.542 207.121 360.993 206.88 360.452 206.654C360.182 206.545 359.918 206.45 359.655 206.362C359.392 206.274 359.15 206.158 358.924 206.048C358.482 205.859 358.066 205.614 357.688 205.318C357.376 205.085 357.087 204.824 356.825 204.537C356.643 204.307 356.479 204.062 356.335 203.807C356.2 203.579 356.099 203.333 356.035 203.076C355.971 202.793 355.963 202.501 356.013 202.215C356.063 201.929 356.169 201.656 356.326 201.411C356.482 201.166 356.686 200.955 356.925 200.79C357.163 200.625 357.433 200.508 357.717 200.448C357.914 200.406 358.116 200.388 358.317 200.397H358.792C358.995 200.417 359.194 200.464 359.384 200.536C359.586 200.601 359.78 200.689 359.962 200.798C360.221 200.914 360.467 201.059 360.693 201.229C360.927 201.426 361.213 201.631 361.498 201.901C361.798 202.211 362.129 202.49 362.485 202.733C362.894 203.014 363.346 203.227 363.823 203.361C364.313 203.544 364.869 203.661 365.425 203.828C366.666 204.119 367.927 204.314 369.198 204.413C370.634 204.521 372.074 204.555 373.513 204.515C374.244 204.515 375.034 204.464 375.809 204.405C376.584 204.347 377.272 204.274 378.156 204.194H378.471H378.712L379.092 204.121C379.348 204.055 379.59 203.989 379.824 203.901C380.295 203.739 380.745 203.518 381.162 203.244C381.961 202.733 382.614 202.024 383.056 201.185C383.341 200.565 384.065 198.652 384.635 197.25C385.82 194.286 386.954 191.533 387.948 189.182C388.943 186.831 389.806 184.896 390.398 183.524C390.99 182.151 391.356 181.392 391.356 181.392C391.967 180.26 392.983 179.4 394.2 178.983C395.418 178.566 396.749 178.622 397.927 179.141C399.105 179.659 400.044 180.602 400.557 181.781C401.07 182.96 401.119 184.289 400.694 185.502Z" fill="#FFC0A9"/>
<path d="M422.078 214.707C422.078 214.707 414.872 206.897 409.312 200.59C405.167 195.882 402.639 198.717 398.932 195.704C395.966 193.277 395.781 189.509 395.64 189.264L386.98 187.517C386.98 187.517 388.1 180.026 392.912 174.437L399.169 170.699C408.511 164.178 416.058 166.724 418.446 170.699C422.041 176.68 427.617 181.973 431.791 186.748C434.356 189.709 442.133 194.735 444.98 196.867C441.785 203.995 432.644 210.931 422.078 214.707Z" fill="#5416CE"/>
<path d="M368.528 158.746C365.278 152.103 367.141 146.419 374.168 141.916C376.252 140.62 378.631 139.868 381.085 139.73C383.54 139.592 385.989 140.072 388.207 141.126L388.86 141.429C392.57 143.156 396.132 147.497 397.297 151.431L397.393 161.876L402.98 169.213C402.98 169.213 398.291 178.307 393.156 174.971L389.862 169.302C389.862 169.302 386.945 173.458 383.013 173.797C380.957 173.974 375.169 172.269 368.528 158.746Z" fill="#FFC0A9"/>
<path d="M377.427 151.572C375.928 151.844 374.429 151.772 373.028 152.287C369.064 153.852 368.457 159.478 364.613 161.286C363.889 161.579 363.109 161.722 362.323 161.705C361.537 161.688 360.764 161.512 360.055 161.188C359.347 160.864 358.718 160.4 358.212 159.827C357.706 159.253 357.333 158.584 357.119 157.862C356.422 154.91 358.535 152.101 359.367 149.185C360.199 146.268 359.824 142.98 361.338 140.3C362.769 137.776 365.722 136.268 368.697 135.861C373.051 135.26 381.803 136.332 384.254 140.528C386.869 145.074 381.923 150.736 377.427 151.572Z" fill="#193441"/>
<path d="M381.519 143.91L391.377 149.717C392.245 150.225 393.207 150.878 393.314 151.894C393.472 153.397 391.6 154.703 392.116 156.118C392.582 157.41 394.491 157.33 395.438 158.296C396.636 159.544 395.704 161.612 394.678 163.006C393.652 164.399 392.525 166.272 393.472 167.724C394.19 168.856 395.919 168.957 397.096 168.297C398.218 167.537 399.133 166.503 399.757 165.292C400.381 164.083 401.285 163.045 402.391 162.266C404.45 161.061 407.643 161.54 408.712 159.362C409.508 157.744 408.403 155.828 407.105 154.587C405.806 153.346 404.235 152.243 403.682 150.515C402.8 147.612 405.397 143.983 403.517 141.581C401.989 139.643 398.76 140.282 396.88 138.678C394.8 136.921 395.115 133.111 392.748 131.79C389.756 130.135 386.204 134.258 382.932 133.241C381.11 132.697 379.811 130.636 377.91 130.708C376.346 130.766 375.241 132.276 374.58 133.72C373.565 135.943 373.02 138.356 372.98 140.804" fill="#193441"/>
<path d="M379.449 222.515C377.713 224.428 375.292 225.572 372.717 225.695C370.141 225.819 367.622 224.911 365.713 223.173L334.98 195.15L348.06 180.707L378.793 208.737C379.739 209.598 380.507 210.637 381.052 211.796C381.597 212.955 381.909 214.21 381.969 215.49C382.03 216.769 381.839 218.049 381.406 219.254C380.974 220.46 380.309 221.568 379.449 222.515Z" fill="#D3E3F8"/>
<path d="M358.98 217.292L365.438 223.144C367.379 224.902 369.941 225.82 372.562 225.695C373.859 225.634 375.131 225.318 376.306 224.766C377.481 224.215 378.535 223.438 379.409 222.48C380.283 221.522 380.958 220.403 381.398 219.185C381.837 217.967 382.031 216.674 381.969 215.382C381.907 214.089 381.59 212.821 381.037 211.65C380.483 210.48 379.703 209.429 378.742 208.559L372.285 202.707L358.98 217.292Z" fill="#91BAEE"/>
<path opacity="0.6" d="M334.969 148.215C338.552 151.542 341.088 155.878 342.257 160.675C343.425 165.472 343.174 170.515 341.535 175.166C339.896 179.818 336.942 183.869 333.047 186.808C329.152 189.747 324.49 191.442 319.652 191.678C314.813 191.914 310.014 190.682 305.862 188.136C301.709 185.59 298.39 181.845 296.323 177.374C294.256 172.904 293.534 167.908 294.248 163.019C294.963 158.13 297.082 153.567 300.337 149.906C302.501 147.473 305.114 145.499 308.026 144.097C310.938 142.695 314.093 141.892 317.309 141.735C320.526 141.578 323.741 142.07 326.771 143.181C329.801 144.293 332.587 146.004 334.969 148.215Z" fill="white"/>
<path d="M341.688 141.677C336.638 137.087 330.341 134.098 323.593 133.087C316.844 132.076 309.948 133.089 303.775 135.998C297.602 138.907 292.431 143.58 288.914 149.428C285.398 155.275 283.695 162.034 284.02 168.85C284.345 175.666 286.684 182.232 290.741 187.718C294.798 193.205 300.39 197.365 306.812 199.673C313.233 201.981 320.195 202.333 326.817 200.685C333.438 199.036 339.422 195.462 344.012 190.412C350.165 183.641 353.377 174.702 352.941 165.563C352.505 156.424 348.458 147.832 341.688 141.677ZM336.771 183.803C333.484 187.413 329.201 189.969 324.462 191.146C319.724 192.323 314.743 192.069 310.148 190.417C305.554 188.764 301.553 185.787 298.65 181.861C295.747 177.935 294.074 173.237 293.84 168.36C293.607 163.483 294.824 158.647 297.339 154.462C299.854 150.277 303.552 146.931 307.968 144.847C312.383 142.763 317.317 142.035 322.147 142.755C326.976 143.474 331.484 145.609 335.1 148.889C337.505 151.07 339.456 153.704 340.841 156.64C342.227 159.576 343.02 162.757 343.175 166C343.331 169.242 342.845 172.484 341.746 175.539C340.647 178.594 338.956 181.402 336.771 183.803Z" fill="#426DC0"/>
<path d="M340.503 166.28C338.133 192.01 306.45 192.003 294.98 174.786C296.117 178.208 297.983 181.338 300.449 183.959C302.914 186.58 305.92 188.627 309.255 189.958C312.59 191.29 316.174 191.872 319.757 191.666C323.339 191.459 326.833 190.469 329.995 188.763C333.157 187.057 335.91 184.678 338.062 181.791C340.213 178.904 341.711 175.58 342.451 172.051C343.191 168.521 343.155 164.872 342.345 161.358C341.536 157.844 339.972 154.55 337.764 151.707C340.091 156.185 341.044 161.257 340.503 166.28Z" fill="#FFE79F"/>
<path d="M405.866 178.707H405.792C405.144 180.638 404.157 183.344 402.935 186.567C402.316 188.197 401.616 189.948 400.865 191.786C400.114 193.624 399.259 195.526 398.361 197.45C397.462 199.37 396.459 201.242 395.356 203.057C394.844 203.903 394.281 204.718 393.669 205.498C393.24 206.069 392.746 206.592 392.196 207.055L392.034 207.177H391.982L391.769 207.264L391.349 207.45L390.612 207.759L389.876 208.068C388.815 208.47 387.747 208.872 386.672 209.245C384.506 209.963 382.348 210.681 380.212 211.262C378.076 211.844 375.999 212.317 374.011 212.698C372.146 213.042 370.262 213.281 368.369 213.416C367.492 213.466 366.653 213.488 365.857 213.502C365.118 213.526 364.378 213.48 363.648 213.366C362.263 213.093 361.143 212.583 360.193 212.396C359.473 212.205 358.73 212.104 357.984 212.095C357.695 212.082 357.405 212.104 357.122 212.16L356.82 212.231C356.446 212.319 356.1 212.494 355.811 212.741C355.571 212.944 355.375 213.191 355.234 213.468C355.092 213.745 355.008 214.047 354.986 214.355C354.964 214.664 355.005 214.974 355.106 215.267C355.207 215.56 355.367 215.832 355.575 216.065C355.814 216.309 356.081 216.525 356.371 216.711C357.152 217.207 358.021 217.557 358.934 217.745C359.569 217.874 360.215 217.953 360.864 217.981L363.117 218.039C363.913 218.039 364.745 218.204 365.629 218.305C366.513 218.405 367.433 218.477 368.398 218.534C370.328 218.671 372.42 218.707 374.629 218.707C376.839 218.707 379.167 218.577 381.575 218.362C384.047 218.15 386.505 217.813 388.94 217.35C390.2 217.113 391.467 216.84 392.734 216.495L393.698 216.237L394.685 215.95L395.127 215.814L395.348 215.749H395.429H395.51L395.709 215.67C396.219 215.469 396.712 215.229 397.182 214.952C398.659 214.085 399.996 213.011 401.152 211.765C402.115 210.738 403.015 209.657 403.848 208.527C405.331 206.478 406.686 204.345 407.906 202.138C409.092 200.056 410.116 198.017 411.037 196.086C411.957 194.155 412.782 192.31 413.511 190.602C414.984 187.192 416.038 184.299 416.782 182.274C416.855 182.088 416.914 181.915 416.98 181.736C413.342 180.506 409.631 179.495 405.866 178.707Z" fill="#FFC0A9"/>
<path d="M166.98 59.7065V69.7065H163.98" stroke="#DB8832" stroke-linecap="round" stroke-linejoin="round"/>
<path d="M161.98 56.7065V69.7065H157.98" stroke="#DB8832" stroke-linecap="round" stroke-linejoin="round"/>
<path d="M181.98 52.3645C180.74 55.6978 178.312 58.4506 175.165 60.0902C172.019 61.7297 168.378 62.1393 164.948 61.2396C161.716 60.3921 158.808 58.5975 156.596 56.0846C154.384 53.5716 152.968 50.4543 152.528 47.1303L152.054 43.5255C151.768 41.3354 152.323 39.1181 153.606 37.3238C154.89 35.5294 156.806 34.2926 158.965 33.8645C161.151 33.4403 163.416 33.8779 165.288 35.0864C167.161 36.2948 168.498 38.1811 169.021 40.3532L172.735 55.8828L181.98 52.3645Z" fill="white"/>
<path d="M157.04 46.0261C156.742 47.0631 157.595 48.2118 158.947 48.5867C160.298 48.9616 161.634 48.4272 161.924 47.3981C162.213 46.3691 161.368 45.2124 160.017 44.8295C158.665 44.4466 157.305 44.989 157.04 46.0261Z" fill="#FFDB82"/>
<path d="M160.054 42.3324C159.979 42.5157 159.961 42.717 160.001 42.9107C160.041 43.1044 160.138 43.2819 160.28 43.4205C160.421 43.5591 160.601 43.6527 160.795 43.6893C160.99 43.7259 161.192 43.7039 161.374 43.6261C161.556 43.5483 161.711 43.4182 161.819 43.2523C161.927 43.0864 161.983 42.8922 161.98 42.6944C161.978 42.4966 161.916 42.304 161.803 42.1413C161.691 41.9785 161.532 41.8528 161.348 41.7802C161.226 41.7306 161.097 41.7056 160.966 41.7066C160.835 41.7075 160.705 41.7345 160.585 41.7859C160.465 41.8373 160.356 41.9121 160.265 42.0059C160.173 42.0998 160.102 42.2108 160.054 42.3324Z" fill="#193441"/>
<path d="M151.814 41.4279C151.814 41.4279 154.177 42.2869 152.176 44.3262L148.67 44.7065L149.788 43.2311L147.98 40.7065L151.814 41.4279Z" fill="#E89A49"/>
</g>
<defs>
<linearGradient id="paint0_linear_13_50238" x1="259.48" y1="17.7063" x2="259.48" y2="280.706" gradientUnits="userSpaceOnUse">
<stop stop-color="#E9EEF7"/>
<stop offset="1" stop-color="#E9EEF7" stop-opacity="0"/>
</linearGradient>
<linearGradient id="paint1_linear_13_50238" x1="259.48" y1="17.7063" x2="259.48" y2="280.706" gradientUnits="userSpaceOnUse">
<stop stop-color="#E9EEF7"/>
<stop offset="1" stop-color="#E9EEF7" stop-opacity="0"/>
</linearGradient>
<linearGradient id="paint2_linear_13_50238" x1="402.351" y1="236.904" x2="385.601" y2="213.637" gradientUnits="userSpaceOnUse">
<stop stop-color="#201D3E"/>
<stop offset="1" stop-color="#47408F"/>
</linearGradient>
<linearGradient id="paint3_linear_13_50238" x1="432.302" y1="231.656" x2="411.812" y2="205.908" gradientUnits="userSpaceOnUse">
<stop stop-color="#201D3E"/>
<stop offset="1" stop-color="#47408F"/>
</linearGradient>
<clipPath id="clip0_13_50238">
<rect width="508" height="299.667" fill="white" transform="translate(0 0.70874)"/>
</clipPath>
</defs>
</svg>
