<svg width="508" height="339" viewBox="0 0 508 339" fill="none" xmlns="http://www.w3.org/2000/svg">
<g clip-path="url(#clip0_1_1491)">
<path fill-rule="evenodd" clip-rule="evenodd" d="M254.559 333.399C309.659 333.399 360.367 333.997 400.606 335C499.084 294.122 464.984 214.446 429.628 169.378C380.418 106.647 264.132 84.1087 216.035 134.155C150.754 202.084 87.7745 178.378 53.7683 229.978C19.7622 281.578 71.4069 331.015 108.509 335C148.748 333.997 199.456 333.399 254.559 333.399ZM168.272 159.457C143.064 173.389 101.373 184.185 87.5295 169.373C77.1852 158.308 89.926 137.547 114.879 121.804C139.833 106.061 173.242 96.5545 191.434 108.129C213.057 121.882 187.685 148.729 168.272 159.457Z" fill="url(#paint0_linear_1_1491)"/>
<path d="M254.002 338.67C394.283 338.67 508.003 330.914 508.003 321.347C508.003 311.78 394.283 304.025 254.002 304.025C113.72 304.025 0 311.78 0 321.347C0 330.914 113.72 338.67 254.002 338.67Z" fill="#D1DEED"/>
<path d="M114.497 252.286H44.332V322.159H114.497V252.286Z" fill="#5416CE"/>
<path d="M220.731 223.312H150.566V322.158H220.731V223.312Z" fill="#5416CE"/>
<path d="M319.991 199.456H249.826V322.162H319.991V199.456Z" fill="#5416CE"/>
<path d="M419.251 165.206H349.086V322.159H419.251V165.206Z" fill="#5416CE"/>
<path d="M212.345 243.759C212.345 243.759 209.84 248.805 208.988 248.778C208.136 248.751 206.741 248.072 207.206 247.125C207.545 246.422 205.312 246.591 204.46 246.564C203.608 246.537 199.935 244.35 198.54 243.667C197.145 242.985 196.606 242.336 197.23 241.071C197.855 239.807 203.269 242.853 204.236 241.747C205.203 240.642 206.9 241.818 206.9 241.818L212.345 243.759Z" fill="url(#paint1_linear_1_1491)"/>
<path d="M231.892 246.222C231.892 246.56 231.732 251.833 230.969 252.154C230.205 252.476 228.637 252.452 228.661 251.394C228.681 250.613 226.716 251.701 225.945 252.033C225.175 252.364 220.905 251.908 219.354 251.874C217.803 251.84 217.035 251.461 217.069 250.055C217.103 248.649 223.298 249.156 223.725 247.764C224.017 246.794 225.083 246.665 225.704 246.679V246.784L231.892 246.222Z" fill="url(#paint2_linear_1_1491)"/>
<path d="M231.896 246.222L225.678 246.784V246.679C225.833 246.681 225.989 246.694 226.143 246.716L231.896 246.222Z" fill="url(#paint3_linear_1_1491)"/>
<path d="M275.32 118.271C275.32 118.271 275.432 118.592 275.629 119.113C275.785 119.528 276.002 120.076 276.27 120.688C277.55 123.605 279.984 127.989 282.767 127.025C282.986 126.95 283.196 126.849 283.391 126.725C287.756 123.96 286.022 119.593 286.657 119.799C287.291 120.005 291.649 117.23 289.946 114.952C288.242 112.674 285.533 114.594 285.367 117.318C285.2 120.042 284.114 117.96 282.828 115.472C281.541 112.985 281.334 113.613 279.641 112.383C277.947 111.153 275.673 112.846 275.479 114.519C275.362 115.766 275.308 117.019 275.32 118.271Z" fill="url(#paint4_linear_1_1491)"/>
<path d="M281.465 137.196C281.607 137.108 281.682 137.149 281.682 137.149C282.985 136.618 284.221 132.599 286.631 130.838C288.586 129.418 288.464 128.587 288.328 127.61C288.192 126.633 287.785 124.23 287.785 124.23L287.588 123.446L286.658 119.809C286.023 119.603 287.758 123.97 283.393 126.735C283.197 126.859 282.988 126.96 282.768 127.035C282.768 127.035 284.187 129.844 283.742 132.048C283.332 134.086 280.769 137.196 281.465 137.196Z" fill="url(#paint5_linear_1_1491)"/>
<path d="M281.682 137.149C281.682 137.149 285.008 136.473 285.415 138.72C285.415 138.72 290.846 133.988 289.638 128.154C288.809 127.816 288.314 127.61 288.314 127.61C288.46 128.587 288.582 129.418 286.617 130.838C284.221 132.599 282.985 136.618 281.682 137.149Z" fill="url(#paint6_linear_1_1491)"/>
<path d="M294.318 165.203C293.3 157.98 291.969 144.49 295.275 139.9C297.861 136.314 300.495 135.418 302.684 135.749C299.986 133.103 294.878 130.51 291.521 128.989C290.795 128.651 290.163 128.381 289.641 128.161C290.835 133.998 285.418 138.727 285.418 138.727C285.007 136.469 281.685 137.155 281.685 137.155C281.616 137.185 281.542 137.201 281.467 137.203C281.196 137.365 280.683 137.983 279.974 140.197C279.173 142.881 278.536 145.61 278.066 148.37C276.821 155.026 274.964 163.023 273.566 168.779C272.49 173.203 271.689 176.313 271.645 176.465C276.264 175.569 293.534 172.071 295.065 169.908C295.061 169.901 294.712 168.032 294.318 165.203Z" fill="url(#paint7_linear_1_1491)"/>
<path d="M294.318 165.203C296.992 165.832 305.155 164.929 305.155 164.929C305.546 153.937 305.651 139.629 303.709 136.915C303.402 136.5 303.062 136.11 302.691 135.749C300.502 135.411 297.868 136.314 295.282 139.9C291.969 144.483 293.303 157.98 294.318 165.203Z" fill="url(#paint8_linear_1_1491)"/>
<path d="M270.512 176.682L270.912 181.099L300.469 178.436C300.936 178.392 301.394 178.278 301.827 178.098C302.648 177.758 303.356 177.194 303.87 176.471C304.383 175.748 304.681 174.896 304.729 174.011C304.854 171.645 305.014 168.461 305.139 164.926C305.139 164.926 296.976 165.828 294.302 165.2C294.695 168.029 295.045 169.898 295.045 169.898C293.507 172.068 276.238 175.559 271.625 176.455L270.512 176.682Z" fill="url(#paint9_linear_1_1491)"/>
<path d="M268.526 179.886L268.655 181.302L243.877 183.533L243.748 182.117L250.947 181.471L257.868 180.846L261.602 180.508L268.526 179.886Z" fill="url(#paint10_linear_1_1491)"/>
<path d="M243.874 183.533L226.133 164.591L226.859 163.922L243.745 182.12L243.874 183.533Z" fill="url(#paint11_linear_1_1491)"/>
<path d="M301.843 178.101C301.802 178.459 300.377 189.864 294.593 196.533C288.725 203.293 250.638 200.491 250.638 200.491L231.899 246.223L225.674 246.784V246.679C225.854 245.557 227.585 235.038 229.55 223.184C231.654 210.509 234.02 196.316 235.055 190.492C235.273 189.218 235.439 188.36 235.52 187.984C236.355 184.222 243.853 183.546 243.853 183.546L300.441 178.449C300.924 178.406 301.397 178.289 301.843 178.101Z" fill="url(#paint12_linear_1_1491)"/>
<path d="M235.072 190.489C234.037 196.309 231.678 210.506 229.567 223.184L212.345 243.758L206.914 241.832L235.072 190.489Z" fill="url(#paint13_linear_1_1491)"/>
<path d="M270.507 176.682L270.907 181.099C270.008 180.951 269.177 180.527 268.531 179.886L261.611 180.511C261.22 180.545 264.075 176.6 265.137 176.195C266.2 175.789 270.507 176.682 270.507 176.682Z" fill="url(#paint14_linear_1_1491)"/>
<path d="M273.559 168.772C272.479 173.197 271.678 176.303 271.638 176.462C270.918 176.607 270.507 176.682 270.507 176.682C270.507 176.682 266.193 175.782 265.131 176.195C264.069 176.607 261.214 180.545 261.604 180.511L260.868 180.575L259.85 177.641L273.559 168.772Z" fill="url(#paint15_linear_1_1491)"/>
<path d="M260.868 180.575L257.867 180.846L250.947 181.471C250.556 181.505 253.411 177.56 254.476 177.151C255.542 176.742 259.85 177.641 259.85 177.641L260.868 180.575Z" fill="url(#paint16_linear_1_1491)"/>
<path d="M274.577 117.68C274.635 118.339 275.497 119.032 275.629 119.113C275.432 118.592 275.32 118.271 275.32 118.271C275.308 117.015 275.361 115.759 275.48 114.509C275.673 112.819 277.954 111.129 279.641 112.373C281.328 113.617 281.538 112.978 282.828 115.462C284.118 117.947 285.204 120.022 285.367 117.308C285.53 114.594 288.238 112.684 289.946 114.942C291.653 117.2 287.285 119.985 286.657 119.789L287.577 123.426C288.968 121.679 290.217 119.824 291.31 117.879C293.007 114.817 291.198 108.101 286.28 109.209C286.28 109.209 282.546 103.984 277.652 107.218C272.758 110.453 272.021 110.088 272.018 113.238C272.014 116.388 274.512 116.966 274.577 117.68Z" fill="#231F20"/>
<path d="M64.7683 250.032C64.7683 251.492 63.9605 251.857 62.3516 251.857C60.7427 251.857 56.3065 252.222 55.5021 251.857C54.6977 251.492 52.6815 250.312 52.6815 251.127C52.6815 252.222 51.0693 252.222 50.2649 251.857C49.4604 251.492 49.457 245.655 49.457 245.655H55.5021C55.5021 245.655 57.5148 246.02 57.9188 247.48C58.3227 248.94 64.7683 248.588 64.7683 250.032Z" fill="url(#paint17_linear_1_1491)"/>
<path d="M107.864 250.032C107.864 251.492 107.056 251.857 105.444 251.857C103.832 251.857 99.4022 252.222 98.5978 251.857C97.7934 251.492 95.7772 250.312 95.7772 251.127C95.7772 252.222 94.165 252.222 93.3606 251.857C92.5561 251.492 92.5527 245.655 92.5527 245.655H98.5978C98.5978 245.655 100.611 246.02 101.014 247.48C101.418 248.94 107.864 248.588 107.864 250.032Z" fill="url(#paint18_linear_1_1491)"/>
<path d="M95.1768 138.852C95.1768 138.852 88.1033 155.975 82.0277 169.533C79.774 174.576 77.656 179.115 76.0912 182.096C70.3211 193.088 55.8516 239.121 55.4851 245.641H49.457C48.975 225.57 63.6108 174.201 63.6108 174.201C60.2505 161.539 66.4178 138.839 66.4178 138.839L95.1768 138.852Z" fill="url(#paint19_linear_1_1491)"/>
<path d="M99.6161 183.293C99.3751 217.702 98.5978 245.655 98.5978 245.655H92.5494C92.5494 245.655 86.4398 212.719 87.1186 184.476C87.1186 184.476 83.6905 176.026 82.0273 169.523C88.0894 155.975 95.1629 138.842 95.1629 138.842C95.1629 138.842 99.8537 148.877 99.6161 183.293Z" fill="url(#paint20_linear_1_1491)"/>
<path d="M100.306 55.4326C100.13 55.6692 97.0989 57.5519 97.591 58.9208H93.3958C92.995 58.3302 92.6998 57.675 92.5235 56.9841C92.2791 55.9397 92.6728 54.9831 92.5235 54.0874C92.3742 53.1917 92.9749 52.3501 93.3958 53.1883C93.7299 53.7972 93.9712 54.4522 94.112 55.1318C94.2002 55.6693 95.0725 55.4901 95.4052 54.6248C95.7378 53.7595 97.6521 52.1439 99.39 52.8469C101.128 53.55 100.49 55.1893 100.306 55.4326Z" fill="url(#paint21_linear_1_1491)"/>
<path d="M32.4356 77.4402L29.1941 80.5464C29.1941 80.5464 28.6069 79.7251 26.1393 79.0525C23.6718 78.3798 23.7838 78.4812 22.4804 75.9699C21.177 73.4585 24.7749 71.4541 25.7185 72.1268C26.6621 72.7994 27.6566 74.4928 28.461 74.7564C29.2654 75.0201 30.1581 74.1717 29.8187 73.3672C29.4793 72.5628 29.1908 70.8119 29.8187 71.1229C30.4466 71.4339 31.2578 73.1847 31.8857 73.6816C32.5137 74.1784 32.4356 77.4402 32.4356 77.4402Z" fill="url(#paint22_linear_1_1491)"/>
<path d="M69.8726 123.101C49.0899 122.303 58.5258 106.079 58.5258 106.079C59.5169 106.495 60.5317 106.938 61.5806 107.431C66.9264 109.966 69.6553 116.933 69.8726 123.101Z" fill="#231F20"/>
<path d="M81.1549 91.6566C80.5337 91.9338 79.4951 91.9709 78.4395 92.1061C78.2426 92.1298 78.0491 92.1467 77.8523 92.1636L77.5129 92.194C77.3941 92.194 77.2821 92.2109 77.1734 92.2244C75.4492 92.3427 73.9965 92.3495 73.9965 92.3495V92.3732H73.9727C72.4352 90.1592 72.425 89.2128 72.5234 88.8714C72.7322 88.7995 72.9194 88.6764 73.0678 88.5133C73.2161 88.3502 73.3207 88.1526 73.372 87.9386C74.6516 82.5001 69.8861 77.8255 69.8861 77.8255C69.8861 77.8255 67.2963 77.5348 66.2883 78.302C65.2802 79.0693 64.9306 79.5898 64.7541 83.0848C64.5776 86.5798 68.9255 87.1949 67.7274 87.9081C66.5292 88.6213 64.6115 85.1804 63.4541 86.1843C62.2967 87.1882 62.928 88.9052 64.8491 89.7266C66.7702 90.5479 67.7749 89.1013 67.7749 89.1013C67.9243 89.2669 70.1169 91.6634 70.5683 94.969C70.5683 95.0704 70.5989 95.1752 70.6057 95.2766C70.6445 95.6414 70.6592 96.0084 70.6498 96.3751C70.5446 100.529 67.819 100.218 66.8924 99.5017C66.8924 99.5017 63.2572 96.3379 59.863 94.7865C59.3937 94.5697 58.9094 94.3867 58.4137 94.2389C58.0539 94.1139 57.6907 94.0057 57.3411 93.9009C53.5057 88.672 59.3777 84.5517 59.3777 84.5517C55.8511 81.6753 57.7179 74.3846 62.3171 72.2991C66.9162 70.2136 70.1237 73.0495 70.1237 73.0495C76.9121 74.8105 75.8463 84.9235 75.8463 84.9235C75.8463 84.9235 80.5643 87.2118 81.1549 91.6566Z" fill="#231F20"/>
<path d="M97.5762 83.416C96.5003 85.444 88.3406 98.4707 89.0602 100.62C89.7797 102.77 95.9674 104.575 91.7552 114.357C88.2015 122.611 96.1371 129.53 95.1765 138.852H66.4311C66.4311 138.852 68.067 134.664 69.5062 127.86C69.8239 126.295 69.947 124.696 69.8727 123.101C69.6555 116.933 66.9266 109.966 61.5671 107.424C60.5489 106.938 59.5306 106.495 58.5124 106.072C53.0002 103.74 48.1091 102.101 42.3186 96.4326C35.4827 89.7367 29.1797 80.5464 29.1797 80.5464L32.4211 77.4401C32.4211 77.4401 43.7001 87.9554 49.0934 90.7C54.4868 93.4446 56.2213 93.688 56.2213 93.688C56.5964 93.7435 56.9681 93.8202 57.3346 93.9178C57.674 94.0057 58.0474 94.1139 58.4072 94.2558C58.8891 94.4147 59.3745 94.5938 59.8565 94.8034C63.2507 96.3548 66.8859 99.5185 66.8859 99.5185C67.8125 100.235 70.538 100.533 70.6432 96.392C70.6527 96.0252 70.6379 95.6583 70.5991 95.2935C73.8711 95.2631 73.9933 92.6537 73.9933 92.39V92.3664C73.9933 92.3664 75.446 92.3664 77.1703 92.2413C77.2823 92.2413 77.3943 92.2413 77.5097 92.2109L77.8491 92.1805C78.046 92.1636 78.2395 92.1467 78.4363 92.123C79.794 91.9811 81.1517 91.7512 81.9799 91.3895C82.1958 91.3044 82.3929 91.1781 82.5603 91.0177C83.8263 89.7029 90.6011 78.4609 90.9609 75.9867C91.3207 73.5125 93.364 58.9377 93.364 58.9377H97.5593C97.5593 58.9377 98.659 81.3846 97.5762 83.416Z" fill="#7433ED"/>
<path d="M74.014 92.3732C74.014 92.6368 73.8952 95.2462 70.6198 95.2766C70.6198 95.1752 70.5995 95.0705 70.5825 94.9691C70.1311 91.6634 67.9384 89.2669 67.7891 89.1013C68.305 89.2433 70.8201 89.054 72.2015 88.9492C72.317 88.9347 72.4307 88.9086 72.5409 88.8715C72.4425 89.2095 72.4527 90.1593 73.9902 92.3732H74.014Z" fill="url(#paint23_linear_1_1491)"/>
<path d="M73.3895 87.9385C73.3383 88.1525 73.2337 88.3502 73.0853 88.5133C72.937 88.6763 72.7498 88.7995 72.541 88.8714C72.4308 88.9086 72.317 88.9346 72.2016 88.9491C70.8201 89.0539 68.305 89.2432 67.7891 89.1012C67.7891 89.1012 66.7709 90.5344 64.8633 89.7265C62.9558 88.9187 62.3176 87.1949 63.4683 86.1843C64.6189 85.1736 66.54 88.6213 67.7416 87.9081C68.9431 87.1949 64.5782 86.5561 64.7683 83.0847C64.9583 79.6134 65.2944 79.0659 66.3024 78.302C67.3105 77.5381 69.9003 77.8254 69.9003 77.8254C69.9003 77.8254 74.6692 82.5 73.3895 87.9385Z" fill="url(#paint24_linear_1_1491)"/>
<path d="M371.892 305.468C367.918 279.638 345.353 256.224 345.353 256.224H319.852C319.852 256.224 297.291 279.638 293.317 305.468C292.85 308.476 293.043 311.55 293.881 314.477C294.719 317.405 296.182 320.117 298.171 322.429C300.161 324.74 302.628 326.596 305.405 327.869C308.182 329.142 311.202 329.802 314.259 329.804H350.947C354.004 329.802 357.024 329.142 359.801 327.869C362.578 326.596 365.046 324.74 367.035 322.429C369.024 320.118 370.488 317.405 371.327 314.478C372.165 311.55 372.358 308.477 371.892 305.468Z" fill="url(#paint25_linear_1_1491)"/>
<path d="M346.776 254.477C346.771 254.94 346.582 255.383 346.251 255.709C345.92 256.035 345.473 256.217 345.008 256.217H320.077C319.625 256.198 319.198 256.005 318.884 255.679C318.571 255.353 318.396 254.919 318.396 254.468C318.396 254.017 318.571 253.584 318.884 253.258C319.198 252.932 319.625 252.739 320.077 252.719H345.008C345.476 252.72 345.925 252.905 346.256 253.235C346.587 253.564 346.774 254.01 346.776 254.477Z" fill="url(#paint26_linear_1_1491)"/>
<path d="M322.073 252.719H320.07C318.892 249.224 310.4 242.447 308.635 240.686C306.87 238.925 313.971 235.616 315.678 234.396C316.754 233.635 316.017 231.955 315.339 230.782C316.907 233.186 320.895 240.395 322.073 252.719Z" fill="url(#paint27_linear_1_1491)"/>
<path d="M345.001 252.719H343.748C344.257 245.472 348.357 234.73 349.179 232.658C349.028 233.538 349.082 234.44 349.338 235.295C350.18 237.999 354.85 236.897 356.066 240.804C357.281 244.712 346.806 246.334 345.001 252.719Z" fill="url(#paint28_linear_1_1491)"/>
<path d="M350.065 229.826C349.635 230.708 349.343 231.651 349.2 232.621C349.179 232.621 349.179 232.621 349.179 232.658C348.358 234.73 344.258 245.472 343.748 252.719H322.073C320.895 240.395 316.914 233.186 315.342 230.782C315.285 230.684 315.227 230.586 315.166 230.492C314.891 230.079 314.735 229.866 314.735 229.866C314.707 229.831 314.688 229.789 314.68 229.745C314.671 229.702 314.672 229.656 314.684 229.613C314.695 229.569 314.716 229.529 314.746 229.495C314.775 229.461 314.812 229.434 314.854 229.417C317.481 228.302 337.442 216.505 349.926 229.417C349.986 229.464 350.032 229.528 350.056 229.601C350.081 229.673 350.084 229.752 350.065 229.826Z" fill="url(#paint29_linear_1_1491)"/>
<path d="M329.778 316.152V311.082C326.187 310.92 322.704 309.96 320.668 308.787L322.273 302.541C324.999 304.047 328.056 304.859 331.173 304.907C334.228 304.907 336.315 303.734 336.315 301.598C336.315 299.57 334.618 298.289 330.637 296.953C324.901 295.034 320.987 292.363 320.987 287.189C320.987 282.49 324.313 278.809 330.046 277.687V272.617H335.297V277.315C338.888 277.474 341.301 278.221 343.07 279.076L341.515 285.093C340.12 284.505 337.656 283.278 333.797 283.278C330.314 283.278 329.187 284.772 329.187 286.266C329.187 288.027 331.064 289.149 335.636 290.856C342.014 293.1 344.587 296.034 344.587 300.837C344.587 305.569 341.193 309.625 335.046 310.71V316.156L329.778 316.152Z" fill="url(#paint30_linear_1_1491)"/>
<path d="M365.402 293.317C365.351 293.633 365.199 293.926 364.969 294.15C364.738 294.375 364.442 294.52 364.123 294.564C354.65 295.872 352.949 287.871 350.98 278.61C350.431 276.034 349.867 273.374 349.107 270.559C345.764 258.174 333.154 255.717 333.029 255.687C332.834 255.651 332.649 255.577 332.483 255.47C332.317 255.363 332.174 255.225 332.062 255.063C331.95 254.901 331.871 254.718 331.83 254.526C331.789 254.333 331.786 254.134 331.822 253.941C331.858 253.747 331.932 253.563 332.039 253.398C332.147 253.232 332.286 253.09 332.449 252.978C332.611 252.867 332.795 252.788 332.988 252.747C333.181 252.706 333.381 252.704 333.575 252.739C334.169 252.847 348.17 255.585 352.012 269.775C352.793 272.668 353.394 275.49 353.923 277.981C356.065 288.061 357.283 292.478 363.709 291.589C363.904 291.562 364.104 291.573 364.295 291.622C364.487 291.672 364.666 291.758 364.824 291.877C364.982 291.996 365.114 292.144 365.214 292.314C365.314 292.484 365.379 292.672 365.406 292.867C365.429 293.016 365.428 293.168 365.402 293.317Z" fill="url(#paint31_linear_1_1491)"/>
<path d="M349.232 294.709C349.204 294.878 349.148 295.042 349.066 295.192C348.874 295.539 348.552 295.796 348.17 295.907C347.788 296.018 347.378 295.973 347.029 295.784C341.68 292.86 341.938 288.29 344.083 274.926C346.079 262.548 333.11 256.092 332.543 255.825C332.183 255.652 331.907 255.343 331.775 254.967C331.644 254.59 331.668 254.178 331.842 253.819C332.016 253.46 332.326 253.186 332.704 253.055C333.082 252.924 333.496 252.948 333.856 253.121C334.012 253.195 349.395 260.801 347.039 275.392C344.772 289.463 345.322 291.434 348.462 293.151C348.736 293.299 348.958 293.529 349.096 293.808C349.234 294.087 349.282 294.402 349.232 294.709Z" fill="url(#paint32_linear_1_1491)"/>
<path d="M447.444 263.461C452.821 268.815 451.857 278.434 451.857 278.434C451.857 278.434 442.19 279.384 436.814 274.04C431.437 268.696 432.401 259.063 432.401 259.063C432.401 259.063 442.068 258.117 447.444 263.461Z" fill="url(#paint33_linear_1_1491)"/>
<path d="M432.408 259.067L451.87 278.444C451.87 278.444 442.203 279.394 436.827 274.05C431.451 268.707 432.408 259.067 432.408 259.067Z" fill="url(#paint34_linear_1_1491)"/>
<path d="M458.466 263.461C453.09 268.815 454.053 278.434 454.053 278.434C454.053 278.434 463.717 279.384 469.093 274.04C474.47 268.696 473.506 259.063 473.506 259.063C473.506 259.063 463.839 258.117 458.466 263.461Z" fill="url(#paint35_linear_1_1491)"/>
<path d="M473.497 259.067L454.031 278.441C454.031 278.441 463.695 279.391 469.071 274.047C474.447 268.703 473.497 259.067 473.497 259.067Z" fill="url(#paint36_linear_1_1491)"/>
<path d="M448.417 244.779C452.83 249.173 452.059 257.103 452.059 257.103C452.059 257.103 444.103 257.887 439.681 253.48C435.258 249.072 436.042 241.153 436.042 241.153C436.042 241.153 443.991 240.372 448.417 244.779Z" fill="url(#paint37_linear_1_1491)"/>
<path d="M436.042 241.152L452.059 257.103C452.059 257.103 444.103 257.887 439.681 253.479C435.258 249.072 436.042 241.152 436.042 241.152Z" fill="url(#paint38_linear_1_1491)"/>
<path d="M457.49 244.779C453.078 249.173 453.848 257.103 453.848 257.103C453.848 257.103 461.801 257.887 466.227 253.48C470.653 249.072 469.866 241.153 469.866 241.153C469.866 241.153 461.913 240.372 457.49 244.779Z" fill="url(#paint39_linear_1_1491)"/>
<path d="M469.867 241.152L453.85 257.103C453.85 257.103 461.802 257.887 466.228 253.479C470.654 249.072 469.867 241.152 469.867 241.152Z" fill="url(#paint40_linear_1_1491)"/>
<path d="M449.653 229.917C452.874 233.125 452.304 238.888 452.304 238.888C452.304 238.888 446.514 239.459 443.293 236.251C440.071 233.044 440.645 227.277 440.645 227.277C440.645 227.277 446.432 226.71 449.653 229.917Z" fill="url(#paint41_linear_1_1491)"/>
<path d="M440.645 227.294L452.304 238.905C452.304 238.905 446.514 239.476 443.293 236.268C440.071 233.061 440.645 227.294 440.645 227.294Z" fill="url(#paint42_linear_1_1491)"/>
<path d="M456.256 229.917C453.035 233.125 453.605 238.888 453.605 238.888C453.605 238.888 459.396 239.459 462.617 236.251C465.838 233.044 465.265 227.277 465.265 227.277C465.265 227.277 459.464 226.71 456.256 229.917Z" fill="url(#paint43_linear_1_1491)"/>
<path d="M465.265 227.294L453.605 238.905C453.605 238.905 459.396 239.476 462.617 236.268C465.838 233.061 465.265 227.294 465.265 227.294Z" fill="url(#paint44_linear_1_1491)"/>
<path d="M454.041 224.976H451.869V291.339H454.041V224.976Z" fill="url(#paint45_linear_1_1491)"/>
<path d="M451.025 219.24C453.354 221.558 452.943 225.726 452.943 225.726C452.943 225.726 448.755 226.138 446.43 223.82C444.105 221.501 444.512 217.333 444.512 217.333C444.512 217.333 448.697 216.921 451.025 219.24Z" fill="url(#paint46_linear_1_1491)"/>
<path d="M444.529 217.333L452.961 225.726C452.961 225.726 448.772 226.138 446.447 223.82C444.122 221.501 444.529 217.333 444.529 217.333Z" fill="url(#paint47_linear_1_1491)"/>
<path d="M454.885 219.24C452.557 221.558 452.967 225.726 452.967 225.726C452.967 225.726 457.152 226.138 459.481 223.82C461.809 221.501 461.395 217.333 461.395 217.333C461.395 217.333 457.21 216.921 454.885 219.24Z" fill="url(#paint48_linear_1_1491)"/>
<path d="M461.395 217.333L452.967 225.726C452.967 225.726 457.152 226.138 459.48 223.82C461.809 221.501 461.395 217.333 461.395 217.333Z" fill="url(#paint49_linear_1_1491)"/>
<path d="M463.371 321.432H442.54L435.674 287.01H470.237L463.371 321.432Z" fill="url(#paint50_linear_1_1491)"/>
<path d="M472.354 287.013H433.555V289.065H472.354V287.013Z" fill="url(#paint51_linear_1_1491)"/>
<path d="M305.706 264.762C305.013 263.93 304.154 263.25 303.184 262.764C294.851 258.644 280.443 270.653 270.98 289.595C261.517 308.537 260.624 327.235 268.943 331.355C269.917 331.835 270.981 332.107 272.066 332.153C280.552 332.613 292.794 321.28 301.151 304.531C309.507 287.783 311.208 271.235 305.706 264.762Z" fill="url(#paint52_linear_1_1491)"/>
<path d="M306.207 307.026C296.758 325.954 282.536 336.385 274.601 334.148L268.963 331.356C269.937 331.835 271 332.107 272.086 332.153C280.571 332.613 292.814 321.28 301.17 304.532C309.527 287.783 311.207 271.221 305.715 264.762C305.022 263.93 304.163 263.25 303.193 262.764L308.831 265.556C315.572 269.014 315.66 288.084 306.207 307.026Z" fill="url(#paint53_linear_1_1491)"/>
<path d="M296.806 276.061C293.483 271.208 284.061 279.587 277.259 293.219C270.457 306.85 269.453 319.39 275.331 319.093C279.744 318.88 286.76 311.258 292.099 300.56C297.438 289.862 299.288 279.685 296.806 276.061ZM275.358 316.598C272.188 317.088 272.596 306.57 278.844 294.053C285.093 281.537 292.913 273.743 295.072 277.748C296.691 280.743 294.522 289.578 289.624 299.38C284.726 309.182 278.732 316.078 275.358 316.598Z" fill="url(#paint54_linear_1_1491)"/>
<path d="M285.341 296.751C284.322 298.806 282.849 300.212 281.858 300.181C281.732 300.178 281.608 300.148 281.495 300.094C280.531 299.617 280.691 297.346 281.834 295.024C282.978 292.701 284.713 291.207 285.677 291.684C285.789 291.739 285.888 291.819 285.965 291.917C286.613 292.685 286.359 294.699 285.341 296.751Z" fill="url(#paint55_linear_1_1491)"/>
<path d="M303.283 267.682C302.722 266.972 302.01 266.395 301.199 265.992C294.254 262.555 281.757 273.523 273.285 290.498C264.813 307.472 263.588 324.007 270.532 327.445C271.349 327.844 272.246 328.057 273.156 328.07C280.321 328.27 290.962 317.954 298.449 302.95C305.937 287.946 307.77 273.263 303.283 267.682ZM273.431 326.062C272.662 326.091 271.899 325.931 271.208 325.596C265.376 322.709 267.134 307.394 275.111 291.383C283.087 275.372 294.305 264.738 300.136 267.625C300.821 267.973 301.41 268.481 301.854 269.105C305.479 274.064 303.289 287.696 296.226 301.831C289.163 315.966 279.588 325.947 273.431 326.062Z" fill="url(#paint56_linear_1_1491)"/>
<path d="M252.882 279.884L247.112 277.035C247.052 277.002 246.986 276.98 246.919 276.967L245.408 273.313L251.979 276.802C252.036 276.832 252.086 276.874 252.125 276.924C252.164 276.975 252.192 277.033 252.207 277.096L252.882 279.884Z" fill="url(#paint57_linear_1_1491)"/>
<path d="M251.82 281.199L249.749 282.301C249.679 282.338 249.602 282.359 249.523 282.364C249.444 282.369 249.365 282.356 249.291 282.328L242.469 279.702L246.202 278.404C246.254 278.446 246.309 278.482 246.369 278.512L251.82 281.199Z" fill="url(#paint58_linear_1_1491)"/>
<path d="M283.12 296.886C283.158 296.585 251.914 281.246 251.819 281.199L246.388 278.495C246.329 278.465 246.273 278.429 246.222 278.387C246.081 278.268 245.983 278.106 245.945 277.926C245.907 277.745 245.931 277.558 246.013 277.392C246.094 277.227 246.229 277.094 246.396 277.014C246.562 276.934 246.751 276.911 246.931 276.95C246.999 276.963 247.064 276.986 247.125 277.018L252.895 279.867L283.847 295.385C283.551 295.858 283.307 296.361 283.12 296.886Z" fill="url(#paint59_linear_1_1491)"/>
<path d="M177.571 172.876C177.359 174.287 176.731 175.605 175.767 176.661C174.804 177.718 173.547 178.467 172.156 178.812C170.766 179.158 169.303 179.086 167.954 178.604C166.605 178.122 165.429 177.253 164.575 176.106C163.722 174.959 163.229 173.586 163.159 172.16C163.089 170.735 163.445 169.32 164.182 168.096C164.919 166.872 166.003 165.892 167.299 165.282C168.595 164.671 170.043 164.457 171.461 164.665C172.404 164.804 173.31 165.126 174.128 165.614C174.946 166.102 175.659 166.745 176.226 167.508C176.794 168.271 177.205 169.137 177.436 170.059C177.666 170.98 177.712 171.937 177.571 172.876Z" fill="url(#paint60_linear_1_1491)"/>
<path d="M169.204 175.478C169.124 175.429 169.054 175.366 168.997 175.292L166.58 172.146C166.463 171.983 166.414 171.782 166.444 171.585C166.474 171.387 166.58 171.209 166.739 171.088C166.899 170.967 167.099 170.913 167.298 170.937C167.497 170.96 167.679 171.061 167.805 171.216L169.686 173.667L173.599 169.776C173.747 169.658 173.933 169.597 174.122 169.607C174.311 169.616 174.49 169.695 174.625 169.827C174.759 169.96 174.84 170.137 174.852 170.325C174.864 170.513 174.806 170.699 174.689 170.848L170.154 175.357C170.077 175.433 169.983 175.493 169.881 175.532C169.779 175.57 169.669 175.586 169.56 175.58C169.435 175.575 169.312 175.541 169.204 175.478Z" fill="white"/>
<path d="M458.255 177.27C458.133 178.08 457.774 178.836 457.221 179.442C456.668 180.049 455.947 180.478 455.149 180.677C454.351 180.875 453.512 180.833 452.738 180.557C451.963 180.28 451.289 179.781 450.8 179.122C450.311 178.464 450.029 177.676 449.989 176.858C449.95 176.039 450.155 175.228 450.579 174.526C451.003 173.824 451.626 173.263 452.37 172.914C453.114 172.565 453.945 172.443 454.759 172.565C455.299 172.645 455.817 172.83 456.285 173.11C456.753 173.39 457.161 173.759 457.486 174.196C457.81 174.633 458.045 175.129 458.177 175.657C458.309 176.184 458.336 176.732 458.255 177.27Z" fill="url(#paint61_linear_1_1491)"/>
<path d="M453.454 178.767C453.409 178.737 453.369 178.701 453.335 178.659L451.954 176.854C451.89 176.761 451.865 176.648 451.882 176.537C451.9 176.426 451.96 176.326 452.05 176.257C452.139 176.189 452.252 176.157 452.364 176.169C452.476 176.18 452.58 176.235 452.653 176.32L453.733 177.726L455.976 175.495C456.016 175.45 456.065 175.414 456.12 175.389C456.174 175.363 456.233 175.35 456.294 175.348C456.354 175.346 456.414 175.357 456.47 175.379C456.526 175.401 456.576 175.435 456.619 175.477C456.661 175.52 456.695 175.57 456.717 175.626C456.739 175.682 456.749 175.742 456.747 175.802C456.745 175.862 456.731 175.921 456.705 175.975C456.679 176.029 456.643 176.077 456.597 176.117L454.001 178.703C453.956 178.746 453.903 178.78 453.844 178.802C453.786 178.824 453.724 178.834 453.661 178.831C453.588 178.826 453.517 178.804 453.454 178.767Z" fill="white"/>
<path d="M404.651 23.498C404.529 24.3079 404.169 25.0636 403.615 25.6695C403.062 26.2755 402.341 26.7045 401.543 26.9024C400.745 27.1002 399.906 27.0579 399.132 26.7809C398.358 26.5039 397.684 26.0046 397.196 25.3462C396.707 24.6877 396.425 23.8996 396.386 23.0817C396.346 22.2637 396.552 21.4525 396.976 20.7507C397.399 20.0489 398.023 19.488 398.766 19.1389C399.51 18.7898 400.341 18.6683 401.155 18.7896C401.695 18.8697 402.214 19.0551 402.682 19.3352C403.15 19.6153 403.558 19.9846 403.883 20.4219C404.208 20.8592 404.443 21.356 404.575 21.8838C404.706 22.4117 404.732 22.9602 404.651 23.498Z" fill="url(#paint62_linear_1_1491)"/>
<path d="M399.854 24.9853C399.808 24.9587 399.767 24.9231 399.735 24.8805L398.35 23.0756C398.287 22.9828 398.261 22.8692 398.279 22.7582C398.297 22.6473 398.357 22.5473 398.446 22.4789C398.536 22.4105 398.648 22.3788 398.76 22.3905C398.873 22.4021 398.976 22.4562 399.05 22.5415L400.129 23.9476L402.373 21.7168C402.413 21.672 402.461 21.6358 402.516 21.6104C402.571 21.5851 402.63 21.5712 402.69 21.5695C402.75 21.5678 402.81 21.5784 402.866 21.6007C402.922 21.6229 402.973 21.6564 403.015 21.6989C403.058 21.7414 403.091 21.7921 403.113 21.848C403.135 21.9038 403.145 21.9635 403.143 22.0234C403.141 22.0834 403.127 22.1423 403.101 22.1965C403.076 22.2507 403.039 22.2991 402.994 22.3387L400.397 24.9245C400.353 24.968 400.299 25.0017 400.241 25.0232C400.182 25.0448 400.12 25.0538 400.058 25.0495C399.985 25.0464 399.915 25.0242 399.854 24.9853Z" fill="white"/>
<path d="M154.731 36.2239C154.61 37.0341 154.25 37.7902 153.697 38.3967C153.145 39.0032 152.424 39.4327 151.626 39.631C150.828 39.8294 149.988 39.7875 149.214 39.5108C148.44 39.2341 147.766 38.735 147.276 38.0766C146.787 37.4181 146.505 36.63 146.466 35.8118C146.426 34.9937 146.632 34.1823 147.055 33.4803C147.479 32.7783 148.102 32.2173 148.847 31.8681C149.591 31.519 150.422 31.3975 151.235 31.5189C151.775 31.5991 152.294 31.7844 152.762 32.0642C153.23 32.3441 153.638 32.7131 153.962 33.15C154.287 33.587 154.522 34.0833 154.654 34.6108C154.786 35.1382 154.812 35.6864 154.731 36.2239Z" fill="url(#paint63_linear_1_1491)"/>
<path d="M149.936 37.7145C149.889 37.6867 149.849 37.6499 149.817 37.6064L148.432 35.8014C148.396 35.7558 148.37 35.7037 148.355 35.648C148.34 35.5923 148.336 35.5341 148.344 35.4769C148.351 35.4197 148.37 35.3645 148.399 35.3146C148.428 35.2647 148.467 35.2211 148.513 35.1863C148.607 35.1154 148.724 35.0842 148.841 35.0994C148.957 35.1146 149.063 35.175 149.135 35.2674L150.211 36.6735L152.454 34.4426C152.495 34.4018 152.544 34.3694 152.597 34.3473C152.651 34.3252 152.708 34.3138 152.766 34.3138C152.824 34.3138 152.882 34.3252 152.935 34.3473C152.989 34.3694 153.038 34.4018 153.079 34.4426C153.12 34.4835 153.152 34.532 153.174 34.5853C153.197 34.6387 153.208 34.6959 153.208 34.7536C153.208 34.8114 153.197 34.8686 153.174 34.9219C153.152 34.9753 153.12 35.0237 153.079 35.0646L150.479 37.6503C150.434 37.6936 150.381 37.7273 150.322 37.7494C150.264 37.7715 150.202 37.7815 150.139 37.7787C150.067 37.7734 149.998 37.7514 149.936 37.7145Z" fill="white"/>
<path d="M293.891 45.0627C293.769 45.8726 293.409 46.6283 292.856 47.2342C292.303 47.8402 291.581 48.2692 290.783 48.4671C289.985 48.6649 289.146 48.6226 288.373 48.3456C287.599 48.0686 286.925 47.5693 286.436 46.9109C285.947 46.2524 285.665 45.4643 285.626 44.6464C285.587 43.8284 285.792 43.0172 286.216 42.3154C286.64 41.6136 287.263 41.0527 288.007 40.7036C288.751 40.3545 289.582 40.233 290.395 40.3543C290.935 40.4344 291.454 40.6198 291.922 40.8999C292.391 41.18 292.799 41.5493 293.123 41.9866C293.448 42.4239 293.683 42.9207 293.815 43.4485C293.946 43.9764 293.972 44.5249 293.891 45.0627Z" fill="url(#paint64_linear_1_1491)"/>
<path d="M289.094 46.5499C289.048 46.5233 289.007 46.4876 288.975 46.4451L287.59 44.6402C287.555 44.5946 287.528 44.5424 287.513 44.4867C287.498 44.431 287.494 44.3729 287.502 44.3156C287.509 44.2584 287.528 44.2033 287.557 44.1534C287.587 44.1035 287.625 44.0598 287.672 44.025C287.765 43.9542 287.883 43.9229 287.999 43.9381C288.115 43.9533 288.221 44.0137 288.293 44.1061L289.369 45.5088L291.612 43.2814C291.695 43.1989 291.807 43.1526 291.925 43.1526C292.042 43.1526 292.154 43.1989 292.237 43.2814C292.32 43.3639 292.366 43.4757 292.366 43.5924C292.366 43.709 292.32 43.8208 292.237 43.9033L289.637 46.489C289.592 46.5326 289.539 46.5663 289.481 46.5878C289.422 46.6094 289.36 46.6184 289.297 46.6141C289.225 46.6104 289.155 46.5883 289.094 46.5499Z" fill="white"/>
<path d="M351.046 146.873C350.925 147.683 350.565 148.439 350.012 149.046C349.459 149.652 348.738 150.082 347.94 150.28C347.142 150.478 346.303 150.437 345.529 150.16C344.755 149.883 344.08 149.384 343.591 148.726C343.102 148.067 342.82 147.279 342.78 146.461C342.741 145.643 342.946 144.831 343.37 144.129C343.794 143.427 344.417 142.866 345.161 142.517C345.905 142.168 346.736 142.047 347.55 142.168C348.64 142.331 349.62 142.918 350.276 143.8C350.931 144.682 351.208 145.787 351.046 146.873Z" fill="url(#paint65_linear_1_1491)"/>
<path d="M346.25 148.363C346.203 148.337 346.162 148.3 346.131 148.255L344.746 146.454C344.675 146.361 344.643 146.245 344.658 146.129C344.673 146.013 344.733 145.908 344.826 145.837C344.919 145.766 345.036 145.734 345.152 145.749C345.269 145.764 345.374 145.824 345.446 145.916L346.525 147.322L348.768 145.095C348.808 145.05 348.857 145.014 348.912 144.989C348.966 144.963 349.026 144.949 349.086 144.948C349.146 144.946 349.206 144.957 349.262 144.979C349.318 145.001 349.369 145.035 349.411 145.077C349.454 145.12 349.487 145.17 349.509 145.226C349.531 145.282 349.541 145.342 349.539 145.402C349.537 145.462 349.523 145.52 349.497 145.575C349.471 145.629 349.435 145.677 349.39 145.717L346.793 148.299C346.749 148.344 346.696 148.379 346.638 148.401C346.579 148.423 346.516 148.432 346.454 148.428C346.381 148.425 346.311 148.402 346.25 148.363Z" fill="white"/>
<path d="M370.657 69.7574H366.9V66.019C366.9 65.6264 366.743 65.2498 366.464 64.9722C366.185 64.6946 365.807 64.5386 365.413 64.5386C365.019 64.5386 364.64 64.6946 364.362 64.9722C364.083 65.2498 363.926 65.6264 363.926 66.019V69.7574H360.172C359.778 69.7574 359.4 69.9133 359.121 70.191C358.842 70.4686 358.686 70.8452 358.686 71.2378C358.686 71.6305 358.842 72.007 359.121 72.2847C359.4 72.5623 359.778 72.7183 360.172 72.7183H363.926V76.4566C363.926 76.8492 364.083 77.2258 364.362 77.5035C364.64 77.7811 365.019 77.9371 365.413 77.9371C365.807 77.9371 366.185 77.7811 366.464 77.5035C366.743 77.2258 366.9 76.8492 366.9 76.4566V72.7183H370.657C371.051 72.7183 371.429 72.5623 371.708 72.2847C371.987 72.007 372.144 71.6305 372.144 71.2378C372.144 70.8452 371.987 70.4686 371.708 70.191C371.429 69.9133 371.051 69.7574 370.657 69.7574Z" fill="url(#paint66_linear_1_1491)"/>
<path d="M220.193 99.0353H217.868V96.72C217.868 96.477 217.771 96.244 217.598 96.0723C217.426 95.9005 217.192 95.804 216.948 95.804C216.704 95.804 216.47 95.9005 216.297 96.0723C216.125 96.244 216.028 96.477 216.028 96.72V99.0353H213.703C213.459 99.0353 213.225 99.1318 213.053 99.3036C212.88 99.4754 212.783 99.7083 212.783 99.9513C212.783 100.194 212.88 100.427 213.053 100.599C213.225 100.771 213.459 100.867 213.703 100.867H216.028V103.183C216.028 103.426 216.125 103.659 216.297 103.83C216.47 104.002 216.704 104.099 216.948 104.099C217.192 104.099 217.426 104.002 217.598 103.83C217.771 103.659 217.868 103.426 217.868 103.183V100.881H220.193C220.437 100.881 220.671 100.784 220.843 100.612C221.016 100.441 221.113 100.208 221.113 99.9648C221.113 99.7218 221.016 99.4889 220.843 99.3171C220.671 99.1453 220.437 99.0488 220.193 99.0488V99.0353Z" fill="url(#paint67_linear_1_1491)"/>
<path d="M125.41 111.055H123.098V108.739C123.098 108.496 123.001 108.263 122.829 108.092C122.656 107.92 122.422 107.823 122.178 107.823C121.934 107.823 121.7 107.92 121.528 108.092C121.355 108.263 121.259 108.496 121.259 108.739V111.055H118.933C118.69 111.055 118.456 111.151 118.283 111.323C118.111 111.495 118.014 111.728 118.014 111.971C118.014 112.214 118.111 112.447 118.283 112.618C118.456 112.79 118.69 112.887 118.933 112.887H121.259V115.202C121.259 115.445 121.355 115.678 121.528 115.85C121.7 116.021 121.934 116.118 122.178 116.118C122.422 116.118 122.656 116.021 122.829 115.85C123.001 115.678 123.098 115.445 123.098 115.202V112.887H125.427C125.547 112.887 125.667 112.863 125.779 112.817C125.89 112.771 125.992 112.703 126.077 112.618C126.162 112.533 126.23 112.432 126.276 112.321C126.323 112.21 126.346 112.091 126.346 111.971C126.346 111.85 126.323 111.731 126.276 111.62C126.23 111.509 126.162 111.408 126.077 111.323C125.992 111.238 125.89 111.17 125.779 111.124C125.667 111.078 125.547 111.055 125.427 111.055H125.41Z" fill="url(#paint68_linear_1_1491)"/>
<path d="M207.765 3.23132H205.44V0.915988C205.44 0.673052 205.343 0.440066 205.171 0.268285C204.998 0.0965029 204.764 0 204.52 0C204.276 0 204.042 0.0965029 203.87 0.268285C203.697 0.440066 203.6 0.673052 203.6 0.915988V3.23132H201.275C201.031 3.23132 200.797 3.32782 200.625 3.4996C200.452 3.67139 200.355 3.90437 200.355 4.14731C200.355 4.39024 200.452 4.62323 200.625 4.79501C200.797 4.96679 201.031 5.0633 201.275 5.0633H203.6V7.37863C203.6 7.62156 203.697 7.85455 203.87 8.02633C204.042 8.19811 204.276 8.29461 204.52 8.29461C204.764 8.29461 204.998 8.19811 205.171 8.02633C205.343 7.85455 205.44 7.62156 205.44 7.37863V5.0633H207.765C208.009 5.0633 208.243 4.96679 208.415 4.79501C208.588 4.62323 208.685 4.39024 208.685 4.14731C208.685 3.90437 208.588 3.67139 208.415 3.4996C208.243 3.32782 208.009 3.23132 207.765 3.23132Z" fill="url(#paint69_linear_1_1491)"/>
<path d="M414.374 118.477H412.049V116.162C412.049 115.919 411.952 115.686 411.78 115.514C411.607 115.342 411.373 115.246 411.129 115.246C410.885 115.246 410.652 115.342 410.479 115.514C410.307 115.686 410.21 115.919 410.21 116.162V118.477H407.871C407.627 118.477 407.393 118.574 407.221 118.745C407.048 118.917 406.951 119.15 406.951 119.393C406.951 119.636 407.048 119.869 407.221 120.041C407.393 120.213 407.627 120.309 407.871 120.309H410.196V122.624C410.196 122.867 410.293 123.1 410.465 123.272C410.638 123.444 410.872 123.54 411.116 123.54C411.36 123.54 411.594 123.444 411.766 123.272C411.939 123.1 412.036 122.867 412.036 122.624V120.309H414.361C414.605 120.309 414.839 120.213 415.011 120.041C415.184 119.869 415.281 119.636 415.281 119.393C415.281 119.15 415.184 118.917 415.011 118.745C414.839 118.574 414.605 118.477 414.361 118.477H414.374Z" fill="url(#paint70_linear_1_1491)"/>
<path d="M39.8543 160.9H37.5259V158.585C37.5259 158.342 37.429 158.109 37.2565 157.937C37.084 157.765 36.8501 157.669 36.6061 157.669C36.3621 157.669 36.1282 157.765 35.9557 157.937C35.7832 158.109 35.6862 158.342 35.6862 158.585V160.9H33.3612C33.2404 160.9 33.1208 160.924 33.0092 160.97C32.8976 161.016 32.7962 161.083 32.7108 161.168C32.6254 161.253 32.5577 161.354 32.5114 161.466C32.4652 161.577 32.4414 161.696 32.4414 161.816C32.4414 161.936 32.4652 162.056 32.5114 162.167C32.5577 162.278 32.6254 162.379 32.7108 162.464C32.7962 162.549 32.8976 162.616 33.0092 162.662C33.1208 162.708 33.2404 162.732 33.3612 162.732H35.6862V165.047C35.6862 165.29 35.7832 165.523 35.9557 165.695C36.1282 165.867 36.3621 165.963 36.6061 165.963C36.8501 165.963 37.084 165.867 37.2565 165.695C37.429 165.523 37.5259 165.29 37.5259 165.047V162.736H39.8543C39.9751 162.736 40.0947 162.712 40.2063 162.666C40.3179 162.62 40.4193 162.552 40.5047 162.467C40.5902 162.382 40.6579 162.281 40.7041 162.17C40.7504 162.059 40.7741 161.94 40.7741 161.82C40.7741 161.699 40.7504 161.58 40.7041 161.469C40.6579 161.358 40.5902 161.257 40.5047 161.172C40.4193 161.087 40.3179 161.019 40.2063 160.973C40.0947 160.927 39.9751 160.904 39.8543 160.904V160.9Z" fill="url(#paint71_linear_1_1491)"/>
<path d="M52.6342 47.7736H50.3092V45.4481C50.3092 45.2052 50.2122 44.9722 50.0397 44.8004C49.8672 44.6286 49.6333 44.5321 49.3893 44.5321C49.1453 44.5321 48.9114 44.6286 48.7389 44.8004C48.5664 44.9722 48.4695 45.2052 48.4695 45.4481V47.7634H46.1445C45.9005 47.7634 45.6666 47.8599 45.494 48.0317C45.3215 48.2035 45.2246 48.4365 45.2246 48.6794C45.2246 48.9223 45.3215 49.1553 45.494 49.3271C45.6666 49.4989 45.9005 49.5954 46.1445 49.5954H48.4695V51.9107C48.4695 52.1537 48.5664 52.3867 48.7389 52.5584C48.9114 52.7302 49.1453 52.8267 49.3893 52.8267C49.6333 52.8267 49.8672 52.7302 50.0397 52.5584C50.2122 52.3867 50.3092 52.1537 50.3092 51.9107V49.6055H52.6342C52.8781 49.6055 53.1121 49.509 53.2846 49.3373C53.4571 49.1655 53.554 48.9325 53.554 48.6896C53.554 48.4466 53.4571 48.2136 53.2846 48.0418C53.1121 47.8701 52.8781 47.7736 52.6342 47.7736Z" fill="url(#paint72_linear_1_1491)"/>
</g>
<defs>
<linearGradient id="paint0_linear_1_1491" x1="254" y1="103" x2="254" y2="335" gradientUnits="userSpaceOnUse">
<stop stop-color="#E9EEF7"/>
<stop offset="1" stop-color="#E9EEF7" stop-opacity="0"/>
</linearGradient>
<linearGradient id="paint1_linear_1_1491" x1="199.352" y1="246.915" x2="214.506" y2="245.545" gradientUnits="userSpaceOnUse">
<stop stop-color="#FFD571"/>
<stop offset="0.25" stop-color="#FFBD60"/>
<stop offset="0.78" stop-color="#FF8035"/>
<stop offset="1" stop-color="#FF6421"/>
</linearGradient>
<linearGradient id="paint2_linear_1_1491" x1="219.231" y1="252.091" x2="234.375" y2="250.722" gradientUnits="userSpaceOnUse">
<stop stop-color="#FFD571"/>
<stop offset="0.25" stop-color="#FFBD60"/>
<stop offset="0.78" stop-color="#FF8035"/>
<stop offset="1" stop-color="#FF6421"/>
</linearGradient>
<linearGradient id="paint3_linear_1_1491" x1="227.864" y1="248.339" x2="234.116" y2="247.774" gradientUnits="userSpaceOnUse">
<stop stop-color="#77D8FC"/>
<stop offset="0.43" stop-color="#75C0EA"/>
<stop offset="1" stop-color="#719ACD"/>
</linearGradient>
<linearGradient id="paint4_linear_1_1491" x1="289.792" y1="119.663" x2="274.631" y2="121.033" gradientUnits="userSpaceOnUse">
<stop stop-color="#FFECDC"/>
<stop offset="0.24" stop-color="#F6DAC4"/>
<stop offset="0.74" stop-color="#E0AD87"/>
<stop offset="1" stop-color="#D39364"/>
</linearGradient>
<linearGradient id="paint5_linear_1_1491" x1="287.585" y1="129.183" x2="279.765" y2="129.89" gradientUnits="userSpaceOnUse">
<stop stop-color="#E3CBBA"/>
<stop offset="0.25" stop-color="#DBBAA2"/>
<stop offset="0.78" stop-color="#C88F65"/>
<stop offset="1" stop-color="#BF7C4A"/>
</linearGradient>
<linearGradient id="paint6_linear_1_1491" x1="289.328" y1="133.971" x2="280.537" y2="134.766" gradientUnits="userSpaceOnUse">
<stop stop-color="#F7F7F7"/>
<stop offset="1" stop-color="white"/>
</linearGradient>
<linearGradient id="paint7_linear_1_1491" x1="303.253" y1="151.379" x2="268.648" y2="154.506" gradientUnits="userSpaceOnUse">
<stop stop-color="#FFD571"/>
<stop offset="0.25" stop-color="#FFBD60"/>
<stop offset="0.78" stop-color="#FF8035"/>
<stop offset="1" stop-color="#FF6421"/>
</linearGradient>
<linearGradient id="paint8_linear_1_1491" x1="304.948" y1="151.281" x2="292.095" y2="152.443" gradientUnits="userSpaceOnUse">
<stop stop-color="#FFD571"/>
<stop offset="0.25" stop-color="#FFBD60"/>
<stop offset="0.78" stop-color="#FF8035"/>
<stop offset="1" stop-color="#FF6421"/>
</linearGradient>
<linearGradient id="paint9_linear_1_1491" x1="304.969" y1="172.331" x2="269.401" y2="175.545" gradientUnits="userSpaceOnUse">
<stop stop-color="#FFECDC"/>
<stop offset="0.24" stop-color="#F6DAC4"/>
<stop offset="0.74" stop-color="#E0AD87"/>
<stop offset="1" stop-color="#D39364"/>
</linearGradient>
<linearGradient id="paint10_linear_1_1491" x1="246.11" y1="184.184" x2="270.988" y2="181.936" gradientUnits="userSpaceOnUse">
<stop stop-color="#B7B4B1"/>
<stop offset="0.55" stop-color="#959390"/>
<stop offset="1" stop-color="#7D7B79"/>
</linearGradient>
<linearGradient id="paint11_linear_1_1491" x1="229.267" y1="175.795" x2="245.222" y2="174.353" gradientUnits="userSpaceOnUse">
<stop stop-color="#B7B4B1"/>
<stop offset="0.55" stop-color="#959390"/>
<stop offset="1" stop-color="#7D7B79"/>
</linearGradient>
<linearGradient id="paint12_linear_1_1491" x1="225.086" y1="217.604" x2="307.155" y2="210.187" gradientUnits="userSpaceOnUse">
<stop stop-color="#B7B4B1"/>
<stop offset="0.55" stop-color="#959390"/>
<stop offset="1" stop-color="#7D7B79"/>
</linearGradient>
<linearGradient id="paint13_linear_1_1491" x1="206.935" y1="220.311" x2="239.636" y2="217.356" gradientUnits="userSpaceOnUse">
<stop stop-color="#B7B4B1"/>
<stop offset="0.55" stop-color="#959390"/>
<stop offset="1" stop-color="#7D7B79"/>
</linearGradient>
<linearGradient id="paint14_linear_1_1491" x1="263.824" y1="180.566" x2="273.073" y2="179.73" gradientUnits="userSpaceOnUse">
<stop stop-color="#FFECDC"/>
<stop offset="0.24" stop-color="#F6DAC4"/>
<stop offset="0.74" stop-color="#E0AD87"/>
<stop offset="1" stop-color="#D39364"/>
</linearGradient>
<linearGradient id="paint15_linear_1_1491" x1="262.01" y1="176.691" x2="276.462" y2="175.384" gradientUnits="userSpaceOnUse">
<stop stop-color="#FFECDC"/>
<stop offset="0.24" stop-color="#F6DAC4"/>
<stop offset="0.74" stop-color="#E0AD87"/>
<stop offset="1" stop-color="#D39364"/>
</linearGradient>
<linearGradient id="paint16_linear_1_1491" x1="253.062" y1="180.811" x2="263.054" y2="179.908" gradientUnits="userSpaceOnUse">
<stop stop-color="#FFECDC"/>
<stop offset="0.24" stop-color="#F6DAC4"/>
<stop offset="0.74" stop-color="#E0AD87"/>
<stop offset="1" stop-color="#D39364"/>
</linearGradient>
<linearGradient id="paint17_linear_1_1491" x1="49.457" y1="248.866" x2="64.7683" y2="248.866" gradientUnits="userSpaceOnUse">
<stop stop-color="#FFD571"/>
<stop offset="0.25" stop-color="#FFBD60"/>
<stop offset="0.78" stop-color="#FF8035"/>
<stop offset="1" stop-color="#FF6421"/>
</linearGradient>
<linearGradient id="paint18_linear_1_1491" x1="92.5527" y1="248.866" x2="107.864" y2="248.866" gradientUnits="userSpaceOnUse">
<stop stop-color="#FFD571"/>
<stop offset="0.25" stop-color="#FFBD60"/>
<stop offset="0.78" stop-color="#FF8035"/>
<stop offset="1" stop-color="#FF6421"/>
</linearGradient>
<linearGradient id="paint19_linear_1_1491" x1="49.457" y1="192.253" x2="95.1768" y2="192.253" gradientUnits="userSpaceOnUse">
<stop stop-color="#808080"/>
<stop offset="0.64" stop-color="#52524D"/>
<stop offset="1" stop-color="#3C3C35"/>
</linearGradient>
<linearGradient id="paint20_linear_1_1491" x1="82.0409" y1="192.253" x2="99.6263" y2="192.253" gradientUnits="userSpaceOnUse">
<stop stop-color="#808080"/>
<stop offset="0.64" stop-color="#52524D"/>
<stop offset="1" stop-color="#3C3C35"/>
</linearGradient>
<linearGradient id="paint21_linear_1_1491" x1="92.4285" y1="55.7977" x2="100.568" y2="55.7977" gradientUnits="userSpaceOnUse">
<stop stop-color="#FFECDC"/>
<stop offset="0.24" stop-color="#F6DAC4"/>
<stop offset="0.74" stop-color="#E0AD87"/>
<stop offset="1" stop-color="#D39364"/>
</linearGradient>
<linearGradient id="paint22_linear_1_1491" x1="22.1953" y1="75.8178" x2="32.439" y2="75.8178" gradientUnits="userSpaceOnUse">
<stop stop-color="#FFECDC"/>
<stop offset="0.24" stop-color="#F6DAC4"/>
<stop offset="0.74" stop-color="#E0AD87"/>
<stop offset="1" stop-color="#D39364"/>
</linearGradient>
<linearGradient id="paint23_linear_1_1491" x1="67.7959" y1="92.0724" x2="74.014" y2="92.0724" gradientUnits="userSpaceOnUse">
<stop stop-color="#FFECDC"/>
<stop offset="0.24" stop-color="#F6DAC4"/>
<stop offset="0.74" stop-color="#E0AD87"/>
<stop offset="1" stop-color="#D39364"/>
</linearGradient>
<linearGradient id="paint24_linear_1_1491" x1="62.8946" y1="83.8723" x2="73.6102" y2="83.8723" gradientUnits="userSpaceOnUse">
<stop stop-color="#FFECDC"/>
<stop offset="0.24" stop-color="#F6DAC4"/>
<stop offset="0.74" stop-color="#E0AD87"/>
<stop offset="1" stop-color="#D39364"/>
</linearGradient>
<linearGradient id="paint25_linear_1_1491" x1="325.694" y1="252.851" x2="338.631" y2="358.095" gradientUnits="userSpaceOnUse">
<stop stop-color="#FFD571"/>
<stop offset="0.25" stop-color="#FFBD60"/>
<stop offset="0.78" stop-color="#FF8035"/>
<stop offset="1" stop-color="#FF6421"/>
</linearGradient>
<linearGradient id="paint26_linear_1_1491" x1="318.326" y1="254.47" x2="346.769" y2="254.47" gradientUnits="userSpaceOnUse">
<stop stop-color="#F7F7F7"/>
<stop offset="1" stop-color="white"/>
</linearGradient>
<linearGradient id="paint27_linear_1_1491" x1="306.823" y1="243.846" x2="323.199" y2="240.936" gradientUnits="userSpaceOnUse">
<stop stop-color="#FFD571"/>
<stop offset="0.25" stop-color="#FFBD60"/>
<stop offset="0.78" stop-color="#FF8035"/>
<stop offset="1" stop-color="#FF6421"/>
</linearGradient>
<linearGradient id="paint28_linear_1_1491" x1="357.936" y1="243.505" x2="341.702" y2="242.339" gradientUnits="userSpaceOnUse">
<stop stop-color="#FFD571"/>
<stop offset="0.25" stop-color="#FFBD60"/>
<stop offset="0.78" stop-color="#FF8035"/>
<stop offset="1" stop-color="#FF6421"/>
</linearGradient>
<linearGradient id="paint29_linear_1_1491" x1="331.984" y1="219.591" x2="333.707" y2="264.195" gradientUnits="userSpaceOnUse">
<stop stop-color="#FFD571"/>
<stop offset="0.25" stop-color="#FFBD60"/>
<stop offset="0.78" stop-color="#FF8035"/>
<stop offset="1" stop-color="#FF6421"/>
</linearGradient>
<linearGradient id="paint30_linear_1_1491" x1="302.821" y1="294.675" x2="329.771" y2="294.403" gradientUnits="userSpaceOnUse">
<stop stop-color="#FFC05B"/>
<stop offset="0.56" stop-color="#FFD980"/>
<stop offset="1" stop-color="#FFE999"/>
</linearGradient>
<linearGradient id="paint31_linear_1_1491" x1="345.671" y1="292.236" x2="351.527" y2="255.646" gradientUnits="userSpaceOnUse">
<stop stop-color="#F7F7F7"/>
<stop offset="1" stop-color="white"/>
</linearGradient>
<linearGradient id="paint32_linear_1_1491" x1="337.329" y1="294.352" x2="343.681" y2="254.664" gradientUnits="userSpaceOnUse">
<stop stop-color="#F7F7F7"/>
<stop offset="1" stop-color="white"/>
</linearGradient>
<linearGradient id="paint33_linear_1_1491" x1="441.813" y1="284.407" x2="442.577" y2="247.416" gradientUnits="userSpaceOnUse">
<stop stop-color="#30944C"/>
<stop offset="0.41" stop-color="#8ABB62"/>
<stop offset="0.82" stop-color="#DEDF77"/>
<stop offset="1" stop-color="#FFED7F"/>
</linearGradient>
<linearGradient id="paint34_linear_1_1491" x1="442.064" y1="279.621" x2="442.256" y2="232.662" gradientUnits="userSpaceOnUse">
<stop stop-color="#30944C"/>
<stop offset="0.41" stop-color="#8ABB62"/>
<stop offset="0.82" stop-color="#DEDF77"/>
<stop offset="1" stop-color="#FFED7F"/>
</linearGradient>
<linearGradient id="paint35_linear_1_1491" x1="463.435" y1="284.853" x2="464.199" y2="247.862" gradientUnits="userSpaceOnUse">
<stop stop-color="#30944C"/>
<stop offset="0.41" stop-color="#8ABB62"/>
<stop offset="0.82" stop-color="#DEDF77"/>
<stop offset="1" stop-color="#FFED7F"/>
</linearGradient>
<linearGradient id="paint36_linear_1_1491" x1="463.759" y1="279.709" x2="463.951" y2="232.75" gradientUnits="userSpaceOnUse">
<stop stop-color="#30944C"/>
<stop offset="0.41" stop-color="#8ABB62"/>
<stop offset="0.82" stop-color="#DEDF77"/>
<stop offset="1" stop-color="#FFED7F"/>
</linearGradient>
<linearGradient id="paint37_linear_1_1491" x1="443.679" y1="264.1" x2="444.443" y2="233.05" gradientUnits="userSpaceOnUse">
<stop stop-color="#30944C"/>
<stop offset="0.41" stop-color="#8ABB62"/>
<stop offset="0.82" stop-color="#DEDF77"/>
<stop offset="1" stop-color="#FFED7F"/>
</linearGradient>
<linearGradient id="paint38_linear_1_1491" x1="443.974" y1="258.914" x2="444.166" y2="223.265" gradientUnits="userSpaceOnUse">
<stop stop-color="#30944C"/>
<stop offset="0.41" stop-color="#8ABB62"/>
<stop offset="0.82" stop-color="#DEDF77"/>
<stop offset="1" stop-color="#FFED7F"/>
</linearGradient>
<linearGradient id="paint39_linear_1_1491" x1="461.475" y1="264.539" x2="462.239" y2="233.49" gradientUnits="userSpaceOnUse">
<stop stop-color="#30944C"/>
<stop offset="0.41" stop-color="#8ABB62"/>
<stop offset="0.82" stop-color="#DEDF77"/>
<stop offset="1" stop-color="#FFED7F"/>
</linearGradient>
<linearGradient id="paint40_linear_1_1491" x1="461.836" y1="259.012" x2="462.025" y2="223.36" gradientUnits="userSpaceOnUse">
<stop stop-color="#30944C"/>
<stop offset="0.41" stop-color="#8ABB62"/>
<stop offset="0.82" stop-color="#DEDF77"/>
<stop offset="1" stop-color="#FFED7F"/>
</linearGradient>
<linearGradient id="paint41_linear_1_1491" x1="446.473" y1="242.481" x2="446.473" y2="224.847" gradientUnits="userSpaceOnUse">
<stop stop-color="#30944C"/>
<stop offset="0.41" stop-color="#8ABB62"/>
<stop offset="0.82" stop-color="#DEDF77"/>
<stop offset="1" stop-color="#FFED7F"/>
</linearGradient>
<linearGradient id="paint42_linear_1_1491" x1="446.402" y1="239.929" x2="446.593" y2="216.546" gradientUnits="userSpaceOnUse">
<stop stop-color="#30944C"/>
<stop offset="0.41" stop-color="#8ABB62"/>
<stop offset="0.82" stop-color="#DEDF77"/>
<stop offset="1" stop-color="#FFED7F"/>
</linearGradient>
<linearGradient id="paint43_linear_1_1491" x1="459.437" y1="242.481" x2="459.437" y2="224.847" gradientUnits="userSpaceOnUse">
<stop stop-color="#30944C"/>
<stop offset="0.41" stop-color="#8ABB62"/>
<stop offset="0.82" stop-color="#DEDF77"/>
<stop offset="1" stop-color="#FFED7F"/>
</linearGradient>
<linearGradient id="paint44_linear_1_1491" x1="459.403" y1="240.037" x2="459.591" y2="216.65" gradientUnits="userSpaceOnUse">
<stop stop-color="#30944C"/>
<stop offset="0.41" stop-color="#8ABB62"/>
<stop offset="0.82" stop-color="#DEDF77"/>
<stop offset="1" stop-color="#FFED7F"/>
</linearGradient>
<linearGradient id="paint45_linear_1_1491" x1="451.869" y1="258.157" x2="454.038" y2="258.157" gradientUnits="userSpaceOnUse">
<stop stop-color="#808080"/>
<stop offset="0.64" stop-color="#52524D"/>
<stop offset="1" stop-color="#3C3C35"/>
</linearGradient>
<linearGradient id="paint46_linear_1_1491" x1="448.517" y1="229.566" x2="448.897" y2="215.001" gradientUnits="userSpaceOnUse">
<stop stop-color="#30944C"/>
<stop offset="0.41" stop-color="#8ABB62"/>
<stop offset="0.82" stop-color="#DEDF77"/>
<stop offset="1" stop-color="#FFED7F"/>
</linearGradient>
<linearGradient id="paint47_linear_1_1491" x1="448.653" y1="227.098" x2="448.845" y2="210.614" gradientUnits="userSpaceOnUse">
<stop stop-color="#30944C"/>
<stop offset="0.41" stop-color="#8ABB62"/>
<stop offset="0.82" stop-color="#DEDF77"/>
<stop offset="1" stop-color="#FFED7F"/>
</linearGradient>
<linearGradient id="paint48_linear_1_1491" x1="456.939" y1="230.725" x2="457.319" y2="216.157" gradientUnits="userSpaceOnUse">
<stop stop-color="#30944C"/>
<stop offset="0.41" stop-color="#8ABB62"/>
<stop offset="0.82" stop-color="#DEDF77"/>
<stop offset="1" stop-color="#FFED7F"/>
</linearGradient>
<linearGradient id="paint49_linear_1_1491" x1="456.707" y1="228.058" x2="457.663" y2="216.366" gradientUnits="userSpaceOnUse">
<stop stop-color="#44A552"/>
<stop offset="0.43" stop-color="#59BD62"/>
<stop offset="1" stop-color="#79E27A"/>
</linearGradient>
<linearGradient id="paint50_linear_1_1491" x1="428.142" y1="304.221" x2="480.107" y2="304.221" gradientUnits="userSpaceOnUse">
<stop stop-color="#808080"/>
<stop offset="0.64" stop-color="#52524D"/>
<stop offset="1" stop-color="#3C3C35"/>
</linearGradient>
<linearGradient id="paint51_linear_1_1491" x1="433.555" y1="288.037" x2="472.354" y2="288.037" gradientUnits="userSpaceOnUse">
<stop stop-color="#808080"/>
<stop offset="0.64" stop-color="#52524D"/>
<stop offset="1" stop-color="#3C3C35"/>
</linearGradient>
<linearGradient id="paint52_linear_1_1491" x1="289.803" y1="278.454" x2="277.109" y2="342.963" gradientUnits="userSpaceOnUse">
<stop stop-color="white"/>
<stop offset="0.37" stop-color="#F2F2FF"/>
<stop offset="1" stop-color="#D2D2FF"/>
</linearGradient>
<linearGradient id="paint53_linear_1_1491" x1="286.112" y1="297.047" x2="306.21" y2="307.075" gradientUnits="userSpaceOnUse">
<stop stop-color="#F5F5F5"/>
<stop offset="0.41" stop-color="#DDDDDD"/>
<stop offset="1" stop-color="#B3B3B3"/>
</linearGradient>
<linearGradient id="paint54_linear_1_1491" x1="277.294" y1="282.977" x2="292.03" y2="310.834" gradientUnits="userSpaceOnUse">
<stop stop-color="#F75757"/>
<stop offset="1" stop-color="#CC1212"/>
</linearGradient>
<linearGradient id="paint55_linear_1_1491" x1="283.176" y1="295.017" x2="285.286" y2="299.003" gradientUnits="userSpaceOnUse">
<stop stop-color="#F75757"/>
<stop offset="1" stop-color="#CC1212"/>
</linearGradient>
<linearGradient id="paint56_linear_1_1491" x1="275.067" y1="276.387" x2="296.591" y2="317.072" gradientUnits="userSpaceOnUse">
<stop stop-color="#F75757"/>
<stop offset="1" stop-color="#CC1212"/>
</linearGradient>
<linearGradient id="paint57_linear_1_1491" x1="247.876" y1="278.384" x2="255.964" y2="279.196" gradientUnits="userSpaceOnUse">
<stop stop-color="#FFD571"/>
<stop offset="0.25" stop-color="#FFBD60"/>
<stop offset="0.78" stop-color="#FF8035"/>
<stop offset="1" stop-color="#FF6421"/>
</linearGradient>
<linearGradient id="paint58_linear_1_1491" x1="245.194" y1="282.053" x2="254.646" y2="283.002" gradientUnits="userSpaceOnUse">
<stop stop-color="#FFD571"/>
<stop offset="0.25" stop-color="#FFBD60"/>
<stop offset="0.78" stop-color="#FF8035"/>
<stop offset="1" stop-color="#FF6421"/>
</linearGradient>
<linearGradient id="paint59_linear_1_1491" x1="247.949" y1="287.178" x2="287.437" y2="291.143" gradientUnits="userSpaceOnUse">
<stop stop-color="#808080"/>
<stop offset="0.64" stop-color="#52524D"/>
<stop offset="1" stop-color="#3C3C35"/>
</linearGradient>
<linearGradient id="paint60_linear_1_1491" x1="163.149" y1="171.814" x2="177.652" y2="171.814" gradientUnits="userSpaceOnUse">
<stop stop-color="#BE73DE"/>
<stop offset="1" stop-color="#514EB7"/>
</linearGradient>
<linearGradient id="paint61_linear_1_1491" x1="449.986" y1="176.665" x2="458.302" y2="176.665" gradientUnits="userSpaceOnUse">
<stop stop-color="#BE73DE"/>
<stop offset="1" stop-color="#514EB7"/>
</linearGradient>
<linearGradient id="paint62_linear_1_1491" x1="396.382" y1="22.8862" x2="404.698" y2="22.8862" gradientUnits="userSpaceOnUse">
<stop stop-color="#BE73DE"/>
<stop offset="1" stop-color="#514EB7"/>
</linearGradient>
<linearGradient id="paint63_linear_1_1491" x1="146.463" y1="35.6121" x2="154.779" y2="35.6121" gradientUnits="userSpaceOnUse">
<stop stop-color="#BE73DE"/>
<stop offset="1" stop-color="#514EB7"/>
</linearGradient>
<linearGradient id="paint64_linear_1_1491" x1="285.623" y1="44.4509" x2="293.939" y2="44.4509" gradientUnits="userSpaceOnUse">
<stop stop-color="#BE73DE"/>
<stop offset="1" stop-color="#514EB7"/>
</linearGradient>
<linearGradient id="paint65_linear_1_1491" x1="342.778" y1="146.261" x2="351.093" y2="146.261" gradientUnits="userSpaceOnUse">
<stop stop-color="#BE73DE"/>
<stop offset="1" stop-color="#514EB7"/>
</linearGradient>
<linearGradient id="paint66_linear_1_1491" x1="358.879" y1="77.6937" x2="370.703" y2="65.9121" gradientUnits="userSpaceOnUse">
<stop stop-color="#FFD571"/>
<stop offset="0.25" stop-color="#FFBD60"/>
<stop offset="0.78" stop-color="#FF8035"/>
<stop offset="1" stop-color="#FF6421"/>
</linearGradient>
<linearGradient id="paint67_linear_1_1491" x1="212.902" y1="103.946" x2="220.223" y2="96.6522" gradientUnits="userSpaceOnUse">
<stop stop-color="#FFD571"/>
<stop offset="0.25" stop-color="#FFBD60"/>
<stop offset="0.78" stop-color="#FF8035"/>
<stop offset="1" stop-color="#FF6421"/>
</linearGradient>
<linearGradient id="paint68_linear_1_1491" x1="118.119" y1="115.966" x2="125.437" y2="108.672" gradientUnits="userSpaceOnUse">
<stop stop-color="#FFD571"/>
<stop offset="0.25" stop-color="#FFBD60"/>
<stop offset="0.78" stop-color="#FF8035"/>
<stop offset="1" stop-color="#FF6421"/>
</linearGradient>
<linearGradient id="paint69_linear_1_1491" x1="200.478" y1="8.14251" x2="207.796" y2="0.85158" gradientUnits="userSpaceOnUse">
<stop stop-color="#FFD571"/>
<stop offset="0.25" stop-color="#FFBD60"/>
<stop offset="0.78" stop-color="#FF8035"/>
<stop offset="1" stop-color="#FF6421"/>
</linearGradient>
<linearGradient id="paint70_linear_1_1491" x1="407.087" y1="123.392" x2="414.405" y2="116.097" gradientUnits="userSpaceOnUse">
<stop stop-color="#FFD571"/>
<stop offset="0.25" stop-color="#FFBD60"/>
<stop offset="0.78" stop-color="#FF8035"/>
<stop offset="1" stop-color="#FF6421"/>
</linearGradient>
<linearGradient id="paint71_linear_1_1491" x1="32.5636" y1="165.811" x2="39.8815" y2="158.517" gradientUnits="userSpaceOnUse">
<stop stop-color="#FFD571"/>
<stop offset="0.25" stop-color="#FFBD60"/>
<stop offset="0.78" stop-color="#FF8035"/>
<stop offset="1" stop-color="#FF6421"/>
</linearGradient>
<linearGradient id="paint72_linear_1_1491" x1="45.3434" y1="52.6881" x2="52.6648" y2="45.3938" gradientUnits="userSpaceOnUse">
<stop stop-color="#FFD571"/>
<stop offset="0.25" stop-color="#FFBD60"/>
<stop offset="0.78" stop-color="#FF8035"/>
<stop offset="1" stop-color="#FF6421"/>
</linearGradient>
<clipPath id="clip0_1_1491">
<rect width="508" height="338.667" fill="white"/>
</clipPath>
</defs>
</svg>
